<svg width="34" height="28" viewBox="0 0 34 28" fill="none" xmlns="http://www.w3.org/2000/svg">
<path d="M30.4415 1.12125C30.4415 1.12125 33.4392 -0.0477301 33.1884 2.791C33.1058 3.95999 32.3566 8.05181 31.7733 12.477L29.7748 25.5865C29.7748 25.5865 29.6081 27.5071 28.1089 27.8412C26.6105 28.1745 24.362 26.6722 23.9453 26.3381C23.612 26.0873 17.7 22.3296 15.6182 20.4932C15.0348 19.9916 14.3682 18.9901 15.7015 17.8211L24.4446 9.47079C25.4438 8.46925 26.443 6.13128 22.2794 8.97002L10.6205 16.9021C10.6205 16.9021 9.28792 17.7378 6.79024 16.9862L1.37666 15.3157C1.37666 15.3157 -0.621801 14.0634 2.79255 12.8111C11.1205 8.88668 21.3635 4.87897 30.4399 1.12125H30.4415Z" fill="white"/>
</svg>
