<svg width="34" height="27" viewBox="0 0 34 27" fill="none" xmlns="http://www.w3.org/2000/svg">
<path d="M33.1419 3.74072C31.9536 4.28084 30.6727 4.63578 29.3456 4.80553C30.7036 3.98763 31.753 2.69133 32.2468 1.13269C30.9659 1.9043 29.5462 2.44442 28.0493 2.75306C26.8301 1.4259 25.1172 0.654297 23.1727 0.654297C19.5462 0.654297 16.5832 3.61726 16.5832 7.27467C16.5832 7.79936 16.6449 8.30862 16.753 8.78701C11.2591 8.50924 6.36717 5.87035 3.111 1.87343C2.54001 2.84565 2.21594 3.98763 2.21594 5.19133C2.21594 7.49072 3.37334 9.52775 5.16347 10.6852C4.06779 10.6852 3.04927 10.3765 2.15421 9.91356V9.95985C2.15421 13.1697 4.43816 15.8549 7.46285 16.4568C6.49175 16.7225 5.47226 16.7595 4.48445 16.5648C4.9036 17.8803 5.72448 19.0315 6.8317 19.8564C7.93892 20.6812 9.27681 21.1384 10.6573 21.1636C8.31722 23.0161 5.41655 24.0174 2.43198 24.0031C1.90729 24.0031 1.3826 23.9722 0.85791 23.9105C3.79001 25.7932 7.27766 26.8889 11.0122 26.8889C23.1727 26.8889 29.8548 16.7963 29.8548 8.04627C29.8548 7.75306 29.8548 7.47528 29.8394 7.18207C31.1357 6.25615 32.2468 5.08331 33.1419 3.74072Z" fill="white"/>
</svg>
