<svg width="387" height="28" viewBox="0 0 387 28" fill="none" xmlns="http://www.w3.org/2000/svg">
<g clip-path="url(#clip0_11380_15752)">
<path d="M26.5487 19.8442C26.4076 19.503 26.2752 19.1442 26.134 18.838L25.4811 17.3767L25.4546 17.3505C23.5134 13.1505 21.4399 8.88047 19.2429 4.68047L19.1546 4.50547C18.934 4.09422 18.7134 3.63922 18.484 3.21922C18.2017 2.72047 17.9282 2.18672 17.4782 1.67922C17.0395 1.14821 16.4875 0.720384 15.8619 0.426617C15.2363 0.13285 14.5527 -0.0195312 13.8605 -0.0195312C13.1683 -0.0195312 12.4847 0.13285 11.8591 0.426617C11.2335 0.720384 10.6815 1.14821 10.2429 1.67922C9.82815 2.18672 9.51933 2.72047 9.23698 3.21922C9.01639 3.67422 8.7958 4.12047 8.56639 4.53172L8.47815 4.70672C6.31639 8.90672 4.20757 13.1767 2.26639 17.3767L2.21345 17.4292C2.01933 17.8842 1.78992 18.3567 1.56933 18.8642C1.42815 19.1705 1.28698 19.503 1.1458 19.8705C0.764654 20.8328 0.642942 21.877 0.79266 22.9001C0.942378 23.9233 1.35836 24.8901 1.99961 25.7053C2.64085 26.5205 3.48523 27.1559 4.44953 27.549C5.41383 27.942 6.46475 28.0791 7.49874 27.9467C8.49004 27.8173 9.44457 27.4899 10.3046 26.9842C11.4517 26.3455 12.5546 25.418 13.7899 24.0792C15.0252 25.418 16.1546 26.3455 17.2752 26.993C18.3528 27.6202 19.5732 27.9664 20.8223 27.9992C22.2688 28.0052 23.6686 27.492 24.7633 26.5543C25.858 25.6167 26.5737 24.318 26.7782 22.898C27.0145 21.8775 26.9345 20.8101 26.5487 19.8355V19.8442ZM13.8782 21.2967C12.3605 19.3717 11.3723 17.6042 11.037 16.0905C10.8981 15.5295 10.8681 14.9475 10.9487 14.3755C11.0105 13.9292 11.1782 13.5355 11.4076 13.203C11.937 12.4417 12.8634 11.9692 13.8782 11.9692C14.36 11.9546 14.838 12.0589 15.2692 12.2727C15.7005 12.4865 16.0714 12.8032 16.3487 13.1942C16.5782 13.5442 16.7458 13.9292 16.7987 14.3755C16.887 14.883 16.8517 15.4692 16.7105 16.0905C16.3752 17.578 15.387 19.363 13.8782 21.2967ZM25.1193 22.5917C25.0191 23.3127 24.7301 23.995 24.2811 24.5707C23.8322 25.1464 23.2389 25.5954 22.5605 25.873C21.8899 26.153 21.1487 26.2317 20.4252 26.153C19.7193 26.0655 19.0134 25.838 18.2899 25.418C17.0886 24.6817 16.0084 23.7668 15.087 22.7055C16.9399 20.4305 18.0605 18.3567 18.484 16.5105C18.687 15.6355 18.7134 14.848 18.6252 14.1217C18.515 13.4333 18.2562 12.7767 17.8664 12.1967C17.4213 11.5678 16.8273 11.057 16.1365 10.7091C15.4457 10.3613 14.6793 10.187 13.9046 10.2017C12.2723 10.2017 10.8164 10.9542 9.93404 12.188C9.53684 12.7665 9.28013 13.4284 9.18404 14.1217C9.06933 14.8567 9.0958 15.6705 9.32521 16.5105C9.74874 18.3567 10.8958 20.4567 12.7223 22.723C11.8165 23.8046 10.7338 24.7275 9.51933 25.453C8.78698 25.873 8.08992 26.0917 7.38404 26.1792C6.28629 26.3187 5.1774 26.0228 4.29841 25.3559C3.41942 24.6891 2.84138 23.7051 2.68992 22.618C2.60168 21.918 2.66345 21.218 2.9458 20.4305C3.03404 20.1505 3.16639 19.8705 3.30757 19.538C3.50168 19.083 3.7311 18.6105 3.95168 18.138L3.98698 18.0767C5.89286 13.903 7.97521 9.64172 10.137 5.46797L10.2252 5.29297C10.4458 4.87297 10.6664 4.42672 10.8958 4.00672C11.1252 3.56047 11.3723 3.13172 11.6899 2.78172C11.9649 2.45624 12.3084 2.19448 12.6964 2.01488C13.0844 1.83528 13.5073 1.74221 13.9355 1.74221C14.3637 1.74221 14.7866 1.83528 15.1746 2.01488C15.5626 2.19448 15.9061 2.45624 16.1811 2.78172C16.4899 3.13172 16.7458 3.56047 16.9752 4.00672C17.1958 4.42672 17.4164 4.88172 17.6458 5.29297L17.734 5.46797C19.887 9.64172 21.9693 13.903 23.9105 18.0767L23.937 18.103C24.1664 18.558 24.3605 19.0655 24.5811 19.503C24.7223 19.8442 24.8634 20.1155 24.9517 20.4042C25.1193 21.1917 25.2076 21.8917 25.1193 22.5917V22.5917ZM37.4017 21.1042C36.7368 21.1139 36.0782 20.9749 35.4749 20.6977C34.8715 20.4205 34.3389 20.0122 33.9164 19.503C32.967 18.4179 32.4632 17.0189 32.5046 15.583C32.4901 14.1158 33.0102 12.6927 33.9693 11.5755C34.413 11.0598 34.9652 10.6468 35.5872 10.3656C36.2092 10.0844 36.8858 9.94184 37.5693 9.94797C38.2125 9.93051 38.8496 10.0755 39.4207 10.3694C39.9918 10.6633 40.4782 11.0964 40.834 11.628L40.9223 10.2542H43.4987V20.8242H40.9134L40.8252 19.2842C40.4583 19.8518 39.9512 20.3169 39.352 20.6355C38.7528 20.954 38.0814 21.1154 37.4017 21.1042V21.1042ZM38.0723 18.5842C38.584 18.5842 39.034 18.4442 39.4576 18.1905C39.8458 17.9105 40.1634 17.543 40.4105 17.0967C40.6311 16.6505 40.7458 16.1167 40.7458 15.5217C40.7802 15.0049 40.6788 14.4882 40.4514 14.0219C40.2241 13.5556 39.8786 13.1559 39.4487 12.8617C39.0357 12.6065 38.5589 12.4713 38.0723 12.4713C37.5857 12.4713 37.1088 12.6065 36.6958 12.8617C36.3076 13.1417 35.9899 13.5092 35.7429 13.9555C35.5095 14.4476 35.3947 14.9868 35.4076 15.5305C35.3732 16.0472 35.4746 16.564 35.702 17.0303C35.9293 17.4965 36.2748 17.8963 36.7046 18.1905C37.1193 18.4442 37.5693 18.5842 38.0723 18.5842ZM47.9105 7.40172C47.9105 7.70797 47.8576 7.98797 47.7164 8.21547C47.5752 8.43422 47.3811 8.63547 47.1252 8.77547C46.8693 8.91547 46.5958 8.96797 46.3134 8.96797C46.0311 8.96797 45.7487 8.91547 45.4929 8.77547C45.2509 8.64187 45.0473 8.44909 44.9017 8.21547C44.765 7.96621 44.698 7.68527 44.7076 7.40172C44.7076 7.08672 44.7693 6.80672 44.9017 6.58797C45.0429 6.32547 45.2458 6.16797 45.4929 6.02797C45.7487 5.88797 46.0223 5.82672 46.3134 5.82672C46.5943 5.8203 46.872 5.88627 47.1195 6.01816C47.367 6.15006 47.5757 6.34338 47.7252 6.57922C47.8536 6.83432 47.9172 7.11668 47.9105 7.40172V7.40172ZM44.9105 20.7892V10.2367H47.7164V20.8067H44.9017L44.9105 20.7892ZM55.2164 13.0017V13.0367C55.084 12.9755 54.9076 12.9492 54.7752 12.923C54.5987 12.888 54.4576 12.888 54.2899 12.888C53.5046 12.888 52.9134 13.1155 52.5252 13.588C52.1017 14.0692 51.9076 14.743 51.9076 15.6092V20.798H49.0929V10.228H51.6782L51.7664 11.8292C52.0487 11.2692 52.384 10.8492 52.8605 10.5342C53.3344 10.2282 53.8924 10.0753 54.4576 10.0967C54.6605 10.0967 54.8546 10.1142 55.0223 10.1492C55.1105 10.1755 55.1634 10.1755 55.2164 10.2017V13.0017V13.0017ZM56.3458 20.7892V5.89672H59.1517V11.5842C59.5487 11.0767 59.9987 10.683 60.5634 10.3767C61.4574 9.94205 62.473 9.81875 63.4464 10.0267C64.4197 10.2347 65.294 10.7618 65.9282 11.523C66.8796 12.6102 67.3836 14.0128 67.3399 15.4517C67.3544 16.9189 66.8343 18.342 65.8752 19.4592C65.4316 19.9749 64.8793 20.3879 64.2573 20.6691C63.6353 20.9503 62.9588 21.0928 62.2752 21.0867C61.632 21.1042 60.9949 20.9591 60.4238 20.6653C59.8527 20.3714 59.3664 19.9383 59.0105 19.4067L58.9223 20.7805L56.3458 20.8067V20.7892ZM61.7723 18.5842C62.2752 18.5842 62.7252 18.4442 63.1487 18.1905C63.537 17.9105 63.8546 17.543 64.1017 17.0967C64.3311 16.6505 64.437 16.1167 64.437 15.5217C64.437 14.9355 64.3311 14.4017 64.1017 13.9555C63.87 13.5252 63.5444 13.1515 63.1487 12.8617C62.7357 12.6065 62.2589 12.4713 61.7723 12.4713C61.2857 12.4713 60.8088 12.6065 60.3958 12.8617C59.9987 13.1417 59.6899 13.5092 59.434 13.9555C59.2007 14.4476 59.0859 14.9868 59.0987 15.5305C59.0643 16.0472 59.1658 16.564 59.3931 17.0303C59.6205 17.4965 59.966 17.8963 60.3958 18.1905C60.8105 18.4442 61.2605 18.5842 61.7723 18.5842ZM68.3987 20.798V10.228H70.984L71.0723 11.6017C71.3972 11.0751 71.858 10.6442 72.4072 10.3534C72.9563 10.0627 73.5738 9.9227 74.1958 9.94797C74.9071 9.93579 75.6062 10.1318 76.2057 10.5116C76.8052 10.8913 77.2785 11.4379 77.5664 12.083C77.8752 12.748 78.0429 13.5705 78.0429 14.4892V20.8242H75.2282V14.8567C75.2282 14.1217 75.0605 13.5442 74.7252 13.1155C74.3899 12.6955 73.9311 12.468 73.3487 12.468C72.9252 12.468 72.5546 12.5555 72.2282 12.748C71.9193 12.9492 71.6634 13.203 71.4693 13.5617C71.2731 13.9244 71.1757 14.3316 71.187 14.743V20.798H68.3987V20.798ZM79.4458 20.798V5.88797H82.2605V11.5755C82.6418 11.0651 83.1377 10.65 83.709 10.3629C84.2803 10.0758 84.9112 9.92477 85.5517 9.92172C86.2166 9.91207 86.8751 10.051 87.4785 10.3282C88.0818 10.6054 88.6145 11.0138 89.037 11.523C89.9816 12.6102 90.4821 14.0085 90.4399 15.443C90.4552 16.9103 89.935 18.3336 88.9752 19.4505C88.5316 19.9662 87.9793 20.3792 87.3573 20.6604C86.7353 20.9415 86.0588 21.0841 85.3752 21.078C84.732 21.0954 84.0949 20.9504 83.5238 20.6565C82.9527 20.3626 82.4664 19.9295 82.1105 19.398L82.0311 20.7717L79.4458 20.798V20.798ZM84.8987 18.5842C85.4105 18.5842 85.8605 18.4442 86.2752 18.1905C86.6723 17.9105 86.9811 17.543 87.237 17.0967C87.4576 16.6505 87.5723 16.1167 87.5723 15.5217C87.6067 15.0049 87.5052 14.4882 87.2779 14.0219C87.0505 13.5556 86.705 13.1559 86.2752 12.8617C85.8622 12.6065 85.3853 12.4713 84.8987 12.4713C84.4121 12.4713 83.9353 12.6065 83.5223 12.8617C83.134 13.1417 82.8164 13.5092 82.5693 13.9555C82.323 14.4432 82.2076 14.9856 82.234 15.5305C82.1996 16.0472 82.3011 16.564 82.5284 17.0303C82.7558 17.4965 83.1013 17.8963 83.5311 18.1905C83.9458 18.4442 84.3693 18.5842 84.8987 18.5842Z" fill="white"/>
</g>
<g clip-path="url(#clip1_11380_15752)">
<path d="M163.847 5.97266V12.7424H157.678V5.97266H154.75V22.1327H157.678V15.5828H163.847V22.1327H166.775V5.97266H163.847Z" fill="white"/>
<path d="M176.147 16.9099C176.147 17.5575 175.891 18.1786 175.437 18.6366C174.983 19.0946 174.366 19.3518 173.724 19.3518C173.081 19.3518 172.465 19.0946 172.011 18.6366C171.556 18.1786 171.301 17.5575 171.301 16.9099V9.98828H168.523V16.9099C168.523 18.2988 169.071 19.6308 170.045 20.6128C171.019 21.5949 172.341 22.1466 173.719 22.1466C175.097 22.1466 176.418 21.5949 177.393 20.6128C178.367 19.6308 178.914 18.2988 178.914 16.9099V9.98828H176.147V16.9099Z" fill="white"/>
<path d="M196.728 10.7003C196.728 9.28161 197.659 8.83183 198.679 8.83183C199.501 8.83183 200.587 9.46238 201.298 10.2274L203.117 8.06678C202.209 6.82882 200.366 5.97266 198.858 5.97266C195.845 5.97266 193.666 7.75151 193.666 10.7003C193.666 16.1714 200.3 14.4359 200.3 17.4976C200.3 18.442 199.391 19.2764 198.349 19.2764C196.706 19.2764 196.174 18.4665 195.419 17.6104L193.4 19.7262C194.692 21.3243 196.284 22.1356 198.193 22.1356C201.055 22.1356 203.358 20.3351 203.358 17.5207C203.358 11.4466 196.723 13.3339 196.723 10.7003" fill="white"/>
<path d="M237.772 19.5522C236.131 19.5522 235.664 18.8363 235.664 17.7401V12.888H238.215V10.4294H235.664V7.18555L232.848 8.45967V18.3431C232.848 20.8711 234.578 22.1452 236.951 22.1452C237.323 22.1521 237.695 22.122 238.062 22.0556L238.749 19.5059C238.439 19.5276 238.083 19.5493 237.772 19.5493" fill="white"/>
<path d="M186.72 10.0691C185.344 10.0691 184.384 10.4712 183.456 11.3895V6.07031H180.674V15.9292C180.674 19.6199 183.321 22.1479 186.295 22.1479C189.596 22.1479 192.498 19.5751 192.498 16.11C192.498 12.6882 189.827 10.0706 186.72 10.0706V10.0691ZM186.703 19.3264C186.079 19.3264 185.468 19.1398 184.949 18.7901C184.43 18.4405 184.026 17.9436 183.787 17.3622C183.548 16.7809 183.485 16.1411 183.607 15.524C183.729 14.9068 184.029 14.3398 184.471 13.8949C184.912 13.4499 185.475 13.1469 186.087 13.0241C186.699 12.9014 187.334 12.9644 187.911 13.2052C188.488 13.446 188.981 13.8538 189.328 14.377C189.674 14.9002 189.86 15.5154 189.86 16.1447C189.86 16.9885 189.527 17.7978 188.935 18.3945C188.343 18.9911 187.54 19.3264 186.703 19.3264Z" fill="white"/>
<path d="M216.93 15.9618C216.93 12.4909 214.033 9.92383 210.727 9.92383C207.753 9.92383 205.105 12.4518 205.105 16.1426V26.0072H207.888V20.6808C208.814 21.5977 209.776 22.0012 211.15 22.0012C214.257 22.0012 216.928 19.385 216.928 15.9618H216.93ZM214.295 15.9271C214.295 16.5564 214.11 17.1715 213.763 17.6947C213.417 18.2179 212.924 18.6258 212.347 18.8666C211.77 19.1074 211.135 19.1704 210.523 19.0476C209.911 18.9249 209.348 18.6218 208.907 18.1769C208.465 17.7319 208.165 17.165 208.043 16.5478C207.921 15.9306 207.984 15.2909 208.223 14.7095C208.461 14.1281 208.866 13.6312 209.385 13.2816C209.904 12.932 210.515 12.7454 211.139 12.7454C211.976 12.7454 212.779 13.0806 213.371 13.6773C213.963 14.274 214.295 15.0832 214.295 15.9271Z" fill="white"/>
<path d="M225.917 9.78738V6.97015C226.286 6.79618 226.599 6.52005 226.818 6.1739C227.038 5.82774 227.156 5.4258 227.158 5.01486V4.94978C227.158 4.37444 226.931 3.82266 226.527 3.41583C226.124 3.009 225.576 2.78045 225.006 2.78045H224.941C224.37 2.78045 223.823 3.009 223.419 3.41583C223.015 3.82266 222.789 4.37444 222.789 4.94978V5.01486C222.791 5.4258 222.908 5.82774 223.128 6.1739C223.348 6.52005 223.66 6.79618 224.03 6.97015V9.78738C222.968 9.95108 221.968 10.3946 221.132 11.0731L213.467 5.05535C213.521 4.85691 213.55 4.65231 213.553 4.44649C213.554 3.96303 213.412 3.49018 213.146 3.08774C212.881 2.6853 212.502 2.37136 212.06 2.18562C211.617 1.99988 211.129 1.95069 210.659 2.04427C210.188 2.13785 209.756 2.37 209.416 2.71136C209.076 3.05271 208.845 3.48793 208.75 3.96197C208.656 4.436 208.704 4.92756 208.886 5.37447C209.069 5.82137 209.38 6.20355 209.778 6.47265C210.177 6.74175 210.645 6.88569 211.125 6.88627C211.545 6.88438 211.956 6.77168 212.319 6.55942L219.867 12.4788C219.189 13.5114 218.835 14.7259 218.852 15.9642C218.869 17.2025 219.255 18.407 219.961 19.4206L217.665 21.7346C217.479 21.6748 217.286 21.6432 217.091 21.6406C216.697 21.6409 216.312 21.7588 215.985 21.9795C215.658 22.2002 215.403 22.5137 215.252 22.8804C215.102 23.2472 215.062 23.6507 215.139 24.0399C215.216 24.4292 215.406 24.7867 215.684 25.0674C215.963 25.348 216.317 25.5391 216.704 25.6166C217.09 25.6941 217.49 25.6545 217.854 25.5028C218.218 25.351 218.529 25.094 218.748 24.7641C218.967 24.4342 219.084 24.0463 219.084 23.6494C219.082 23.453 219.05 23.258 218.991 23.0709L221.262 20.7815C222.003 21.356 222.864 21.752 223.78 21.9392C224.696 22.1264 225.642 22.0998 226.546 21.8614C227.45 21.6231 228.288 21.1794 228.996 20.5642C229.704 19.9491 230.262 19.1788 230.629 18.3124C230.996 17.446 231.161 16.5066 231.112 15.5659C231.063 14.6252 230.801 13.7084 230.346 12.8855C229.891 12.0627 229.256 11.3556 228.488 10.8186C227.72 10.2816 226.841 9.92888 225.917 9.78738V9.78738ZM224.975 19.0519C224.354 19.0513 223.747 18.8651 223.231 18.5168C222.714 18.1685 222.312 17.6737 222.075 17.095C221.837 16.5163 221.775 15.8797 221.897 15.2655C222.018 14.6514 222.317 14.0873 222.757 13.6446C223.196 13.2019 223.756 12.9004 224.365 12.7782C224.975 12.6561 225.606 12.7188 226.18 12.9584C226.754 13.198 227.245 13.6037 227.59 14.1243C227.936 14.6449 228.12 15.257 228.121 15.8832C228.121 16.7232 227.789 17.5288 227.2 18.1228C226.611 18.7167 225.812 19.0504 224.978 19.0504" fill="white"/>
</g>
<g clip-path="url(#clip2_11380_15752)">
<path d="M338.497 14.3598C338.497 18.2463 335.411 21.1102 331.625 21.1102C327.839 21.1102 324.754 18.2463 324.754 14.3598C324.754 10.4459 327.839 7.60938 331.625 7.60938C335.411 7.60938 338.497 10.4459 338.497 14.3598ZM335.489 14.3598C335.489 11.9311 333.701 10.2694 331.625 10.2694C329.55 10.2694 327.762 11.9311 327.762 14.3598C327.762 16.7642 329.55 18.4502 331.625 18.4502C333.701 18.4502 335.489 16.7611 335.489 14.3598Z" fill="white"/>
<path d="M353.321 14.3598C353.321 18.2463 350.236 21.1102 346.449 21.1102C342.663 21.1102 339.578 18.2463 339.578 14.3598C339.578 10.4489 342.663 7.60938 346.449 7.60938C350.236 7.60938 353.321 10.4459 353.321 14.3598ZM350.313 14.3598C350.313 11.9311 348.525 10.2694 346.449 10.2694C344.374 10.2694 342.586 11.9311 342.586 14.3598C342.586 16.7642 344.374 18.4502 346.449 18.4502C348.525 18.4502 350.313 16.7611 350.313 14.3598Z" fill="white"/>
<path d="M367.526 8.0172V20.1363C367.526 25.1215 364.542 27.1576 361.016 27.1576C357.696 27.1576 355.698 24.9694 354.944 23.1798L357.563 22.1055C358.029 23.2042 359.172 24.5007 361.013 24.5007C363.27 24.5007 364.669 23.1281 364.669 20.5442V19.5733H364.564C363.891 20.392 362.594 21.1072 360.957 21.1072C357.532 21.1072 354.395 18.1672 354.395 14.3842C354.395 10.5737 357.532 7.60938 360.957 7.60938C362.591 7.60938 363.888 8.32459 364.564 9.11894H364.669V8.02024H367.526V8.0172ZM364.882 14.3842C364.882 12.0072 363.273 10.2694 361.226 10.2694C359.15 10.2694 357.412 12.0072 357.412 14.3842C357.412 16.7368 359.15 18.4502 361.226 18.4502C363.273 18.4502 364.882 16.7368 364.882 14.3842Z" fill="white"/>
<path d="M372.235 0.912109V20.6947H369.301V0.912109H372.235Z" fill="white"/>
<path d="M383.668 16.5807L386.002 18.1146C385.249 19.2133 383.433 21.1063 380.295 21.1063C376.404 21.1063 373.498 18.142 373.498 14.3559C373.498 10.3416 376.429 7.60547 379.959 7.60547C383.513 7.60547 385.252 10.3933 385.82 11.8998L386.132 12.6668L376.975 16.4042C377.676 17.7585 378.767 18.4494 380.295 18.4494C381.827 18.4494 382.889 17.7068 383.668 16.5807ZM376.481 14.152L382.602 11.6472C382.266 10.8042 381.253 10.2168 380.061 10.2168C378.532 10.2168 376.404 11.5468 376.481 14.152V14.152Z" fill="white"/>
<path d="M313.649 12.6026V9.73866H323.441C323.537 10.2378 323.586 10.8282 323.586 11.4674C323.586 13.6161 322.99 16.273 321.07 18.1661C319.201 20.0834 316.814 21.1061 313.652 21.1061C307.79 21.1061 302.861 16.4008 302.861 10.6243C302.861 4.8478 307.79 0.142578 313.652 0.142578C316.894 0.142578 319.204 1.39649 320.94 3.03084L318.889 5.05171C317.645 3.90127 315.959 3.00649 313.649 3.00649C309.368 3.00649 306.021 6.40606 306.021 10.6243C306.021 14.8426 309.368 18.2421 313.649 18.2421C316.425 18.2421 318.006 17.1434 319.019 16.1452C319.84 15.3356 320.381 14.1791 320.594 12.5995L313.649 12.6026V12.6026Z" fill="white"/>
</g>
<defs>
<clipPath id="clip0_11380_15752">
<rect width="90" height="28" fill="white" transform="translate(0.75)"/>
</clipPath>
<clipPath id="clip1_11380_15752">
<rect width="84" height="24" fill="white" transform="translate(154.75 2)"/>
</clipPath>
<clipPath id="clip2_11380_15752">
<rect width="84" height="28" fill="white" transform="translate(302.75)"/>
</clipPath>
</defs>
</svg>
