<svg width="442" height="26" viewBox="0 0 442 26" fill="none" xmlns="http://www.w3.org/2000/svg">
<g clip-path="url(#clip0_11380_15773)">
<path d="M43.3141 14.9748L42.587 17.0306H42.5264C42.4052 16.5671 42.183 15.8616 41.8194 15.0151L37.9211 5.23993H34.1035V20.8198H36.6283V11.2058C36.6283 10.6012 36.6283 9.9159 36.6081 9.06939C36.588 8.64613 36.5476 8.32365 36.5274 8.08179H36.5879C36.7091 8.68644 36.8505 9.12985 36.9515 9.41202L41.6376 20.7795H43.4151L48.0608 9.31125C48.1618 9.04923 48.2628 8.5252 48.3638 8.08179H48.4244C48.3638 9.23063 48.3234 10.2585 48.3032 10.8833V20.7593H50.9896V5.19962H47.3134L43.3141 14.9748V14.9748ZM53.5346 9.59342H56.1605V20.7593H53.5346V9.59342ZM54.8677 4.87714C54.4234 4.87714 54.0598 5.03838 53.7568 5.32055C53.4538 5.60272 53.2923 5.96551 53.2923 6.40892C53.2923 6.83218 53.4538 7.19497 53.7568 7.47714C54.0598 7.75931 54.4234 7.90039 54.8677 7.90039C55.3121 7.90039 55.6959 7.73915 55.9787 7.47714C56.2817 7.19497 56.4432 6.83218 56.4432 6.40892C56.4432 5.98566 56.2817 5.62287 55.9787 5.32055C55.7161 5.03838 55.3323 4.87714 54.8677 4.87714V4.87714ZM65.4721 9.49264C64.9873 9.39187 64.4823 9.3314 63.9976 9.3314C62.8058 9.3314 61.7151 9.59342 60.8062 10.1174C59.8972 10.6415 59.1701 11.3671 58.7055 12.274C58.2207 13.2012 57.9783 14.2694 57.9783 15.4988C57.9783 16.5671 58.2207 17.5143 58.6853 18.381C59.1499 19.2275 59.7962 19.9128 60.6648 20.3764C61.4929 20.8399 62.4625 21.0818 63.5532 21.0818C64.8055 21.0818 65.876 20.8198 66.7244 20.3361L66.7446 20.3159V17.8973L66.6436 17.9779C66.2598 18.2601 65.8154 18.5019 65.3711 18.643C64.9065 18.8043 64.4823 18.8849 64.1187 18.8849C63.0684 18.8849 62.2403 18.5826 61.6545 17.9174C61.0485 17.2725 60.7456 16.3857 60.7456 15.2771C60.7456 14.1283 61.0485 13.2213 61.6747 12.5562C62.3009 11.8911 63.129 11.5485 64.1389 11.5485C64.9873 11.5485 65.8558 11.8306 66.6436 12.395L66.7446 12.4756V9.9159L66.7244 9.89574C66.381 9.75466 65.9972 9.59342 65.4721 9.49264V9.49264ZM74.1373 9.41202C73.4909 9.41202 72.885 9.61357 72.3598 10.0368C71.9154 10.3996 71.6125 10.9236 71.3499 11.5485H71.3297V9.59342H68.7038V20.7593H71.3297V15.0554C71.3297 14.088 71.5317 13.2818 71.976 12.6973C72.4204 12.0926 72.986 11.7903 73.6727 11.7903C73.9151 11.7903 74.1575 11.8508 74.4605 11.8911C74.7432 11.9717 74.9452 12.0523 75.0866 12.1531L75.1876 12.2337V9.61357L75.127 9.59342C74.9452 9.47249 74.5817 9.41202 74.1373 9.41202V9.41202ZM81.2876 9.35156C79.4495 9.35156 77.975 9.89574 76.9449 10.964C75.8946 12.0322 75.3896 13.5035 75.3896 15.3578C75.3896 17.0911 75.9148 18.5019 76.9247 19.5299C77.9346 20.5376 79.3081 21.0616 81.025 21.0616C82.8227 21.0616 84.2568 20.5174 85.287 19.4291C86.3373 18.3407 86.8423 16.8895 86.8423 15.0957C86.8423 13.3221 86.3575 11.9112 85.3677 10.8833C84.4184 9.85543 83.0247 9.35156 81.2876 9.35156V9.35156ZM83.3883 17.9376C82.9035 18.5624 82.136 18.8647 81.1866 18.8647C80.2373 18.8647 79.4697 18.5624 78.9244 17.8973C78.379 17.2725 78.1164 16.3655 78.1164 15.2167C78.1164 14.0275 78.3992 13.1205 78.9244 12.4756C79.4697 11.8306 80.2171 11.5081 81.1664 11.5081C82.0956 11.5081 82.8227 11.8105 83.3479 12.4353C83.873 13.0601 84.1558 13.9671 84.1558 15.1562C84.1154 16.3655 83.8932 17.3128 83.3883 17.9376V17.9376ZM92.6999 14.2291C91.8717 13.8864 91.3466 13.6244 91.1042 13.4027C90.9022 13.2012 90.8012 12.919 90.8012 12.5562C90.8012 12.2539 90.9224 11.9516 91.2254 11.75C91.5283 11.5485 91.8717 11.4477 92.3767 11.4477C92.8211 11.4477 93.2856 11.5283 93.73 11.6492C94.1744 11.7702 94.5783 11.9516 94.9015 12.1934L95.0025 12.274V9.81512L94.9419 9.79497C94.6389 9.67404 94.235 9.55311 93.7502 9.45233C93.2654 9.37171 92.8211 9.3314 92.4575 9.3314C91.2052 9.3314 90.175 9.63373 89.3671 10.2988C88.5591 10.9236 88.1754 11.7702 88.1754 12.7578C88.1754 13.2818 88.2562 13.7454 88.4379 14.1283C88.6197 14.5112 88.8823 14.874 89.2459 15.1764C89.6095 15.4585 90.1346 15.781 90.8618 16.0833C91.4677 16.3454 91.9323 16.5469 92.2151 16.7081C92.4979 16.8694 92.6797 17.0508 92.8211 17.1919C92.922 17.3531 92.9826 17.5547 92.9826 17.8167C92.9826 18.5624 92.4171 18.9252 91.2658 18.9252C90.8214 18.9252 90.3568 18.8446 89.8115 18.6632C89.2661 18.4818 88.7611 18.2198 88.337 17.9174L88.236 17.8368V20.3965L88.2966 20.4167C88.6803 20.5981 89.1449 20.719 89.7105 20.8601C90.276 20.9609 90.781 21.0415 91.2254 21.0415C92.5787 21.0415 93.6896 20.7392 94.4773 20.074C95.2853 19.4291 95.7095 18.6027 95.7095 17.5345C95.7095 16.7888 95.5075 16.1237 95.0631 15.6198C94.4773 15.1361 93.7502 14.6322 92.6999 14.2291V14.2291ZM102.638 9.35156C100.8 9.35156 99.325 9.89574 98.2949 10.964C97.2648 12.0322 96.7396 13.5035 96.7396 15.3578C96.7396 17.0911 97.2648 18.5019 98.2747 19.5299C99.2846 20.5376 100.658 21.0616 102.375 21.0616C104.173 21.0616 105.607 20.5174 106.637 19.4291C107.687 18.3407 108.192 16.8895 108.192 15.0957C108.192 13.3221 107.707 11.9112 106.718 10.8833C105.768 9.85543 104.375 9.35156 102.638 9.35156V9.35156ZM104.718 17.9376C104.233 18.5624 103.466 18.8647 102.516 18.8647C101.547 18.8647 100.8 18.5624 100.254 17.8973C99.7088 17.2725 99.4462 16.3655 99.4462 15.2167C99.4462 14.0275 99.729 13.1205 100.254 12.4756C100.8 11.8306 101.547 11.5081 102.496 11.5081C103.405 11.5081 104.153 11.8105 104.678 12.4353C105.203 13.0601 105.486 13.9671 105.486 15.1562C105.486 16.3655 105.223 17.3128 104.718 17.9376V17.9376ZM122.23 11.75V9.59342H119.584V6.28799L119.504 6.30815L116.999 7.05388L116.938 7.07404V9.59342H112.979V8.18256C112.979 7.5376 113.141 7.03373 113.424 6.71125C113.706 6.38877 114.131 6.22753 114.656 6.22753C115.019 6.22753 115.403 6.30815 115.827 6.48954L115.928 6.55001V4.27249L115.868 4.25233C115.504 4.1314 115.019 4.05078 114.393 4.05078C113.605 4.05078 112.919 4.23218 112.293 4.5345C111.666 4.87714 111.202 5.3407 110.858 5.96551C110.515 6.57016 110.333 7.25543 110.333 8.04148V9.59342H108.495V11.7299H110.333V20.7593H112.979V11.75H116.938V17.4942C116.938 19.8523 118.049 21.0415 120.271 21.0415C120.635 21.0415 121.018 20.981 121.382 20.9206C121.766 20.8399 122.049 20.7392 122.21 20.6585L122.23 20.6384V18.4818L122.129 18.5624C121.968 18.6632 121.826 18.7438 121.584 18.8043C121.382 18.8647 121.2 18.8849 121.059 18.8849C120.534 18.8849 120.17 18.764 119.907 18.4616C119.665 18.1795 119.544 17.7159 119.544 17.0306V11.75H122.23V11.75Z" fill="white"/>
<path d="M0.25 0H12.6318V12.355H0.25V0Z" fill="white"/>
<path d="M13.9238 0H26.3056V12.355H13.9238V0Z" fill="white"/>
<path d="M0.25 13.6445H12.6318V25.9996H0.25V13.6445Z" fill="white"/>
<path d="M13.9238 13.6445H26.3056V25.9996H13.9238V13.6445Z" fill="white"/>
</g>
<g clip-path="url(#clip1_11380_15773)">
<path d="M225.752 9.24802V10.7215H225.797C226.327 9.9326 227.207 9.00353 229.158 9.00353C230.676 9.00353 231.841 9.77612 232.34 10.9432H232.385C232.811 10.3531 233.3 9.90652 233.847 9.59031C234.495 9.21542 235.216 9.00027 236.124 9.00027C238.179 9.00027 239.998 10.3368 239.998 13.7076V20.1002H236.865V14.1542C236.865 12.446 236.249 11.4582 234.966 11.4582C234.027 11.4582 233.345 12.0515 233.085 12.7818C232.995 13.0328 232.953 13.3751 232.953 13.6619V20.1035H229.82V13.9129C229.82 12.4623 229.228 11.455 227.963 11.455C226.951 11.455 226.317 12.2048 226.057 12.847C225.946 13.1208 225.911 13.437 225.911 13.7336V20.1002H222.775V9.24802H225.752ZM256.168 9.24802V11.2952H256.254C256.829 9.73049 258.195 9.00353 259.394 9.00353C259.695 9.00353 259.862 9.02635 260.104 9.07198V11.9146C259.817 11.8755 259.55 11.8364 259.176 11.8364C257.817 11.8364 256.871 12.5796 256.632 13.7434C256.58 13.9847 256.563 14.2455 256.563 14.5454V20.1035H253.347V9.24802H256.168ZM264.471 5.65234V9.06872H267.188V11.8331H264.471V15.9113C264.471 17.2315 264.828 17.8705 265.888 17.8705C266.387 17.8705 266.754 17.8118 267.073 17.7368L267.115 20.0285C266.688 20.1785 265.781 20.3415 264.859 20.3415C263.774 20.3415 262.87 19.9861 262.319 19.4352C261.688 18.8061 261.397 17.7759 261.397 16.309V5.65234H264.471ZM220.592 20.1002H217.473V5.65234H220.592V20.1002ZM212.275 16.2242C212.275 16.4231 212.258 16.6317 212.199 16.811C211.956 17.564 211.128 18.1997 210.095 18.1997C209.232 18.1997 208.546 17.7401 208.546 16.7654C208.546 15.2756 210.293 14.8616 212.278 14.8714V16.2242H212.275ZM215.39 13.6261C215.39 11.1648 214.275 9.00353 210.501 9.00353C208.564 9.00353 207.025 9.51533 206.186 9.97172L206.8 11.9472C207.566 11.4908 208.789 11.1159 209.946 11.1159C211.863 11.1127 212.175 12.1363 212.175 12.7915V12.948C207.999 12.9415 205.362 14.3009 205.362 17.0718C205.362 18.7637 206.703 20.348 209.038 20.348C210.476 20.348 211.676 19.8101 212.396 18.9462H212.466C212.466 18.9462 212.944 20.8207 215.571 20.1035C215.432 19.3211 215.387 18.4898 215.387 17.4891V13.6261H215.39ZM189.695 5.65234C190.017 7.18124 190.932 11.6212 190.932 11.6212C191.316 13.4468 191.67 15.3603 191.937 16.8729H191.985C192.245 15.2658 192.654 13.7434 193.091 11.8592L194.633 5.65234H198.046L199.488 12.0189C199.865 13.7891 200.167 15.155 200.406 16.8012H200.451C200.711 15.1387 201.051 13.7173 201.421 11.8983L202.808 5.65234H206.082L202.024 20.1002C199.439 20.6316 198.448 19.6536 198.095 18.1019C197.741 16.5469 197.048 13.5902 197.048 13.5902C196.691 11.97 196.414 10.8291 196.22 9.16652H196.171C195.894 10.8128 195.603 11.9668 195.173 13.587L193.472 20.1035C190.831 20.599 189.916 19.8655 189.41 17.8737C188.974 16.1688 186.25 5.6556 186.25 5.6556H189.695V5.65234ZM248.149 16.2242C248.149 16.4231 248.131 16.6317 248.072 16.811C247.83 17.564 247.002 18.1997 245.969 18.1997C245.106 18.1997 244.42 17.7401 244.42 16.7654C244.42 15.2756 246.166 14.8616 248.152 14.8714V16.2242H248.149ZM251.264 13.6261C251.264 11.1648 250.148 9.00353 246.374 9.00353C244.437 9.00353 242.899 9.51533 242.06 9.97172L242.673 11.9472C243.439 11.4908 244.663 11.1159 245.82 11.1159C247.733 11.1127 248.048 12.1363 248.048 12.7915V12.948C243.876 12.9415 241.239 14.3009 241.239 17.0718C241.239 18.7637 242.583 20.348 244.915 20.348C246.35 20.348 247.553 19.8101 248.27 18.9462H248.343C248.343 18.9462 248.821 20.8207 251.448 20.1035C251.309 19.3211 251.264 18.4898 251.264 17.4891V13.6261Z" fill="white"/>
<path d="M279.83 15.1241C280.138 15.6517 280.117 16.2406 279.789 16.5096L274.117 20.4276C273.526 20.7646 272.642 20.3561 272.141 19.5017C271.637 18.6439 271.727 17.6874 272.317 17.3504L278.597 14.4705C278.991 14.3208 279.523 14.5965 279.83 15.1241ZM287.295 15.1241C287.606 14.5965 288.134 14.3242 288.528 14.4671L294.811 17.3469C295.402 17.6839 295.488 18.6405 294.987 19.4983C294.483 20.3527 293.595 20.7578 293.008 20.4242L287.336 16.5062C287.012 16.2406 286.987 15.6483 287.295 15.1241ZM283.561 17.2482C284.179 17.2482 284.687 17.5614 284.756 17.9733L285.367 24.7745C285.367 25.4485 284.569 26 283.564 26C282.563 26 281.761 25.4485 281.761 24.7745L282.369 17.9733C282.438 17.5614 282.946 17.2482 283.561 17.2482ZM287.336 9.49385L293.008 5.5724C293.595 5.2354 294.483 5.64048 294.987 6.4983C295.488 7.35611 295.402 8.31265 294.811 8.64965L288.528 11.5329C288.134 11.6758 287.602 11.4035 287.295 10.8759C286.987 10.3483 287.012 9.75936 287.336 9.49385ZM278.597 11.5329L272.317 8.64965C271.73 8.31265 271.64 7.35611 272.141 6.4983C272.642 5.64048 273.53 5.2354 274.117 5.5724L279.789 9.49385C280.117 9.75596 280.138 10.3483 279.83 10.8759C279.523 11.4035 278.991 11.6758 278.597 11.5329ZM282.369 8.02671L281.761 1.22545C281.761 0.551453 282.559 0 283.564 0C284.569 0 285.367 0.551453 285.367 1.22545L284.756 8.02671C284.687 8.43519 284.179 8.75177 283.561 8.75177C282.946 8.75177 282.438 8.43519 282.369 8.02671ZM296.521 20.4004V20.2302H296.677C296.728 20.2302 296.763 20.2642 296.763 20.3153C296.763 20.3629 296.728 20.4004 296.677 20.4004H296.521ZM296.393 20.7101C296.393 20.7272 296.407 20.7442 296.428 20.7442H296.494C296.511 20.7442 296.528 20.7272 296.528 20.7101V20.5161H296.635L296.722 20.7203C296.728 20.734 296.739 20.7442 296.753 20.7442H296.832C296.856 20.7442 296.874 20.7203 296.863 20.6965C296.832 20.6352 296.801 20.5706 296.77 20.5059C296.822 20.4889 296.901 20.4378 296.901 20.3153C296.901 20.1859 296.794 20.111 296.687 20.111H296.428C296.411 20.111 296.393 20.128 296.393 20.1451V20.7101ZM296.114 20.4276C296.114 20.1519 296.342 19.9272 296.621 19.9272C296.901 19.9272 297.129 20.1485 297.129 20.4276C297.129 20.7033 296.905 20.928 296.621 20.928C296.338 20.928 296.114 20.7033 296.114 20.4276ZM295.993 20.4276C295.993 20.768 296.272 21.0471 296.621 21.0471C296.967 21.0471 297.25 20.768 297.25 20.4276C297.25 20.0872 296.967 19.8081 296.621 19.8081C296.272 19.8081 295.993 20.0872 295.993 20.4276Z" fill="white"/>
</g>
<g clip-path="url(#clip2_11380_15773)">
<path d="M420.74 24.2815L427.412 16.8922L420.74 9.50195H427.78L431.084 13.0917L434.266 9.50195H441.06L434.42 16.8617L441.151 24.2815H434.082L430.808 20.6623L427.565 24.2815H420.74Z" fill="white"/>
<path d="M420.741 6.18914H413.185V9.50217H420.741V14.4952H413.185V19.0782H420.741V24.2817H407.631V1H420.741V6.18914Z" fill="white"/>
<path d="M402.101 1V10.528H402.04C400.816 9.1408 399.286 8.65874 397.511 8.65874C393.875 8.65874 391.136 11.0951 390.175 14.3162C389.079 10.767 386.251 8.59223 382.058 8.59223C378.653 8.59223 375.965 10.0987 374.562 12.5536V9.50251H367.524V6.18983H375.204V1H361.25V24.2821H367.524V14.4952H373.777C373.591 15.2142 373.491 15.9839 373.491 16.7961C373.491 21.6527 377.255 25.0603 382.058 25.0603C386.098 25.0603 388.76 23.1911 390.168 19.7831H384.791C384.064 20.8069 383.512 21.111 382.058 21.111C380.372 21.111 378.919 19.661 378.919 17.9423H389.866C390.341 21.7998 393.389 25.1265 397.573 25.1265C399.377 25.1265 401.029 24.2515 402.04 22.7742H402.101V24.2814H407.631V1H402.101ZM379.093 14.5648C379.442 13.0861 380.606 12.1195 382.058 12.1195C383.657 12.1195 384.762 13.0562 385.052 14.5648C385.175 14.5648 379.093 14.5648 379.093 14.5648ZM398.745 20.7369C396.706 20.7369 395.439 18.8646 395.439 16.9096C395.439 14.8199 396.541 12.8104 398.745 12.8104C401.029 12.8104 401.94 14.8199 401.94 16.9096C401.939 18.8913 400.975 20.7369 398.745 20.7369Z" fill="white"/>
</g>
<defs>
<clipPath id="clip0_11380_15773">
<rect width="122" height="26" fill="white" transform="translate(0.25)"/>
</clipPath>
<clipPath id="clip1_11380_15773">
<rect width="111" height="26" fill="white" transform="translate(186.25)"/>
</clipPath>
<clipPath id="clip2_11380_15773">
<rect width="80" height="24" fill="white" transform="translate(361.25 1)"/>
</clipPath>
</defs>
</svg>
