<svg width="24" height="25" viewBox="0 0 24 25" fill="none" xmlns="http://www.w3.org/2000/svg">
<path d="M15.71 12.8405C16.6904 12.0692 17.406 11.0114 17.7572 9.81444C18.1085 8.61746 18.0779 7.34076 17.6698 6.16196C17.2617 4.98317 16.4963 3.96089 15.4801 3.23735C14.4639 2.51381 13.2474 2.125 12 2.125C10.7525 2.125 9.53611 2.51381 8.51993 3.23735C7.50374 3.96089 6.73834 4.98317 6.33021 6.16196C5.92208 7.34076 5.89151 8.61746 6.24276 9.81444C6.59401 11.0114 7.3096 12.0692 8.29 12.8405C6.61007 13.5135 5.14428 14.6298 4.04889 16.0704C2.95349 17.511 2.26956 19.2218 2.07 21.0205C2.05555 21.1518 2.06711 21.2847 2.10402 21.4116C2.14093 21.5384 2.20246 21.6567 2.28511 21.7598C2.45202 21.968 2.69478 22.1013 2.96 22.1305C3.22521 22.1597 3.49116 22.0823 3.69932 21.9154C3.90749 21.7485 4.04082 21.5057 4.07 21.2405C4.28958 19.2857 5.22168 17.4803 6.68822 16.1693C8.15475 14.8583 10.0529 14.1335 12.02 14.1335C13.9871 14.1335 15.8852 14.8583 17.3518 16.1693C18.8183 17.4803 19.7504 19.2857 19.97 21.2405C19.9972 21.4862 20.1144 21.7132 20.2991 21.8775C20.4838 22.0419 20.7228 22.132 20.97 22.1305H21.08C21.3421 22.1003 21.5817 21.9678 21.7466 21.7617C21.9114 21.5557 21.9881 21.2929 21.96 21.0305C21.7595 19.2267 21.0719 17.5115 19.9708 16.0687C18.8698 14.6259 17.3969 13.51 15.71 12.8405ZM12 12.1305C11.2089 12.1305 10.4355 11.8959 9.77772 11.4564C9.11992 11.0168 8.60723 10.3921 8.30448 9.66123C8.00173 8.93033 7.92251 8.12606 8.07686 7.35013C8.2312 6.57421 8.61216 5.86148 9.17157 5.30207C9.73098 4.74266 10.4437 4.3617 11.2196 4.20735C11.9956 4.05301 12.7998 4.13223 13.5307 4.43498C14.2616 4.73773 14.8863 5.25042 15.3259 5.90821C15.7654 6.56601 16 7.33937 16 8.1305C16 9.19136 15.5786 10.2088 14.8284 10.9589C14.0783 11.7091 13.0609 12.1305 12 12.1305Z" fill="#9072FF"/>
</svg>
