<svg width="24" height="25" viewBox="0 0 24 25" fill="none" xmlns="http://www.w3.org/2000/svg">
<path d="M7 9.13086C8.933 9.13086 10.5 7.56386 10.5 5.63086C10.5 3.69786 8.933 2.13086 7 2.13086C5.067 2.13086 3.5 3.69786 3.5 5.63086C3.5 7.56386 5.067 9.13086 7 9.13086Z" stroke="#9072FF" stroke-width="2" stroke-linejoin="round"/>
<path d="M17 9.13086C18.933 9.13086 20.5 7.56386 20.5 5.63086C20.5 3.69786 18.933 2.13086 17 2.13086C15.067 2.13086 13.5 3.69786 13.5 5.63086C13.5 7.56386 15.067 9.13086 17 9.13086Z" stroke="#9072FF" stroke-width="2" stroke-linejoin="round"/>
<path d="M2 22.1309C2 21.6864 2 20.1864 2 17.6309C2 14.8695 3.88511 12.6309 6.21055 12.6309C7.33335 12.6309 8.17545 12.6309 8.73685 12.6309C10.7793 12.6309 12 14.6443 12 14.6443" stroke="#9072FF" stroke-width="2" stroke-linecap="round" stroke-linejoin="round"/>
<path d="M21.9998 22.1309C21.9998 21.6864 21.9998 20.1864 21.9998 17.6309C21.9998 14.8695 20.0923 12.6309 17.7392 12.6309C16.603 12.6309 15.7509 12.6309 15.1828 12.6309C13.2022 12.6309 11.9959 14.6443 11.9998 14.6443" stroke="#9072FF" stroke-width="2" stroke-linecap="round" stroke-linejoin="round"/>
<path d="M5.5 20.1309H19" stroke="#9072FF" stroke-width="2" stroke-linecap="round" stroke-linejoin="round"/>
<path d="M17.1477 18.2598L17.7675 18.8834L19.0071 20.1305L17.7675 21.4113L17.1477 22.0517" stroke="#9072FF" stroke-width="2" stroke-linecap="round" stroke-linejoin="round"/>
<path d="M7.16468 18.2461L6.53508 18.8729L5.27588 20.1264L6.53508 21.4008L7.16468 22.038" stroke="#9072FF" stroke-width="2" stroke-linecap="round" stroke-linejoin="round"/>
</svg>
