<svg width="116" height="36" viewBox="0 0 116 36" fill="none" xmlns="http://www.w3.org/2000/svg">
<g clip-path="url(#clip0_11182_72138)">
<path d="M33.3141 25.5142C33.1325 25.0755 32.9624 24.6142 32.7809 24.2205L31.9414 22.3417L31.9073 22.308C29.4115 16.908 26.7456 11.418 23.9208 6.01796L23.8073 5.79296C23.5237 5.26421 23.2401 4.6792 22.9452 4.1392C22.5821 3.49796 22.2304 2.81171 21.6519 2.1592C21.0879 1.47648 20.3781 0.926417 19.5738 0.548717C18.7695 0.171017 17.8906 -0.0249023 17.0006 -0.0249023C16.1107 -0.0249023 15.2318 0.171017 14.4274 0.548717C13.6231 0.926417 12.9133 1.47648 12.3494 2.1592C11.8162 2.81171 11.4191 3.49796 11.0561 4.1392C10.7725 4.72421 10.4889 5.29796 10.1939 5.8267L10.0805 6.05171C7.30104 11.4517 4.58969 16.9417 2.0939 22.3417L2.02583 22.4092C1.77625 22.9942 1.48129 23.6017 1.19768 24.2542C1.01617 24.648 0.834653 25.0755 0.65314 25.548C0.163093 26.7852 0.00660596 28.1278 0.199101 29.4433C0.391595 30.7588 0.926428 32.0018 1.75089 33.0499C2.57535 34.098 3.66098 34.915 4.90079 35.4203C6.1406 35.9257 7.49179 36.1019 8.82121 35.9317C10.0957 35.7653 11.323 35.3443 12.4288 34.6942C13.9036 33.873 15.3216 32.6805 16.9099 30.9592C18.4981 32.6805 19.9502 33.873 21.391 34.7055C22.7765 35.5119 24.3455 35.957 25.9515 35.9992C27.8112 36.0069 29.611 35.347 31.0185 34.1415C32.4259 32.936 33.3461 31.2662 33.609 29.4405C33.9129 28.1285 33.8101 26.756 33.3141 25.503V25.5142ZM17.0233 27.3817C15.072 24.9067 13.8015 22.6342 13.3704 20.688C13.1918 19.9668 13.1533 19.2184 13.2569 18.483C13.3363 17.9092 13.5519 17.403 13.8468 16.9755C14.5275 15.9967 15.7187 15.3892 17.0233 15.3892C17.6429 15.3704 18.2574 15.5045 18.8119 15.7794C19.3663 16.0543 19.8432 16.4614 20.1998 16.9642C20.4947 17.4142 20.7103 17.9092 20.7784 18.483C20.8918 19.1355 20.8464 19.8892 20.6649 20.688C20.2338 22.6005 18.9632 24.8955 17.0233 27.3817ZM31.4762 29.0467C31.3474 29.9736 30.9758 30.8509 30.3986 31.5911C29.8213 32.3313 29.0586 32.9086 28.1863 33.2655C27.3241 33.6255 26.3712 33.7267 25.441 33.6255C24.5334 33.513 23.6258 33.2205 22.6956 32.6805C21.151 31.7338 19.7622 30.5576 18.5775 29.193C20.9599 26.268 22.4006 23.6017 22.9452 21.228C23.2061 20.103 23.2401 19.0905 23.1267 18.1567C22.985 17.2717 22.6522 16.4274 22.151 15.6817C21.5788 14.8731 20.815 14.2163 19.9269 13.7691C19.0387 13.3218 18.0533 13.0978 17.0573 13.1167C14.9586 13.1167 13.0868 14.0842 11.9523 15.6705C11.4416 16.4143 11.1116 17.2652 10.988 18.1567C10.8405 19.1017 10.8746 20.148 11.1695 21.228C11.7141 23.6017 13.1889 26.3017 15.5372 29.2155C14.3726 30.6061 12.9805 31.7927 11.4191 32.7255C10.4775 33.2655 9.58129 33.5467 8.67373 33.6592C7.26234 33.8385 5.83663 33.4581 4.7065 32.6007C3.57637 31.7433 2.83317 30.4782 2.63843 29.0805C2.52499 28.1805 2.6044 27.2805 2.96743 26.268C3.08087 25.908 3.25104 25.548 3.43255 25.1205C3.68213 24.5355 3.97709 23.928 4.2607 23.3205L4.30608 23.2417C6.7565 17.8755 9.43381 12.3967 12.2132 7.03046L12.3267 6.80546C12.6103 6.26546 12.8939 5.69171 13.1889 5.15171C13.4838 4.57796 13.8015 4.02671 14.2099 3.57671C14.5634 3.15823 15.0051 2.82169 15.5039 2.59077C16.0027 2.35986 16.5465 2.24019 17.097 2.24019C17.6475 2.24019 18.1914 2.35986 18.6902 2.59077C19.189 2.82169 19.6307 3.15823 19.9842 3.57671C20.3813 4.02671 20.7103 4.57796 21.0052 5.15171C21.2889 5.69171 21.5725 6.27671 21.8674 6.80546L21.9809 7.03046C24.7489 12.3967 27.4262 17.8755 29.922 23.2417L29.9561 23.2755C30.251 23.8605 30.5006 24.513 30.7842 25.0755C30.9657 25.5142 31.1473 25.863 31.2607 26.2342C31.4762 27.2467 31.5897 28.1467 31.4762 29.0467ZM47.2678 27.1342C46.413 27.1466 45.5663 26.968 44.7905 26.6116C44.0148 26.2552 43.3299 25.7302 42.7867 25.0755C41.5661 23.6804 40.9183 21.8817 40.9716 20.0355C40.9529 18.1491 41.6217 16.3194 42.8548 14.883C43.4252 14.2199 44.1353 13.6889 44.935 13.3274C45.7347 12.9659 46.6045 12.7826 47.4834 12.7905C48.3103 12.768 49.1294 12.9545 49.8637 13.3323C50.598 13.7102 51.2233 14.267 51.6809 14.9505L51.7943 13.1842H55.1069V26.7742H51.783L51.6695 24.7942C51.1978 25.524 50.5458 26.122 49.7754 26.5315C49.005 26.9411 48.1418 27.1485 47.2678 27.1342ZM48.13 23.8942C48.788 23.8942 49.3666 23.7142 49.9111 23.388C50.4103 23.028 50.8187 22.5555 51.1363 21.9817C51.4199 21.408 51.5674 20.7217 51.5674 19.9567C51.6116 19.2923 51.4812 18.6278 51.1889 18.0284C50.8966 17.4289 50.4524 16.9149 49.8998 16.5367C49.3688 16.2086 48.7557 16.0347 48.13 16.0347C47.5044 16.0347 46.8913 16.2086 46.3603 16.5367C45.8611 16.8967 45.4527 17.3692 45.1351 17.943C44.8351 18.5757 44.6875 19.2689 44.704 19.968C44.6597 20.6324 44.7902 21.2968 45.0825 21.8963C45.3748 22.4958 45.819 23.0097 46.3716 23.388C46.9048 23.7142 47.4834 23.8942 48.13 23.8942ZM60.7792 9.51671C60.7792 9.91046 60.7111 10.2705 60.5296 10.563C60.3481 10.8442 60.0985 11.103 59.7695 11.283C59.4405 11.463 59.0888 11.5305 58.7258 11.5305C58.3628 11.5305 57.9998 11.463 57.6708 11.283C57.3596 11.1112 57.098 10.8633 56.9107 10.563C56.735 10.2425 56.6488 9.88128 56.6611 9.51671C56.6611 9.11171 56.7405 8.75171 56.9107 8.47046C57.0922 8.13296 57.3531 7.93046 57.6708 7.75046C57.9998 7.57046 58.3515 7.4917 58.7258 7.4917C59.0869 7.48345 59.444 7.56827 59.7622 7.73785C60.0803 7.90743 60.3487 8.15598 60.541 8.45921C60.706 8.7872 60.7878 9.15022 60.7792 9.51671ZM56.922 26.7292V13.1617H60.5296V26.7517H56.9107L56.922 26.7292ZM70.1725 16.7167V16.7617C70.0023 16.683 69.7754 16.6492 69.6052 16.6155C69.3783 16.5705 69.1968 16.5705 68.9813 16.5705C67.9716 16.5705 67.2115 16.863 66.7124 17.4705C66.1678 18.0892 65.9183 18.9555 65.9183 20.0692V26.7405H62.2994V13.1505H65.6233L65.7367 15.2092C66.0998 14.4892 66.5309 13.9492 67.1435 13.5442C67.7528 13.1507 68.4702 12.9542 69.1968 12.9817C69.4577 12.9817 69.7073 13.0042 69.9229 13.0492C70.0363 13.083 70.1044 13.083 70.1725 13.1167V16.7167ZM71.6246 26.7292V7.58171H75.2321V14.8942C75.7426 14.2417 76.3212 13.7355 77.0473 13.3417C78.1967 12.7828 79.5024 12.6243 80.7539 12.8917C82.0053 13.1591 83.1294 13.8368 83.9447 14.8155C85.168 16.2134 85.816 18.0166 85.7599 19.8667C85.7785 21.7531 85.1098 23.5828 83.8767 25.0192C83.3063 25.6823 82.5962 26.2132 81.7965 26.5748C80.9968 26.9363 80.1269 27.1196 79.2481 27.1117C78.4212 27.1341 77.602 26.9477 76.8678 26.5698C76.1335 26.192 75.5082 25.6351 75.0506 24.9517L74.9372 26.718L71.6246 26.7517V26.7292ZM78.6015 23.8942C79.2481 23.8942 79.8267 23.7142 80.3712 23.388C80.8704 23.028 81.2788 22.5555 81.5964 21.9817C81.8914 21.408 82.0275 20.7217 82.0275 19.9567C82.0275 19.203 81.8914 18.5167 81.5964 17.943C81.2985 17.3897 80.8799 16.9093 80.3712 16.5367C79.8402 16.2086 79.2271 16.0347 78.6015 16.0347C77.9758 16.0347 77.3627 16.2086 76.8317 16.5367C76.3212 16.8967 75.9241 17.3692 75.5952 17.943C75.2952 18.5757 75.1476 19.2689 75.1641 19.968C75.1198 20.6324 75.2503 21.2968 75.5426 21.8963C75.8349 22.4958 76.2791 23.0097 76.8317 23.388C77.3649 23.7142 77.9435 23.8942 78.6015 23.8942ZM87.1212 26.7405V13.1505H90.4452L90.5586 14.9167C90.9763 14.2397 91.5688 13.6856 92.2749 13.3118C92.9809 12.9379 93.7749 12.758 94.5746 12.7905C95.489 12.7748 96.3879 13.0268 97.1587 13.5151C97.9295 14.0033 98.538 14.7061 98.9082 15.5355C99.3052 16.3905 99.5208 17.448 99.5208 18.6292V26.7742H95.9019V19.1017C95.9019 18.1567 95.6863 17.4142 95.2552 16.863C94.8241 16.323 94.2342 16.0305 93.4855 16.0305C92.9409 16.0305 92.4645 16.143 92.0447 16.3905C91.6477 16.6492 91.3187 16.9755 91.0691 17.4367C90.8168 17.903 90.6916 18.4265 90.7061 18.9555V26.7405H87.1212ZM101.325 26.7405V7.57046H104.943V14.883C105.434 14.2268 106.071 13.693 106.806 13.3239C107.54 12.9548 108.352 12.7606 109.175 12.7567C110.03 12.7443 110.877 12.9229 111.652 13.2793C112.428 13.6357 113.113 14.1607 113.656 14.8155C114.871 16.2133 115.514 18.0111 115.46 19.8555C115.48 21.742 114.811 23.572 113.577 25.008C113.006 25.671 112.296 26.202 111.497 26.5635C110.697 26.9251 109.827 27.1083 108.948 27.1005C108.121 27.1229 107.302 26.9364 106.568 26.5586C105.833 26.1807 105.208 25.6239 104.751 24.9405L104.649 26.7067L101.325 26.7405ZM108.335 23.8942C108.993 23.8942 109.572 23.7142 110.105 23.388C110.616 23.028 111.013 22.5555 111.342 21.9817C111.625 21.408 111.773 20.7217 111.773 19.9567C111.817 19.2923 111.687 18.6278 111.394 18.0284C111.102 17.4289 110.658 16.9149 110.105 16.5367C109.574 16.2086 108.961 16.0347 108.335 16.0347C107.71 16.0347 107.097 16.2086 106.566 16.5367C106.067 16.8967 105.658 17.3692 105.341 17.943C105.024 18.57 104.875 19.2674 104.909 19.968C104.865 20.6324 104.996 21.2968 105.288 21.8963C105.58 22.4958 106.024 23.0097 106.577 23.388C107.11 23.7142 107.655 23.8942 108.335 23.8942Z" fill="white"/>
</g>
<defs>
<clipPath id="clip0_11182_72138">
<rect width="115.714" height="36" fill="white" transform="translate(0.143066)"/>
</clipPath>
</defs>
</svg>
