<svg width="21" height="13" viewBox="0 0 21 13" fill="none" xmlns="http://www.w3.org/2000/svg">
<path d="M19.9999 7.13067C19.7347 7.13067 19.4804 7.02532 19.2928 6.83778C19.1053 6.65024 18.9999 6.39589 18.9999 6.13067V3.54067L12.7099 9.84067C12.617 9.9344 12.5064 10.0088 12.3845 10.0596C12.2627 10.1103 12.132 10.1365 11.9999 10.1365C11.8679 10.1365 11.7372 10.1103 11.6154 10.0596C11.4935 10.0088 11.3829 9.9344 11.2899 9.84067L7.99994 6.54067L2.70994 11.8407C2.52164 12.029 2.26624 12.1348 1.99994 12.1348C1.73364 12.1348 1.47824 12.029 1.28994 11.8407C1.10164 11.6524 0.99585 11.397 0.99585 11.1307C0.99585 10.8644 1.10164 10.609 1.28994 10.4207L7.28994 4.42067C7.3829 4.32695 7.49351 4.25255 7.61536 4.20178C7.73722 4.15101 7.86793 4.12488 7.99994 4.12488C8.13195 4.12488 8.26266 4.15101 8.38452 4.20178C8.50638 4.25255 8.61698 4.32695 8.70994 4.42067L11.9999 7.72067L17.5899 2.13067H14.9999C14.7347 2.13067 14.4804 2.02532 14.2928 1.83778C14.1053 1.65025 13.9999 1.39589 13.9999 1.13067C13.9999 0.865458 14.1053 0.611103 14.2928 0.423567C14.4804 0.236031 14.7347 0.130674 14.9999 0.130674H19.9999C20.1306 0.132255 20.2597 0.159433 20.3799 0.210674C20.6243 0.312149 20.8185 0.506326 20.9199 0.750675C20.9712 0.870897 20.9984 0.999997 20.9999 1.13067V6.13067C20.9999 6.39589 20.8946 6.65024 20.707 6.83778C20.5195 7.02532 20.2652 7.13067 19.9999 7.13067Z" fill="#6BB372"/>
</svg>
