<svg width="21" height="13" viewBox="0 0 21 13" fill="none" xmlns="http://www.w3.org/2000/svg">
<path d="M19.9999 5.13104C19.7347 5.13104 19.4804 5.2364 19.2928 5.42394C19.1053 5.61147 18.9999 5.86583 18.9999 6.13104V8.72104L12.7099 2.42104C12.617 2.32732 12.5064 2.25292 12.3845 2.20215C12.2627 2.15139 12.132 2.12525 11.9999 2.12525C11.8679 2.12525 11.7372 2.15139 11.6154 2.20215C11.4935 2.25292 11.3829 2.32732 11.2899 2.42104L7.99994 5.72105L2.70994 0.421045C2.52164 0.232741 2.26624 0.126953 1.99994 0.126953C1.73364 0.126953 1.47824 0.232741 1.28994 0.421045C1.10164 0.609349 0.99585 0.864743 0.99585 1.13104C0.99585 1.39735 1.10164 1.65274 1.28994 1.84104L7.28994 7.84104C7.3829 7.93477 7.49351 8.00917 7.61536 8.05994C7.73722 8.1107 7.86793 8.13684 7.99994 8.13684C8.13195 8.13684 8.26266 8.1107 8.38452 8.05994C8.50638 8.00917 8.61698 7.93477 8.70994 7.84104L11.9999 4.54104L17.5899 10.131H14.9999C14.7347 10.131 14.4804 10.2364 14.2928 10.4239C14.1053 10.6115 13.9999 10.8658 13.9999 11.131C13.9999 11.3963 14.1053 11.6506 14.2928 11.8382C14.4804 12.0257 14.7347 12.131 14.9999 12.131H19.9999C20.1306 12.1295 20.2597 12.1023 20.3799 12.051C20.6243 11.9496 20.8185 11.7554 20.9199 11.511C20.9712 11.3908 20.9984 11.2617 20.9999 11.131V6.13104C20.9999 5.86583 20.8946 5.61147 20.707 5.42394C20.5195 5.2364 20.2652 5.13104 19.9999 5.13104Z" fill="#FF7070"/>
</svg>
