<svg width="34" height="27" viewBox="0 0 34 27" fill="none" xmlns="http://www.w3.org/2000/svg">
<path fill-rule="evenodd" clip-rule="evenodd" d="M11.3321 1.0028C9.43841 1.40787 7.28419 2.09901 5.77416 2.78594L5.39167 2.95996L4.93402 3.6846C2.64698 7.30635 1.31215 10.7444 0.661775 14.6885C0.395188 16.3052 0.277124 18.4473 0.35896 20.1818C0.390174 20.8423 0.430499 21.5093 0.448613 21.6641L0.481552 21.9453L1.04087 22.3389C2.78078 23.563 4.74382 24.6268 6.68078 25.3953C7.20107 25.6018 8.84949 26.1869 8.91073 26.1869C8.94793 26.1869 9.64585 25.149 9.98538 24.5888C10.346 23.9937 10.7338 23.2647 10.7021 23.2415C10.6928 23.2347 10.5396 23.1721 10.3617 23.1024C9.89632 22.9202 8.88259 22.4394 8.35205 22.1491L7.89597 21.8995L8.05064 21.772C8.13571 21.7018 8.29103 21.5833 8.39583 21.5085L8.58635 21.3726L9.21381 21.6395C10.9995 22.399 13.0882 22.9364 15.1328 23.1623C15.938 23.2512 18.1144 23.2517 18.9065 23.1631C20.9475 22.9348 22.9973 22.4062 24.7421 21.6582L25.4292 21.3635L25.7571 21.6221C26.0601 21.861 26.0774 21.8861 25.9864 21.9535C25.8082 22.0854 24.2262 22.8649 23.7585 23.0512C23.5065 23.1516 23.291 23.2398 23.2798 23.2473C23.2336 23.2781 23.9661 24.5389 24.4924 25.3347C24.8024 25.8034 25.0621 26.1869 25.0695 26.1869C25.0769 26.1869 25.4703 26.0564 25.9437 25.8969C28.2418 25.1226 30.4186 24.0482 32.4381 22.6912C33.6287 21.8912 33.5236 22.0037 33.5744 21.4736C33.7321 19.8277 33.684 17.3713 33.459 15.5813C32.9211 11.3016 31.3583 7.12752 28.9288 3.4818L28.5643 2.9348L28.0617 2.7136C26.3828 1.97472 24.3183 1.33168 22.3876 0.946308C21.8351 0.836032 21.6812 0.821422 21.645 0.875857C21.541 1.03245 20.8473 2.48271 20.8473 2.54358C20.8473 2.59093 20.7774 2.60002 20.6007 2.57572C19.3 2.39678 18.6261 2.35647 16.9658 2.35831C15.3171 2.3601 14.6714 2.39943 13.4593 2.57172L13.2145 2.60657L12.7717 1.70791C12.5281 1.21367 12.2986 0.811358 12.2618 0.813793C12.2249 0.816282 11.8065 0.901343 11.3321 1.0028ZM12.1088 11.4982C13.0635 11.7241 13.8967 12.5163 14.2592 13.5427C14.4414 14.0585 14.4865 15.0402 14.3541 15.6084C14.0979 16.7079 13.2613 17.661 12.2873 17.963C11.7871 18.118 11.0702 18.109 10.5982 17.9418C9.85034 17.6768 9.24772 17.1253 8.87633 16.3659C8.5946 15.7898 8.50182 15.3938 8.50182 14.767C8.50182 12.6078 10.2195 11.0512 12.1088 11.4982ZM23.0638 11.4698C24.1228 11.6701 25.0972 12.6375 25.4067 13.7957C25.5211 14.224 25.535 15.1545 25.4333 15.5813C25.2701 16.2656 24.8154 17.0195 24.3156 17.434C23.7409 17.9107 23.1719 18.0945 22.3808 18.0592C21.8904 18.0373 21.7881 18.0141 21.4335 17.8442C20.477 17.386 19.8586 16.5818 19.6378 15.5088C19.464 14.6641 19.5639 13.9093 19.9546 13.1146C20.1504 12.7165 20.2714 12.5517 20.5902 12.2488C21.3216 11.554 22.1424 11.2955 23.0638 11.4698Z" fill="white"/>
</svg>
