<svg width="109" height="36" viewBox="0 0 109 36" fill="none" xmlns="http://www.w3.org/2000/svg">
<g clip-path="url(#clip0_11182_72151)">
<path d="M46.8171 18.4618C46.8171 23.4588 42.8504 27.141 37.9825 27.141C33.1146 27.141 29.1479 23.4588 29.1479 18.4618C29.1479 13.4297 33.1146 9.78271 37.9825 9.78271C42.8504 9.78271 46.8171 13.4297 46.8171 18.4618ZM42.9497 18.4618C42.9497 15.3392 40.6507 13.2027 37.9825 13.2027C35.3143 13.2027 33.0153 15.3392 33.0153 18.4618C33.0153 21.5531 35.3143 23.721 37.9825 23.721C40.6507 23.721 42.9497 21.5492 42.9497 18.4618Z" fill="white"/>
<path d="M65.8757 18.4618C65.8757 23.4588 61.909 27.141 57.0411 27.141C52.1732 27.141 48.2065 23.4588 48.2065 18.4618C48.2065 13.4336 52.1732 9.78271 57.0411 9.78271C61.909 9.78271 65.8757 13.4297 65.8757 18.4618ZM62.0083 18.4618C62.0083 15.3392 59.7093 13.2027 57.0411 13.2027C54.3729 13.2027 52.0739 15.3392 52.0739 18.4618C52.0739 21.5531 54.3729 23.721 57.0411 23.721C59.7093 23.721 62.0083 21.5492 62.0083 18.4618Z" fill="white"/>
<path d="M84.1403 10.3071V25.8888C84.1403 32.2984 80.3047 34.9162 75.7703 34.9162C71.5019 34.9162 68.9329 32.1027 67.9641 29.8018L71.3312 28.4205C71.9307 29.8331 73.3998 31.5001 75.7663 31.5001C78.6688 31.5001 80.4675 29.7353 80.4675 26.4131V25.1649H80.3325C79.4669 26.2175 77.7992 27.1371 75.6948 27.1371C71.2914 27.1371 67.2573 23.3571 67.2573 18.4931C67.2573 13.594 71.2914 9.78271 75.6948 9.78271C77.7953 9.78271 79.4629 10.7023 80.3325 11.7236H80.4675V10.311H84.1403V10.3071ZM80.7415 18.4931C80.7415 15.4371 78.6728 13.2027 76.0403 13.2027C73.372 13.2027 71.1366 15.4371 71.1366 18.4931C71.1366 21.5179 73.372 23.721 76.0403 23.721C78.6728 23.721 80.7415 21.5179 80.7415 18.4931Z" fill="white"/>
<path d="M90.1959 1.17383V26.6086H86.4238V1.17383H90.1959Z" fill="white"/>
<path d="M104.895 21.3184L107.897 23.2905C106.928 24.7032 104.593 27.1371 100.559 27.1371C95.5562 27.1371 91.8198 23.3258 91.8198 18.4579C91.8198 13.2966 95.5879 9.77881 100.126 9.77881C104.696 9.77881 106.932 13.3632 107.662 15.3001L108.064 16.2862L96.2907 21.0914C97.192 22.8327 98.5937 23.721 100.559 23.721C102.529 23.721 103.894 22.7662 104.895 21.3184ZM95.6554 18.1958L103.525 14.9753C103.092 13.8914 101.79 13.1362 100.257 13.1362C98.2919 13.1362 95.5561 14.8462 95.6554 18.1958Z" fill="white"/>
<path d="M14.8698 16.2041V12.5219H27.4605C27.5836 13.1636 27.6471 13.9228 27.6471 14.7445C27.6471 17.5071 26.8808 20.9232 24.4111 23.3571C22.0089 25.8223 18.9396 27.1371 14.8737 27.1371C7.33755 27.1371 1.00049 21.0876 1.00049 13.6606C1.00049 6.23365 7.33755 0.184082 14.8737 0.184082C19.0428 0.184082 22.0128 1.79626 24.2443 3.89756L21.6078 6.49582C20.0077 5.01669 17.8398 3.86626 14.8698 3.86626C9.36652 3.86626 5.0624 8.23712 5.0624 13.6606C5.0624 19.0841 9.36652 23.4549 14.8698 23.4549C18.4393 23.4549 20.4723 22.0423 21.7746 20.7589C22.8308 19.718 23.5256 18.231 23.7996 16.2002L14.8698 16.2041Z" fill="white"/>
</g>
<defs>
<clipPath id="clip0_11182_72151">
<rect width="108" height="36" fill="white" transform="translate(0.857422)"/>
</clipPath>
</defs>
</svg>
