<svg width="34" height="34" viewBox="0 0 34 34" fill="none" xmlns="http://www.w3.org/2000/svg">
<path d="M17 0.0484619C7.80004 0.0484619 0.333374 7.51513 0.333374 16.7151C0.333374 25.9151 7.80004 33.3818 17 33.3818C26.2 33.3818 33.6667 25.9151 33.6667 16.7151C33.6667 7.51513 26.2 0.0484619 17 0.0484619ZM24.7334 11.3818C24.4834 14.0151 23.4 20.4151 22.85 23.3651C22.6167 24.6151 22.15 25.0318 21.7167 25.0818C20.75 25.1651 20.0167 24.4485 19.0834 23.8318C17.6167 22.8651 16.7834 22.2651 15.3667 21.3318C13.7167 20.2485 14.7834 19.6485 15.7334 18.6818C15.9834 18.4318 20.25 14.5485 20.3334 14.1985C20.345 14.1454 20.3434 14.0904 20.3289 14.0381C20.3144 13.9859 20.2873 13.9379 20.25 13.8985C20.15 13.8151 20.0167 13.8485 19.9 13.8651C19.75 13.8985 17.4167 15.4485 12.8667 18.5151C12.2 18.9651 11.6 19.1985 11.0667 19.1818C10.4667 19.1651 9.33337 18.8485 8.48337 18.5651C7.43337 18.2318 6.61671 18.0485 6.68337 17.4651C6.71671 17.1651 7.13337 16.8651 7.91671 16.5485C12.7834 14.4318 16.0167 13.0318 17.6334 12.3651C22.2667 10.4318 23.2167 10.0985 23.85 10.0985C23.9834 10.0985 24.3 10.1318 24.5 10.2985C24.6667 10.4318 24.7167 10.6151 24.7334 10.7485C24.7167 10.8485 24.75 11.1485 24.7334 11.3818Z" fill="white"/>
</svg>
