<svg width="19" height="13" viewBox="0 0 19 13" fill="none" xmlns="http://www.w3.org/2000/svg">
<path d="M1.09766 12.5C0.814323 12.5 0.57699 12.404 0.385656 12.212C0.193656 12.0207 0.0976562 11.7833 0.0976562 11.5C0.0976562 11.2167 0.193656 10.9793 0.385656 10.788C0.57699 10.596 0.814323 10.5 1.09766 10.5H17.0977C17.381 10.5 17.6183 10.596 17.8097 10.788C18.0017 10.9793 18.0977 11.2167 18.0977 11.5C18.0977 11.7833 18.0017 12.0207 17.8097 12.212C17.6183 12.404 17.381 12.5 17.0977 12.5H1.09766ZM1.09766 7.5C0.814323 7.5 0.57699 7.404 0.385656 7.212C0.193656 7.02067 0.0976562 6.78333 0.0976562 6.5C0.0976562 6.21667 0.193656 5.979 0.385656 5.787C0.57699 5.59567 0.814323 5.5 1.09766 5.5H17.0977C17.381 5.5 17.6183 5.59567 17.8097 5.787C18.0017 5.979 18.0977 6.21667 18.0977 6.5C18.0977 6.78333 18.0017 7.02067 17.8097 7.212C17.6183 7.404 17.381 7.5 17.0977 7.5H1.09766ZM1.09766 2.5C0.814323 2.5 0.57699 2.40433 0.385656 2.213C0.193656 2.021 0.0976562 1.78333 0.0976562 1.5C0.0976562 1.21667 0.193656 0.979 0.385656 0.787C0.57699 0.595667 0.814323 0.5 1.09766 0.5H17.0977C17.381 0.5 17.6183 0.595667 17.8097 0.787C18.0017 0.979 18.0977 1.21667 18.0977 1.5C18.0977 1.78333 18.0017 2.021 17.8097 2.213C17.6183 2.40433 17.381 2.5 17.0977 2.5H1.09766Z" fill="#9072FF"/>
</svg>
