<svg width="24" height="25" viewBox="0 0 24 25" fill="none" xmlns="http://www.w3.org/2000/svg">
<path d="M6 11.1309C5.80222 11.1309 5.60888 11.1895 5.44443 11.2994C5.27998 11.4093 5.15181 11.5654 5.07612 11.7482C5.00043 11.9309 4.98063 12.132 5.01921 12.3259C5.0578 12.5199 5.15304 12.6981 5.29289 12.838C5.43275 12.9778 5.61093 13.0731 5.80491 13.1116C5.99889 13.1502 6.19996 13.1304 6.38268 13.0547C6.56541 12.9791 6.72159 12.8509 6.83147 12.6864C6.94135 12.522 7 12.3286 7 12.1309C7 11.8656 6.89464 11.6113 6.70711 11.4238C6.51957 11.2362 6.26522 11.1309 6 11.1309ZM18 11.1309C17.8022 11.1309 17.6089 11.1895 17.4444 11.2994C17.28 11.4093 17.1518 11.5654 17.0761 11.7482C17.0004 11.9309 16.9806 12.132 17.0192 12.3259C17.0578 12.5199 17.153 12.6981 17.2929 12.838C17.4327 12.9778 17.6109 13.0731 17.8049 13.1116C17.9989 13.1502 18.2 13.1304 18.3827 13.0547C18.5654 12.9791 18.7216 12.8509 18.8315 12.6864C18.9414 12.522 19 12.3286 19 12.1309C19 11.8656 18.8946 11.6113 18.7071 11.4238C18.5196 11.2362 18.2652 11.1309 18 11.1309ZM20 5.13086H4C3.20435 5.13086 2.44129 5.44693 1.87868 6.00954C1.31607 6.57215 1 7.33521 1 8.13086V16.1309C1 16.9265 1.31607 17.6896 1.87868 18.2522C2.44129 18.8148 3.20435 19.1309 4 19.1309H20C20.7956 19.1309 21.5587 18.8148 22.1213 18.2522C22.6839 17.6896 23 16.9265 23 16.1309V8.13086C23 7.33521 22.6839 6.57215 22.1213 6.00954C21.5587 5.44693 20.7956 5.13086 20 5.13086ZM21 16.1309C21 16.3961 20.8946 16.6504 20.7071 16.838C20.5196 17.0255 20.2652 17.1309 20 17.1309H4C3.73478 17.1309 3.48043 17.0255 3.29289 16.838C3.10536 16.6504 3 16.3961 3 16.1309V8.13086C3 7.86564 3.10536 7.61129 3.29289 7.42375C3.48043 7.23622 3.73478 7.13086 4 7.13086H20C20.2652 7.13086 20.5196 7.23622 20.7071 7.42375C20.8946 7.61129 21 7.86564 21 8.13086V16.1309ZM12 9.13086C11.4067 9.13086 10.8266 9.30681 10.3333 9.63645C9.83994 9.9661 9.45542 10.4346 9.22836 10.9828C9.0013 11.531 8.94189 12.1342 9.05764 12.7161C9.1734 13.2981 9.45912 13.8326 9.87868 14.2522C10.2982 14.6717 10.8328 14.9575 11.4147 15.0732C11.9967 15.189 12.5999 15.1296 13.1481 14.9025C13.6962 14.6754 14.1648 14.2909 14.4944 13.7976C14.8241 13.3042 15 12.7242 15 12.1309C15 11.3352 14.6839 10.5721 14.1213 10.0095C13.5587 9.44693 12.7956 9.13086 12 9.13086ZM12 13.1309C11.8022 13.1309 11.6089 13.0722 11.4444 12.9623C11.28 12.8524 11.1518 12.6963 11.0761 12.5135C11.0004 12.3308 10.9806 12.1298 11.0192 11.9358C11.0578 11.7418 11.153 11.5636 11.2929 11.4238C11.4327 11.2839 11.6109 11.1887 11.8049 11.1501C11.9989 11.1115 12.2 11.1313 12.3827 11.207C12.5654 11.2827 12.7216 11.4108 12.8315 11.5753C12.9414 11.7397 13 11.9331 13 12.1309C13 12.3961 12.8946 12.6504 12.7071 12.838C12.5196 13.0255 12.2652 13.1309 12 13.1309Z" fill="#FB8618"/>
</svg>
