<svg width="20" height="21" viewBox="0 0 20 21" fill="none" xmlns="http://www.w3.org/2000/svg">
<path d="M13.71 10.8405C14.6904 10.0692 15.406 9.01142 15.7572 7.81444C16.1085 6.61746 16.0779 5.34076 15.6698 4.16196C15.2617 2.98317 14.4963 1.96089 13.4801 1.23735C12.4639 0.513815 11.2474 0.125 10 0.125C8.75255 0.125 7.53611 0.513815 6.51993 1.23735C5.50374 1.96089 4.73834 2.98317 4.33021 4.16196C3.92208 5.34076 3.89151 6.61746 4.24276 7.81444C4.59401 9.01142 5.3096 10.0692 6.29 10.8405C4.61007 11.5135 3.14428 12.6298 2.04889 14.0704C0.953495 15.511 0.26956 17.2218 0.0699967 19.0205C0.0555513 19.1518 0.0671132 19.2847 0.104022 19.4116C0.140931 19.5384 0.202464 19.6567 0.285108 19.7598C0.452016 19.968 0.69478 20.1013 0.959997 20.1305C1.22521 20.1597 1.49116 20.0823 1.69932 19.9154C1.90749 19.7485 2.04082 19.5057 2.07 19.2405C2.28958 17.2857 3.22168 15.4803 4.68822 14.1693C6.15475 12.8583 8.0529 12.1335 10.02 12.1335C11.9871 12.1335 13.8852 12.8583 15.3518 14.1693C16.8183 15.4803 17.7504 17.2857 17.97 19.2405C17.9972 19.4862 18.1144 19.7131 18.2991 19.8775C18.4838 20.0419 18.7228 20.132 18.97 20.1305H19.08C19.3421 20.1003 19.5817 19.9678 19.7466 19.7617C19.9114 19.5557 19.9881 19.2929 19.96 19.0305C19.7595 17.2267 19.0719 15.5115 17.9708 14.0687C16.8698 12.6259 15.3969 11.51 13.71 10.8405V10.8405ZM10 10.1305C9.20887 10.1305 8.43551 9.8959 7.77772 9.45637C7.11992 9.01685 6.60723 8.39213 6.30448 7.66123C6.00173 6.93032 5.92251 6.12606 6.07686 5.35013C6.2312 4.57421 6.61216 3.86148 7.17157 3.30207C7.73098 2.74266 8.44371 2.3617 9.21964 2.20735C9.99556 2.05301 10.7998 2.13223 11.5307 2.43498C12.2616 2.73773 12.8863 3.25042 13.3259 3.90821C13.7654 4.56601 14 5.33937 14 6.1305C14 7.19136 13.5786 8.20878 12.8284 8.95892C12.0783 9.70907 11.0609 10.1305 10 10.1305Z" fill="#FB8618"/>
</svg>
