<svg width="40" height="60" viewBox="0 0 40 60" fill="none" xmlns="http://www.w3.org/2000/svg">
<path d="M11.064 3.7069L18.1209 0L23.5961 0.746247L27.1651 5.40218L11.064 3.7069Z" fill="url(#paint0_linear_6431_19178)"/>
<path d="M11.0639 3.70703L2.40097 19.4431L0 32.8026L3.49601 44.4911L7.32459 52.7323L10.0419 57.1206L19.7188 60.0001L29.6634 56.5852L39.4295 38.3184L36.7933 23.5962L27.1651 5.40231L11.0639 3.70703Z" fill="url(#paint1_linear_6431_19178)"/>
<path d="M11.0639 3.70703L9.59569 22.4768L2.40088 19.4431L11.0639 3.70703Z" fill="url(#paint2_linear_6431_19178)"/>
<path d="M27.1653 5.40231L30.2071 23.5556L23.3367 35.9336L17.0017 41.6522L7.95752 30.0366L9.59602 22.4768L11.0642 3.70703L27.1653 5.40231Z" fill="url(#paint3_linear_6431_19178)"/>
<path d="M19.7191 4.61552L9.00391 22.4768L11.0642 3.70703L19.7191 4.61552Z" fill="url(#paint4_linear_6431_19178)"/>
<path d="M27.165 5.40301L30.2068 23.5563L19.7188 4.61621L27.165 5.40301Z" fill="url(#paint5_linear_6431_19178)"/>
<path d="M36.7935 23.5962L39.4297 38.3184L30.207 23.5557L36.7935 23.5962Z" fill="url(#paint6_linear_6431_19178)"/>
<path d="M30.2068 23.5557L17.0015 41.6522L39.4295 38.3184L30.2068 23.5557Z" fill="url(#paint7_linear_6431_19178)"/>
<path d="M9.59578 22.476L7.95728 30.0359L0 32.8019L2.40097 19.4424L9.59578 22.476Z" fill="url(#paint8_linear_6431_19178)"/>
<path d="M17.0015 41.6526L3.49601 44.4916L0 32.8031L7.95728 30.0371L17.0015 41.6526Z" fill="url(#paint9_linear_6431_19178)"/>
<path d="M29.6634 56.5852L39.4295 38.3184L17.0015 41.6522L29.6634 56.5852Z" fill="url(#paint10_linear_6431_19178)"/>
<path d="M3.49609 44.4904L17.0016 41.6514L7.32467 52.7315L3.49609 44.4904Z" fill="url(#paint11_linear_6431_19178)"/>
<path d="M7.32471 52.7324L19.7189 60.0002L9.71757 56.5853L7.32471 52.7324Z" fill="url(#paint12_linear_6431_19178)"/>
<path d="M10.042 57.1208L7.32471 52.7325L17.0016 41.6523L10.042 57.1208Z" fill="url(#paint13_linear_6431_19178)"/>
<path d="M19.7188 60L25.9159 52.1562L29.6633 56.5851L19.7188 60Z" fill="url(#paint14_linear_6431_19178)"/>
<path d="M17.0015 41.6523L19.7188 60.0003L25.9159 52.1566L17.0015 41.6523Z" fill="url(#paint15_linear_6431_19178)"/>
<path d="M39.4296 38.3184L29.6635 56.5852L25.916 52.1564L39.4296 38.3184Z" fill="url(#paint16_linear_6431_19178)"/>
<path d="M17.0015 41.6522L39.4295 38.3184L25.9159 52.1564L17.0015 41.6522Z" fill="white" fill-opacity="0.1"/>
<path d="M7.95728 30.0371L11.0639 34.2226L3.49601 44.4916L0 32.8031L7.95728 30.0371Z" fill="white" fill-opacity="0.1"/>
<path d="M19.7188 4.61621L27.165 5.40301L36.7932 23.5969L30.2068 23.5563L19.7188 4.61621Z" fill="#888CFF"/>
<path d="M19.7191 4.61523C18.2833 7.73001 16.726 10.7799 15.1361 13.8136C14.3493 15.3304 13.5301 16.831 12.7108 18.3397C11.8997 19.8484 11.048 21.3328 10.2206 22.8253L10.3017 22.6225C10.0422 23.8879 9.75015 25.1452 9.47437 26.4024C9.19858 27.6597 8.91468 28.917 8.61456 30.1742L8.49289 29.6308C9.96916 31.5937 11.4211 33.5729 12.8487 35.5683C14.2763 37.5637 15.6715 39.5835 17.018 41.6438C15.347 39.8349 13.7329 37.9855 12.143 36.1118C10.5532 34.238 8.98768 32.3481 7.45463 30.4419L7.26807 30.2148L7.32485 29.8984C7.56819 28.6331 7.82775 27.3677 8.09543 26.1023C8.36311 24.8369 8.61456 23.5716 8.89846 22.3143L8.92279 22.2007L8.97146 22.1115C9.83127 20.6352 10.6667 19.1346 11.5428 17.6665C12.4107 16.1902 13.2786 14.722 14.179 13.262C15.9635 10.35 17.7804 7.44611 19.7191 4.61523Z" fill="#D1D3FF"/>
<defs>
<linearGradient id="paint0_linear_6431_19178" x1="11.0638" y1="2.70166" x2="27.1655" y2="2.70166" gradientUnits="userSpaceOnUse">
<stop stop-color="#BFC1FE"/>
<stop offset="1" stop-color="#787DFE"/>
</linearGradient>
<linearGradient id="paint1_linear_6431_19178" x1="0.00275787" y1="31.8524" x2="39.4306" y2="31.8524" gradientUnits="userSpaceOnUse">
<stop stop-color="#BFC1FE"/>
<stop offset="1" stop-color="#787DFE"/>
</linearGradient>
<linearGradient id="paint2_linear_6431_19178" x1="2.40437" y1="13.0879" x2="11.0637" y2="13.0879" gradientUnits="userSpaceOnUse">
<stop stop-color="#BFC1FE"/>
<stop offset="1" stop-color="#787DFE"/>
</linearGradient>
<linearGradient id="paint3_linear_6431_19178" x1="7.96093" y1="22.6757" x2="30.2068" y2="22.6757" gradientUnits="userSpaceOnUse">
<stop stop-color="#BFC1FE"/>
<stop offset="1" stop-color="#787DFE"/>
</linearGradient>
<linearGradient id="paint4_linear_6431_19178" x1="8.99985" y1="13.0879" x2="19.7169" y2="13.0879" gradientUnits="userSpaceOnUse">
<stop stop-color="#BFC1FE"/>
<stop offset="1" stop-color="#787DFE"/>
</linearGradient>
<linearGradient id="paint5_linear_6431_19178" x1="19.7166" y1="14.0873" x2="30.2065" y2="14.0873" gradientUnits="userSpaceOnUse">
<stop stop-color="#BFC1FE"/>
<stop offset="1" stop-color="#787DFE"/>
</linearGradient>
<linearGradient id="paint6_linear_6431_19178" x1="30.2068" y1="30.9374" x2="39.4307" y2="30.9374" gradientUnits="userSpaceOnUse">
<stop stop-color="#BFC1FE"/>
<stop offset="1" stop-color="#787DFE"/>
</linearGradient>
<linearGradient id="paint7_linear_6431_19178" x1="17.0037" y1="32.6033" x2="39.4305" y2="32.6033" gradientUnits="userSpaceOnUse">
<stop stop-color="#BFC1FE"/>
<stop offset="1" stop-color="#787DFE"/>
</linearGradient>
<linearGradient id="paint8_linear_6431_19178" x1="0.00275787" y1="26.1233" x2="9.59318" y2="26.1233" gradientUnits="userSpaceOnUse">
<stop stop-color="#BFC1FE"/>
<stop offset="1" stop-color="#787DFE"/>
</linearGradient>
<linearGradient id="paint9_linear_6431_19178" x1="0.00275787" y1="37.2633" x2="17.0038" y2="37.2633" gradientUnits="userSpaceOnUse">
<stop stop-color="#BFC1FE"/>
<stop offset="1" stop-color="#787DFE"/>
</linearGradient>
<linearGradient id="paint10_linear_6431_19178" x1="17.0037" y1="47.4512" x2="39.4305" y2="47.4512" gradientUnits="userSpaceOnUse">
<stop stop-color="#BFC1FE"/>
<stop offset="1" stop-color="#787DFE"/>
</linearGradient>
<linearGradient id="paint11_linear_6431_19178" x1="3.49804" y1="47.191" x2="17.0038" y2="47.191" gradientUnits="userSpaceOnUse">
<stop stop-color="#BFC1FE"/>
<stop offset="1" stop-color="#787DFE"/>
</linearGradient>
<linearGradient id="paint12_linear_6431_19178" x1="7.32244" y1="56.3687" x2="19.7167" y2="56.3687" gradientUnits="userSpaceOnUse">
<stop stop-color="#BFC1FE"/>
<stop offset="1" stop-color="#787DFE"/>
</linearGradient>
<linearGradient id="paint13_linear_6431_19178" x1="7.32244" y1="49.3843" x2="17.0039" y2="49.3843" gradientUnits="userSpaceOnUse">
<stop stop-color="#BFC1FE"/>
<stop offset="1" stop-color="#787DFE"/>
</linearGradient>
<linearGradient id="paint14_linear_6431_19178" x1="19.7166" y1="56.0801" x2="29.664" y2="56.0801" gradientUnits="userSpaceOnUse">
<stop stop-color="#BFC1FE"/>
<stop offset="1" stop-color="#787DFE"/>
</linearGradient>
<linearGradient id="paint15_linear_6431_19178" x1="17.0037" y1="50.8254" x2="25.9119" y2="50.8254" gradientUnits="userSpaceOnUse">
<stop stop-color="#BFC1FE"/>
<stop offset="1" stop-color="#787DFE"/>
</linearGradient>
<linearGradient id="paint16_linear_6431_19178" x1="25.912" y1="47.4512" x2="39.4307" y2="47.4512" gradientUnits="userSpaceOnUse">
<stop stop-color="#BFC1FE"/>
<stop offset="1" stop-color="#787DFE"/>
</linearGradient>
</defs>
</svg>
