<svg width="45" height="60" viewBox="0 0 45 60" fill="none" xmlns="http://www.w3.org/2000/svg">
<path fill-rule="evenodd" clip-rule="evenodd" d="M38.2329 0.106028C36.3293 -0.921603 18.5058 5.85909 18.5058 5.85909L0 40.251C0 40.251 4.16105 58.8663 6.06469 59.8855C7.96834 60.9132 25.7919 54.1325 25.7919 54.1325L44.2976 19.7405C44.2976 19.7405 40.1366 1.13366 38.2329 0.106028Z" fill="url(#paint0_linear_6431_19397)"/>
<path fill-rule="evenodd" clip-rule="evenodd" d="M33.8615 18.3501L44.3063 19.74C44.3063 19.74 40.1452 1.12468 38.2416 0.105469L32.1011 11.5189L33.8615 18.3501Z" fill="url(#paint1_linear_6431_19397)"/>
<path opacity="0.56" fill-rule="evenodd" clip-rule="evenodd" d="M38.2334 0.105469L35.8159 11.4852L39.9264 19.2935L38.2334 0.105469Z" fill="url(#paint2_linear_6431_19397)"/>
<path fill-rule="evenodd" clip-rule="evenodd" d="M32.092 11.5195L38.2325 0.106028C36.3289 -0.921603 18.5054 5.85909 18.5054 5.85909L25.4208 13.8106L32.092 11.5195Z" fill="url(#paint3_linear_6431_19397)"/>
<path opacity="0.56" fill-rule="evenodd" clip-rule="evenodd" d="M34.914 1.21777L21.2095 5.65679L23.4079 8.49541L28.6556 7.7963L34.914 1.21777Z" fill="url(#paint4_linear_6431_19397)"/>
<path fill-rule="evenodd" clip-rule="evenodd" d="M12.2055 48.4806L6.06494 59.894C7.96859 60.9217 25.7921 54.141 25.7921 54.141L18.8766 46.1895L12.2055 48.4806Z" fill="url(#paint5_linear_6431_19397)"/>
<path opacity="0.56" fill-rule="evenodd" clip-rule="evenodd" d="M20.654 48.2275L23.0631 50.9988L7.03369 58.0911L8.1624 55.9937L20.654 48.2275Z" fill="url(#paint6_linear_6431_19397)"/>
<path fill-rule="evenodd" clip-rule="evenodd" d="M10.4448 41.6418L0 40.252C0 40.252 2.89757 53.2153 4.96126 58.1007C5.61827 59.2126 6.06469 59.8949 6.06469 59.8949L12.2052 48.4814L10.4448 41.6418Z" fill="url(#paint7_linear_6431_19397)"/>
<path opacity="0.56" fill-rule="evenodd" clip-rule="evenodd" d="M2.32471 49.6946C2.49317 50.3179 2.66164 50.9412 2.8301 51.5561L11.9524 47.5214L11.1017 44.2363L2.32471 49.6946Z" fill="url(#paint8_linear_6431_19397)"/>
<path fill-rule="evenodd" clip-rule="evenodd" d="M12.2048 48.4812C11.6236 46.3838 11.0087 43.9832 10.4443 41.6415L25.4208 13.8028C27.7624 12.9521 30.0788 12.1603 32.092 11.5117C32.6563 13.5586 33.2712 15.9255 33.8524 18.3429L18.8759 46.1816C16.5343 47.0324 14.2179 47.8242 12.2048 48.4812Z" fill="url(#paint9_linear_6431_19397)"/>
<path opacity="0.8" fill-rule="evenodd" clip-rule="evenodd" d="M33.1116 19.7324L30.3066 24.9548L16.3325 31.5333L18.4046 27.6755L33.1116 19.7324Z" fill="url(#paint10_linear_6431_19397)"/>
<path opacity="0.8" fill-rule="evenodd" clip-rule="evenodd" d="M29.3126 26.8086L25.539 33.8167L11.5649 40.3868L13.637 36.529L29.3126 26.8086Z" fill="url(#paint11_linear_6431_19397)"/>
<path fill-rule="evenodd" clip-rule="evenodd" d="M44.2977 19.7422L25.1433 34.5502L22.3384 50.1584L44.2977 19.7422Z" fill="url(#paint12_linear_6431_19397)"/>
<path fill-rule="evenodd" clip-rule="evenodd" d="M33.8614 18.3516L38.2246 18.9328L18.8765 46.1903L33.8614 18.3516Z" fill="url(#paint13_linear_6431_19397)"/>
<path fill-rule="evenodd" clip-rule="evenodd" d="M18.5058 5.85938L25.4212 13.8109L10.4448 41.6411L0 40.2513L18.5058 5.85938Z" fill="url(#paint14_linear_6431_19397)"/>
<path opacity="0.56" fill-rule="evenodd" clip-rule="evenodd" d="M23.6438 11.7637L8.65054 24.1795L5.44971 30.1263L25.4212 13.8105L23.6438 11.7637Z" fill="url(#paint15_linear_6431_19397)"/>
<path opacity="0.56" fill-rule="evenodd" clip-rule="evenodd" d="M25.421 13.8105L6.06445 41.0596L8.65038 24.1795L25.421 13.8105Z" fill="url(#paint16_linear_6431_19397)"/>
<path d="M32.0924 11.5195C30.6183 11.9238 26.5667 13.1199 25.2106 13.5579C15.9788 29.8568 15.0859 31.8616 10.1162 41.6156C10.5205 43.056 11.7335 47.0486 12.2052 48.4805C11.8935 46.8633 11.0428 42.8623 10.7648 41.6914C15.9619 32.5438 17.5539 29.9327 25.6402 14.0465C26.7015 13.659 30.5341 12.1597 32.0924 11.5195Z" fill="#FCAB95"/>
<path opacity="0.84" fill-rule="evenodd" clip-rule="evenodd" d="M42.3604 23.3457C31.3176 30.8676 14.7407 40.3606 0.26123 41.3882C1.19621 45.4398 4.44755 59.018 6.06481 59.8856C7.96845 60.9132 25.792 54.1325 25.792 54.1325L42.3604 23.3457Z" fill="white" fill-opacity="0.3"/>
<defs>
<linearGradient id="paint0_linear_6431_19397" x1="9.25284" y1="23.0567" x2="35.047" y2="36.938" gradientUnits="userSpaceOnUse">
<stop stop-color="#F2786A"/>
<stop offset="1" stop-color="#D51E20"/>
</linearGradient>
<linearGradient id="paint1_linear_6431_19397" x1="50.3989" y1="15.2692" x2="20.323" y2="2.60689" gradientUnits="userSpaceOnUse">
<stop stop-color="#F2786A"/>
<stop offset="0.2358" stop-color="#EB9D59"/>
<stop offset="1" stop-color="#D51E20"/>
</linearGradient>
<linearGradient id="paint2_linear_6431_19397" x1="45.4661" y1="12.3869" x2="26.7084" y2="4.48973" gradientUnits="userSpaceOnUse">
<stop stop-color="#FF7991"/>
<stop offset="0.0869" stop-color="#F4748A"/>
<stop offset="0.2416" stop-color="#D56579"/>
<stop offset="0.4463" stop-color="#A44E5D"/>
<stop offset="0.6931" stop-color="#5F2D36"/>
<stop offset="0.9731" stop-color="#090405"/>
<stop offset="1"/>
</linearGradient>
<linearGradient id="paint3_linear_6431_19397" x1="21.9181" y1="-2.49175" x2="32.8171" y2="7.90072" gradientUnits="userSpaceOnUse">
<stop stop-color="#F2786A"/>
<stop offset="1" stop-color="#D51E20"/>
</linearGradient>
<linearGradient id="paint4_linear_6431_19397" x1="35.4534" y1="7.50863" x2="12.7254" y2="-2.06009" gradientUnits="userSpaceOnUse">
<stop stop-color="#FF7991"/>
<stop offset="0.0869" stop-color="#F4748A"/>
<stop offset="0.2416" stop-color="#D56579"/>
<stop offset="0.4463" stop-color="#A44E5D"/>
<stop offset="0.6931" stop-color="#5F2D36"/>
<stop offset="0.9731" stop-color="#090405"/>
<stop offset="1"/>
</linearGradient>
<linearGradient id="paint5_linear_6431_19397" x1="19.7265" y1="60.4933" x2="7.44982" y2="47.8764" gradientUnits="userSpaceOnUse">
<stop stop-color="#F2786A"/>
<stop offset="0.2358" stop-color="#EB9D59"/>
<stop offset="1" stop-color="#D51E20"/>
</linearGradient>
<linearGradient id="paint6_linear_6431_19397" x1="23.8886" y1="57.3859" x2="-1.15832" y2="46.8408" gradientUnits="userSpaceOnUse">
<stop stop-color="#FF7991"/>
<stop offset="0.0869" stop-color="#F4748A"/>
<stop offset="0.2416" stop-color="#D56579"/>
<stop offset="0.4463" stop-color="#A44E5D"/>
<stop offset="0.6931" stop-color="#5F2D36"/>
<stop offset="0.9731" stop-color="#090405"/>
<stop offset="1"/>
</linearGradient>
<linearGradient id="paint7_linear_6431_19397" x1="-4.43494" y1="38.6686" x2="9.79924" y2="52.2413" gradientUnits="userSpaceOnUse">
<stop stop-color="#F2786A"/>
<stop offset="1" stop-color="#D51E20"/>
</linearGradient>
<linearGradient id="paint8_linear_6431_19397" x1="13.0653" y1="50.4635" x2="-3.67198" y2="43.417" gradientUnits="userSpaceOnUse">
<stop stop-color="#FF7991"/>
<stop offset="0.0869" stop-color="#F4748A"/>
<stop offset="0.2416" stop-color="#D56579"/>
<stop offset="0.4463" stop-color="#A44E5D"/>
<stop offset="0.6931" stop-color="#5F2D36"/>
<stop offset="0.9731" stop-color="#090405"/>
<stop offset="1"/>
</linearGradient>
<linearGradient id="paint9_linear_6431_19397" x1="12.7206" y1="21.0076" x2="26.6915" y2="34.3293" gradientUnits="userSpaceOnUse">
<stop stop-color="#F2786A"/>
<stop offset="1" stop-color="#D51E20"/>
</linearGradient>
<linearGradient id="paint10_linear_6431_19397" x1="13.6095" y1="21.7134" x2="32.0304" y2="28.2072" gradientUnits="userSpaceOnUse">
<stop stop-color="#FFFFDC"/>
<stop offset="0.0869" stop-color="#F4F4D2"/>
<stop offset="0.2416" stop-color="#D5D5B8"/>
<stop offset="0.4463" stop-color="#A4A48D"/>
<stop offset="0.6931" stop-color="#5F5F52"/>
<stop offset="0.9731" stop-color="#090908"/>
<stop offset="1"/>
</linearGradient>
<linearGradient id="paint11_linear_6431_19397" x1="10.6383" y1="30.1428" x2="29.0592" y2="36.6367" gradientUnits="userSpaceOnUse">
<stop stop-color="#FFFFDC"/>
<stop offset="0.0869" stop-color="#F4F4D2"/>
<stop offset="0.2416" stop-color="#D5D5B8"/>
<stop offset="0.4463" stop-color="#A4A48D"/>
<stop offset="0.6931" stop-color="#5F5F52"/>
<stop offset="0.9731" stop-color="#090908"/>
<stop offset="1"/>
</linearGradient>
<linearGradient id="paint12_linear_6431_19397" x1="27.3166" y1="29.2297" x2="34.2535" y2="35.8442" gradientUnits="userSpaceOnUse">
<stop stop-color="#FF7991"/>
<stop offset="0.0869" stop-color="#F4748A"/>
<stop offset="0.2416" stop-color="#D56579"/>
<stop offset="0.4463" stop-color="#A44E5D"/>
<stop offset="0.6931" stop-color="#5F2D36"/>
<stop offset="0.9731" stop-color="#090405"/>
<stop offset="1"/>
</linearGradient>
<linearGradient id="paint13_linear_6431_19397" x1="33.6923" y1="34.724" x2="18.5851" y2="28.3636" gradientUnits="userSpaceOnUse">
<stop stop-color="#FF7991"/>
<stop offset="0.0869" stop-color="#F4748A"/>
<stop offset="0.2416" stop-color="#D56579"/>
<stop offset="0.4463" stop-color="#A44E5D"/>
<stop offset="0.6931" stop-color="#5F2D36"/>
<stop offset="0.9731" stop-color="#090405"/>
<stop offset="1"/>
</linearGradient>
<linearGradient id="paint14_linear_6431_19397" x1="17.633" y1="27.1522" x2="0.896511" y2="18.9744" gradientUnits="userSpaceOnUse">
<stop stop-color="#F2786A"/>
<stop offset="0.2358" stop-color="#EB9D59"/>
<stop offset="1" stop-color="#D51E20"/>
</linearGradient>
<linearGradient id="paint15_linear_6431_19397" x1="24.2252" y1="25.0226" x2="-0.925496" y2="14.434" gradientUnits="userSpaceOnUse">
<stop stop-color="#FFFFDC"/>
<stop offset="0.0869" stop-color="#F4F4D2"/>
<stop offset="0.2416" stop-color="#D5D5B8"/>
<stop offset="0.4463" stop-color="#A4A48D"/>
<stop offset="0.6931" stop-color="#5F5F52"/>
<stop offset="0.9731" stop-color="#090908"/>
<stop offset="1"/>
</linearGradient>
<linearGradient id="paint16_linear_6431_19397" x1="21.9259" y1="30.0386" x2="-1.88819" y2="20.0125" gradientUnits="userSpaceOnUse">
<stop stop-color="#FFFFDC"/>
<stop offset="0.0869" stop-color="#F4F4D2"/>
<stop offset="0.2416" stop-color="#D5D5B8"/>
<stop offset="0.4463" stop-color="#A4A48D"/>
<stop offset="0.6931" stop-color="#5F5F52"/>
<stop offset="0.9731" stop-color="#090908"/>
<stop offset="1"/>
</linearGradient>
</defs>
</svg>
