<svg width="48" height="60" viewBox="0 0 48 60" fill="none" xmlns="http://www.w3.org/2000/svg">
<path d="M0 23.2115L10.5939 0L34.8939 5.46627L47.4792 60L14.8992 51.5426L9.23946 46.6488L17.8339 40.0618L0 23.2115Z" fill="url(#paint0_linear_6431_19213)"/>
<path d="M34.8935 5.46582L47.4788 59.9995L30.1851 20.4699L34.8935 5.46582Z" fill="url(#paint1_linear_6431_19213)"/>
<path d="M30.1851 20.4702L47.4788 59.9999L33.2971 10.5293L30.1851 20.4702Z" fill="url(#paint2_linear_6431_19213)"/>
<path opacity="0.59" d="M34.8932 5.46582L47.4785 59.9995L33.2969 10.529L34.8932 5.46582Z" fill="url(#paint3_linear_6431_19213)"/>
<path d="M30.1856 20.4699L34.894 5.46582L27.0493 6.73967L30.1856 20.4699Z" fill="url(#paint4_linear_6431_19213)"/>
<path opacity="0.59" d="M27.0493 6.73926L30.1856 20.4694L33.2976 10.5286L27.0493 6.73926Z" fill="url(#paint5_linear_6431_19213)"/>
<path d="M27.0492 6.74023L13.4077 11.2955L30.1855 20.4704L27.0492 6.74023Z" fill="url(#paint6_linear_6431_19213)"/>
<path d="M13.4077 11.2955L25.5093 9.82005L30.1855 20.4704L27.0492 6.74023L13.4077 11.2955Z" fill="url(#paint7_linear_6431_19213)"/>
<path d="M10.5942 0L13.408 11.2953L27.0495 6.74012L10.5942 0Z" fill="url(#paint8_linear_6431_19213)"/>
<path d="M19.6722 30.3543L13.4077 11.2949L30.1855 20.4699L19.6722 30.3543Z" fill="url(#paint9_linear_6431_19213)"/>
<path d="M0 23.2109L9.0379 34.1435L47.4792 59.9994L19.6721 30.3542L0 23.2109Z" fill="url(#paint10_linear_6431_19213)"/>
<path opacity="0.59" d="M9.0379 34.1435L47.4792 59.9994L19.8898 36.022L0 23.2109L9.0379 34.1435Z" fill="url(#paint11_linear_6431_19213)"/>
<path opacity="0.59" d="M47.4796 59.9997L17.8343 40.0615L16.6733 42.7221L47.4796 59.9997Z" fill="url(#paint12_linear_6431_19213)"/>
<path d="M17.8343 40.0615L17.3828 41.1016L25.034 46.842L45.8348 58.5727L17.8343 40.0615Z" fill="url(#paint13_linear_6431_19213)"/>
<path d="M9.23926 46.6483L15.6327 45.1084L14.899 51.5422L9.23926 46.6483Z" fill="url(#paint14_linear_6431_19213)"/>
<path d="M7.86084 43.3506L9.23949 46.6481L15.6329 45.1082L7.86084 43.3506Z" fill="url(#paint15_linear_6431_19213)"/>
<path d="M17.834 40.0615L15.6329 45.1086L7.86084 43.351L17.834 40.0615Z" fill="url(#paint16_linear_6431_19213)"/>
<path opacity="0.59" d="M9.23926 46.6484L14.899 51.5423L15.7375 48.8333L9.23926 46.6484Z" fill="url(#paint17_linear_6431_19213)"/>
<path d="M14.8989 51.5422L47.4789 59.9996L15.6326 45.1084L14.8989 51.5422Z" fill="url(#paint18_linear_6431_19213)"/>
<path d="M17.2128 48.2041L46.85 59.7091L14.8989 51.5419L17.2128 48.2041Z" fill="url(#paint19_linear_6431_19213)"/>
<path d="M0 23.2115L10.5939 0L13.4077 11.2953L0 23.2115Z" fill="url(#paint20_linear_6431_19213)"/>
<path d="M10.5937 0L13.4075 11.2953L9.11833 7.96559L3.03125 16.5681L10.5937 0Z" fill="url(#paint21_linear_6431_19213)"/>
<path d="M0 23.2111L13.4077 11.2949L19.6721 30.3543L0 23.2111Z" fill="url(#paint22_linear_6431_19213)"/>
<path d="M13.4396 12.0127L19.6718 30.3546L5.66748 25.2672L13.4396 12.0127Z" fill="url(#paint23_linear_6431_19213)"/>
<path d="M30.1857 20.4707L46.8505 58.5734L19.6724 30.3552L30.1857 20.4707Z" fill="url(#paint24_linear_6431_19213)"/>
<path d="M19.6724 30.3555L47.4794 60.0007L25.9045 24.4941L19.6724 30.3555Z" fill="url(#paint25_linear_6431_19213)"/>
<defs>
<linearGradient id="paint0_linear_6431_19213" x1="0.305253" y1="31.1029" x2="46.2998" y2="29.3355" gradientUnits="userSpaceOnUse">
<stop stop-color="#8F0E82"/>
<stop offset="0.5527" stop-color="#C618C9"/>
<stop offset="1" stop-color="#F01FFE"/>
</linearGradient>
<linearGradient id="paint1_linear_6431_19213" x1="30.6706" y1="33.1362" x2="46.4222" y2="32.5309" gradientUnits="userSpaceOnUse">
<stop stop-color="#8F0E82"/>
<stop offset="0.5527" stop-color="#C618C9"/>
<stop offset="1" stop-color="#F01FFE"/>
</linearGradient>
<linearGradient id="paint2_linear_6431_19213" x1="30.7666" y1="35.6347" x2="46.5182" y2="35.0294" gradientUnits="userSpaceOnUse">
<stop stop-color="#8F0E82"/>
<stop offset="0.5527" stop-color="#C618C9"/>
<stop offset="1" stop-color="#F01FFE"/>
</linearGradient>
<linearGradient id="paint3_linear_6431_19213" x1="34.1643" y1="33.0019" x2="46.422" y2="32.5309" gradientUnits="userSpaceOnUse">
<stop stop-color="#8F0E82"/>
<stop offset="0.5527" stop-color="#C618C9"/>
<stop offset="1" stop-color="#F01FFE"/>
</linearGradient>
<linearGradient id="paint4_linear_6431_19213" x1="27.298" y1="13.1663" x2="35.1746" y2="12.8637" gradientUnits="userSpaceOnUse">
<stop stop-color="#8F0E82"/>
<stop offset="0.5527" stop-color="#C618C9"/>
<stop offset="1" stop-color="#F01FFE"/>
</linearGradient>
<linearGradient id="paint5_linear_6431_19213" x1="27.3167" y1="13.6528" x2="33.4126" y2="13.4185" gradientUnits="userSpaceOnUse">
<stop stop-color="#8F0E82"/>
<stop offset="0.5527" stop-color="#C618C9"/>
<stop offset="1" stop-color="#F01FFE"/>
</linearGradient>
<linearGradient id="paint6_linear_6431_19213" x1="13.5213" y1="14.1839" x2="29.9185" y2="13.5538" gradientUnits="userSpaceOnUse">
<stop stop-color="#8F0E82"/>
<stop offset="0.5527" stop-color="#C618C9"/>
<stop offset="1" stop-color="#F01FFE"/>
</linearGradient>
<linearGradient id="paint7_linear_6431_19213" x1="13.5213" y1="14.1839" x2="29.9185" y2="13.5538" gradientUnits="userSpaceOnUse">
<stop stop-color="#8F0E82"/>
<stop offset="0.5813" stop-color="#C95ECC"/>
<stop offset="1" stop-color="#F093FE"/>
</linearGradient>
<linearGradient id="paint8_linear_6431_19213" x1="10.8094" y1="5.69057" x2="26.987" y2="5.06891" gradientUnits="userSpaceOnUse">
<stop stop-color="#8F0E82"/>
<stop offset="0.5527" stop-color="#C618C9"/>
<stop offset="1" stop-color="#F01FFE"/>
</linearGradient>
<linearGradient id="paint9_linear_6431_19213" x1="13.7806" y1="20.9312" x2="30.1778" y2="20.3011" gradientUnits="userSpaceOnUse">
<stop stop-color="#8F0E82"/>
<stop offset="0.1778" stop-color="#A912A3"/>
<stop offset="0.4266" stop-color="#C718CA"/>
<stop offset="0.6551" stop-color="#DE1CE7"/>
<stop offset="0.8537" stop-color="#EB1EF8"/>
<stop offset="1" stop-color="#F01FFE"/>
</linearGradient>
<linearGradient id="paint10_linear_6431_19213" x1="0.742827" y1="42.4895" x2="46.7373" y2="40.7221" gradientUnits="userSpaceOnUse">
<stop stop-color="#8F0E82"/>
<stop offset="0.5527" stop-color="#C618C9"/>
<stop offset="1" stop-color="#F01FFE"/>
</linearGradient>
<linearGradient id="paint11_linear_6431_19213" x1="0.742827" y1="42.4895" x2="46.7373" y2="40.7221" gradientUnits="userSpaceOnUse">
<stop stop-color="#8F0E82"/>
<stop offset="0.5527" stop-color="#C618C9"/>
<stop offset="1" stop-color="#F01FFE"/>
</linearGradient>
<linearGradient id="paint12_linear_6431_19213" x1="16.9809" y1="50.6334" x2="47.0742" y2="49.477" gradientUnits="userSpaceOnUse">
<stop stop-color="#8F0E82"/>
<stop offset="0.5527" stop-color="#C618C9"/>
<stop offset="1" stop-color="#F01FFE"/>
</linearGradient>
<linearGradient id="paint13_linear_6431_19213" x1="17.3813" y1="49.3178" x2="45.8376" y2="49.3178" gradientUnits="userSpaceOnUse">
<stop stop-color="#8F0E82"/>
<stop offset="0.5527" stop-color="#C618C9"/>
<stop offset="1" stop-color="#F01FFE"/>
</linearGradient>
<linearGradient id="paint14_linear_6431_19213" x1="11.8876" y1="49.2117" x2="17.7072" y2="45.3832" gradientUnits="userSpaceOnUse">
<stop stop-color="#8F0E82"/>
<stop offset="0.1827" stop-color="#9C1093"/>
<stop offset="0.5436" stop-color="#BE16BF"/>
<stop offset="1" stop-color="#F01FFE"/>
</linearGradient>
<linearGradient id="paint15_linear_6431_19213" x1="7.92903" y1="45.0242" x2="15.6202" y2="44.7287" gradientUnits="userSpaceOnUse">
<stop stop-color="#8F0E82"/>
<stop offset="0.5527" stop-color="#C618C9"/>
<stop offset="1" stop-color="#F01FFE"/>
</linearGradient>
<linearGradient id="paint16_linear_6431_19213" x1="7.84844" y1="42.9272" x2="17.9313" y2="42.5398" gradientUnits="userSpaceOnUse">
<stop stop-color="#8F0E82"/>
<stop offset="0.5527" stop-color="#C618C9"/>
<stop offset="1" stop-color="#F01FFE"/>
</linearGradient>
<linearGradient id="paint17_linear_6431_19213" x1="9.3352" y1="49.1982" x2="15.7439" y2="48.9519" gradientUnits="userSpaceOnUse">
<stop stop-color="#8F0E82"/>
<stop offset="0.5527" stop-color="#C618C9"/>
<stop offset="1" stop-color="#F01FFE"/>
</linearGradient>
<linearGradient id="paint18_linear_6431_19213" x1="43.6027" y1="55.2646" x2="21.6622" y2="50.3302" gradientUnits="userSpaceOnUse">
<stop stop-color="#8F0E82"/>
<stop offset="0.2526" stop-color="#AD13A9"/>
<stop offset="0.5901" stop-color="#D11AD7"/>
<stop offset="0.8504" stop-color="#E81EF3"/>
<stop offset="1" stop-color="#F01FFE"/>
</linearGradient>
<linearGradient id="paint19_linear_6431_19213" x1="14.8988" y1="53.9552" x2="46.854" y2="53.9552" gradientUnits="userSpaceOnUse">
<stop stop-color="#8F0E82"/>
<stop offset="0.5813" stop-color="#C95ECC"/>
<stop offset="1" stop-color="#F093FE"/>
</linearGradient>
<linearGradient id="paint20_linear_6431_19213" x1="-0.435556" y1="11.8245" x2="13.4101" y2="11.2925" gradientUnits="userSpaceOnUse">
<stop stop-color="#8F0E82"/>
<stop offset="0.5527" stop-color="#C618C9"/>
<stop offset="1" stop-color="#F01FFE"/>
</linearGradient>
<linearGradient id="paint21_linear_6431_19213" x1="2.71816" y1="8.44117" x2="13.2848" y2="8.03513" gradientUnits="userSpaceOnUse">
<stop stop-color="#8F0E82"/>
<stop offset="0.5813" stop-color="#C95ECC"/>
<stop offset="1" stop-color="#F093FE"/>
</linearGradient>
<linearGradient id="paint22_linear_6431_19213" x1="-0.0651518" y1="21.4633" x2="19.3018" y2="20.7191" gradientUnits="userSpaceOnUse">
<stop stop-color="#8F0E82"/>
<stop offset="0.5527" stop-color="#C618C9"/>
<stop offset="1" stop-color="#F01FFE"/>
</linearGradient>
<linearGradient id="paint23_linear_6431_19213" x1="22.3729" y1="18.3584" x2="7.82237" y2="25.4303" gradientUnits="userSpaceOnUse">
<stop stop-color="#8F0E82"/>
<stop offset="0.5813" stop-color="#C95ECC"/>
<stop offset="1" stop-color="#F093FE"/>
</linearGradient>
<linearGradient id="paint24_linear_6431_19213" x1="20.0518" y1="40.2307" x2="46.1111" y2="39.2294" gradientUnits="userSpaceOnUse">
<stop stop-color="#8F0E82"/>
<stop offset="0.5527" stop-color="#C618C9"/>
<stop offset="1" stop-color="#F01FFE"/>
</linearGradient>
<linearGradient id="paint25_linear_6431_19213" x1="20.1537" y1="42.8841" x2="46.7813" y2="41.8608" gradientUnits="userSpaceOnUse">
<stop stop-color="#8F0E82"/>
<stop offset="0.5527" stop-color="#C618C9"/>
<stop offset="1" stop-color="#F01FFE"/>
</linearGradient>
</defs>
</svg>
