<svg width="45" height="60" viewBox="0 0 45 60" fill="none" xmlns="http://www.w3.org/2000/svg">
<path fill-rule="evenodd" clip-rule="evenodd" d="M13.8725 1.70508L0 49.7124L4.70824 57.7073L11.1439 60.0003L17.8394 57.5086L44.3004 20.2324L37.4673 21.9903L25.4979 19.2005L13.8725 1.70508Z" fill="url(#paint0_linear_6431_19298)"/>
<path fill-rule="evenodd" clip-rule="evenodd" d="M14.377 11.5938L0 49.7107L4.70824 57.7056L25.4979 19.1988L14.377 11.5938Z" fill="url(#paint1_linear_6431_19298)"/>
<path fill-rule="evenodd" clip-rule="evenodd" d="M25.4982 19.1994L17.9849 14.2236L11.3352 30.6108L4.7085 57.7062L25.4982 19.1994Z" fill="url(#paint2_linear_6431_19298)"/>
<path fill-rule="evenodd" clip-rule="evenodd" d="M14.377 11.5948L13.8726 1.70445L23.6254 0L33.6151 2.31591L43.3297 11.5566L44.3004 20.2317L37.4673 21.9897L25.498 19.1999L14.377 11.5948Z" fill="url(#paint3_linear_6431_19298)"/>
<path fill-rule="evenodd" clip-rule="evenodd" d="M25.498 19.1999L31.4598 5.60254L44.3005 20.2318L37.4674 21.9897L25.498 19.1999Z" fill="url(#paint4_linear_6431_19298)"/>
<path fill-rule="evenodd" clip-rule="evenodd" d="M31.4597 5.60314L14.377 11.5955L13.8726 1.70508L31.4597 5.60314Z" fill="url(#paint5_linear_6431_19298)"/>
<path fill-rule="evenodd" clip-rule="evenodd" d="M33.6154 2.31641L31.46 5.60301L43.33 11.5571L33.6154 2.31641Z" fill="url(#paint6_linear_6431_19298)"/>
<path fill-rule="evenodd" clip-rule="evenodd" d="M17.9844 14.2241L31.4594 5.60254L20.1856 16.0203L17.9844 14.2241Z" fill="url(#paint7_linear_6431_19298)"/>
<path fill-rule="evenodd" clip-rule="evenodd" d="M13.8725 1.7041L14.377 11.5945L0 49.7115L13.8725 1.7041Z" fill="url(#paint8_linear_6431_19298)"/>
<path fill-rule="evenodd" clip-rule="evenodd" d="M13.8725 1.7041L0 49.7115L14.3082 7.62764L13.8725 1.7041Z" fill="url(#paint9_linear_6431_19298)"/>
<path fill-rule="evenodd" clip-rule="evenodd" d="M44.3005 20.2314L17.8396 57.5077L11.144 59.9994L37.4675 21.9894L44.3005 20.2314Z" fill="url(#paint10_linear_6431_19298)"/>
<path fill-rule="evenodd" clip-rule="evenodd" d="M25.4982 19.2002L37.4675 21.99L11.1441 59.9999L4.7085 57.707L25.4982 19.2002Z" fill="url(#paint11_linear_6431_19298)"/>
<path fill-rule="evenodd" clip-rule="evenodd" d="M44.3008 20.2314L17.8398 57.5077L28.4028 37.6887L44.3008 20.2314Z" fill="url(#paint12_linear_6431_19298)"/>
<path fill-rule="evenodd" clip-rule="evenodd" d="M32.0178 20.7217L37.4674 21.9905L11.144 60.0004L8.0332 58.617L32.0178 20.7217Z" fill="white"/>
<defs>
<linearGradient id="paint0_linear_6431_19298" x1="2.74661" y1="26.8073" x2="35.0409" y2="41.121" gradientUnits="userSpaceOnUse">
<stop stop-color="#FFFF45"/>
<stop offset="0.1124" stop-color="#FFEC3E"/>
<stop offset="0.3804" stop-color="#FEC42F"/>
<stop offset="0.6258" stop-color="#FDA824"/>
<stop offset="0.8385" stop-color="#FD961D"/>
<stop offset="0.9944" stop-color="#FD901B"/>
</linearGradient>
<linearGradient id="paint1_linear_6431_19298" x1="5.04202" y1="32.6566" x2="17.1553" y2="38.0256" gradientUnits="userSpaceOnUse">
<stop offset="0.005618" stop-color="#FD901B"/>
<stop offset="1" stop-color="#FEE23A"/>
</linearGradient>
<linearGradient id="paint2_linear_6431_19298" x1="8.83798" y1="34.8538" x2="16.965" y2="38.456" gradientUnits="userSpaceOnUse">
<stop stop-color="#FFFF91"/>
<stop offset="0.0869" stop-color="#F4F48A"/>
<stop offset="0.2416" stop-color="#D5D579"/>
<stop offset="0.4463" stop-color="#A4A45D"/>
<stop offset="0.6931" stop-color="#5F5F36"/>
<stop offset="0.9731" stop-color="#090905"/>
<stop offset="1"/>
</linearGradient>
<linearGradient id="paint3_linear_6431_19298" x1="13.0946" y1="3.45989" x2="45.3889" y2="17.7737" gradientUnits="userSpaceOnUse">
<stop offset="0.005618" stop-color="#FD901B"/>
<stop offset="1" stop-color="#FFFF45"/>
</linearGradient>
<linearGradient id="paint4_linear_6431_19298" x1="28.4528" y1="12.3886" x2="44.6031" y2="19.5468" gradientUnits="userSpaceOnUse">
<stop stop-color="#FFFF91"/>
<stop offset="0.0869" stop-color="#F4F48A"/>
<stop offset="0.2416" stop-color="#D5D579"/>
<stop offset="0.4463" stop-color="#A4A45D"/>
<stop offset="0.6931" stop-color="#5F5F36"/>
<stop offset="0.9731" stop-color="#090905"/>
<stop offset="1"/>
</linearGradient>
<linearGradient id="paint5_linear_6431_19298" x1="12.8044" y1="4.11531" x2="28.9484" y2="11.2708" gradientUnits="userSpaceOnUse">
<stop stop-color="#FFFF91"/>
<stop offset="0.0869" stop-color="#F4F48A"/>
<stop offset="0.2416" stop-color="#D5D579"/>
<stop offset="0.4463" stop-color="#A4A45D"/>
<stop offset="0.6931" stop-color="#5F5F36"/>
<stop offset="0.9731" stop-color="#090905"/>
<stop offset="1"/>
</linearGradient>
<linearGradient id="paint6_linear_6431_19298" x1="32.1186" y1="4.11895" x2="44.2429" y2="9.49283" gradientUnits="userSpaceOnUse">
<stop stop-color="#FFFF91"/>
<stop offset="0.0869" stop-color="#F4F48A"/>
<stop offset="0.2416" stop-color="#D5D579"/>
<stop offset="0.4463" stop-color="#A4A45D"/>
<stop offset="0.6931" stop-color="#5F5F36"/>
<stop offset="0.9731" stop-color="#090905"/>
<stop offset="1"/>
</linearGradient>
<linearGradient id="paint7_linear_6431_19298" x1="20.5332" y1="8.46679" x2="28.605" y2="12.0444" gradientUnits="userSpaceOnUse">
<stop stop-color="#FFFF91"/>
<stop offset="0.0869" stop-color="#F4F48A"/>
<stop offset="0.2416" stop-color="#D5D579"/>
<stop offset="0.4463" stop-color="#A4A45D"/>
<stop offset="0.6931" stop-color="#5F5F36"/>
<stop offset="0.9731" stop-color="#090905"/>
<stop offset="1"/>
</linearGradient>
<linearGradient id="paint8_linear_6431_19298" x1="3.84172" y1="24.3355" x2="10.0271" y2="27.0771" gradientUnits="userSpaceOnUse">
<stop offset="0.005618" stop-color="#FD901B"/>
<stop offset="1" stop-color="#FFFF45"/>
</linearGradient>
<linearGradient id="paint9_linear_6431_19298" x1="3.84172" y1="24.3355" x2="10.0271" y2="27.0771" gradientUnits="userSpaceOnUse">
<stop stop-color="#FF9945"/>
<stop offset="0.9944" stop-color="#FD901B"/>
</linearGradient>
<linearGradient id="paint10_linear_6431_19298" x1="21.2312" y1="37.2392" x2="34.2112" y2="42.9924" gradientUnits="userSpaceOnUse">
<stop offset="0.005618" stop-color="#FD901B"/>
<stop offset="1" stop-color="#FFFF45"/>
</linearGradient>
<linearGradient id="paint11_linear_6431_19298" x1="14.0132" y1="36.7134" x2="28.1582" y2="42.9828" gradientUnits="userSpaceOnUse">
<stop offset="0.005618" stop-color="#FD901B"/>
<stop offset="0.1966" stop-color="#FD991E"/>
<stop offset="0.5022" stop-color="#FDB027"/>
<stop offset="0.8824" stop-color="#FED635"/>
<stop offset="1" stop-color="#FEE33A"/>
</linearGradient>
<linearGradient id="paint12_linear_6431_19298" x1="26.9184" y1="37.0314" x2="35.2223" y2="40.7119" gradientUnits="userSpaceOnUse">
<stop stop-color="#FF9945"/>
<stop offset="0.9944" stop-color="#FD901B"/>
</linearGradient>
</defs>
</svg>
