<svg width="271" height="178" viewBox="0 0 271 178" fill="none" xmlns="http://www.w3.org/2000/svg">
<g clip-path="url(#clip0_11569_58643)">
<g clip-path="url(#clip1_11569_58643)">
<path d="M26.2996 35.8442C26.1584 35.503 26.026 35.1442 25.8849 34.838L25.2319 33.3767L25.2054 33.3505C23.2643 29.1505 21.1907 24.8805 18.9937 20.6805L18.9054 20.5055C18.6849 20.0942 18.4643 19.6392 18.2349 19.2192C17.9525 18.7205 17.679 18.1867 17.229 17.6792C16.7903 17.1482 16.2383 16.7204 15.6127 16.4266C14.9871 16.1329 14.3035 15.9805 13.6113 15.9805C12.9191 15.9805 12.2356 16.1329 11.61 16.4266C10.9844 16.7204 10.4323 17.1482 9.99368 17.6792C9.57898 18.1867 9.27015 18.7205 8.9878 19.2192C8.76721 19.6742 8.54663 20.1205 8.31721 20.5317L8.22898 20.7067C6.06721 24.9067 3.95839 29.1767 2.01721 33.3767L1.96427 33.4292C1.77016 33.8842 1.54074 34.3567 1.32016 34.8642C1.17898 35.1705 1.0378 35.503 0.896626 35.8705C0.515478 36.8328 0.393766 37.877 0.543484 38.9001C0.693202 39.9233 1.10918 40.8901 1.75043 41.7053C2.39168 42.5205 3.23606 43.1559 4.20035 43.549C5.16465 43.942 6.21558 44.0791 7.24957 43.9467C8.24086 43.8173 9.1954 43.4899 10.0554 42.9842C11.2025 42.3455 12.3054 41.418 13.5407 40.0792C14.776 41.418 15.9054 42.3455 17.026 42.993C18.1037 43.6202 19.324 43.9664 20.5731 43.9992C22.0196 44.0052 23.4194 43.492 24.5141 42.5543C25.6088 41.6167 26.3245 40.318 26.529 38.898C26.7653 37.8775 26.6853 36.8101 26.2996 35.8355V35.8442ZM13.629 37.2967C12.1113 35.3717 11.1231 33.6042 10.7878 32.0905C10.6489 31.5295 10.6189 30.9475 10.6996 30.3755C10.7613 29.9292 10.929 29.5355 11.1584 29.203C11.6878 28.4417 12.6143 27.9692 13.629 27.9692C14.1109 27.9546 14.5889 28.0589 15.0201 28.2727C15.4513 28.4865 15.8222 28.8032 16.0996 29.1942C16.329 29.5442 16.4966 29.9292 16.5496 30.3755C16.6378 30.883 16.6025 31.4692 16.4613 32.0905C16.126 33.578 15.1378 35.363 13.629 37.2967ZM24.8702 38.5917C24.7699 39.3127 24.4809 39.995 24.0319 40.5707C23.583 41.1464 22.9898 41.5954 22.3113 41.873C21.6407 42.153 20.8996 42.2317 20.176 42.153C19.4702 42.0655 18.7643 41.838 18.0407 41.418C16.8394 40.6817 15.7592 39.7668 14.8378 38.7055C16.6907 36.4305 17.8113 34.3567 18.2349 32.5105C18.4378 31.6355 18.4643 30.848 18.376 30.1217C18.2659 29.4333 18.007 28.7767 17.6172 28.1967C17.1722 27.5678 16.5781 27.057 15.8873 26.7091C15.1965 26.3613 14.4301 26.187 13.6554 26.2017C12.0231 26.2017 10.5672 26.9542 9.68486 28.188C9.28766 28.7665 9.03096 29.4284 8.93486 30.1217C8.82016 30.8567 8.84663 31.6705 9.07604 32.5105C9.49957 34.3567 10.6466 36.4567 12.4731 38.723C11.5673 39.8046 10.4846 40.7275 9.27015 41.453C8.5378 41.873 7.84074 42.0917 7.13486 42.1792C6.03711 42.3187 4.92823 42.0228 4.04924 41.3559C3.17025 40.6891 2.5922 39.7051 2.44074 38.618C2.35251 37.918 2.41427 37.218 2.69663 36.4305C2.78486 36.1505 2.91721 35.8705 3.05839 35.538C3.25251 35.083 3.48192 34.6105 3.70251 34.138L3.7378 34.0767C5.64368 29.903 7.72604 25.6417 9.8878 21.468L9.97604 21.293C10.1966 20.873 10.4172 20.4267 10.6466 20.0067C10.876 19.5605 11.1231 19.1317 11.4407 18.7817C11.7157 18.4562 12.0593 18.1945 12.4472 18.0149C12.8352 17.8353 13.2582 17.7422 13.6863 17.7422C14.1145 17.7422 14.5375 17.8353 14.9254 18.0149C15.3134 18.1945 15.657 18.4562 15.9319 18.7817C16.2407 19.1317 16.4966 19.5605 16.726 20.0067C16.9466 20.4267 17.1672 20.8817 17.3966 21.293L17.4849 21.468C19.6378 25.6417 21.7202 29.903 23.6613 34.0767L23.6878 34.103C23.9172 34.558 24.1113 35.0655 24.3319 35.503C24.4731 35.8442 24.6143 36.1155 24.7025 36.4042C24.8702 37.1917 24.9584 37.8917 24.8702 38.5917ZM37.1525 37.1042C36.4876 37.1139 35.8291 36.9749 35.2257 36.6977C34.6224 36.4205 34.0897 36.0122 33.6672 35.503C32.7179 34.4179 32.214 33.0189 32.2554 31.583C32.2409 30.1158 32.761 28.6927 33.7202 27.5755C34.1638 27.0598 34.7161 26.6468 35.338 26.3656C35.96 26.0844 36.6366 25.9418 37.3202 25.948C37.9633 25.9305 38.6004 26.0755 39.1715 26.3694C39.7426 26.6633 40.229 27.0964 40.5849 27.628L40.6731 26.2542H43.2496V36.8242H40.6643L40.576 35.2842C40.2091 35.8518 39.702 36.3169 39.1028 36.6355C38.5036 36.954 37.8323 37.1154 37.1525 37.1042ZM37.8231 34.5842C38.3349 34.5842 38.7849 34.4442 39.2084 34.1905C39.5966 33.9105 39.9143 33.543 40.1613 33.0967C40.3819 32.6505 40.4966 32.1167 40.4966 31.5217C40.531 31.0049 40.4296 30.4882 40.2022 30.0219C39.9749 29.5556 39.6294 29.1559 39.1996 28.8617C38.7866 28.6065 38.3097 28.4713 37.8231 28.4713C37.3365 28.4713 36.8596 28.6065 36.4466 28.8617C36.0584 29.1417 35.7407 29.5092 35.4937 29.9555C35.2603 30.4476 35.1456 30.9868 35.1584 31.5305C35.124 32.0472 35.2254 32.564 35.4528 33.0303C35.6801 33.4965 36.0256 33.8963 36.4554 34.1905C36.8702 34.4442 37.3202 34.5842 37.8231 34.5842ZM47.6613 23.4017C47.6613 23.708 47.6084 23.988 47.4672 24.2155C47.326 24.4342 47.1319 24.6355 46.876 24.7755C46.6202 24.9155 46.3466 24.968 46.0643 24.968C45.7819 24.968 45.4996 24.9155 45.2437 24.7755C45.0017 24.6419 44.7982 24.4491 44.6525 24.2155C44.5159 23.9662 44.4488 23.6853 44.4584 23.4017C44.4584 23.0867 44.5202 22.8067 44.6525 22.588C44.7937 22.3255 44.9966 22.168 45.2437 22.028C45.4996 21.888 45.7731 21.8267 46.0643 21.8267C46.3451 21.8203 46.6229 21.8863 46.8703 22.0182C47.1178 22.1501 47.3265 22.3434 47.476 22.5792C47.6044 22.8343 47.6681 23.1167 47.6613 23.4017ZM44.6613 36.7892V26.2367H47.4672V36.8067H44.6525L44.6613 36.7892ZM54.9672 29.0017V29.0367C54.8349 28.9755 54.6584 28.9492 54.526 28.923C54.3496 28.888 54.2084 28.888 54.0407 28.888C53.2554 28.888 52.6643 29.1155 52.276 29.588C51.8525 30.0692 51.6584 30.743 51.6584 31.6092V36.798H48.8437V26.228H51.429L51.5172 27.8292C51.7996 27.2692 52.1349 26.8492 52.6113 26.5342C53.0853 26.2282 53.6432 26.0753 54.2084 26.0967C54.4113 26.0967 54.6054 26.1142 54.7731 26.1492C54.8613 26.1755 54.9143 26.1755 54.9672 26.2017V29.0017ZM56.0966 36.7892V21.8967H58.9025V27.5842C59.2996 27.0767 59.7496 26.683 60.3143 26.3767C61.2083 25.942 62.2239 25.8187 63.1972 26.0267C64.1705 26.2347 65.0448 26.7618 65.679 27.523C66.6304 28.6102 67.1344 30.0128 67.0907 31.4517C67.1053 32.9189 66.5851 34.342 65.626 35.4592C65.1824 35.9749 64.6301 36.3879 64.0081 36.6691C63.3862 36.9503 62.7096 37.0928 62.026 37.0867C61.3829 37.1042 60.7458 36.9591 60.1747 36.6653C59.6036 36.3714 59.1172 35.9383 58.7613 35.4067L58.6731 36.7805L56.0966 36.8067V36.7892ZM61.5231 34.5842C62.026 34.5842 62.476 34.4442 62.8996 34.1905C63.2878 33.9105 63.6054 33.543 63.8525 33.0967C64.0819 32.6505 64.1878 32.1167 64.1878 31.5217C64.1878 30.9355 64.0819 30.4017 63.8525 29.9555C63.6208 29.5252 63.2952 29.1515 62.8996 28.8617C62.4866 28.6065 62.0097 28.4713 61.5231 28.4713C61.0365 28.4713 60.5596 28.6065 60.1466 28.8617C59.7496 29.1417 59.4407 29.5092 59.1849 29.9555C58.9515 30.4476 58.8367 30.9868 58.8496 31.5305C58.8152 32.0472 58.9166 32.564 59.144 33.0303C59.3713 33.4965 59.7168 33.8963 60.1466 34.1905C60.5613 34.4442 61.0113 34.5842 61.5231 34.5842ZM68.1496 36.798V26.228H70.7349L70.8231 27.6017C71.148 27.0751 71.6088 26.6442 72.158 26.3534C72.7071 26.0627 73.3246 25.9227 73.9466 25.948C74.6579 25.9358 75.357 26.1318 75.9565 26.5116C76.556 26.8913 77.0293 27.4379 77.3172 28.083C77.626 28.748 77.7937 29.5705 77.7937 30.4892V36.8242H74.979V30.8567C74.979 30.1217 74.8113 29.5442 74.476 29.1155C74.1407 28.6955 73.6819 28.468 73.0996 28.468C72.676 28.468 72.3055 28.5555 71.979 28.748C71.6702 28.9492 71.4143 29.203 71.2202 29.5617C71.0239 29.9244 70.9266 30.3316 70.9378 30.743V36.798H68.1496ZM79.1966 36.798V21.888H82.0113V27.5755C82.3926 27.0651 82.8885 26.65 83.4598 26.3629C84.0311 26.0758 84.6621 25.9248 85.3025 25.9217C85.9674 25.9121 86.6259 26.051 87.2293 26.3282C87.8326 26.6054 88.3653 27.0138 88.7878 27.523C89.7325 28.6102 90.2329 30.0085 90.1907 31.443C90.2061 32.9103 89.6858 34.3336 88.726 35.4505C88.2824 35.9662 87.7301 36.3792 87.1081 36.6604C86.4862 36.9415 85.8096 37.0841 85.126 37.078C84.4829 37.0954 83.8458 36.9504 83.2747 36.6565C82.7036 36.3626 82.2172 35.9295 81.8613 35.398L81.7819 36.7717L79.1966 36.798ZM84.6496 34.5842C85.1613 34.5842 85.6113 34.4442 86.026 34.1905C86.4231 33.9105 86.7319 33.543 86.9878 33.0967C87.2084 32.6505 87.3231 32.1167 87.3231 31.5217C87.3575 31.0049 87.2561 30.4882 87.0287 30.0219C86.8013 29.5556 86.4559 29.1559 86.026 28.8617C85.613 28.6065 85.1362 28.4713 84.6496 28.4713C84.163 28.4713 83.6861 28.6065 83.2731 28.8617C82.8849 29.1417 82.5672 29.5092 82.3202 29.9555C82.0739 30.4432 81.9584 30.9856 81.9849 31.5305C81.9505 32.0472 82.0519 32.564 82.2793 33.0303C82.5066 33.4965 82.8521 33.8963 83.2819 34.1905C83.6966 34.4442 84.1202 34.5842 84.6496 34.5842Z" fill="white"/>
</g>
<g clip-path="url(#clip2_11569_58643)">
<path d="M157.097 21.9727V28.7424H150.928V21.9727H148V38.1327H150.928V31.5828H157.097V38.1327H160.025V21.9727H157.097Z" fill="white"/>
<path d="M169.397 32.9099C169.397 33.5575 169.142 34.1786 168.688 34.6366C168.233 35.0946 167.617 35.3518 166.975 35.3518C166.332 35.3518 165.716 35.0946 165.262 34.6366C164.807 34.1786 164.552 33.5575 164.552 32.9099V25.9883H161.774V32.9099C161.774 34.2988 162.322 35.6308 163.296 36.6128C164.27 37.5949 165.592 38.1466 166.97 38.1466C168.348 38.1466 169.669 37.5949 170.643 36.6128C171.618 35.6308 172.165 34.2988 172.165 32.9099V25.9883H169.397V32.9099Z" fill="white"/>
<path d="M189.979 26.7003C189.979 25.2816 190.91 24.8318 191.93 24.8318C192.752 24.8318 193.838 25.4624 194.548 26.2274L196.368 24.0668C195.46 22.8288 193.617 21.9727 192.109 21.9727C189.096 21.9727 186.917 23.7515 186.917 26.7003C186.917 32.1714 193.551 30.4359 193.551 33.4976C193.551 34.442 192.642 35.2764 191.6 35.2764C189.957 35.2764 189.425 34.4665 188.67 33.6104L186.651 35.7262C187.943 37.3243 189.535 38.1356 191.444 38.1356C194.306 38.1356 196.609 36.3351 196.609 33.5207C196.609 27.4466 189.974 29.3339 189.974 26.7003" fill="white"/>
<path d="M231.023 35.5522C229.381 35.5522 228.915 34.8363 228.915 33.7401V28.888H231.466V26.4294H228.915V23.1855L226.099 24.4597V34.3431C226.099 36.8711 227.829 38.1452 230.202 38.1452C230.574 38.1521 230.946 38.122 231.313 38.0556L232 35.5059C231.69 35.5276 231.334 35.5493 231.023 35.5493" fill="white"/>
<path d="M179.971 26.0691C178.595 26.0691 177.635 26.4712 176.706 27.3895V22.0703H173.924V31.9292C173.924 35.6199 176.572 38.1479 179.546 38.1479C182.846 38.1479 185.749 35.5751 185.749 32.11C185.749 28.6882 183.077 26.0706 179.971 26.0706V26.0691ZM179.953 35.3264C179.329 35.3264 178.719 35.1398 178.2 34.7901C177.681 34.4405 177.276 33.9436 177.037 33.3622C176.798 32.7809 176.736 32.1411 176.857 31.524C176.979 30.9068 177.28 30.3398 177.721 29.8949C178.163 29.4499 178.725 29.1469 179.338 29.0241C179.95 28.9014 180.585 28.9644 181.161 29.2052C181.738 29.446 182.231 29.8538 182.578 30.377C182.925 30.9002 183.11 31.5154 183.11 32.1447C183.11 32.9885 182.777 33.7978 182.185 34.3945C181.593 34.9911 180.791 35.3264 179.953 35.3264Z" fill="white"/>
<path d="M210.179 31.9618C210.179 28.4909 207.282 25.9238 203.976 25.9238C201.002 25.9238 198.355 28.4518 198.355 32.1426V42.0072H201.137V36.6808C202.064 37.5977 203.025 38.0012 204.4 38.0012C207.506 38.0012 210.178 35.385 210.178 31.9618H210.179ZM207.545 31.9271C207.545 32.5564 207.36 33.1715 207.013 33.6947C206.666 34.2179 206.173 34.6258 205.596 34.8666C205.019 35.1074 204.385 35.1704 203.772 35.0476C203.16 34.9249 202.598 34.6218 202.156 34.1769C201.715 33.7319 201.414 33.165 201.292 32.5478C201.171 31.9306 201.233 31.2909 201.472 30.7095C201.711 30.1281 202.115 29.6312 202.635 29.2816C203.154 28.932 203.764 28.7454 204.388 28.7454C205.225 28.7454 206.028 29.0806 206.62 29.6773C207.212 30.274 207.545 31.0832 207.545 31.9271Z" fill="white"/>
<path d="M219.167 25.7874V22.9701C219.536 22.7962 219.849 22.5201 220.069 22.1739C220.289 21.8277 220.406 21.4258 220.408 21.0149V20.9498C220.408 20.3744 220.181 19.8227 219.778 19.4158C219.374 19.009 218.827 18.7805 218.256 18.7805H218.191C217.621 18.7805 217.073 19.009 216.67 19.4158C216.266 19.8227 216.039 20.3744 216.039 20.9498V21.0149C216.041 21.4258 216.159 21.8277 216.378 22.1739C216.598 22.5201 216.911 22.7962 217.28 22.9701V25.7874C216.219 25.9511 215.219 26.3946 214.382 27.0731L206.717 21.0554C206.771 20.8569 206.8 20.6523 206.803 20.4465C206.804 19.963 206.663 19.4902 206.397 19.0877C206.131 18.6853 205.753 18.3714 205.31 18.1856C204.867 17.9999 204.38 17.9507 203.909 18.0443C203.438 18.1379 203.006 18.37 202.666 18.7114C202.327 19.0527 202.095 19.4879 202.001 19.962C201.907 20.436 201.954 20.9276 202.137 21.3745C202.32 21.8214 202.63 22.2035 203.029 22.4726C203.427 22.7418 203.896 22.8857 204.376 22.8863C204.795 22.8844 205.207 22.7717 205.569 22.5594L213.118 28.4788C212.44 29.5114 212.086 30.7259 212.102 31.9642C212.119 33.2025 212.505 34.407 213.211 35.4206L210.915 37.7346C210.73 37.6748 210.536 37.6432 210.341 37.6406C209.948 37.6409 209.563 37.7588 209.236 37.9795C208.908 38.2002 208.653 38.5137 208.503 38.8804C208.352 39.2472 208.313 39.6507 208.39 40.0399C208.467 40.4292 208.656 40.7867 208.935 41.0674C209.213 41.348 209.568 41.5391 209.954 41.6166C210.34 41.6941 210.741 41.6545 211.104 41.5028C211.468 41.351 211.779 41.094 211.998 40.7641C212.217 40.4342 212.334 40.0463 212.334 39.6494C212.332 39.453 212.301 39.258 212.241 39.0709L214.513 36.7815C215.253 37.356 216.114 37.752 217.03 37.9392C217.946 38.1264 218.892 38.0998 219.797 37.8614C220.701 37.6231 221.539 37.1794 222.246 36.5642C222.954 35.9491 223.513 35.1788 223.88 34.3124C224.246 33.446 224.412 32.5066 224.363 31.5659C224.313 30.6252 224.052 29.7084 223.597 28.8855C223.142 28.0627 222.506 27.3556 221.738 26.8186C220.971 26.2816 220.091 25.9289 219.167 25.7874ZM218.226 35.0519C217.605 35.0513 216.997 34.8651 216.481 34.5168C215.965 34.1685 215.562 33.6737 215.325 33.095C215.088 32.5163 215.026 31.8797 215.147 31.2655C215.269 30.6514 215.568 30.0873 216.007 29.6446C216.447 29.2019 217.006 28.9004 217.616 28.7782C218.225 28.6561 218.857 28.7188 219.431 28.9584C220.005 29.198 220.496 29.6037 220.841 30.1243C221.186 30.6449 221.371 31.257 221.371 31.8832C221.371 32.7232 221.04 33.5288 220.451 34.1228C219.861 34.7167 219.062 35.0504 218.229 35.0504" fill="white"/>
</g>
<g clip-path="url(#clip3_11569_58643)">
<path d="M36.2463 90.3598C36.2463 94.2463 33.1612 97.1102 29.375 97.1102C25.5888 97.1102 22.5037 94.2463 22.5037 90.3598C22.5037 86.4459 25.5888 83.6094 29.375 83.6094C33.1612 83.6094 36.2463 86.4459 36.2463 90.3598ZM33.2384 90.3598C33.2384 87.9311 31.4503 86.2694 29.375 86.2694C27.2997 86.2694 25.5116 87.9311 25.5116 90.3598C25.5116 92.7642 27.2997 94.4502 29.375 94.4502C31.4503 94.4502 33.2384 92.7611 33.2384 90.3598Z" fill="white"/>
<path d="M51.0698 90.3598C51.0698 94.2463 47.9846 97.1102 44.1985 97.1102C40.4123 97.1102 37.3271 94.2463 37.3271 90.3598C37.3271 86.4489 40.4123 83.6094 44.1985 83.6094C47.9846 83.6094 51.0698 86.4459 51.0698 90.3598ZM48.0619 90.3598C48.0619 87.9311 46.2738 86.2694 44.1985 86.2694C42.1232 86.2694 40.3351 87.9311 40.3351 90.3598C40.3351 92.7642 42.1232 94.4502 44.1985 94.4502C46.2738 94.4502 48.0619 92.7611 48.0619 90.3598Z" fill="white"/>
<path d="M65.2757 84.0172V96.1363C65.2757 101.122 62.2924 103.158 58.7657 103.158C55.4458 103.158 53.4477 100.969 52.6942 99.1798L55.313 98.1055C55.7794 99.2042 56.922 100.501 58.7626 100.501C61.0201 100.501 62.4191 99.1281 62.4191 96.5442V95.5733H62.3141C61.6408 96.392 60.3438 97.1072 58.707 97.1072C55.2822 97.1072 52.1445 94.1672 52.1445 90.3842C52.1445 86.5737 55.2822 83.6094 58.707 83.6094C60.3407 83.6094 61.6377 84.3246 62.3141 85.1189H62.4191V84.0202H65.2757V84.0172ZM62.6322 90.3842C62.6322 88.0072 61.0232 86.2694 58.9757 86.2694C56.9004 86.2694 55.1617 88.0072 55.1617 90.3842C55.1617 92.7368 56.9004 94.4502 58.9757 94.4502C61.0232 94.4502 62.6322 92.7368 62.6322 90.3842Z" fill="white"/>
<path d="M69.9853 76.9121V96.6947H67.0515V76.9121H69.9853Z" fill="white"/>
<path d="M81.418 92.5807L83.7527 94.1146C82.9992 95.2133 81.1833 97.1063 78.0457 97.1063C74.1545 97.1063 71.2485 94.142 71.2485 90.3559C71.2485 86.3416 74.1792 83.6055 77.7091 83.6055C81.2636 83.6055 83.0023 86.3933 83.5705 87.8998L83.8824 88.6668L74.7258 92.4042C75.4269 93.7585 76.517 94.4494 78.0457 94.4494C79.5774 94.4494 80.6398 93.7068 81.418 92.5807ZM74.2317 90.152L80.3526 87.6472C80.016 86.8042 79.003 86.2168 77.811 86.2168C76.2823 86.2168 74.1545 87.5468 74.2317 90.152Z" fill="white"/>
<path d="M11.3985 88.6026V85.7387H21.1913C21.287 86.2378 21.3364 86.8282 21.3364 87.4674C21.3364 89.6161 20.7404 92.273 18.8195 94.1661C16.9511 96.0834 14.5639 97.1061 11.4016 97.1061C5.54009 97.1061 0.611267 92.4008 0.611267 86.6243C0.611267 80.8478 5.54009 76.1426 11.4016 76.1426C14.6442 76.1426 16.9542 77.3965 18.6898 79.0308L16.6392 81.0517C15.3946 79.9013 13.7085 79.0065 11.3985 79.0065C7.11818 79.0065 3.77053 82.4061 3.77053 86.6243C3.77053 90.8426 7.11818 94.2421 11.3985 94.2421C14.1748 94.2421 15.756 93.1434 16.7689 92.1452C17.5904 91.3356 18.1308 90.1791 18.3439 88.5995L11.3985 88.6026Z" fill="white"/>
</g>
<g clip-path="url(#clip4_11569_58643)">
<path d="M191.564 91.9748L190.836 94.0306H190.776C190.655 93.5671 190.432 92.8616 190.069 92.0151L186.171 82.2399H182.353V97.8198H184.878V88.2058C184.878 87.6012 184.878 86.9159 184.858 86.0694C184.837 85.6461 184.797 85.3236 184.777 85.0818H184.837C184.959 85.6864 185.1 86.1299 185.201 86.412L189.887 97.7795H191.665L196.31 86.3112C196.411 86.0492 196.512 85.5252 196.613 85.0818H196.674C196.613 86.2306 196.573 87.2585 196.553 87.8833V97.7593H199.239V82.1996H195.563L191.564 91.9748ZM201.784 86.5934H204.41V97.7593H201.784V86.5934ZM203.117 81.8771C202.673 81.8771 202.309 82.0384 202.006 82.3205C201.703 82.6027 201.542 82.9655 201.542 83.4089C201.542 83.8322 201.703 84.195 202.006 84.4771C202.309 84.7593 202.673 84.9004 203.117 84.9004C203.562 84.9004 203.945 84.7392 204.228 84.4771C204.531 84.195 204.693 83.8322 204.693 83.4089C204.693 82.9857 204.531 82.6229 204.228 82.3205C203.966 82.0384 203.582 81.8771 203.117 81.8771ZM213.722 86.4926C213.237 86.3919 212.732 86.3314 212.247 86.3314C211.055 86.3314 209.965 86.5934 209.056 87.1174C208.147 87.6415 207.42 88.3671 206.955 89.274C206.47 90.2012 206.228 91.2694 206.228 92.4988C206.228 93.5671 206.47 94.5143 206.935 95.381C207.399 96.2275 208.046 96.9128 208.914 97.3764C209.742 97.8399 210.712 98.0818 211.803 98.0818C213.055 98.0818 214.125 97.8198 214.974 97.3361L214.994 97.3159V94.8973L214.893 94.9779C214.509 95.2601 214.065 95.5019 213.621 95.643C213.156 95.8043 212.732 95.8849 212.368 95.8849C211.318 95.8849 210.49 95.5826 209.904 94.9174C209.298 94.2725 208.995 93.3857 208.995 92.2771C208.995 91.1283 209.298 90.2213 209.924 89.5562C210.55 88.8911 211.378 88.5485 212.388 88.5485C213.237 88.5485 214.105 88.8306 214.893 89.395L214.994 89.4756V86.9159L214.974 86.8957C214.63 86.7547 214.247 86.5934 213.722 86.4926ZM222.387 86.412C221.74 86.412 221.134 86.6136 220.609 87.0368C220.165 87.3996 219.862 87.9236 219.599 88.5485H219.579V86.5934H216.953V97.7593H219.579V92.0554C219.579 91.088 219.781 90.2818 220.225 89.6973C220.67 89.0926 221.235 88.7903 221.922 88.7903C222.165 88.7903 222.407 88.8508 222.71 88.8911C222.993 88.9717 223.195 89.0523 223.336 89.1531L223.437 89.2337V86.6136L223.376 86.5934C223.195 86.4725 222.831 86.412 222.387 86.412ZM229.537 86.3516C227.699 86.3516 226.224 86.8957 225.194 87.964C224.144 89.0322 223.639 90.5035 223.639 92.3578C223.639 94.0911 224.164 95.5019 225.174 96.5299C226.184 97.5376 227.558 98.0616 229.274 98.0616C231.072 98.0616 232.506 97.5174 233.536 96.4291C234.587 95.3407 235.092 93.8895 235.092 92.0957C235.092 90.3221 234.607 88.9112 233.617 87.8833C232.668 86.8554 231.274 86.3516 229.537 86.3516ZM231.638 94.9376C231.153 95.5624 230.385 95.8647 229.436 95.8647C228.487 95.8647 227.719 95.5624 227.174 94.8973C226.628 94.2725 226.366 93.3655 226.366 92.2167C226.366 91.0275 226.649 90.1205 227.174 89.4756C227.719 88.8306 228.467 88.5081 229.416 88.5081C230.345 88.5081 231.072 88.8105 231.597 89.4353C232.122 90.0601 232.405 90.9671 232.405 92.1562C232.365 93.3655 232.143 94.3128 231.638 94.9376ZM240.949 91.2291C240.121 90.8864 239.596 90.6244 239.354 90.4027C239.152 90.2012 239.051 89.919 239.051 89.5562C239.051 89.2539 239.172 88.9516 239.475 88.75C239.778 88.5485 240.121 88.4477 240.626 88.4477C241.071 88.4477 241.535 88.5283 241.979 88.6492C242.424 88.7702 242.828 88.9516 243.151 89.1934L243.252 89.274V86.8151L243.191 86.795C242.888 86.674 242.484 86.5531 242 86.4523C241.515 86.3717 241.071 86.3314 240.707 86.3314C239.455 86.3314 238.424 86.6337 237.617 87.2988C236.809 87.9236 236.425 88.7702 236.425 89.7578C236.425 90.2818 236.506 90.7454 236.687 91.1283C236.869 91.5112 237.132 91.874 237.495 92.1764C237.859 92.4585 238.384 92.781 239.111 93.0833C239.717 93.3454 240.182 93.5469 240.465 93.7081C240.747 93.8694 240.929 94.0508 241.071 94.1919C241.171 94.3531 241.232 94.5547 241.232 94.8167C241.232 95.5624 240.667 95.9252 239.515 95.9252C239.071 95.9252 238.606 95.8446 238.061 95.6632C237.516 95.4818 237.011 95.2198 236.586 94.9174L236.485 94.8368V97.3965L236.546 97.4167C236.93 97.5981 237.394 97.719 237.96 97.8601C238.525 97.9609 239.03 98.0415 239.475 98.0415C240.828 98.0415 241.939 97.7392 242.727 97.074C243.535 96.4291 243.959 95.6027 243.959 94.5345C243.959 93.7888 243.757 93.1237 243.313 92.6198C242.727 92.1361 242 91.6322 240.949 91.2291ZM250.887 86.3516C249.049 86.3516 247.574 86.8957 246.544 87.964C245.514 89.0322 244.989 90.5035 244.989 92.3578C244.989 94.0911 245.514 95.5019 246.524 96.5299C247.534 97.5376 248.908 98.0616 250.624 98.0616C252.422 98.0616 253.856 97.5174 254.886 96.4291C255.937 95.3407 256.442 93.8895 256.442 92.0957C256.442 90.3221 255.957 88.9112 254.967 87.8833C254.018 86.8554 252.624 86.3516 250.887 86.3516ZM252.968 94.9376C252.483 95.5624 251.715 95.8647 250.766 95.8647C249.796 95.8647 249.049 95.5624 248.504 94.8973C247.958 94.2725 247.696 93.3655 247.696 92.2167C247.696 91.0275 247.978 90.1205 248.504 89.4756C249.049 88.8306 249.796 88.5081 250.746 88.5081C251.655 88.5081 252.402 88.8105 252.927 89.4353C253.452 90.0601 253.735 90.9671 253.735 92.1562C253.735 93.3655 253.472 94.3128 252.968 94.9376ZM270.48 88.75V86.5934H267.834V83.288L267.753 83.3081L265.248 84.0539L265.188 84.074V86.5934H261.229V85.1826C261.229 84.5376 261.39 84.0337 261.673 83.7112C261.956 83.3888 262.38 83.2275 262.905 83.2275C263.269 83.2275 263.653 83.3081 264.077 83.4895L264.178 83.55V81.2725L264.117 81.2523C263.754 81.1314 263.269 81.0508 262.643 81.0508C261.855 81.0508 261.168 81.2322 260.542 81.5345C259.916 81.8771 259.451 82.3407 259.108 82.9655C258.765 83.5702 258.583 84.2554 258.583 85.0415V86.5934H256.745V88.7299H258.583V97.7593H261.229V88.75H265.188V94.4942C265.188 96.8523 266.299 98.0415 268.521 98.0415C268.884 98.0415 269.268 97.981 269.631 97.9205C270.015 97.8399 270.298 97.7392 270.46 97.6585L270.48 97.6384V95.4818L270.379 95.5624C270.217 95.6632 270.076 95.7438 269.833 95.8043C269.631 95.8647 269.45 95.8849 269.308 95.8849C268.783 95.8849 268.42 95.764 268.157 95.4616C267.915 95.1795 267.793 94.7159 267.793 94.0306V88.75H270.48Z" fill="white"/>
<path d="M148.5 77H160.882V89.355H148.5V77Z" fill="white"/>
<path d="M162.174 77H174.556V89.355H162.174V77Z" fill="white"/>
<path d="M148.5 90.6445H160.882V103H148.5V90.6445Z" fill="white"/>
<path d="M162.174 90.6445H174.556V103H162.174V90.6445Z" fill="white"/>
</g>
<g clip-path="url(#clip5_11569_58643)">
<path d="M40.0019 145.248V146.721H40.047C40.5772 145.933 41.4574 145.004 43.4084 145.004C44.9262 145.004 46.0906 145.776 46.5896 146.943H46.6347C47.0609 146.353 47.5495 145.907 48.097 145.59C48.7451 145.215 49.4659 145 50.3738 145C52.4288 145 54.2481 146.337 54.2481 149.708V156.1H51.1154V150.154C51.1154 148.446 50.4986 147.458 49.2164 147.458C48.2773 147.458 47.5946 148.052 47.3347 148.782C47.2446 149.033 47.203 149.375 47.203 149.662V156.104H44.0703V149.913C44.0703 148.462 43.4777 147.455 42.2128 147.455C41.2009 147.455 40.5668 148.205 40.3069 148.847C40.196 149.121 40.1613 149.437 40.1613 149.734V156.1H37.0251V145.248H40.0019ZM70.4176 145.248V147.295H70.5042C71.0795 145.73 72.4448 145.004 73.6439 145.004C73.9454 145.004 74.1117 145.026 74.3543 145.072V147.915C74.0666 147.876 73.7998 147.836 73.4255 147.836C72.0671 147.836 71.1211 148.58 70.882 149.743C70.83 149.985 70.8126 150.245 70.8126 150.545V156.104H67.5968V145.248H70.4176ZM78.7206 141.652V145.069H81.4375V147.833H78.7206V151.911C78.7206 153.232 79.0776 153.87 80.138 153.87C80.637 153.87 81.0043 153.812 81.3231 153.737L81.3647 156.029C80.9385 156.178 80.0306 156.341 79.1088 156.341C78.0241 156.341 77.1196 155.986 76.5686 155.435C75.938 154.806 75.6469 153.776 75.6469 152.309V141.652H78.7206ZM34.842 156.1H31.7231V141.652H34.842V156.1ZM26.525 152.224C26.525 152.423 26.5077 152.632 26.4488 152.811C26.2062 153.564 25.378 154.2 24.3453 154.2C23.4824 154.2 22.7963 153.74 22.7963 152.765C22.7963 151.276 24.5428 150.862 26.5285 150.871V152.224H26.525ZM29.6404 149.626C29.6404 147.165 28.5246 145.004 24.7508 145.004C22.8136 145.004 21.275 145.515 20.4364 145.972L21.0497 147.947C21.8156 147.491 23.0389 147.116 24.1963 147.116C26.1127 147.113 26.4245 148.136 26.4245 148.792V148.948C22.2487 148.941 19.6116 150.301 19.6116 153.072C19.6116 154.764 20.9527 156.348 23.2884 156.348C24.7265 156.348 25.9255 155.81 26.6463 154.946H26.7156C26.7156 154.946 27.1939 156.821 29.8206 156.104C29.682 155.321 29.6369 154.49 29.6369 153.489V149.626H29.6404ZM3.94459 141.652C4.26687 143.181 5.18173 147.621 5.18173 147.621C5.56639 149.447 5.91986 151.36 6.1867 152.873H6.23521C6.49511 151.266 6.90403 149.743 7.34067 147.859L8.88276 141.652H12.2962L13.7378 148.019C14.1155 149.789 14.417 151.155 14.6561 152.801H14.7011C14.961 151.139 15.3007 149.717 15.6715 147.898L17.0576 141.652H20.3324L16.2744 156.1C13.6893 156.632 12.6982 155.654 12.3447 154.102C11.9912 152.547 11.2981 149.59 11.2981 149.59C10.9412 147.97 10.664 146.829 10.4699 145.167H10.4214C10.1442 146.813 9.85307 147.967 9.42336 149.587L7.72186 156.104C5.08124 156.599 4.16638 155.866 3.66043 153.874C3.22379 152.169 0.5 141.656 0.5 141.656H3.94459V141.652ZM62.3987 152.224C62.3987 152.423 62.3814 152.632 62.3224 152.811C62.0799 153.564 61.2516 154.2 60.219 154.2C59.3561 154.2 58.6699 153.74 58.6699 152.765C58.6699 151.276 60.4165 150.862 62.4022 150.871V152.224H62.3987ZM65.5141 149.626C65.5141 147.165 64.3982 145.004 60.6244 145.004C58.6873 145.004 57.1486 145.515 56.31 145.972L56.9234 147.947C57.6892 147.491 58.9125 147.116 60.07 147.116C61.9828 147.113 62.2982 148.136 62.2982 148.792V148.948C58.1259 148.941 55.4887 150.301 55.4887 153.072C55.4887 154.764 56.8333 156.348 59.1655 156.348C60.6002 156.348 61.8026 155.81 62.52 154.946H62.5928C62.5928 154.946 63.071 156.821 65.6977 156.104C65.5591 155.321 65.5141 154.49 65.5141 153.489V149.626Z" fill="white"/>
<path d="M94.0802 151.124C94.3877 151.652 94.3669 152.241 94.0388 152.51L88.3669 156.428C87.7762 156.765 86.8919 156.356 86.3911 155.502C85.8868 154.644 85.9766 153.687 86.5672 153.35L92.8471 150.471C93.2409 150.321 93.7728 150.596 94.0802 151.124ZM101.545 151.124C101.856 150.596 102.384 150.324 102.778 150.467L109.061 153.347C109.652 153.684 109.738 154.64 109.237 155.498C108.733 156.353 107.845 156.758 107.258 156.424L101.586 152.506C101.262 152.241 101.237 151.648 101.545 151.124ZM97.8108 153.248C98.4291 153.248 98.9369 153.561 99.006 153.973L99.6174 160.775C99.6174 161.449 98.8195 162 97.8143 162C96.8126 162 96.0112 161.449 96.0112 160.775L96.6191 153.973C96.6882 153.561 97.196 153.248 97.8108 153.248ZM101.586 145.494L107.258 141.572C107.845 141.235 108.733 141.64 109.237 142.498C109.738 143.356 109.652 144.313 109.061 144.65L102.778 147.533C102.384 147.676 101.852 147.404 101.545 146.876C101.237 146.348 101.262 145.759 101.586 145.494ZM92.8471 147.533L86.5672 144.65C85.98 144.313 85.8902 143.356 86.3911 142.498C86.8919 141.64 87.7797 141.235 88.3669 141.572L94.0388 145.494C94.3669 145.756 94.3877 146.348 94.0802 146.876C93.7728 147.404 93.2409 147.676 92.8471 147.533ZM96.6191 144.027L96.0112 137.225C96.0112 136.551 96.8091 136 97.8143 136C98.8195 136 99.6174 136.551 99.6174 137.225L99.006 144.027C98.9369 144.435 98.4291 144.752 97.8108 144.752C97.196 144.752 96.6882 144.435 96.6191 144.027ZM110.771 156.4V156.23H110.927C110.978 156.23 111.013 156.264 111.013 156.315C111.013 156.363 110.978 156.4 110.927 156.4H110.771ZM110.643 156.71C110.643 156.727 110.657 156.744 110.678 156.744H110.744C110.761 156.744 110.778 156.727 110.778 156.71V156.516H110.885L110.972 156.72C110.978 156.734 110.989 156.744 111.003 156.744H111.082C111.106 156.744 111.124 156.72 111.113 156.697C111.082 156.635 111.051 156.571 111.02 156.506C111.072 156.489 111.151 156.438 111.151 156.315C111.151 156.186 111.044 156.111 110.937 156.111H110.678C110.661 156.111 110.643 156.128 110.643 156.145V156.71ZM110.364 156.428C110.364 156.152 110.592 155.927 110.871 155.927C111.151 155.927 111.379 156.148 111.379 156.428C111.379 156.703 111.155 156.928 110.871 156.928C110.588 156.928 110.364 156.703 110.364 156.428ZM110.243 156.428C110.243 156.768 110.522 157.047 110.871 157.047C111.217 157.047 111.5 156.768 111.5 156.428C111.5 156.087 111.217 155.808 110.871 155.808C110.522 155.808 110.243 156.087 110.243 156.428Z" fill="white"/>
</g>
<g clip-path="url(#clip6_11569_58643)">
<path d="M207.491 160.281L214.163 152.892L207.491 145.502H214.53L217.835 149.092L221.017 145.502H227.81L221.17 152.862L227.902 160.281H220.833L217.559 156.662L214.315 160.281H207.491Z" fill="white"/>
<path d="M207.491 142.189H199.935V145.502H207.491V150.495H199.935V155.078H207.491V160.282H194.381V137H207.491V142.189Z" fill="white"/>
<path d="M188.851 137V146.528H188.79C187.566 145.141 186.036 144.659 184.261 144.659C180.625 144.659 177.886 147.095 176.925 150.316C175.829 146.767 173.001 144.592 168.808 144.592C165.403 144.592 162.715 146.099 161.312 148.554V145.503H154.274V142.19H161.954V137H148V160.282H154.274V150.495H160.527C160.341 151.214 160.241 151.984 160.241 152.796C160.241 157.653 164.005 161.06 168.808 161.06C172.848 161.06 175.51 159.191 176.918 155.783H171.541C170.814 156.807 170.262 157.111 168.808 157.111C167.122 157.111 165.669 155.661 165.669 153.942H176.616C177.091 157.8 180.139 161.127 184.323 161.127C186.127 161.127 187.779 160.252 188.79 158.774H188.851V160.281H194.381V137H188.851ZM165.843 150.565C166.192 149.086 167.356 148.12 168.808 148.12C170.407 148.12 171.512 149.056 171.802 150.565C171.925 150.565 165.843 150.565 165.843 150.565ZM185.495 156.737C183.456 156.737 182.189 154.865 182.189 152.91C182.189 150.82 183.291 148.81 185.495 148.81C187.779 148.81 188.69 150.82 188.69 152.91C188.689 154.891 187.725 156.737 185.495 156.737Z" fill="white"/>
</g>
</g>
<defs>
<clipPath id="clip0_11569_58643">
<rect width="270" height="178" fill="white" transform="translate(0.5)"/>
</clipPath>
<clipPath id="clip1_11569_58643">
<rect width="90" height="28" fill="white" transform="translate(0.5 16)"/>
</clipPath>
<clipPath id="clip2_11569_58643">
<rect width="84" height="24" fill="white" transform="translate(148 18)"/>
</clipPath>
<clipPath id="clip3_11569_58643">
<rect width="84" height="28" fill="white" transform="translate(0.5 76)"/>
</clipPath>
<clipPath id="clip4_11569_58643">
<rect width="122" height="26" fill="white" transform="translate(148.5 77)"/>
</clipPath>
<clipPath id="clip5_11569_58643">
<rect width="111" height="26" fill="white" transform="translate(0.5 136)"/>
</clipPath>
<clipPath id="clip6_11569_58643">
<rect width="80" height="24" fill="white" transform="translate(148 137)"/>
</clipPath>
</defs>
</svg>
