<svg width="946" height="368" viewBox="0 0 946 368" fill="none" xmlns="http://www.w3.org/2000/svg">
<g clip-path="url(#clip0_5794_3214)">
<g filter="url(#filter0_d_5794_3214)">
<rect y="136" width="170" height="96" rx="16" fill="#242424"/>
</g>
<g clip-path="url(#clip1_5794_3214)">
<path d="M63.5261 190.679C63.3645 190.289 63.2131 189.879 63.0515 189.529L62.3042 187.859L62.2739 187.829C60.0524 183.029 57.6793 178.149 55.1649 173.349L55.0639 173.149C54.8115 172.679 54.559 172.159 54.2965 171.679C53.9734 171.109 53.6603 170.499 53.1453 169.919C52.6433 169.313 52.0115 168.824 51.2956 168.488C50.5796 168.152 49.7973 167.978 49.0051 167.978C48.2129 167.978 47.4306 168.152 46.7147 168.488C45.9987 168.824 45.3669 169.313 44.8649 169.919C44.3903 170.499 44.0369 171.109 43.7137 171.679C43.4613 172.199 43.2088 172.709 42.9463 173.179L42.8453 173.379C40.3713 178.179 37.9579 183.059 35.7363 187.859L35.6757 187.919C35.4535 188.439 35.191 188.979 34.9385 189.559C34.777 189.909 34.6154 190.289 34.4538 190.709C34.0176 191.809 33.8783 193.003 34.0497 194.172C34.221 195.341 34.6971 196.446 35.431 197.378C36.1648 198.31 37.1312 199.036 38.2348 199.485C39.3384 199.934 40.5411 200.091 41.7244 199.939C42.8589 199.792 43.9513 199.417 44.9356 198.839C46.2484 198.109 47.5106 197.049 48.9243 195.519C50.3381 197.049 51.6306 198.109 52.9131 198.849C54.1463 199.566 55.5429 199.962 56.9725 199.999C58.6279 200.006 60.2299 199.42 61.4827 198.348C62.7356 197.277 63.5546 195.792 63.7886 194.169C64.0591 193.003 63.9676 191.783 63.5261 190.669V190.679ZM49.0253 192.339C47.2884 190.139 46.1575 188.119 45.7737 186.389C45.6148 185.748 45.5805 185.083 45.6728 184.429C45.7434 183.919 45.9353 183.469 46.1979 183.089C46.8037 182.219 47.864 181.679 49.0253 181.679C49.5768 181.663 50.1238 181.782 50.6173 182.026C51.1108 182.271 51.5353 182.633 51.8528 183.079C52.1153 183.479 52.3072 183.919 52.3678 184.429C52.4687 185.009 52.4284 185.679 52.2668 186.389C51.8831 188.089 50.7521 190.129 49.0253 192.339ZM61.8902 193.819C61.7755 194.643 61.4447 195.423 60.9309 196.081C60.4171 196.739 59.7382 197.252 58.9618 197.569C58.1943 197.889 57.3461 197.979 56.5181 197.889C55.7102 197.789 54.9024 197.529 54.0743 197.049C52.6995 196.208 51.4632 195.162 50.4087 193.949C52.5293 191.349 53.8118 188.979 54.2965 186.869C54.5287 185.869 54.559 184.969 54.4581 184.139C54.332 183.353 54.0357 182.602 53.5896 181.939C53.0803 181.221 52.4004 180.637 51.6098 180.239C50.8192 179.842 49.9421 179.643 49.0556 179.659C47.1875 179.659 45.5213 180.519 44.5115 181.929C44.0569 182.591 43.7631 183.347 43.6532 184.139C43.5219 184.979 43.5522 185.909 43.8147 186.869C44.2994 188.979 45.6122 191.379 47.7025 193.969C46.6659 195.206 45.4267 196.26 44.0369 197.089C43.1987 197.569 42.401 197.819 41.5932 197.919C40.3368 198.079 39.0678 197.741 38.0618 196.979C37.0559 196.216 36.3943 195.092 36.221 193.849C36.12 193.049 36.1907 192.249 36.5138 191.349C36.6148 191.029 36.7663 190.709 36.9279 190.329C37.15 189.809 37.4126 189.269 37.665 188.729L37.7054 188.659C39.8866 183.889 42.2697 179.019 44.7437 174.249L44.8447 174.049C45.0972 173.569 45.3496 173.059 45.6122 172.579C45.8747 172.069 46.1575 171.579 46.521 171.179C46.8357 170.807 47.2289 170.508 47.6729 170.303C48.1169 170.098 48.6009 169.991 49.0909 169.991C49.581 169.991 50.065 170.098 50.509 170.303C50.953 170.508 51.3462 170.807 51.6609 171.179C52.0143 171.579 52.3072 172.069 52.5697 172.579C52.8222 173.059 53.0746 173.579 53.3372 174.049L53.4382 174.249C55.9021 179.019 58.2852 183.889 60.5068 188.659L60.5371 188.689C60.7996 189.209 61.0218 189.789 61.2742 190.289C61.4358 190.679 61.5974 190.989 61.6984 191.319C61.8902 192.219 61.9912 193.019 61.8902 193.819ZM75.9467 192.119C75.1858 192.13 74.4321 191.972 73.7416 191.655C73.0511 191.338 72.4415 190.871 71.958 190.289C70.8715 189.049 70.2948 187.451 70.3423 185.809C70.3256 184.133 70.9209 182.506 72.0185 181.229C72.5263 180.64 73.1583 180.168 73.8701 179.847C74.582 179.525 75.3563 179.362 76.1385 179.369C76.8746 179.35 77.6037 179.515 78.2573 179.851C78.9109 180.187 79.4675 180.682 79.8748 181.289L79.9758 179.719H82.9244V191.799H79.9657L79.8647 190.039C79.4448 190.688 78.8644 191.22 78.1787 191.584C77.493 191.948 76.7246 192.132 75.9467 192.119ZM76.7141 189.239C77.2998 189.239 77.8148 189.079 78.2995 188.789C78.7438 188.469 79.1074 188.049 79.3901 187.539C79.6426 187.029 79.7738 186.419 79.7738 185.739C79.8132 185.149 79.6971 184.558 79.4369 184.025C79.1767 183.493 78.7813 183.036 78.2894 182.699C77.8168 182.408 77.271 182.253 76.7141 182.253C76.1572 182.253 75.6115 182.408 75.1388 182.699C74.6945 183.019 74.331 183.439 74.0483 183.949C73.7812 184.512 73.6498 185.128 73.6645 185.749C73.6252 186.34 73.7412 186.931 74.0014 187.464C74.2616 187.996 74.657 188.453 75.1489 188.789C75.6235 189.079 76.1385 189.239 76.7141 189.239ZM87.9734 176.459C87.9734 176.809 87.9129 177.129 87.7513 177.389C87.5897 177.639 87.3676 177.869 87.0747 178.029C86.7819 178.189 86.4688 178.249 86.1457 178.249C85.8226 178.249 85.4994 178.189 85.2066 178.029C84.9296 177.877 84.6967 177.656 84.53 177.389C84.3736 177.105 84.2969 176.784 84.3079 176.459C84.3079 176.099 84.3785 175.779 84.53 175.529C84.6916 175.229 84.9238 175.049 85.2066 174.889C85.4994 174.729 85.8125 174.659 86.1457 174.659C86.4671 174.652 86.785 174.728 87.0682 174.878C87.3514 175.029 87.5902 175.25 87.7614 175.519C87.9083 175.811 87.9811 176.134 87.9734 176.459ZM84.5401 191.759V179.699H87.7513V191.779H84.53L84.5401 191.759ZM96.3346 182.859V182.899C96.1832 182.829 95.9812 182.799 95.8297 182.769C95.6278 182.729 95.4662 182.729 95.2743 182.729C94.3756 182.729 93.699 182.989 93.2547 183.529C92.77 184.079 92.5479 184.849 92.5479 185.839V191.769H89.3266V179.689H92.2853L92.3863 181.519C92.7094 180.879 93.0932 180.399 93.6384 180.039C94.1808 179.69 94.8194 179.515 95.4662 179.539C95.6984 179.539 95.9206 179.559 96.1125 179.599C96.2134 179.629 96.274 179.629 96.3346 179.659V182.859ZM97.6272 191.759V174.739H100.838V181.239C101.293 180.659 101.808 180.209 102.454 179.859C103.477 179.363 104.639 179.222 105.753 179.459C106.867 179.697 107.868 180.3 108.594 181.169C109.683 182.412 110.259 184.015 110.209 185.659C110.226 187.336 109.631 188.963 108.533 190.239C108.025 190.829 107.393 191.301 106.681 191.622C105.97 191.944 105.195 192.106 104.413 192.099C103.677 192.119 102.948 191.954 102.294 191.618C101.641 191.282 101.084 190.787 100.677 190.179L100.576 191.749L97.6272 191.779V191.759ZM103.837 189.239C104.413 189.239 104.928 189.079 105.413 188.789C105.857 188.469 106.221 188.049 106.503 187.539C106.766 187.029 106.887 186.419 106.887 185.739C106.887 185.069 106.766 184.459 106.503 183.949C106.238 183.458 105.866 183.031 105.413 182.699C104.94 182.408 104.394 182.253 103.837 182.253C103.281 182.253 102.735 182.408 102.262 182.699C101.808 183.019 101.454 183.439 101.161 183.949C100.894 184.512 100.763 185.128 100.778 185.749C100.738 186.34 100.854 186.931 101.115 187.464C101.375 187.996 101.77 188.453 102.262 188.789C102.737 189.079 103.252 189.239 103.837 189.239ZM111.421 191.769V179.689H114.38L114.481 181.259C114.853 180.658 115.38 180.165 116.008 179.833C116.637 179.501 117.344 179.341 118.056 179.369C118.87 179.356 119.67 179.58 120.356 180.014C121.042 180.448 121.583 181.072 121.913 181.809C122.266 182.569 122.458 183.509 122.458 184.559V191.799H119.237V184.979C119.237 184.139 119.045 183.479 118.661 182.989C118.278 182.509 117.753 182.249 117.086 182.249C116.601 182.249 116.177 182.349 115.804 182.569C115.45 182.799 115.157 183.089 114.935 183.499C114.711 183.914 114.599 184.379 114.612 184.849V191.769H111.421ZM124.064 191.769V174.729H127.285V181.229C127.721 180.646 128.289 180.172 128.943 179.844C129.597 179.516 130.319 179.343 131.052 179.339C131.813 179.328 132.566 179.487 133.257 179.804C133.947 180.121 134.557 180.587 135.04 181.169C136.122 182.412 136.694 184.01 136.646 185.649C136.664 187.326 136.068 188.953 134.97 190.229C134.462 190.819 133.83 191.291 133.118 191.612C132.406 191.934 131.632 192.096 130.85 192.089C130.114 192.109 129.385 191.944 128.731 191.608C128.077 191.272 127.521 190.777 127.113 190.169L127.023 191.739L124.064 191.769ZM130.304 189.239C130.89 189.239 131.405 189.079 131.88 188.789C132.334 188.469 132.688 188.049 132.98 187.539C133.233 187.029 133.364 186.419 133.364 185.739C133.404 185.149 133.287 184.558 133.027 184.025C132.767 183.493 132.372 183.036 131.88 182.699C131.407 182.408 130.861 182.253 130.304 182.253C129.748 182.253 129.202 182.408 128.729 182.699C128.285 183.019 127.921 183.439 127.639 183.949C127.357 184.507 127.225 185.127 127.255 185.749C127.215 186.34 127.332 186.931 127.592 187.464C127.852 187.996 128.247 188.453 128.739 188.789C129.214 189.079 129.699 189.239 130.304 189.239Z" fill="#FF385C"/>
</g>
</g>
<g filter="url(#filter1_d_5794_3214)">
<rect x="194" y="76" width="170" height="96" rx="16" fill="#242424"/>
</g>
<g clip-path="url(#clip2_5794_3214)">
<path d="M272.427 124.411C272.427 128.852 268.938 132.125 264.656 132.125C260.374 132.125 256.885 128.852 256.885 124.411C256.885 119.938 260.374 116.696 264.656 116.696C268.938 116.696 272.427 119.938 272.427 124.411ZM269.025 124.411C269.025 121.635 267.003 119.736 264.656 119.736C262.309 119.736 260.287 121.635 260.287 124.411C260.287 127.158 262.309 129.085 264.656 129.085C267.003 129.085 269.025 127.155 269.025 124.411Z" fill="#EA4335"/>
<path d="M289.192 124.411C289.192 128.852 285.703 132.125 281.421 132.125C277.139 132.125 273.649 128.852 273.649 124.411C273.649 119.941 277.139 116.696 281.421 116.696C285.703 116.696 289.192 119.938 289.192 124.411ZM285.79 124.411C285.79 121.635 283.768 119.736 281.421 119.736C279.073 119.736 277.051 121.635 277.051 124.411C277.051 127.158 279.073 129.085 281.421 129.085C283.768 129.085 285.79 127.155 285.79 124.411Z" fill="#FBBC05"/>
<path d="M305.258 117.162V131.012C305.258 136.71 301.884 139.037 297.895 139.037C294.141 139.037 291.881 136.536 291.029 134.491L293.991 133.263C294.518 134.518 295.81 136 297.892 136C300.445 136 302.027 134.431 302.027 131.478V130.369H301.909C301.147 131.304 299.68 132.122 297.829 132.122C293.956 132.122 290.407 128.762 290.407 124.438C290.407 120.084 293.956 116.696 297.829 116.696C299.677 116.696 301.144 117.513 301.909 118.421H302.027V117.165H305.258V117.162ZM302.268 124.438C302.268 121.722 300.449 119.736 298.133 119.736C295.786 119.736 293.82 121.722 293.82 124.438C293.82 127.127 295.786 129.085 298.133 129.085C300.449 129.085 302.268 127.127 302.268 124.438Z" fill="#4285F4"/>
<path d="M310.585 109.043V131.652H307.267V109.043H310.585Z" fill="#34A853"/>
<path d="M323.514 126.95L326.154 128.703C325.302 129.958 323.249 132.122 319.7 132.122C315.299 132.122 312.013 128.734 312.013 124.407C312.013 119.819 315.327 116.692 319.319 116.692C323.339 116.692 325.306 119.878 325.948 121.6L326.301 122.477L315.945 126.748C316.738 128.296 317.971 129.085 319.7 129.085C321.432 129.085 322.634 128.237 323.514 126.95ZM315.387 124.174L322.309 121.312C321.928 120.348 320.783 119.677 319.435 119.677C317.706 119.677 315.299 121.197 315.387 124.174Z" fill="#EA4335"/>
<path d="M244.326 122.404V119.131H255.401C255.509 119.701 255.565 120.376 255.565 121.106C255.565 123.562 254.891 126.598 252.719 128.762C250.606 130.953 247.906 132.122 244.329 132.122C237.7 132.122 232.126 126.744 232.126 120.143C232.126 113.541 237.7 108.164 244.329 108.164C247.997 108.164 250.609 109.597 252.572 111.464L250.253 113.774C248.845 112.459 246.938 111.437 244.326 111.437C239.485 111.437 235.699 115.322 235.699 120.143C235.699 124.964 239.485 128.849 244.326 128.849C247.466 128.849 249.254 127.593 250.4 126.452C251.329 125.527 251.94 124.205 252.181 122.4L244.326 122.404Z" fill="#4285F4"/>
</g>
<g filter="url(#filter2_d_5794_3214)">
<rect x="194" y="196" width="170" height="96" rx="16" fill="#242424"/>
</g>
<path fill-rule="evenodd" clip-rule="evenodd" d="M295.2 237.31L293.2 233.93L289.65 235.62L287.65 232.23L284.1 233.93L282.11 230.53L278.56 232.23L276.56 228.84L273.01 230.54L271.02 227.14L267.46 228.84L259.93 253.36L269.08 256.16C269.424 255.055 270.153 254.11 271.134 253.495C272.115 252.88 273.283 252.636 274.428 252.808C275.573 252.979 276.619 253.554 277.377 254.43C278.134 255.305 278.554 256.422 278.56 257.58V257.68C278.58 258.12 278.53 258.56 278.4 259L287.7 261.85L295.2 237.31Z" fill="#D61920"/>
<path fill-rule="evenodd" clip-rule="evenodd" d="M267.78 251.34C267.549 251.302 267.339 251.182 267.188 251.002C267.038 250.822 266.957 250.594 266.96 250.36V238.36C266.959 238.228 266.984 238.098 267.033 237.976C267.083 237.854 267.157 237.743 267.25 237.65C267.343 237.557 267.454 237.483 267.576 237.433C267.698 237.384 267.828 237.359 267.96 237.36H276.63C277.141 237.359 277.647 237.458 278.119 237.652C278.592 237.847 279.021 238.132 279.384 238.492C279.746 238.853 280.033 239.281 280.23 239.752C280.427 240.224 280.529 240.729 280.53 241.24V250.36C280.53 250.507 280.497 250.653 280.434 250.786C280.371 250.919 280.279 251.036 280.166 251.13C280.052 251.224 279.919 251.291 279.776 251.327C279.634 251.364 279.485 251.368 279.34 251.34C279.111 251.3 278.903 251.179 278.755 250.999C278.606 250.82 278.527 250.593 278.53 250.36V241.25C278.53 240.746 278.33 240.263 277.974 239.906C277.617 239.55 277.134 239.35 276.63 239.35H274.74V250.35C274.741 250.484 274.715 250.617 274.663 250.74C274.612 250.864 274.536 250.976 274.44 251.07C274.326 251.183 274.187 251.266 274.033 251.313C273.88 251.361 273.718 251.37 273.56 251.34C273.329 251.302 273.119 251.182 272.968 251.002C272.818 250.822 272.737 250.594 272.74 250.36V239.35H268.96V250.35C268.961 250.497 268.929 250.643 268.868 250.776C268.806 250.91 268.716 251.028 268.603 251.122C268.49 251.217 268.358 251.285 268.216 251.323C268.074 251.361 267.925 251.366 267.78 251.34ZM282.2 256.57C281.967 256.531 281.756 256.41 281.605 256.228C281.454 256.046 281.374 255.816 281.38 255.58C281.381 255.318 281.485 255.066 281.67 254.88C281.855 254.692 282.106 254.584 282.37 254.58C283.22 254.58 283.95 254.04 284.19 253.23L285.22 249.8L281.85 238.53C281.81 238.404 281.795 238.271 281.807 238.139C281.818 238.008 281.856 237.879 281.917 237.762C281.978 237.645 282.062 237.541 282.164 237.457C282.266 237.372 282.384 237.309 282.51 237.27C282.762 237.2 283.031 237.23 283.262 237.353C283.493 237.475 283.667 237.682 283.75 237.93L286.25 246.33L288.79 237.93C288.91 237.47 289.42 237.16 289.94 237.26L290.01 237.27C290.55 237.44 290.85 238.01 290.69 238.54L287.22 250.1L286.12 253.8C285.873 254.596 285.384 255.295 284.72 255.8C284.045 256.306 283.224 256.58 282.38 256.58C282.32 256.582 282.26 256.579 282.2 256.57Z" fill="#FEFEFE"/>
<path fill-rule="evenodd" clip-rule="evenodd" d="M221.08 249.15H223.04C223.563 249.15 224.064 248.943 224.433 248.573C224.803 248.204 225.01 247.703 225.01 247.18V241.41C225.011 241.152 224.962 240.895 224.864 240.656C224.766 240.416 224.622 240.198 224.44 240.014C224.258 239.831 224.042 239.684 223.803 239.584C223.565 239.484 223.309 239.432 223.05 239.43H221.08V249.13V249.15ZM219.85 251.21C219.61 251.17 219.392 251.045 219.236 250.858C219.081 250.671 218.997 250.434 219 250.19V232.27C218.998 232.133 219.024 231.997 219.075 231.87C219.127 231.743 219.203 231.628 219.3 231.53C219.417 231.409 219.562 231.318 219.723 231.266C219.883 231.213 220.054 231.201 220.22 231.23C220.72 231.33 221.08 231.75 221.08 232.26V237.36H223.04C223.571 237.359 224.098 237.463 224.589 237.665C225.081 237.867 225.527 238.165 225.903 238.54C226.279 238.915 226.578 239.361 226.782 239.852C226.985 240.343 227.09 240.869 227.09 241.4V247.17C227.087 248.241 226.661 249.267 225.904 250.024C225.147 250.781 224.121 251.208 223.05 251.21H220.04C219.973 251.214 219.906 251.211 219.84 251.2L219.85 251.21Z" fill="white"/>
<path fill-rule="evenodd" clip-rule="evenodd" d="M234.14 239.35C234.028 239.33 233.914 239.32 233.8 239.32C233.541 239.317 233.283 239.366 233.043 239.464C232.803 239.562 232.585 239.707 232.401 239.891C232.218 240.074 232.073 240.293 231.975 240.533C231.876 240.773 231.827 241.03 231.83 241.29V247.3C231.829 247.559 231.879 247.816 231.977 248.055C232.076 248.295 232.221 248.513 232.404 248.696C232.587 248.879 232.805 249.024 233.045 249.123C233.284 249.221 233.541 249.271 233.8 249.27C234.322 249.27 234.824 249.062 235.193 248.693C235.562 248.323 235.77 247.822 235.77 247.3V241.3C235.77 240.33 235.08 239.52 234.14 239.35ZM233.09 251.3C232.152 251.135 231.303 250.644 230.692 249.914C230.081 249.184 229.747 248.262 229.75 247.31V241.3C229.748 240.768 229.853 240.241 230.057 239.75C230.261 239.259 230.561 238.814 230.94 238.44C231.316 238.065 231.761 237.767 232.252 237.565C232.743 237.362 233.269 237.259 233.8 237.26C234.871 237.26 235.899 237.686 236.657 238.443C237.414 239.201 237.84 240.228 237.84 241.3V247.31C237.84 248.39 237.42 249.41 236.65 250.18C236.276 250.555 235.832 250.852 235.343 251.054C234.854 251.257 234.329 251.361 233.8 251.36C233.562 251.361 233.324 251.341 233.09 251.3ZM244.89 239.36C244.778 239.34 244.664 239.33 244.55 239.33C244.291 239.327 244.033 239.376 243.793 239.474C243.553 239.572 243.335 239.717 243.151 239.901C242.968 240.084 242.823 240.303 242.725 240.543C242.626 240.783 242.577 241.04 242.58 241.3V247.31C242.579 247.569 242.629 247.826 242.727 248.065C242.826 248.305 242.971 248.523 243.154 248.706C243.337 248.889 243.555 249.034 243.795 249.133C244.034 249.231 244.291 249.281 244.55 249.28C244.809 249.281 245.066 249.231 245.305 249.133C245.545 249.034 245.763 248.889 245.946 248.706C246.129 248.523 246.274 248.305 246.373 248.065C246.471 247.826 246.521 247.569 246.52 247.31V241.3C246.52 240.34 245.83 239.53 244.89 239.36ZM243.84 251.3C242.904 251.133 242.057 250.641 241.448 249.911C240.839 249.182 240.507 248.26 240.51 247.31V241.3C240.512 240.711 240.642 240.129 240.891 239.595C241.141 239.061 241.504 238.588 241.956 238.209C242.407 237.83 242.936 237.554 243.505 237.401C244.074 237.247 244.669 237.22 245.25 237.32C246.188 237.482 247.038 237.971 247.651 238.699C248.264 239.427 248.6 240.348 248.6 241.3V247.31C248.601 247.844 248.496 248.373 248.29 248.866C248.084 249.359 247.781 249.806 247.4 250.18C247.026 250.555 246.582 250.852 246.093 251.054C245.604 251.257 245.079 251.361 244.55 251.36C244.31 251.36 244.07 251.34 243.84 251.3ZM252.11 251.34C251.87 251.299 251.652 251.174 251.496 250.987C251.34 250.8 251.257 250.563 251.26 250.32V232.27C251.26 231.99 251.36 231.72 251.56 231.53C251.678 231.413 251.822 231.327 251.981 231.278C252.139 231.23 252.307 231.22 252.47 231.25C252.97 231.33 253.34 231.76 253.34 232.27V242.95L258.12 237.59C258.36 237.33 258.72 237.21 259.08 237.27C259.262 237.3 259.432 237.379 259.573 237.497C259.713 237.615 259.82 237.769 259.881 237.943C259.943 238.117 259.956 238.303 259.921 238.484C259.885 238.665 259.802 238.832 259.68 238.97L256.07 243L259.8 249.83C259.867 249.945 259.911 250.073 259.928 250.205C259.945 250.337 259.936 250.471 259.9 250.6C259.861 250.732 259.796 250.856 259.709 250.962C259.621 251.069 259.513 251.156 259.39 251.22C259.178 251.342 258.93 251.384 258.69 251.34C258.541 251.315 258.399 251.257 258.274 251.17C258.15 251.084 258.046 250.971 257.97 250.84L254.61 244.66L253.33 246.07V250.32C253.33 250.596 253.22 250.86 253.025 251.055C252.83 251.25 252.566 251.36 252.29 251.36C252.22 251.36 252.16 251.36 252.09 251.34H252.11ZM297.92 251.33C297.358 251.236 296.823 251.017 296.356 250.69C295.889 250.363 295.501 249.936 295.22 249.44C295.083 249.197 295.047 248.909 295.12 248.64C295.2 248.38 295.37 248.16 295.6 248.02C295.814 247.903 296.061 247.864 296.3 247.91C296.6 247.96 296.87 248.14 297.02 248.41C297.29 248.87 297.72 249.17 298.25 249.26C298.523 249.307 298.804 249.292 299.07 249.216C299.337 249.14 299.583 249.005 299.79 248.82C300.19 248.45 300.39 247.92 300.34 247.4C300.329 247.133 300.255 246.873 300.125 246.64C299.995 246.408 299.811 246.209 299.59 246.06L296.79 244.07C296.334 243.75 295.954 243.333 295.677 242.849C295.401 242.365 295.234 241.826 295.19 241.27C295.154 240.709 295.246 240.148 295.459 239.628C295.672 239.108 296.001 238.644 296.42 238.27C296.829 237.89 297.318 237.605 297.851 237.437C298.383 237.27 298.947 237.223 299.5 237.3C300.68 237.5 301.64 238.18 302.19 239.14C302.323 239.38 302.357 239.662 302.286 239.926C302.215 240.191 302.045 240.418 301.81 240.56C301.598 240.682 301.35 240.724 301.11 240.68C300.961 240.655 300.819 240.597 300.694 240.51C300.57 240.424 300.466 240.311 300.39 240.18C300.265 239.968 300.094 239.786 299.89 239.648C299.686 239.509 299.454 239.418 299.21 239.38C298.961 239.335 298.705 239.348 298.462 239.42C298.219 239.491 297.995 239.618 297.81 239.79C297.629 239.961 297.488 240.169 297.396 240.401C297.304 240.633 297.265 240.881 297.28 241.13C297.3 241.62 297.58 242.1 298 242.38L300.8 244.33C301.275 244.663 301.668 245.1 301.949 245.607C302.23 246.115 302.391 246.68 302.42 247.26C302.466 247.837 302.377 248.416 302.16 248.953C301.943 249.489 301.604 249.968 301.17 250.35C300.748 250.742 300.243 251.036 299.693 251.209C299.143 251.382 298.561 251.43 297.99 251.35L297.91 251.33H297.92ZM305.95 251.36C305.71 251.318 305.492 251.192 305.335 251.006C305.178 250.82 305.091 250.584 305.09 250.34V232.29C305.089 232.153 305.115 232.017 305.166 231.89C305.218 231.764 305.295 231.648 305.392 231.552C305.488 231.455 305.604 231.378 305.73 231.326C305.857 231.275 305.993 231.249 306.13 231.25L306.33 231.26C306.83 231.36 307.17 231.77 307.17 232.29V237.39H309.14C309.671 237.389 310.197 237.492 310.688 237.695C311.178 237.897 311.624 238.195 312 238.57C312.375 238.946 312.673 239.392 312.875 239.882C313.078 240.373 313.181 240.899 313.18 241.43V250.33C313.181 250.481 313.149 250.63 313.085 250.767C313.022 250.904 312.929 251.026 312.814 251.123C312.698 251.221 312.563 251.291 312.417 251.331C312.271 251.37 312.119 251.376 311.97 251.35C311.47 251.26 311.11 250.83 311.11 250.32V241.42C311.11 241.162 311.059 240.906 310.96 240.668C310.861 240.429 310.715 240.213 310.532 240.03C310.349 239.848 310.132 239.704 309.893 239.606C309.654 239.508 309.398 239.459 309.14 239.46H307.17V250.33C307.171 250.482 307.139 250.632 307.075 250.77C307.011 250.908 306.917 251.03 306.801 251.128C306.684 251.225 306.547 251.296 306.4 251.334C306.253 251.373 306.099 251.378 305.95 251.35V251.36ZM320.23 239.37C319.947 239.318 319.655 239.33 319.377 239.404C319.099 239.478 318.84 239.612 318.619 239.797C318.399 239.983 318.222 240.214 318.101 240.476C317.98 240.737 317.918 241.022 317.92 241.31V247.32C317.919 247.578 317.968 247.834 318.066 248.073C318.164 248.312 318.308 248.529 318.491 248.712C318.673 248.895 318.889 249.041 319.128 249.14C319.366 249.239 319.622 249.29 319.88 249.29C320.4 249.29 320.9 249.09 321.27 248.72C321.455 248.537 321.602 248.319 321.702 248.079C321.801 247.838 321.852 247.58 321.85 247.32V241.3C321.85 240.34 321.17 239.52 320.22 239.36L320.23 239.37ZM319.17 251.29C318.235 251.125 317.388 250.635 316.779 249.907C316.17 249.179 315.837 248.259 315.84 247.31V241.3C315.84 240.71 315.969 240.127 316.218 239.592C316.467 239.057 316.83 238.582 317.282 238.202C317.733 237.822 318.263 237.545 318.832 237.391C319.402 237.237 319.998 237.209 320.58 237.31C321.519 237.473 322.371 237.963 322.984 238.693C323.597 239.423 323.932 240.346 323.93 241.3V247.31C323.93 247.843 323.825 248.37 323.619 248.861C323.412 249.352 323.11 249.797 322.73 250.17C322.271 250.63 321.708 250.973 321.088 251.168C320.468 251.363 319.81 251.405 319.17 251.29Z" fill="white"/>
<path fill-rule="evenodd" clip-rule="evenodd" d="M339.9 238.54C339.934 238.413 339.943 238.281 339.925 238.15C339.908 238.02 339.865 237.894 339.8 237.78C339.724 237.659 339.625 237.554 339.508 237.471C339.391 237.389 339.259 237.331 339.12 237.3C338.862 237.252 338.595 237.303 338.374 237.444C338.153 237.586 337.994 237.806 337.93 238.06C337.93 238.11 336.81 242.62 335.93 246.05L335.91 246.12L335.89 246.05L333.89 238.07C333.851 237.875 333.754 237.697 333.611 237.559C333.468 237.422 333.286 237.331 333.09 237.3C333.03 237.289 332.97 237.282 332.91 237.28C332.45 237.28 332.05 237.6 331.92 238.06C331.91 238.11 330.79 242.62 329.92 246.05L329.9 246.12L329.88 246.05C329.03 242.62 327.88 238.11 327.88 238.06C327.833 237.869 327.731 237.695 327.587 237.56C327.443 237.425 327.264 237.335 327.07 237.3C326.903 237.271 326.732 237.283 326.571 237.336C326.411 237.39 326.266 237.482 326.15 237.605C326.034 237.728 325.951 237.878 325.907 238.041C325.863 238.204 325.861 238.376 325.9 238.54L328.91 250.57C328.967 250.791 329.094 250.986 329.273 251.127C329.452 251.268 329.672 251.347 329.9 251.35C330.39 251.35 330.78 251.03 330.88 250.57L332.88 242.58L332.91 242.51L332.93 242.58C333.81 246.05 334.93 250.58 334.93 250.58C334.989 250.796 335.117 250.988 335.293 251.126C335.469 251.265 335.685 251.343 335.91 251.35C336.14 251.357 336.366 251.283 336.547 251.141C336.728 250.998 336.853 250.796 336.9 250.57L339.9 238.54Z" fill="white"/>
<g filter="url(#filter3_d_5794_3214)">
<rect x="388" y="16" width="170" height="96" rx="16" fill="#242424"/>
</g>
<g clip-path="url(#clip3_5794_3214)">
<path d="M455.063 65.9753L454.336 68.0311H454.275C454.154 67.5675 453.932 66.8621 453.568 66.0156L449.67 56.2404H445.853V71.8203H448.377V62.2063C448.377 61.6017 448.377 60.9164 448.357 60.0699C448.337 59.6466 448.297 59.3241 448.276 59.0823H448.337C448.458 59.6869 448.6 60.1303 448.701 60.4125L453.387 71.78H455.164L459.81 60.3117C459.911 60.0497 460.012 59.5257 460.113 59.0823H460.173C460.113 60.2311 460.072 61.259 460.052 61.8838V71.7598H462.739V56.2001H459.062L455.063 65.9753ZM465.284 60.5939H467.909V71.7598H465.284V60.5939ZM466.617 55.8776C466.172 55.8776 465.809 56.0389 465.506 56.321C465.203 56.6032 465.041 56.966 465.041 57.4094C465.041 57.8327 465.203 58.1955 465.506 58.4776C465.809 58.7598 466.172 58.9009 466.617 58.9009C467.061 58.9009 467.445 58.7396 467.728 58.4776C468.031 58.1955 468.192 57.8327 468.192 57.4094C468.192 56.9862 468.031 56.6234 467.728 56.321C467.465 56.0389 467.081 55.8776 466.617 55.8776ZM477.221 60.4931C476.736 60.3924 476.231 60.3319 475.747 60.3319C474.555 60.3319 473.464 60.5939 472.555 61.1179C471.646 61.642 470.919 62.3675 470.455 63.2745C469.97 64.2017 469.727 65.2699 469.727 66.4993C469.727 67.5675 469.97 68.5148 470.434 69.3815C470.899 70.228 471.545 70.9133 472.414 71.3769C473.242 71.8404 474.211 72.0823 475.302 72.0823C476.555 72.0823 477.625 71.8203 478.473 71.3365L478.494 71.3164V68.8978L478.393 68.9784C478.009 69.2606 477.564 69.5024 477.12 69.6435C476.656 69.8048 476.231 69.8854 475.868 69.8854C474.817 69.8854 473.989 69.5831 473.404 68.9179C472.798 68.273 472.495 67.3862 472.495 66.2776C472.495 65.1288 472.798 64.2218 473.424 63.5567C474.05 62.8916 474.878 62.5489 475.888 62.5489C476.736 62.5489 477.605 62.8311 478.393 63.3955L478.494 63.4761V60.9164L478.473 60.8962C478.13 60.7551 477.746 60.5939 477.221 60.4931ZM485.886 60.4125C485.24 60.4125 484.634 60.6141 484.109 61.0373C483.664 61.4001 483.361 61.9241 483.099 62.5489H483.079V60.5939H480.453V71.7598H483.079V66.0559C483.079 65.0885 483.281 64.2823 483.725 63.6978C484.169 63.0931 484.735 62.7908 485.422 62.7908C485.664 62.7908 485.907 62.8513 486.209 62.8916C486.492 62.9722 486.694 63.0528 486.836 63.1536L486.937 63.2342V60.6141L486.876 60.5939C486.694 60.473 486.331 60.4125 485.886 60.4125ZM493.037 60.352C491.199 60.352 489.724 60.8962 488.694 61.9644C487.644 63.0327 487.139 64.504 487.139 66.3582C487.139 68.0916 487.664 69.5024 488.674 70.5303C489.684 71.5381 491.057 72.0621 492.774 72.0621C494.572 72.0621 496.006 71.5179 497.036 70.4296C498.086 69.3412 498.591 67.89 498.591 66.0962C498.591 64.3226 498.107 62.9117 497.117 61.8838C496.167 60.8559 494.774 60.352 493.037 60.352ZM495.137 68.9381C494.653 69.5629 493.885 69.8652 492.936 69.8652C491.986 69.8652 491.219 69.5629 490.673 68.8978C490.128 68.273 489.865 67.366 489.865 66.2172C489.865 65.028 490.148 64.121 490.673 63.4761C491.219 62.8311 491.966 62.5086 492.915 62.5086C493.845 62.5086 494.572 62.811 495.097 63.4358C495.622 64.0606 495.905 64.9675 495.905 66.1567C495.864 67.366 495.642 68.3133 495.137 68.9381ZM504.449 65.2296C503.621 64.8869 503.096 64.6249 502.853 64.4032C502.651 64.2017 502.55 63.9195 502.55 63.5567C502.55 63.2544 502.671 62.952 502.974 62.7505C503.277 62.5489 503.621 62.4482 504.126 62.4482C504.57 62.4482 505.035 62.5288 505.479 62.6497C505.923 62.7706 506.327 62.952 506.651 63.1939L506.752 63.2745V60.8156L506.691 60.7955C506.388 60.6745 505.984 60.5536 505.499 60.4528C505.014 60.3722 504.57 60.3319 504.207 60.3319C502.954 60.3319 501.924 60.6342 501.116 61.2993C500.308 61.9241 499.924 62.7706 499.924 63.7582C499.924 64.2823 500.005 64.7458 500.187 65.1288C500.369 65.5117 500.631 65.8745 500.995 66.1769C501.358 66.459 501.884 66.7815 502.611 67.0838C503.217 67.3458 503.681 67.5474 503.964 67.7086C504.247 67.8699 504.429 68.0513 504.57 68.1924C504.671 68.3536 504.732 68.5551 504.732 68.8172C504.732 69.5629 504.166 69.9257 503.015 69.9257C502.57 69.9257 502.106 69.8451 501.56 69.6637C501.015 69.4823 500.51 69.2203 500.086 68.9179L499.985 68.8373V71.397L500.046 71.4172C500.429 71.5986 500.894 71.7195 501.459 71.8606C502.025 71.9613 502.53 72.042 502.974 72.042C504.328 72.042 505.439 71.7396 506.226 71.0745C507.034 70.4296 507.458 69.6032 507.458 68.535C507.458 67.7893 507.257 67.1241 506.812 66.6203C506.226 66.1365 505.499 65.6327 504.449 65.2296ZM514.387 60.352C512.549 60.352 511.074 60.8962 510.044 61.9644C509.014 63.0327 508.489 64.504 508.489 66.3582C508.489 68.0916 509.014 69.5024 510.024 70.5303C511.034 71.5381 512.407 72.0621 514.124 72.0621C515.922 72.0621 517.356 71.5179 518.386 70.4296C519.436 69.3412 519.941 67.89 519.941 66.0962C519.941 64.3226 519.456 62.9117 518.467 61.8838C517.517 60.8559 516.124 60.352 514.387 60.352ZM516.467 68.9381C515.982 69.5629 515.215 69.8652 514.265 69.8652C513.296 69.8652 512.549 69.5629 512.003 68.8978C511.458 68.273 511.195 67.366 511.195 66.2172C511.195 65.028 511.478 64.121 512.003 63.4761C512.549 62.8311 513.296 62.5086 514.245 62.5086C515.154 62.5086 515.902 62.811 516.427 63.4358C516.952 64.0606 517.235 64.9675 517.235 66.1567C517.235 67.366 516.972 68.3133 516.467 68.9381ZM533.979 62.7505V60.5939H531.333V57.2885L531.253 57.3086L528.748 58.0544L528.687 58.0745V60.5939H524.728V59.1831C524.728 58.5381 524.89 58.0342 525.173 57.7117C525.456 57.3893 525.88 57.228 526.405 57.228C526.768 57.228 527.152 57.3086 527.576 57.49L527.677 57.5505V55.273L527.617 55.2528C527.253 55.1319 526.768 55.0513 526.142 55.0513C525.355 55.0513 524.668 55.2327 524.042 55.535C523.415 55.8776 522.951 56.3412 522.607 56.966C522.264 57.5706 522.082 58.2559 522.082 59.042V60.5939H520.244V62.7303H522.082V71.7598H524.728V62.7505H528.687V68.4947C528.687 70.8528 529.798 72.042 532.02 72.042C532.384 72.042 532.767 71.9815 533.131 71.921C533.515 71.8404 533.798 71.7396 533.959 71.659L533.979 71.6389V69.4823L533.878 69.5629C533.717 69.6637 533.575 69.7443 533.333 69.8048C533.131 69.8652 532.949 69.8854 532.808 69.8854C532.283 69.8854 531.919 69.7644 531.657 69.4621C531.414 69.18 531.293 68.7164 531.293 68.0311V62.7505H533.979Z" fill="white"/>
<path d="M412 51H424.382V63.355H412V51Z" fill="#F25022"/>
<path d="M425.675 51H438.057V63.355H425.675V51Z" fill="#7FBA00"/>
<path d="M412 64.645H424.382V77.0001H412V64.645Z" fill="#00A4EF"/>
<path d="M425.675 64.645H438.057V77.0001H425.675V64.645Z" fill="#FFB900"/>
</g>
<g filter="url(#filter4_d_5794_3214)">
<rect x="388" y="136" width="170" height="96" rx="16" fill="#242424"/>
</g>
<g clip-path="url(#clip4_5794_3214)">
<path d="M497.364 198.102L505.704 188.866L497.364 179.628H506.163L510.294 184.115L514.271 179.628H522.763L514.463 188.828L522.877 198.102H514.042L509.949 193.578L505.895 198.102H497.364Z" fill="#FF6600"/>
<path d="M497.364 175.486H487.919V179.628H497.364V185.869H487.919V191.598H497.364V198.102H480.977V169H497.364V175.486Z" fill="#FF6600"/>
<path d="M474.063 169V180.91H473.987C472.457 179.176 470.545 178.573 468.326 178.573C463.781 178.573 460.358 181.619 459.156 185.645C457.786 181.209 454.251 178.49 449.01 178.49C444.754 178.49 441.393 180.373 439.64 183.442V179.628H430.842V175.487H440.443V169H423V198.103H430.842V185.869H438.659C438.426 186.768 438.301 187.73 438.301 188.745C438.301 194.816 443.006 199.075 449.01 199.075C454.06 199.075 457.387 196.739 459.147 192.479H452.427C451.517 193.759 450.828 194.139 449.01 194.139C446.903 194.139 445.086 192.326 445.086 190.178H458.77C459.364 195 463.174 199.158 468.403 199.158C470.659 199.158 472.724 198.064 473.987 196.218H474.063V198.102H480.977V169H474.063ZM445.304 185.956C445.74 184.108 447.195 182.899 449.01 182.899C451.009 182.899 452.39 184.07 452.753 185.956C452.906 185.956 445.304 185.956 445.304 185.956ZM469.868 193.671C467.32 193.671 465.737 191.331 465.737 188.887C465.737 186.275 467.114 183.763 469.868 183.763C472.724 183.763 473.862 186.275 473.862 188.887C473.862 191.364 472.656 193.671 469.868 193.671Z" fill="#652C8F"/>
</g>
<g filter="url(#filter5_d_5794_3214)">
<rect x="388" y="256" width="170" height="96" rx="16" fill="#242424"/>
</g>
<g clip-path="url(#clip5_5794_3214)">
<path d="M455.705 299.959V301.546H455.753C456.327 300.696 457.278 299.696 459.387 299.696C461.028 299.696 462.287 300.528 462.827 301.785H462.875C463.336 301.149 463.864 300.668 464.456 300.328C465.157 299.924 465.936 299.692 466.918 299.692C469.139 299.692 471.106 301.132 471.106 304.762V311.646H467.719V305.243C467.719 303.403 467.052 302.339 465.666 302.339C464.651 302.339 463.913 302.978 463.632 303.765C463.535 304.035 463.49 304.404 463.49 304.713V311.65H460.103V304.983C460.103 303.421 459.462 302.336 458.095 302.336C457.001 302.336 456.315 303.143 456.034 303.835C455.915 304.13 455.877 304.47 455.877 304.79V311.646H452.487V299.959H455.705ZM488.587 299.959V302.164H488.68C489.302 300.479 490.778 299.696 492.074 299.696C492.4 299.696 492.58 299.72 492.842 299.77V302.831C492.532 302.789 492.243 302.747 491.838 302.747C490.37 302.747 489.347 303.547 489.089 304.8C489.032 305.06 489.014 305.341 489.014 305.664V311.65H485.537V299.959H488.587ZM497.563 296.087V299.766H500.5V302.743H497.563V307.135C497.563 308.557 497.949 309.245 499.095 309.245C499.635 309.245 500.032 309.182 500.376 309.101L500.421 311.569C499.961 311.73 498.979 311.906 497.982 311.906C496.81 311.906 495.832 311.523 495.236 310.93C494.555 310.252 494.24 309.143 494.24 307.563V296.087H497.563ZM450.126 311.646H446.755V296.087H450.126V311.646ZM441.135 307.472C441.135 307.686 441.116 307.911 441.053 308.104C440.791 308.915 439.895 309.599 438.779 309.599C437.846 309.599 437.104 309.104 437.104 308.055C437.104 306.45 438.992 306.005 441.139 306.015V307.472H441.135ZM444.503 304.674C444.503 302.023 443.297 299.696 439.217 299.696C437.123 299.696 435.459 300.247 434.553 300.739L435.216 302.866C436.044 302.375 437.366 301.971 438.618 301.971C440.689 301.967 441.027 303.07 441.027 303.775V303.944C436.512 303.937 433.661 305.401 433.661 308.385C433.661 310.207 435.111 311.913 437.636 311.913C439.191 311.913 440.487 311.334 441.266 310.403H441.341C441.341 310.403 441.858 312.422 444.698 311.65C444.548 310.807 444.499 309.912 444.499 308.834V304.674H444.503ZM416.724 296.087C417.072 297.733 418.061 302.515 418.061 302.515C418.477 304.481 418.859 306.542 419.148 308.171H419.2C419.481 306.44 419.923 304.8 420.395 302.771L422.062 296.087H425.753L427.311 302.943C427.719 304.85 428.045 306.321 428.304 308.093H428.353C428.634 306.303 429.001 304.772 429.402 302.813L430.9 296.087H434.44L430.053 311.646C427.259 312.218 426.187 311.165 425.805 309.494C425.423 307.82 424.674 304.635 424.674 304.635C424.288 302.891 423.988 301.662 423.778 299.871H423.726C423.426 301.644 423.111 302.887 422.647 304.632L420.807 311.65C417.953 312.183 416.964 311.393 416.417 309.248C415.945 307.412 413 296.09 413 296.09H416.724V296.087ZM479.918 307.472C479.918 307.686 479.899 307.911 479.835 308.104C479.573 308.915 478.677 309.599 477.561 309.599C476.628 309.599 475.886 309.104 475.886 308.055C475.886 306.45 477.775 306.005 479.921 306.015V307.472H479.918ZM483.285 304.674C483.285 302.023 482.079 299.696 477.999 299.696C475.905 299.696 474.242 300.247 473.335 300.739L473.998 302.866C474.826 302.375 476.149 301.971 477.4 301.971C479.468 301.967 479.809 303.07 479.809 303.775V303.944C475.298 303.937 472.447 305.401 472.447 308.385C472.447 310.207 473.901 311.913 476.422 311.913C477.973 311.913 479.273 311.334 480.049 310.403H480.127C480.127 310.403 480.644 312.422 483.484 311.65C483.334 310.807 483.285 309.912 483.285 308.834V304.674Z" fill="white"/>
<path d="M514.168 306.288C514.5 306.856 514.478 307.49 514.123 307.78L507.991 311.999C507.353 312.362 506.397 311.922 505.855 311.002C505.31 310.078 505.407 309.048 506.046 308.685L512.835 305.584C513.26 305.422 513.835 305.719 514.168 306.288ZM522.238 306.288C522.574 305.719 523.145 305.426 523.571 305.58L530.364 308.681C531.002 309.044 531.096 310.074 530.554 310.998C530.009 311.918 529.049 312.355 528.414 311.995L522.283 307.776C521.931 307.49 521.905 306.852 522.238 306.288ZM518.201 308.575C518.869 308.575 519.418 308.912 519.493 309.356L520.154 316.68C520.154 317.406 519.291 318 518.205 318C517.122 318 516.255 317.406 516.255 316.68L516.913 309.356C516.987 308.912 517.536 308.575 518.201 308.575ZM522.283 300.224L528.414 296.001C529.049 295.638 530.009 296.074 530.554 296.998C531.096 297.922 531.002 298.952 530.364 299.315L523.571 302.42C523.145 302.574 522.57 302.281 522.238 301.712C521.905 301.144 521.931 300.51 522.283 300.224ZM512.835 302.42L506.046 299.315C505.411 298.952 505.314 297.922 505.855 296.998C506.397 296.074 507.356 295.638 507.991 296.001L514.123 300.224C514.478 300.506 514.5 301.144 514.168 301.712C513.835 302.281 513.26 302.574 512.835 302.42ZM516.913 298.644L516.255 291.32C516.255 290.594 517.118 290 518.205 290C519.291 290 520.154 290.594 520.154 291.32L519.493 298.644C519.418 299.084 518.869 299.425 518.201 299.425C517.536 299.425 516.987 299.084 516.913 298.644ZM532.212 311.97V311.786H532.38C532.436 311.786 532.473 311.823 532.473 311.878C532.473 311.929 532.436 311.97 532.38 311.97H532.212ZM532.074 312.303C532.074 312.322 532.089 312.34 532.111 312.34H532.182C532.201 312.34 532.22 312.322 532.22 312.303V312.094H532.335L532.429 312.314C532.436 312.329 532.447 312.34 532.462 312.34H532.548C532.574 312.34 532.593 312.314 532.582 312.289C532.548 312.223 532.515 312.153 532.481 312.083C532.537 312.065 532.623 312.01 532.623 311.878C532.623 311.739 532.507 311.658 532.391 311.658H532.111C532.093 311.658 532.074 311.676 532.074 311.695V312.303ZM531.771 311.999C531.771 311.702 532.018 311.46 532.32 311.46C532.623 311.46 532.869 311.698 532.869 311.999C532.869 312.296 532.627 312.538 532.32 312.538C532.014 312.538 531.771 312.296 531.771 311.999ZM531.641 311.999C531.641 312.366 531.943 312.666 532.32 312.666C532.694 312.666 533 312.366 533 311.999C533 311.632 532.694 311.332 532.32 311.332C531.943 311.332 531.641 311.632 531.641 311.999Z" fill="#FFC124"/>
</g>
<g filter="url(#filter6_d_5794_3214)">
<rect x="582" y="76" width="170" height="96" rx="16" fill="#242424"/>
</g>
<path d="M694.064 138.64C702.042 138.64 708.534 132.043 708.534 123.936C708.534 115.824 702.042 109.232 694.064 109.232C686.084 109.232 679.594 115.824 679.594 123.936C679.594 132.043 686.084 138.64 694.064 138.64ZM694.064 118.693C696.907 118.693 699.223 121.045 699.223 123.934C699.223 126.824 696.906 129.173 694.062 129.173C691.217 129.173 688.905 126.824 688.905 123.933C688.905 121.04 691.219 118.69 694.062 118.69L694.064 118.693ZM639.47 138.64C647.449 138.64 653.94 132.043 653.94 123.936C653.94 115.824 647.449 109.232 639.47 109.232C631.493 109.232 625 115.824 625 123.936C625 132.043 631.493 138.64 639.47 138.64ZM639.47 118.693C642.315 118.693 644.629 121.045 644.629 123.934C644.629 126.824 642.315 129.173 639.47 129.173C636.627 129.173 634.314 126.824 634.314 123.933C634.314 121.04 636.628 118.69 639.47 118.69V118.693ZM666.759 118.362L662.317 109.424H651.915L661.63 128.976V138.181H671.889V128.976L681.605 109.424H671.198L666.761 118.362H666.759Z" fill="#EE2E24"/>
<g filter="url(#filter7_d_5794_3214)">
<rect x="582" y="196" width="170" height="96" rx="16" fill="#242424"/>
</g>
<g clip-path="url(#clip6_5794_3214)">
<path fill-rule="evenodd" clip-rule="evenodd" d="M704.376 242.841L698.139 253.675L692.818 253.696L704.376 233.304L715.892 253.696H710.486L704.376 242.84V242.841ZM687.582 248.98H693.542L690.774 253.696H683.006L683.027 247.954V233.429H687.604L687.583 248.98H687.582ZM671.236 233.43C676.918 233.451 681.516 237.978 681.495 243.573C681.474 249.148 676.876 253.675 671.192 253.675C665.53 253.654 660.933 249.128 660.933 243.531C660.954 237.956 665.552 233.43 671.236 233.43ZM671.214 248.96C674.258 248.96 676.705 246.549 676.705 243.573C676.727 240.598 674.258 238.166 671.236 238.166C668.212 238.145 665.743 240.577 665.743 243.553C665.722 246.528 668.191 248.96 671.213 248.96H671.214ZM652.462 241.963C652.398 241.124 652.185 240.013 651.865 238.946C651.208 236.74 650.066 234.712 648.524 233.014C647.714 232.134 646.8 231.316 645.436 230.352C644.397 229.835 643.375 229.283 642.372 228.697C641.712 228.32 640.924 227.857 639.882 227.523C638.646 227.229 637.383 227.067 636.114 227.041C634.881 226.999 633.645 227.105 632.453 227.335C631.197 227.544 630.154 227.879 628.77 228.214C625.64 229.577 623.214 231.63 621.128 234.356C613.849 244.603 620.426 258.96 632.58 260.657C634.581 260.93 636.583 260.825 638.476 260.385L639.818 260.029C639.86 260.008 639.924 259.986 639.966 259.986L641.499 259.4C641.584 259.357 641.648 259.336 641.733 259.295L642.372 259.001C643.597 258.392 644.747 257.639 645.799 256.76C644.842 257.636 643.801 258.415 642.691 259.085L642.754 259.128C642.968 259.064 643.159 259.001 643.372 258.96C643.372 258.96 643.372 259.295 643.33 259.232C642.989 259.484 643.522 259.253 644.202 258.896C644.884 258.54 645.544 258.099 646.139 257.597C647.013 256.864 647.779 256.067 648.864 254.768C649.971 252.819 651.355 251.121 651.994 248.836C652.207 248.229 652.397 247.517 652.526 246.783C652.652 246.05 652.739 245.295 652.739 244.52C652.718 243.744 652.632 242.947 652.462 241.963ZM636.71 259.191C640.435 258.603 643.564 256.529 646.118 253.7C646.821 252.672 647.374 251.729 648.055 250.702C648.906 248.606 648.843 246.741 649.119 245.422C649.461 243.031 648.651 241.104 647.971 239.05C646.927 236.66 645.544 234.879 643.117 233.496C636.986 229.682 628.642 230.75 624.662 236.451C624.641 236.451 624.534 236.598 624.321 236.891C624.598 235.718 625.301 235.026 626.003 234.355C628.089 232.637 630.516 231.273 633.283 230.604C636.413 230.268 639.519 230.604 642.308 231.966C646.481 234.355 649.248 238.107 649.95 242.549V246.657C649.077 253.385 643.33 258.499 636.71 259.191ZM652.015 243.891C651.865 234.041 642.138 227.397 632.666 228.739C629.898 229.43 626.875 230.813 624.726 232.742C623.682 233.432 623.193 234.712 622.15 235.738C617.977 241.879 618.702 249.739 623.895 254.518C624.561 255.182 625.273 255.798 626.024 256.362C621.682 253.741 619.723 249.779 619.043 244.96C619.043 243.241 619.383 241.543 619.744 239.825C622.172 232.301 629.813 226.831 638.137 228.214C639.52 228.55 640.904 228.906 642.31 229.242C644.055 229.932 645.779 230.96 647.162 232.323C648.546 233.684 649.589 235.403 650.632 237.1C651.334 238.463 651.676 240.181 652.016 241.543C652.079 242.319 652.079 243.116 652.016 243.892L652.015 243.891Z" fill="white"/>
<path fill-rule="evenodd" clip-rule="evenodd" d="M643.373 244.038C643.373 248.272 639.84 251.71 635.476 251.71C631.113 251.71 627.579 248.272 627.579 244.038C627.579 239.805 631.112 236.368 635.476 236.368C639.84 236.368 643.373 239.805 643.373 244.039V244.038Z" fill="white"/>
<path fill-rule="evenodd" clip-rule="evenodd" d="M643.416 242.739C643.31 242.152 643.139 241.691 642.969 241.042C642.287 239.616 641.287 238.506 639.967 237.562C635.029 234.273 628.239 237.437 627.516 243.054C627.24 245.276 628.027 247.414 629.431 249.049C629.006 248.608 628.538 248.148 628.219 247.623L628.176 247.665C628.219 247.791 628.389 247.875 628.431 248C628.431 248 628.261 248 628.304 247.979C628.176 247.833 628.283 248.064 628.474 248.377C628.644 248.692 628.857 248.986 629.112 249.258C629.475 249.657 629.857 250.012 630.496 250.495C631.434 250.976 632.263 251.605 633.348 251.898C633.647 251.983 633.987 252.066 634.328 252.129C634.69 252.193 635.03 252.214 635.414 252.214C635.775 252.214 636.159 252.171 636.627 252.086C637.109 252.029 637.586 251.931 638.052 251.794C639.094 251.478 640.054 250.934 640.863 250.201C641.267 249.824 641.843 249.342 642.288 248.713C642.651 248.001 642.693 247.644 642.864 247.33C643.033 247.015 643.246 246.659 643.396 246.177C643.518 245.605 643.589 245.023 643.609 244.438C643.588 243.851 643.546 243.285 643.417 242.74L643.416 242.739ZM638.349 238.841C639.073 239.26 639.18 239.323 638.796 239.051C639.351 239.176 639.691 239.491 640.031 239.805C640.862 240.749 641.542 241.859 641.883 243.137C642.075 244.583 641.925 246.029 641.308 247.308C640.202 249.257 638.435 250.556 636.327 250.912C636.093 250.912 635.838 250.912 635.603 250.934C636.2 250.828 636.583 250.451 637.669 250.053C638.838 249.634 640.159 247.686 640.798 246.553C642.671 243.472 640.457 240.622 638.349 238.841ZM634.348 250.954C631.113 250.619 628.622 247.958 628.282 244.876C628.579 246.595 629.601 247.915 630.985 249.089C631.475 249.404 632.198 249.844 632.688 250.158C633.518 250.473 634.007 250.808 634.816 250.955H634.348V250.954ZM643.053 245.359C642.906 246.009 642.756 246.637 642.607 247.287C642.287 248.084 641.82 248.901 641.181 249.55C640.542 250.201 639.733 250.703 638.925 251.185C638.286 251.52 637.477 251.688 636.817 251.855C636.434 251.897 635.987 251.729 635.603 251.709C640.329 251.583 643.565 247.162 642.863 242.781C642.521 241.503 641.841 240.392 641.01 239.281C640.67 238.799 640.009 238.506 639.52 238.023C636.561 236.159 632.645 236.536 630.41 238.988C630.097 239.31 629.805 239.653 629.537 240.014C630.73 238.254 632.645 237.018 634.944 236.661C635.753 236.64 636.583 236.788 637.392 236.934C640.968 238.023 643.629 241.503 643.053 245.36V245.359Z" fill="#D7DF23"/>
</g>
<g clip-path="url(#clip7_5794_3214)">
<g filter="url(#filter8_d_5794_3214)">
<rect x="776" y="136" width="170" height="96" rx="16" fill="#242424"/>
</g>
<g clip-path="url(#clip8_5794_3214)">
<path fill-rule="evenodd" clip-rule="evenodd" d="M873.899 193.025C867.914 197.573 859.238 200 851.768 200C841.295 200 831.866 196.007 824.733 189.364C824.172 188.842 824.675 188.13 825.347 188.537C833.045 193.155 842.564 195.933 852.396 195.933C859.027 195.933 866.322 194.518 873.029 191.583C874.043 191.139 874.89 192.267 873.899 193.025Z" fill="#FF9900"/>
<path fill-rule="evenodd" clip-rule="evenodd" d="M876.388 190.09C875.626 189.082 871.331 189.614 869.403 189.85C868.815 189.924 868.726 189.397 869.255 189.018C872.676 186.535 878.289 187.252 878.944 188.084C879.598 188.921 878.773 194.722 875.558 197.49C875.065 197.916 874.595 197.689 874.814 197.125C875.536 195.267 877.155 191.102 876.388 190.09Z" fill="#FF9900"/>
<path fill-rule="evenodd" clip-rule="evenodd" d="M869.537 171.495V169.082C869.537 168.717 869.806 168.472 870.129 168.472H880.607C880.943 168.472 881.212 168.721 881.212 169.082V171.148C881.207 171.495 880.925 171.948 880.423 172.664L874.993 180.656C877.011 180.605 879.14 180.915 880.97 181.978C881.382 182.218 881.494 182.57 881.526 182.916V185.491C881.526 185.842 881.149 186.254 880.755 186.041C877.531 184.298 873.249 184.109 869.685 186.059C869.322 186.263 868.94 185.856 868.94 185.505V183.06C868.94 182.667 868.945 181.996 869.326 181.4L875.616 172.1H870.142C869.806 172.1 869.537 171.855 869.537 171.495Z" fill="white"/>
<path fill-rule="evenodd" clip-rule="evenodd" d="M831.315 186.549H828.127C827.822 186.526 827.58 186.29 827.558 185.99V169.123C827.558 168.786 827.831 168.518 828.172 168.518H831.144C831.454 168.531 831.7 168.776 831.723 169.081V171.286H831.781C832.557 169.155 834.014 168.162 835.978 168.162C837.973 168.162 839.219 169.155 840.116 171.286C840.887 169.155 842.64 168.162 844.519 168.162C845.855 168.162 847.317 168.73 848.209 170.006C849.218 171.425 849.011 173.486 849.011 175.294L849.007 185.939C849.007 186.276 848.733 186.549 848.393 186.549H845.209C844.891 186.526 844.635 186.262 844.635 185.939V176.999C844.635 176.288 844.698 174.513 844.546 173.838C844.308 172.705 843.595 172.386 842.672 172.386C841.9 172.386 841.093 172.918 840.766 173.768C840.439 174.619 840.47 176.043 840.47 176.999V185.939C840.47 186.276 840.197 186.549 839.856 186.549H836.673C836.35 186.526 836.099 186.262 836.099 185.939L836.094 176.999C836.094 175.118 836.395 172.349 834.13 172.349C831.839 172.349 831.929 175.049 831.929 176.999V185.939C831.929 186.276 831.656 186.549 831.315 186.549" fill="white"/>
<path fill-rule="evenodd" clip-rule="evenodd" d="M890.232 168.162C894.962 168.162 897.522 172.349 897.522 177.674C897.522 182.819 894.693 186.9 890.232 186.9C885.587 186.9 883.059 182.713 883.059 177.494C883.059 172.243 885.619 168.162 890.232 168.162ZM890.259 171.605C887.91 171.605 887.762 174.906 887.762 176.962C887.762 179.024 887.73 183.424 890.232 183.424C892.703 183.424 892.819 179.874 892.819 177.711C892.819 176.288 892.761 174.587 892.344 173.237C891.985 172.063 891.272 171.605 890.259 171.605Z" fill="white"/>
<path fill-rule="evenodd" clip-rule="evenodd" d="M903.656 186.549H900.482C900.163 186.526 899.908 186.262 899.908 185.939L899.903 169.068C899.93 168.758 900.195 168.518 900.518 168.518H903.472C903.75 168.531 903.979 168.726 904.042 168.989V171.568H904.1C904.992 169.262 906.243 168.162 908.444 168.162C909.875 168.162 911.269 168.693 912.166 170.149C913 171.499 913 173.768 913 175.4V186.017C912.964 186.313 912.699 186.549 912.385 186.549H909.189C908.897 186.526 908.655 186.304 908.624 186.017V176.856C908.624 175.012 908.83 172.312 906.629 172.312C905.853 172.312 905.14 172.849 904.786 173.662C904.338 174.693 904.279 175.719 904.279 176.856V185.939C904.275 186.276 903.997 186.549 903.656 186.549" fill="white"/>
<path fill-rule="evenodd" clip-rule="evenodd" d="M861.184 178.493C861.184 179.773 861.215 180.841 860.588 181.978C860.081 182.902 859.274 183.471 858.382 183.471C857.158 183.471 856.44 182.509 856.44 181.09C856.44 178.289 858.875 177.781 861.184 177.781V178.493ZM864.399 186.503C864.188 186.697 863.883 186.711 863.645 186.582C862.587 185.676 862.395 185.255 861.816 184.391C860.068 186.23 858.826 186.78 856.561 186.78C853.876 186.78 851.791 185.075 851.791 181.659C851.791 178.992 853.19 177.175 855.19 176.288C856.92 175.502 859.337 175.363 861.184 175.146V174.721C861.184 173.94 861.242 173.015 860.794 172.34C860.408 171.735 859.664 171.485 859.005 171.485C857.79 171.485 856.709 172.128 856.445 173.459C856.391 173.755 856.18 174.046 855.889 174.06L852.8 173.718C852.54 173.658 852.248 173.44 852.325 173.029C853.033 169.165 856.423 168 859.453 168C861.005 168 863.031 168.425 864.255 169.636C865.807 171.129 865.659 173.121 865.659 175.289V180.411C865.659 181.95 866.277 182.625 866.86 183.457C867.062 183.753 867.107 184.109 866.847 184.33C866.197 184.89 865.04 185.93 864.403 186.512L864.399 186.503" fill="white"/>
<path fill-rule="evenodd" clip-rule="evenodd" d="M819.393 178.493C819.393 179.773 819.424 180.841 818.797 181.978C818.29 182.902 817.487 183.471 816.591 183.471C815.367 183.471 814.654 182.509 814.654 181.09C814.654 178.289 817.088 177.781 819.393 177.781V178.493ZM822.608 186.503C822.397 186.697 822.092 186.711 821.854 186.582C820.796 185.676 820.608 185.255 820.025 184.391C818.277 186.23 817.039 186.78 814.77 186.78C812.089 186.78 810 185.075 810 181.659C810 178.992 811.403 177.175 813.399 176.288C815.129 175.502 817.546 175.363 819.393 175.146V174.721C819.393 173.94 819.451 173.015 819.007 172.34C818.617 171.735 817.873 171.485 817.218 171.485C816.003 171.485 814.918 172.128 814.654 173.459C814.6 173.755 814.389 174.046 814.102 174.06L811.009 173.718C810.749 173.658 810.462 173.44 810.534 173.029C811.246 169.165 814.631 168 817.662 168C819.214 168 821.24 168.425 822.464 169.636C824.015 171.129 823.868 173.121 823.868 175.289V180.411C823.868 181.95 824.486 182.625 825.069 183.457C825.275 183.753 825.32 184.109 825.06 184.33C824.41 184.89 823.253 185.93 822.617 186.512L822.608 186.503" fill="white"/>
</g>
</g>
<defs>
<filter id="filter0_d_5794_3214" x="-16" y="120" width="202" height="128" filterUnits="userSpaceOnUse" color-interpolation-filters="sRGB">
<feFlood flood-opacity="0" result="BackgroundImageFix"/>
<feColorMatrix in="SourceAlpha" type="matrix" values="0 0 0 0 0 0 0 0 0 0 0 0 0 0 0 0 0 0 127 0" result="hardAlpha"/>
<feOffset/>
<feGaussianBlur stdDeviation="8"/>
<feComposite in2="hardAlpha" operator="out"/>
<feColorMatrix type="matrix" values="0 0 0 0 0 0 0 0 0 0 0 0 0 0 0 0 0 0 0.5 0"/>
<feBlend mode="normal" in2="BackgroundImageFix" result="effect1_dropShadow_5794_3214"/>
<feBlend mode="normal" in="SourceGraphic" in2="effect1_dropShadow_5794_3214" result="shape"/>
</filter>
<filter id="filter1_d_5794_3214" x="178" y="60" width="202" height="128" filterUnits="userSpaceOnUse" color-interpolation-filters="sRGB">
<feFlood flood-opacity="0" result="BackgroundImageFix"/>
<feColorMatrix in="SourceAlpha" type="matrix" values="0 0 0 0 0 0 0 0 0 0 0 0 0 0 0 0 0 0 127 0" result="hardAlpha"/>
<feOffset/>
<feGaussianBlur stdDeviation="8"/>
<feComposite in2="hardAlpha" operator="out"/>
<feColorMatrix type="matrix" values="0 0 0 0 0 0 0 0 0 0 0 0 0 0 0 0 0 0 0.5 0"/>
<feBlend mode="normal" in2="BackgroundImageFix" result="effect1_dropShadow_5794_3214"/>
<feBlend mode="normal" in="SourceGraphic" in2="effect1_dropShadow_5794_3214" result="shape"/>
</filter>
<filter id="filter2_d_5794_3214" x="178" y="180" width="202" height="128" filterUnits="userSpaceOnUse" color-interpolation-filters="sRGB">
<feFlood flood-opacity="0" result="BackgroundImageFix"/>
<feColorMatrix in="SourceAlpha" type="matrix" values="0 0 0 0 0 0 0 0 0 0 0 0 0 0 0 0 0 0 127 0" result="hardAlpha"/>
<feOffset/>
<feGaussianBlur stdDeviation="8"/>
<feComposite in2="hardAlpha" operator="out"/>
<feColorMatrix type="matrix" values="0 0 0 0 0 0 0 0 0 0 0 0 0 0 0 0 0 0 0.5 0"/>
<feBlend mode="normal" in2="BackgroundImageFix" result="effect1_dropShadow_5794_3214"/>
<feBlend mode="normal" in="SourceGraphic" in2="effect1_dropShadow_5794_3214" result="shape"/>
</filter>
<filter id="filter3_d_5794_3214" x="372" y="0" width="202" height="128" filterUnits="userSpaceOnUse" color-interpolation-filters="sRGB">
<feFlood flood-opacity="0" result="BackgroundImageFix"/>
<feColorMatrix in="SourceAlpha" type="matrix" values="0 0 0 0 0 0 0 0 0 0 0 0 0 0 0 0 0 0 127 0" result="hardAlpha"/>
<feOffset/>
<feGaussianBlur stdDeviation="8"/>
<feComposite in2="hardAlpha" operator="out"/>
<feColorMatrix type="matrix" values="0 0 0 0 0 0 0 0 0 0 0 0 0 0 0 0 0 0 0.5 0"/>
<feBlend mode="normal" in2="BackgroundImageFix" result="effect1_dropShadow_5794_3214"/>
<feBlend mode="normal" in="SourceGraphic" in2="effect1_dropShadow_5794_3214" result="shape"/>
</filter>
<filter id="filter4_d_5794_3214" x="372" y="120" width="202" height="128" filterUnits="userSpaceOnUse" color-interpolation-filters="sRGB">
<feFlood flood-opacity="0" result="BackgroundImageFix"/>
<feColorMatrix in="SourceAlpha" type="matrix" values="0 0 0 0 0 0 0 0 0 0 0 0 0 0 0 0 0 0 127 0" result="hardAlpha"/>
<feOffset/>
<feGaussianBlur stdDeviation="8"/>
<feComposite in2="hardAlpha" operator="out"/>
<feColorMatrix type="matrix" values="0 0 0 0 0 0 0 0 0 0 0 0 0 0 0 0 0 0 0.5 0"/>
<feBlend mode="normal" in2="BackgroundImageFix" result="effect1_dropShadow_5794_3214"/>
<feBlend mode="normal" in="SourceGraphic" in2="effect1_dropShadow_5794_3214" result="shape"/>
</filter>
<filter id="filter5_d_5794_3214" x="372" y="240" width="202" height="128" filterUnits="userSpaceOnUse" color-interpolation-filters="sRGB">
<feFlood flood-opacity="0" result="BackgroundImageFix"/>
<feColorMatrix in="SourceAlpha" type="matrix" values="0 0 0 0 0 0 0 0 0 0 0 0 0 0 0 0 0 0 127 0" result="hardAlpha"/>
<feOffset/>
<feGaussianBlur stdDeviation="8"/>
<feComposite in2="hardAlpha" operator="out"/>
<feColorMatrix type="matrix" values="0 0 0 0 0 0 0 0 0 0 0 0 0 0 0 0 0 0 0.5 0"/>
<feBlend mode="normal" in2="BackgroundImageFix" result="effect1_dropShadow_5794_3214"/>
<feBlend mode="normal" in="SourceGraphic" in2="effect1_dropShadow_5794_3214" result="shape"/>
</filter>
<filter id="filter6_d_5794_3214" x="566" y="60" width="202" height="128" filterUnits="userSpaceOnUse" color-interpolation-filters="sRGB">
<feFlood flood-opacity="0" result="BackgroundImageFix"/>
<feColorMatrix in="SourceAlpha" type="matrix" values="0 0 0 0 0 0 0 0 0 0 0 0 0 0 0 0 0 0 127 0" result="hardAlpha"/>
<feOffset/>
<feGaussianBlur stdDeviation="8"/>
<feComposite in2="hardAlpha" operator="out"/>
<feColorMatrix type="matrix" values="0 0 0 0 0 0 0 0 0 0 0 0 0 0 0 0 0 0 0.5 0"/>
<feBlend mode="normal" in2="BackgroundImageFix" result="effect1_dropShadow_5794_3214"/>
<feBlend mode="normal" in="SourceGraphic" in2="effect1_dropShadow_5794_3214" result="shape"/>
</filter>
<filter id="filter7_d_5794_3214" x="566" y="180" width="202" height="128" filterUnits="userSpaceOnUse" color-interpolation-filters="sRGB">
<feFlood flood-opacity="0" result="BackgroundImageFix"/>
<feColorMatrix in="SourceAlpha" type="matrix" values="0 0 0 0 0 0 0 0 0 0 0 0 0 0 0 0 0 0 127 0" result="hardAlpha"/>
<feOffset/>
<feGaussianBlur stdDeviation="8"/>
<feComposite in2="hardAlpha" operator="out"/>
<feColorMatrix type="matrix" values="0 0 0 0 0 0 0 0 0 0 0 0 0 0 0 0 0 0 0.5 0"/>
<feBlend mode="normal" in2="BackgroundImageFix" result="effect1_dropShadow_5794_3214"/>
<feBlend mode="normal" in="SourceGraphic" in2="effect1_dropShadow_5794_3214" result="shape"/>
</filter>
<filter id="filter8_d_5794_3214" x="760" y="120" width="202" height="128" filterUnits="userSpaceOnUse" color-interpolation-filters="sRGB">
<feFlood flood-opacity="0" result="BackgroundImageFix"/>
<feColorMatrix in="SourceAlpha" type="matrix" values="0 0 0 0 0 0 0 0 0 0 0 0 0 0 0 0 0 0 127 0" result="hardAlpha"/>
<feOffset/>
<feGaussianBlur stdDeviation="8"/>
<feComposite in2="hardAlpha" operator="out"/>
<feColorMatrix type="matrix" values="0 0 0 0 0 0 0 0 0 0 0 0 0 0 0 0 0 0 0.5 0"/>
<feBlend mode="normal" in2="BackgroundImageFix" result="effect1_dropShadow_5794_3214"/>
<feBlend mode="normal" in="SourceGraphic" in2="effect1_dropShadow_5794_3214" result="shape"/>
</filter>
<clipPath id="clip0_5794_3214">
<rect width="170" height="96" fill="white" transform="translate(0 136)"/>
</clipPath>
<clipPath id="clip1_5794_3214">
<rect width="103" height="32" fill="white" transform="translate(34 168)"/>
</clipPath>
<clipPath id="clip2_5794_3214">
<rect width="95" height="32" fill="white" transform="translate(232 108)"/>
</clipPath>
<clipPath id="clip3_5794_3214">
<rect width="122" height="26" fill="white" transform="translate(412 51)"/>
</clipPath>
<clipPath id="clip4_5794_3214">
<rect width="100" height="30" fill="white" transform="translate(423 169)"/>
</clipPath>
<clipPath id="clip5_5794_3214">
<rect width="120" height="28" fill="white" transform="translate(413 290)"/>
</clipPath>
<clipPath id="clip6_5794_3214">
<rect width="98" height="34" fill="white" transform="translate(618 227)"/>
</clipPath>
<clipPath id="clip7_5794_3214">
<rect width="170" height="96" fill="white" transform="translate(776 136)"/>
</clipPath>
<clipPath id="clip8_5794_3214">
<rect width="103" height="32" fill="white" transform="translate(810 168)"/>
</clipPath>
</defs>
</svg>
