<svg width="30" height="39" viewBox="0 0 30 39" fill="none" xmlns="http://www.w3.org/2000/svg">
<path d="M5.91094 34.2715L7.94152 28.3913C8.15177 27.7825 8.64237 27.3122 9.25955 27.1278L9.6761 27.0034C10.1466 26.8628 10.6524 26.9003 11.0971 27.1087L12.0615 27.5606C12.4564 27.7456 12.7799 28.0545 12.983 28.4404L13.1417 28.7422C13.4012 29.2356 13.4431 29.8148 13.2572 30.3404L11.2134 36.1177C10.8669 37.0971 9.57112 37.2999 8.94203 36.473C8.62012 36.05 8.06733 35.8659 7.55419 36.0049C6.51122 36.2874 5.55824 35.2929 5.91094 34.2715Z" fill="#D76255"/>
<path d="M23.8479 34.2715L21.8173 28.3913C21.607 27.7825 21.1164 27.3122 20.4992 27.1278L20.0827 27.0034C19.6122 26.8628 19.1064 26.9003 18.6617 27.1087L17.6973 27.5606C17.3024 27.7456 16.9788 28.0545 16.7758 28.4404L16.6171 28.7422C16.3576 29.2356 16.3157 29.8148 16.5016 30.3404L18.5454 36.1177C18.8919 37.0971 20.1877 37.2999 20.8168 36.473C21.1387 36.05 21.6915 35.8659 22.2046 36.0049C23.2476 36.2874 24.2006 35.2929 23.8479 34.2715Z" fill="#D76255"/>
<path d="M10.4533 0.897949C8.0595 0.897949 6.11898 2.83847 6.11898 5.23223C5.71105 6.592 4.75921 7.10192 4.33428 7.1869C1.94052 7.1869 0 9.12742 0 11.5212C0 12.5122 0.332628 13.4256 0.892334 14.1557C1.94614 15.7195 1.28908 17.2436 0.828815 17.8101C0.307552 18.5256 0 19.4067 0 20.3597C0 22.7535 1.94052 24.694 4.33428 24.694C5.49009 24.8913 6.00567 26.0227 6.11898 26.5637C6.11898 28.9574 8.0595 30.8979 10.4533 30.8979C11.4062 30.8979 12.2874 30.5904 13.0028 30.0691C13.5694 29.6089 15.0935 28.9518 16.6572 30.0056C17.3874 30.5653 18.3007 30.8979 19.2918 30.8979C21.6855 30.8979 23.711 29.2124 23.711 26.8186C23.881 25.4589 25.2125 24.779 25.7507 24.694C28.1445 24.694 30 22.7535 30 20.3597C30 19.4067 29.6924 18.5256 29.1712 17.8101C28.7109 17.2436 28.0539 15.7195 29.1077 14.1557C29.6674 13.4256 30 12.5122 30 11.5212C30 9.12742 28.0595 7.1869 25.6657 7.1869C24.17 6.84859 23.7677 5.74282 23.711 5.23223C23.711 2.83847 21.6855 0.897949 19.2918 0.897949C18.3007 0.897949 17.3874 1.23058 16.6572 1.79028C15.0935 2.84409 13.5694 2.18703 13.0028 1.72676C12.2874 1.2055 11.4062 0.897949 10.4533 0.897949Z" fill="url(#paint0_linear_6893_15331)"/>
<circle cx="14.7016" cy="15.431" r="11.3031" fill="#D76255"/>
<circle cx="15.2113" cy="16.4501" r="11.3031" fill="url(#paint1_linear_6893_15331)"/>
<path d="M16.699 10.6855V21.9465H14.3181V12.9454H14.2522L11.6733 14.562V12.4506L14.4611 10.6855H16.699Z" fill="white"/>
<defs>
<linearGradient id="paint0_linear_6893_15331" x1="5.86402" y1="26.3937" x2="28.8952" y2="9.65149" gradientUnits="userSpaceOnUse">
<stop stop-color="#FFF2C0"/>
<stop offset="1" stop-color="#FFEF77"/>
</linearGradient>
<linearGradient id="paint1_linear_6893_15331" x1="15.1263" y1="5.14697" x2="15.1263" y2="27.7532" gradientUnits="userSpaceOnUse">
<stop stop-color="#E65C00"/>
<stop offset="1" stop-color="#F9D423"/>
</linearGradient>
</defs>
</svg>
