<svg width="21" height="26" viewBox="0 0 21 26" fill="none" xmlns="http://www.w3.org/2000/svg">
<path d="M4.44071 22.3617L5.74015 18.5988C5.91439 18.0942 6.32097 17.7045 6.83243 17.5517C7.22237 17.4352 7.64153 17.4663 8.01004 17.6389L8.45165 17.8459C8.77292 17.9964 9.03619 18.2478 9.20137 18.5618C9.41255 18.9632 9.44661 19.4346 9.29534 19.8622L7.97567 23.5925C7.74468 24.2455 6.88083 24.3807 6.46143 23.8294C6.24683 23.5474 5.8783 23.4247 5.53621 23.5173C4.8409 23.7056 4.20557 23.0426 4.44071 22.3617Z" fill="#D76255"/>
<path d="M16.3986 22.3617L15.0992 18.5988C14.925 18.0942 14.5184 17.7045 14.0069 17.5517C13.617 17.4352 13.1978 17.4663 12.8293 17.6389L12.3877 17.8459C12.0664 17.9964 11.8032 18.2478 11.638 18.5618C11.4268 18.9632 11.3927 19.4346 11.544 19.8622L12.8637 23.5925C13.0947 24.2455 13.9585 24.3807 14.3779 23.8294C14.5925 23.5474 14.9611 23.4247 15.3031 23.5173C15.9985 23.7056 16.6338 23.0426 16.3986 22.3617Z" fill="#D76255"/>
<path d="M7.46884 0.112793C5.873 0.112793 4.57932 1.40647 4.57932 3.00231C4.30737 3.90883 3.6728 4.24877 3.38952 4.30543C1.79368 4.30543 0.5 5.59911 0.5 7.19495C0.5 7.85565 0.721752 8.46457 1.09489 8.95132C1.79743 9.99381 1.35938 11.0099 1.05254 11.3876C0.705035 11.8646 0.5 12.452 0.5 13.0873C0.5 14.6831 1.79368 15.9768 3.38952 15.9768C4.16006 16.1084 4.50378 16.8626 4.57932 17.2233C4.57932 18.8191 5.873 20.1128 7.46884 20.1128C8.10415 20.1128 8.69158 19.9078 9.16856 19.5603C9.54627 19.2534 10.5623 18.8154 11.6048 19.5179C12.0916 19.891 12.7005 20.1128 13.3612 20.1128C14.957 20.1128 16.3074 18.9891 16.3074 17.3932C16.4207 16.4867 17.3083 16.0335 17.6671 15.9768C19.263 15.9768 20.5 14.6831 20.5 13.0873C20.5 12.452 20.295 11.8646 19.9475 11.3876C19.6406 11.0099 19.2026 9.99381 19.9051 8.95132C20.2782 8.46457 20.5 7.85565 20.5 7.19495C20.5 5.59911 19.2063 4.30543 17.6105 4.30543C16.6133 4.07989 16.3451 3.34271 16.3074 3.00231C16.3074 1.40647 14.957 0.112793 13.3612 0.112793C12.7005 0.112793 12.0916 0.334545 11.6048 0.707682C10.5623 1.41022 9.54627 0.972177 9.16856 0.665336C8.69158 0.317828 8.10415 0.112793 7.46884 0.112793Z" fill="url(#paint0_linear_6569_13585)"/>
<circle cx="10.301" cy="9.80152" r="7.53541" fill="#D76255"/>
<circle cx="10.6409" cy="10.481" r="7.53541" fill="url(#paint1_linear_6569_13585)"/>
<path d="M11.6325 6.6377V14.145H10.0453V8.14429H10.0013L8.2821 9.22201V7.81438L10.1406 6.6377H11.6325Z" fill="white"/>
<defs>
<linearGradient id="paint0_linear_6569_13585" x1="4.40935" y1="17.11" x2="19.7635" y2="5.94849" gradientUnits="userSpaceOnUse">
<stop stop-color="#FFF2C0"/>
<stop offset="1" stop-color="#FFEF77"/>
</linearGradient>
<linearGradient id="paint1_linear_6569_13585" x1="10.5842" y1="2.94556" x2="10.5842" y2="18.0164" gradientUnits="userSpaceOnUse">
<stop stop-color="#E65C00"/>
<stop offset="1" stop-color="#F9D423"/>
</linearGradient>
</defs>
</svg>
