<svg width="21" height="26" viewBox="0 0 21 26" fill="none" xmlns="http://www.w3.org/2000/svg">
<path d="M4.44034 23.1952L5.73979 19.4323C5.91402 18.9277 6.3206 18.538 6.83206 18.3852C7.222 18.2687 7.64116 18.2998 8.00968 18.4724L8.45129 18.6794C8.77255 18.8299 9.03583 19.0813 9.20101 19.3953C9.41218 19.7967 9.44624 20.2681 9.29497 20.6957L7.97531 24.426C7.74431 25.079 6.88046 25.2142 6.46107 24.6629C6.24646 24.3809 5.87794 24.2582 5.53584 24.3508C4.84053 24.5391 4.20521 23.8761 4.44034 23.1952Z" fill="#D76255"/>
<path d="M16.3984 23.1952L15.099 19.4323C14.9247 18.9277 14.5181 18.538 14.0067 18.3852C13.6167 18.2687 13.1976 18.2998 12.8291 18.4724L12.3875 18.6794C12.0662 18.8299 11.8029 19.0813 11.6377 19.3953C11.4266 19.7967 11.3925 20.2681 11.5438 20.6957L12.8634 24.426C13.0944 25.079 13.9583 25.2142 14.3777 24.6629C14.5923 24.3809 14.9608 24.2582 15.3029 24.3508C15.9982 24.5391 16.6335 23.8761 16.3984 23.1952Z" fill="#D76255"/>
<path d="M7.46884 0.946045C5.873 0.946045 4.57932 2.23973 4.57932 3.83556C4.30737 4.74208 3.6728 5.08202 3.38952 5.13868C1.79368 5.13868 0.5 6.43236 0.5 8.0282C0.5 8.6889 0.721752 9.29782 1.09489 9.78457C1.79743 10.8271 1.35938 11.8431 1.05254 12.2208C0.705035 12.6978 0.5 13.2852 0.5 13.9205C0.5 15.5164 1.79368 16.8101 3.38952 16.8101C4.16006 16.9416 4.50378 17.6958 4.57932 18.0565C4.57932 19.6524 5.873 20.946 7.46884 20.946C8.10415 20.946 8.69158 20.741 9.16856 20.3935C9.54627 20.0867 10.5623 19.6486 11.6048 20.3512C12.0916 20.7243 12.7005 20.946 13.3612 20.946C14.957 20.946 16.3074 19.8223 16.3074 18.2265C16.4207 17.32 17.3083 16.8667 17.6671 16.8101C19.263 16.8101 20.5 15.5164 20.5 13.9205C20.5 13.2852 20.295 12.6978 19.9475 12.2208C19.6406 11.8431 19.2026 10.8271 19.9051 9.78457C20.2782 9.29782 20.5 8.6889 20.5 8.0282C20.5 6.43236 19.2063 5.13868 17.6105 5.13868C16.6133 4.91314 16.3451 4.17596 16.3074 3.83556C16.3074 2.23973 14.957 0.946045 13.3612 0.946045C12.7005 0.946045 12.0916 1.1678 11.6048 1.54093C10.5623 2.24347 9.54627 1.80543 9.16856 1.49859C8.69158 1.15108 8.10415 0.946045 7.46884 0.946045Z" fill="url(#paint0_linear_6569_13753)"/>
<circle cx="10.301" cy="10.6348" r="7.53541" fill="#545A7C"/>
<circle cx="10.6414" cy="11.3142" r="7.53541" fill="url(#paint1_linear_6569_13753)"/>
<path d="M8.04402 14.9784V13.8347L10.7163 11.3603C10.9436 11.1404 11.1342 10.9425 11.2882 10.7665C11.4446 10.5905 11.5631 10.4183 11.6437 10.2496C11.7244 10.0786 11.7647 9.89407 11.7647 9.69612C11.7647 9.47618 11.7146 9.28679 11.6144 9.12794C11.5142 8.96665 11.3774 8.84324 11.2038 8.7577C11.0303 8.66973 10.8336 8.62574 10.6137 8.62574C10.3839 8.62574 10.1836 8.67217 10.0125 8.76504C9.84143 8.8579 9.70946 8.99109 9.6166 9.1646C9.52373 9.33811 9.4773 9.54461 9.4773 9.7841H7.9707C7.9707 9.2929 8.0819 8.86645 8.30428 8.50477C8.52667 8.14309 8.83825 7.86328 9.23903 7.66533C9.63981 7.46738 10.1017 7.36841 10.6247 7.36841C11.1623 7.36841 11.6303 7.46372 12.0286 7.65433C12.4294 7.8425 12.741 8.10399 12.9634 8.43879C13.1858 8.77359 13.2969 9.15726 13.2969 9.58982C13.2969 9.8733 13.2407 10.1531 13.1283 10.4293C13.0184 10.7054 12.8216 11.0121 12.5382 11.3493C12.2547 11.6841 11.8551 12.0862 11.3395 12.5554L10.2434 13.6294V13.6807H13.3959V14.9784H8.04402Z" fill="white"/>
<defs>
<linearGradient id="paint0_linear_6569_13753" x1="4.40935" y1="17.9432" x2="19.7635" y2="6.78174" gradientUnits="userSpaceOnUse">
<stop stop-color="#EDEDED"/>
<stop offset="1" stop-color="#D5D5D6"/>
</linearGradient>
<linearGradient id="paint1_linear_6569_13753" x1="10.5847" y1="3.77881" x2="10.5847" y2="18.8496" gradientUnits="userSpaceOnUse">
<stop stop-color="#6B7194"/>
<stop offset="1" stop-color="#CBD5EA"/>
</linearGradient>
</defs>
</svg>
