<svg width="22" height="27" viewBox="0 0 22 27" fill="none" xmlns="http://www.w3.org/2000/svg">
<path d="M4.63707 24.0608L6.00149 20.1096C6.18444 19.5799 6.61134 19.1706 7.14838 19.0102C7.55781 18.8879 7.99793 18.9205 8.38487 19.1018L8.84856 19.3191C9.1859 19.4771 9.46233 19.7411 9.63577 20.0708C9.85751 20.4923 9.89327 20.9872 9.73443 21.4362L8.34879 25.3531C8.10624 26.0387 7.1992 26.1806 6.75883 25.6018C6.5335 25.3057 6.14655 25.1768 5.78735 25.2741C5.05727 25.4718 4.39018 24.7757 4.63707 24.0608Z" fill="#D76255"/>
<path d="M17.1935 24.0608L15.8291 20.1096C15.6461 19.5799 15.2192 19.1706 14.6822 19.0102C14.2728 18.8879 13.8326 18.9205 13.4457 19.1018L12.982 19.3191C12.6447 19.4771 12.3682 19.7411 12.1948 20.0708C11.9731 20.4923 11.9373 20.9872 12.0961 21.4362L13.4818 25.3531C13.7243 26.0387 14.6314 26.1806 15.0717 25.6018C15.2971 25.3057 15.684 25.1768 16.0432 25.2741C16.7733 25.4718 17.4404 24.7757 17.1935 24.0608Z" fill="#D76255"/>
<path d="M7.81728 0.699219C6.14165 0.699219 4.78329 2.05758 4.78329 3.73321C4.49773 4.68505 3.83144 5.042 3.53399 5.10149C1.85837 5.10149 0.5 6.45985 0.5 8.13548C0.5 8.82922 0.73284 9.46858 1.12463 9.97967C1.8623 11.0743 1.40235 12.1411 1.08017 12.5377C0.715287 13.0386 0.5 13.6554 0.5 14.3224C0.5 15.9981 1.85837 17.3564 3.53399 17.3564C4.34306 17.4946 4.70397 18.2865 4.78329 18.6652C4.78329 20.3409 6.14165 21.6992 7.81728 21.6992C8.48436 21.6992 9.10116 21.4839 9.60198 21.119C9.99858 20.7969 11.0654 20.3369 12.1601 21.0746C12.6711 21.4664 13.3105 21.6992 14.0042 21.6992C15.6799 21.6992 17.0977 20.5193 17.0977 18.8437C17.2167 17.8919 18.1487 17.4159 18.5255 17.3564C20.2011 17.3564 21.5 15.9981 21.5 14.3224C21.5 13.6554 21.2847 13.0386 20.9198 12.5377C20.5976 12.1411 20.1377 11.0743 20.8754 9.97967C21.2672 9.46858 21.5 8.82922 21.5 8.13548C21.5 6.45985 20.1416 5.10149 18.466 5.10149C17.419 4.86467 17.1374 4.09063 17.0977 3.73321C17.0977 2.05758 15.6799 0.699219 14.0042 0.699219C13.3105 0.699219 12.6711 0.932058 12.1601 1.32385C11.0654 2.06152 9.99858 1.60157 9.60198 1.27939C9.10116 0.914505 8.48436 0.699219 7.81728 0.699219Z" fill="url(#paint0_linear_6085_9783)"/>
<circle cx="10.7911" cy="10.8731" r="7.91218" fill="#545A7C"/>
<circle cx="11.1485" cy="11.586" r="7.91218" fill="url(#paint1_linear_6085_9783)"/>
<path d="M8.42122 15.4329V14.232L11.2271 11.6339C11.4658 11.403 11.6659 11.1951 11.8276 11.0104C11.9918 10.8256 12.1162 10.6447 12.2009 10.4677C12.2856 10.2881 12.3279 10.0943 12.3279 9.88648C12.3279 9.65554 12.2753 9.45668 12.1701 9.28989C12.0649 9.12054 11.9212 8.99095 11.739 8.90114C11.5568 8.80877 11.3503 8.76258 11.1193 8.76258C10.8781 8.76258 10.6677 8.81133 10.4881 8.90884C10.3085 9.00635 10.1699 9.1462 10.0724 9.32838C9.97492 9.51056 9.92617 9.72739 9.92617 9.97886H8.34424C8.34424 9.46309 8.46099 9.01533 8.69449 8.63557C8.928 8.2558 9.25516 7.96199 9.67598 7.75415C10.0968 7.54631 10.5818 7.44238 11.1309 7.44238C11.6954 7.44238 12.1868 7.54246 12.6051 7.7426C13.0259 7.94018 13.353 8.21474 13.5865 8.56628C13.82 8.91782 13.9368 9.32068 13.9368 9.77486C13.9368 10.0725 13.8778 10.3663 13.7597 10.6563C13.6443 10.9462 13.4377 11.2683 13.1401 11.6224C12.8424 11.9739 12.4229 12.396 11.8814 12.8887L10.7306 14.0164V14.0703H14.0407V15.4329H8.42122Z" fill="white"/>
<defs>
<linearGradient id="paint0_linear_6085_9783" x1="4.60482" y1="18.5462" x2="20.7266" y2="6.8267" gradientUnits="userSpaceOnUse">
<stop stop-color="#EDEDED"/>
<stop offset="1" stop-color="#D5D5D6"/>
</linearGradient>
<linearGradient id="paint1_linear_6085_9783" x1="11.089" y1="3.67383" x2="11.089" y2="19.4982" gradientUnits="userSpaceOnUse">
<stop stop-color="#6B7194"/>
<stop offset="1" stop-color="#CBD5EA"/>
</linearGradient>
</defs>
</svg>
