<svg width="22" height="27" viewBox="0 0 22 27" fill="none" xmlns="http://www.w3.org/2000/svg">
<path d="M4.63707 24.0608L6.00149 20.1096C6.18444 19.5799 6.61134 19.1706 7.14838 19.0102C7.55781 18.8879 7.99793 18.9205 8.38487 19.1018L8.84856 19.3191C9.1859 19.4771 9.46233 19.7411 9.63577 20.0708C9.85751 20.4923 9.89327 20.9872 9.73443 21.4362L8.34879 25.3531C8.10624 26.0387 7.1992 26.1806 6.75883 25.6018C6.5335 25.3057 6.14655 25.1768 5.78735 25.2741C5.05727 25.4718 4.39018 24.7757 4.63707 24.0608Z" fill="#D76255"/>
<path d="M17.1935 24.0608L15.8291 20.1096C15.6461 19.5799 15.2192 19.1706 14.6822 19.0102C14.2728 18.8879 13.8326 18.9205 13.4457 19.1018L12.982 19.3191C12.6447 19.4771 12.3682 19.7411 12.1948 20.0708C11.9731 20.4923 11.9373 20.9872 12.0961 21.4362L13.4818 25.3531C13.7243 26.0387 14.6314 26.1806 15.0717 25.6018C15.2971 25.3057 15.684 25.1768 16.0432 25.2741C16.7733 25.4718 17.4404 24.7757 17.1935 24.0608Z" fill="#D76255"/>
<path d="M7.81728 0.699219C6.14165 0.699219 4.78329 2.05758 4.78329 3.73321C4.49773 4.68505 3.83144 5.042 3.53399 5.10149C1.85837 5.10149 0.5 6.45985 0.5 8.13548C0.5 8.82922 0.73284 9.46858 1.12463 9.97967C1.8623 11.0743 1.40235 12.1411 1.08017 12.5377C0.715287 13.0386 0.5 13.6554 0.5 14.3224C0.5 15.9981 1.85837 17.3564 3.53399 17.3564C4.34306 17.4946 4.70397 18.2865 4.78329 18.6652C4.78329 20.3409 6.14165 21.6992 7.81728 21.6992C8.48436 21.6992 9.10116 21.4839 9.60198 21.119C9.99858 20.7969 11.0654 20.3369 12.1601 21.0746C12.6711 21.4664 13.3105 21.6992 14.0042 21.6992C15.6799 21.6992 17.0977 20.5193 17.0977 18.8437C17.2167 17.8919 18.1487 17.4159 18.5255 17.3564C20.2011 17.3564 21.5 15.9981 21.5 14.3224C21.5 13.6554 21.2847 13.0386 20.9198 12.5377C20.5976 12.1411 20.1377 11.0743 20.8754 9.97967C21.2672 9.46858 21.5 8.82922 21.5 8.13548C21.5 6.45985 20.1416 5.10149 18.466 5.10149C17.419 4.86467 17.1374 4.09063 17.0977 3.73321C17.0977 2.05758 15.6799 0.699219 14.0042 0.699219C13.3105 0.699219 12.6711 0.932058 12.1601 1.32385C11.0654 2.06152 9.99858 1.60157 9.60198 1.27939C9.10116 0.914505 8.48436 0.699219 7.81728 0.699219Z" fill="url(#paint0_linear_6085_9800)"/>
<circle cx="10.7911" cy="10.8731" r="7.91218" fill="#9F5C0D"/>
<circle cx="11.1485" cy="11.586" r="7.91218" fill="url(#paint1_linear_6085_9800)"/>
<path d="M10.9955 15.2018C10.4208 15.2018 9.90884 15.103 9.45979 14.9054C9.01331 14.7052 8.66049 14.4307 8.40133 14.0817C8.14473 13.7302 8.01258 13.3247 8.00488 12.8654H9.68304C9.6933 13.0579 9.75617 13.2272 9.87163 13.3735C9.98967 13.5172 10.1462 13.6288 10.3412 13.7084C10.5362 13.7879 10.7556 13.8277 10.9994 13.8277C11.2534 13.8277 11.4779 13.7828 11.673 13.693C11.868 13.6031 12.0206 13.4787 12.131 13.3196C12.2413 13.1605 12.2965 12.977 12.2965 12.7692C12.2965 12.5588 12.2375 12.3728 12.1194 12.2111C12.004 12.0469 11.8372 11.9186 11.6191 11.8262C11.4035 11.7338 11.1469 11.6876 10.8493 11.6876H10.1141V10.4637H10.8493C11.1007 10.4637 11.3227 10.42 11.5151 10.3328C11.7102 10.2456 11.8616 10.125 11.9693 9.971C12.0771 9.81448 12.131 9.63229 12.131 9.42445C12.131 9.22687 12.0835 9.05366 11.9886 8.90484C11.8962 8.75344 11.7653 8.63541 11.596 8.55073C11.4292 8.46605 11.2342 8.42371 11.0109 8.42371C10.7851 8.42371 10.5786 8.46477 10.3912 8.54688C10.2039 8.62643 10.0538 8.74061 9.94092 8.88944C9.82801 9.03827 9.76771 9.21275 9.76001 9.4129H8.16269C8.17039 8.95872 8.29997 8.55843 8.55144 8.21202C8.8029 7.86561 9.14161 7.5949 9.56757 7.39989C9.99609 7.20231 10.4798 7.10352 11.0186 7.10352C11.5626 7.10352 12.0386 7.20231 12.4466 7.39989C12.8546 7.59747 13.1715 7.86433 13.3973 8.20047C13.6257 8.53405 13.7386 8.90868 13.736 9.32437C13.7386 9.76572 13.6013 10.1339 13.3242 10.429C13.0496 10.7241 12.6916 10.9114 12.2503 10.991V11.0526C12.8302 11.127 13.2716 11.3284 13.5743 11.6569C13.8797 11.9827 14.0311 12.3907 14.0285 12.8808C14.0311 13.3299 13.9015 13.7289 13.6398 14.0779C13.3806 14.4268 13.0227 14.7014 12.5659 14.9015C12.1092 15.1017 11.5857 15.2018 10.9955 15.2018Z" fill="white"/>
<defs>
<linearGradient id="paint0_linear_6085_9800" x1="4.60482" y1="18.5462" x2="20.7266" y2="6.8267" gradientUnits="userSpaceOnUse">
<stop stop-color="#FFECD5"/>
<stop offset="1" stop-color="#FFE4C6"/>
</linearGradient>
<linearGradient id="paint1_linear_6085_9800" x1="11.089" y1="3.67383" x2="11.089" y2="19.4982" gradientUnits="userSpaceOnUse">
<stop stop-color="#C48235"/>
<stop offset="1" stop-color="#E9B475"/>
</linearGradient>
</defs>
</svg>
