<svg width="24" height="24" viewBox="0 0 24 24" fill="none" xmlns="http://www.w3.org/2000/svg">
<path d="M7 9C8.933 9 10.5 7.433 10.5 5.5C10.5 3.56701 8.933 2 7 2C5.067 2 3.5 3.56701 3.5 5.5C3.5 7.433 5.067 9 7 9Z" stroke="white" stroke-width="2" stroke-linejoin="round"/>
<path d="M17 9C18.933 9 20.5 7.433 20.5 5.5C20.5 3.56701 18.933 2 17 2C15.067 2 13.5 3.56701 13.5 5.5C13.5 7.433 15.067 9 17 9Z" stroke="white" stroke-width="2" stroke-linejoin="round"/>
<path d="M2 22C2 21.5556 2 20.0556 2 17.5C2 14.7386 3.88511 12.5 6.21055 12.5C7.33335 12.5 8.17545 12.5 8.73685 12.5C10.7793 12.5 12 14.5134 12 14.5134" stroke="white" stroke-width="2" stroke-linecap="round" stroke-linejoin="round"/>
<path d="M22.0001 22C22.0001 21.5556 22.0001 20.0556 22.0001 17.5C22.0001 14.7386 20.0925 12.5 17.7394 12.5C16.6033 12.5 15.7512 12.5 15.1831 12.5C13.2025 12.5 11.9962 14.5134 12 14.5134" stroke="white" stroke-width="2" stroke-linecap="round" stroke-linejoin="round"/>
<path d="M5.5 20H19" stroke="white" stroke-width="2" stroke-linecap="round" stroke-linejoin="round"/>
<path d="M17.1475 18.1292L17.7673 18.7528L19.0068 19.9999L17.7673 21.2806L17.1475 21.921" stroke="white" stroke-width="2" stroke-linecap="round" stroke-linejoin="round"/>
<path d="M7.16517 18.116L6.53557 18.7428L5.27637 19.9963L6.53557 21.2707L7.16517 21.9079" stroke="white" stroke-width="2" stroke-linecap="round" stroke-linejoin="round"/>
</svg>
