<svg width="23" height="22" viewBox="0 0 23 22" fill="none" xmlns="http://www.w3.org/2000/svg">
<path d="M8.75 2.75H4.625C3.86561 2.75 3.25 3.36561 3.25 4.125V17.875C3.25 18.6344 3.86561 19.25 4.625 19.25H18.375C19.1344 19.25 19.75 18.6344 19.75 17.875V13.75" stroke="#515151" stroke-width="1.6" stroke-linecap="round" stroke-linejoin="round"/>
<path fill-rule="evenodd" clip-rule="evenodd" d="M20.2273 2.08995C20.4376 2.2341 20.5755 2.47604 20.5755 2.7502V11.0002C20.5755 11.442 20.2173 11.8002 19.7755 11.8002C19.3336 11.8002 18.9755 11.442 18.9755 11.0002V4.68145L8.67379 14.9832C8.36137 15.2956 7.85484 15.2956 7.54242 14.9832C7.23 14.6708 7.23 14.1642 7.54242 13.8518L17.844 3.5502H11.5255C11.0836 3.5502 10.7255 3.19202 10.7255 2.7502C10.7255 2.30837 11.0836 1.9502 11.5255 1.9502L19.775 1.9502L19.7755 1.9502C19.9431 1.9502 20.0988 2.00178 20.2273 2.08995Z" fill="#515151"/>
</svg>
