<svg width="34" height="35" viewBox="0 0 34 35" fill="none" xmlns="http://www.w3.org/2000/svg">
<path d="M31.5278 9.14716C30.4584 9.63327 29.3056 9.95272 28.1112 10.1055C29.3334 9.36939 30.2778 8.20272 30.7223 6.79994C29.5695 7.49438 28.2917 7.9805 26.9445 8.25827C25.8473 7.06383 24.3056 6.36938 22.5556 6.36938C19.2917 6.36938 16.6251 9.03605 16.6251 12.3277C16.6251 12.7999 16.6806 13.2583 16.7778 13.6888C11.8334 13.4388 7.43062 11.0638 4.50007 7.46661C3.98618 8.34161 3.69451 9.36939 3.69451 10.4527C3.69451 12.5222 4.73618 14.3555 6.34729 15.3972C5.36118 15.3972 4.44451 15.1194 3.63896 14.7027V14.7444C3.63896 17.6333 5.69451 20.0499 8.41674 20.5916C7.54275 20.8308 6.6252 20.8641 5.73618 20.6888C6.11341 21.8728 6.8522 22.9088 7.8487 23.6512C8.8452 24.3936 10.0493 24.8051 11.2917 24.8277C9.18567 26.495 6.57506 27.3962 3.88896 27.3833C3.41673 27.3833 2.94451 27.3555 2.47229 27.2999C5.11118 28.9944 8.25007 29.9805 11.6112 29.9805C22.5556 29.9805 28.5695 20.8972 28.5695 13.0222C28.5695 12.7583 28.5695 12.5083 28.5556 12.2444C29.7223 11.4111 30.7223 10.3555 31.5278 9.14716Z" fill="white"/>
</svg>
