<svg width="44" height="36" viewBox="0 0 44 36" fill="none" xmlns="http://www.w3.org/2000/svg">
<path d="M43.7913 4.50016C42.1872 5.22933 40.458 5.7085 38.6663 5.93766C40.4997 4.8335 41.9163 3.0835 42.583 0.979329C40.8538 2.021 38.9372 2.75016 36.9163 3.16683C35.2705 1.37516 32.958 0.333496 30.333 0.333496C25.4372 0.333496 21.4372 4.3335 21.4372 9.271C21.4372 9.97933 21.5205 10.6668 21.6663 11.3127C14.2497 10.9377 7.64551 7.37516 3.24967 1.97933C2.47884 3.29183 2.04134 4.8335 2.04134 6.4585C2.04134 9.56266 3.60384 12.3127 6.02051 13.8752C4.54134 13.8752 3.16634 13.4585 1.95801 12.8335V12.896C1.95801 17.2293 5.04134 20.8543 9.12468 21.6668C7.81369 22.0256 6.43737 22.0755 5.10384 21.8127C5.66969 23.5887 6.77788 25.1427 8.27263 26.2563C9.76737 27.3699 11.5735 27.987 13.4372 28.021C10.2781 30.5219 6.36217 31.8737 2.33301 31.8543C1.62467 31.8543 0.916341 31.8127 0.208008 31.7293C4.16634 34.271 8.87467 35.7502 13.9163 35.7502C30.333 35.7502 39.3538 22.1252 39.3538 10.3127C39.3538 9.91683 39.3538 9.54183 39.333 9.146C41.083 7.896 42.583 6.31266 43.7913 4.50016Z" fill="url(#paint0_linear_5865_3157)"/>
<defs>
<linearGradient id="paint0_linear_5865_3157" x1="0.208008" y1="0.333496" x2="49.3673" y2="11.7591" gradientUnits="userSpaceOnUse">
<stop stopColor="#6034FF"/>
<stop offset="1" stopColor="#A35AFF"/>
</linearGradient>
</defs>
</svg>
