<svg width="22" height="22" viewBox="0 0 22 22" fill="none" xmlns="http://www.w3.org/2000/svg">
<path d="M7.99105 4.98445L7.49105 4.11842C7.09926 4.34462 6.90813 4.80569 7.02498 5.24274C7.14184 5.6798 7.53756 5.98396 7.98996 5.98445L7.99105 4.98445ZM14.8924 1L15.7584 0.5C15.4822 0.021708 14.8706 -0.142167 14.3924 0.133974L14.8924 1ZM17.1985 4.99445L17.1975 5.99445C17.5549 5.99484 17.8854 5.80439 18.0643 5.49492C18.2432 5.18545 18.2433 4.80402 18.0646 4.49445L17.1985 4.99445ZM21 15.5V16.5C21.5523 16.5 22 16.0523 22 15.5H21ZM21 10.5H22C22 9.94771 21.5523 9.5 21 9.5V10.5ZM22 7.25C22 6.69772 21.5523 6.25 21 6.25C20.4477 6.25 20 6.69772 20 7.25H22ZM20 19.25C20 19.8023 20.4477 20.25 21 20.25C21.5523 20.25 22 19.8023 22 19.25H20ZM8.49105 5.85048L15.3923 1.86603L14.3924 0.133974L7.49105 4.11842L8.49105 5.85048ZM14.0263 1.5L16.3325 5.49445L18.0646 4.49445L15.7584 0.5L14.0263 1.5ZM17.1996 3.99445L7.99214 3.98445L7.98996 5.98445L17.1975 5.99445L17.1996 3.99445ZM2 6V4C0.89544 4 0 4.89541 0 6H2ZM2 6H20V4H2V6ZM20 6H22C22 4.89542 21.1046 4 20 4V6ZM20 6V20H22V6H20ZM20 20V22C21.1046 22 22 21.1046 22 20H20ZM20 20H2V22H20V20ZM2 20H0C0 21.1046 0.89544 22 2 22V20ZM2 20V6H0V20H2ZM16.625 16.5H21V14.5H16.625V16.5ZM22 15.5V10.5H20V15.5H22ZM21 9.5H16.625V11.5H21V9.5ZM16.625 9.5C14.6695 9.5 13 11.0216 13 13H15C15 12.217 15.681 11.5 16.625 11.5V9.5ZM13 13C13 14.9784 14.6695 16.5 16.625 16.5V14.5C15.681 14.5 15 13.783 15 13H13ZM20 7.25V19.25H22V7.25H20Z" fill="white"/>
</svg>
