<svg width="193" height="181" viewBox="0 0 193 181" fill="none" xmlns="http://www.w3.org/2000/svg">
<path d="M132.533 104.185L174.777 146.37C178.542 150.13 180.658 155.23 180.658 160.547V160.552C180.658 171.625 171.669 180.607 160.575 180.607H159.333C154.009 180.607 148.902 178.494 145.137 174.734L104.13 133.784C100.365 130.025 98.2488 124.925 98.2488 119.608V118.367C98.2488 107.294 107.238 98.3123 118.332 98.3123H118.337C123.662 98.3123 128.769 100.426 132.533 104.185Z" fill="white" fill-opacity="0.03"/>
<path d="M159.333 0H160.58C171.669 0 180.663 8.97645 180.663 20.0552C180.663 25.3721 178.547 30.4721 174.782 34.2317L132.539 76.4221C128.774 80.1818 123.667 82.2952 118.337 82.2952H118.332C107.243 82.2952 98.2488 73.3187 98.2488 62.24V60.9998C98.2488 55.6829 100.365 50.5829 104.13 46.8232L145.131 5.87307C148.896 2.11342 154.003 0 159.333 0Z" fill="white" fill-opacity="0.03"/>
<path d="M82.4091 118.367V119.613C82.4091 124.93 80.2927 130.03 76.5279 133.795L35.521 174.74C31.7562 178.5 26.6491 180.613 21.3249 180.613H20.0829C8.99443 180.613 0 171.637 0 160.558V160.552C0 155.235 2.11634 150.135 5.88119 146.37L48.13 104.185C51.8948 100.426 57.0019 98.3123 62.3261 98.3123C73.4202 98.3123 82.4091 107.289 82.4091 118.367Z" fill="white" fill-opacity="0.03"/>
<path d="M82.4091 60.9994V62.2452C82.4091 73.3183 73.4202 82.3003 62.3261 82.3003C57.0019 82.3003 51.8948 80.1869 48.13 76.4273L5.88119 34.2369C2.11634 30.4772 0 25.3772 0 20.0603C0 8.98716 8.98886 0.00515747 20.0829 0.00515747H21.3305C26.6547 0.00515747 31.7618 2.11857 35.5266 5.87822L76.5279 46.8228C80.2927 50.5769 82.4091 55.6769 82.4091 60.9994Z" fill="white" fill-opacity="0.03"/>
</svg>
