<svg width="326" height="393" viewBox="0 0 326 393" fill="none" xmlns="http://www.w3.org/2000/svg">
<g style="mix-blend-mode:multiply">
<rect width="143.372" height="58.8716" rx="29.4358" transform="matrix(0.486569 -0.873642 -0.873642 -0.486569 217.578 205.31)" fill="url(#paint0_linear_6497_12727)"/>
<rect x="216.303" y="204.612" width="143.372" height="58.8717" rx="29.4358" transform="rotate(28.9252 216.303 204.612)" fill="url(#paint1_linear_6497_12727)"/>
<rect x="41.6455" y="107.978" width="143.372" height="58.8717" rx="29.4358" transform="rotate(28.9252 41.6455 107.978)" fill="url(#paint2_linear_6497_12727)"/>
<rect width="143.372" height="58.8716" rx="29.4358" transform="matrix(0.486569 -0.873642 -0.873642 -0.486569 118.557 380.315)" fill="url(#paint3_linear_6497_12727)"/>
<rect x="317.062" y="28.1687" width="143.372" height="58.8717" rx="29.4358" transform="rotate(28.9252 317.062 28.1687)" fill="url(#paint4_linear_6497_12727)"/>
</g>
<defs>
<linearGradient id="paint0_linear_6497_12727" x1="78.2533" y1="0.340132" x2="78.1044" y2="60.2084" gradientUnits="userSpaceOnUse">
<stop stopColor="#CB60FF"/>
<stop offset="1" stopColor="#5B3C7E"/>
</linearGradient>
<linearGradient id="paint1_linear_6497_12727" x1="294.556" y1="204.952" x2="294.407" y2="264.82" gradientUnits="userSpaceOnUse">
<stop stopColor="#CB60FF"/>
<stop offset="1" stopColor="#5B3C7E"/>
</linearGradient>
<linearGradient id="paint2_linear_6497_12727" x1="119.899" y1="108.318" x2="119.75" y2="168.186" gradientUnits="userSpaceOnUse">
<stop stopColor="#CB60FF"/>
<stop offset="1" stopColor="#5B3C7E"/>
</linearGradient>
<linearGradient id="paint3_linear_6497_12727" x1="78.2533" y1="0.340132" x2="78.1044" y2="60.2084" gradientUnits="userSpaceOnUse">
<stop stopColor="#CB60FF"/>
<stop offset="1" stopColor="#5B3C7E"/>
</linearGradient>
<linearGradient id="paint4_linear_6497_12727" x1="395.315" y1="28.5088" x2="395.166" y2="88.3771" gradientUnits="userSpaceOnUse">
<stop stopColor="#CB60FF"/>
<stop offset="1" stopColor="#5B3C7E"/>
</linearGradient>
</defs>
</svg>
