<svg width="123" height="153" viewBox="0 0 123 153" fill="none" xmlns="http://www.w3.org/2000/svg">
<g style="mix-blend-mode:multiply">
<rect width="55.7624" height="22.8972" rx="11.4486" transform="matrix(0.486569 -0.873642 -0.873642 -0.486569 84.4487 79.7693)" fill="url(#paint0_linear_6626_12015)"/>
<rect x="83.9526" y="79.4978" width="55.7624" height="22.8972" rx="11.4486" transform="rotate(28.9252 83.9526 79.4978)" fill="url(#paint1_linear_6626_12015)"/>
<rect x="16.0226" y="41.9136" width="55.7624" height="22.8972" rx="11.4486" transform="rotate(28.9252 16.0226 41.9136)" fill="url(#paint2_linear_6626_12015)"/>
<rect width="55.7624" height="22.8972" rx="11.4486" transform="matrix(0.486569 -0.873642 -0.873642 -0.486569 45.9363 147.835)" fill="url(#paint3_linear_6626_12015)"/>
<rect x="123.141" y="10.8733" width="55.7624" height="22.8972" rx="11.4486" transform="rotate(28.9252 123.141 10.8733)" fill="url(#paint4_linear_6626_12015)"/>
</g>
<defs>
<linearGradient id="paint0_linear_6626_12015" x1="30.4353" y1="0.132289" x2="30.3775" y2="23.4171" gradientUnits="userSpaceOnUse">
<stop stopColor="#CB60FF"/>
<stop offset="1" stopColor="#5B3C7E"/>
</linearGradient>
<linearGradient id="paint1_linear_6626_12015" x1="114.388" y1="79.6301" x2="114.33" y2="102.915" gradientUnits="userSpaceOnUse">
<stop stopColor="#CB60FF"/>
<stop offset="1" stopColor="#5B3C7E"/>
</linearGradient>
<linearGradient id="paint2_linear_6626_12015" x1="46.4579" y1="42.0459" x2="46.4" y2="65.3307" gradientUnits="userSpaceOnUse">
<stop stopColor="#CB60FF"/>
<stop offset="1" stopColor="#5B3C7E"/>
</linearGradient>
<linearGradient id="paint3_linear_6626_12015" x1="30.4353" y1="0.132289" x2="30.3775" y2="23.4171" gradientUnits="userSpaceOnUse">
<stop stopColor="#CB60FF"/>
<stop offset="1" stopColor="#5B3C7E"/>
</linearGradient>
<linearGradient id="paint4_linear_6626_12015" x1="153.577" y1="11.0056" x2="153.519" y2="34.2904" gradientUnits="userSpaceOnUse">
<stop stopColor="#CB60FF"/>
<stop offset="1" stopColor="#5B3C7E"/>
</linearGradient>
</defs>
</svg>
