<svg width="30" height="21" viewBox="0 0 30 21" fill="none" xmlns="http://www.w3.org/2000/svg">
<path d="M28.9688 3.4596C28.8028 2.84297 28.4778 2.28075 28.0262 1.82921C27.5747 1.37768 27.0125 1.05265 26.3958 0.886678C24.125 0.272095 15 0.272095 15 0.272095C15 0.272095 5.87501 0.272095 3.60418 0.886678C2.98755 1.05265 2.42534 1.37768 1.9738 1.82921C1.52226 2.28075 1.19724 2.84297 1.03126 3.4596C0.607246 5.7755 0.401483 8.12608 0.416677 10.4804C0.401483 12.8348 0.607246 15.1854 1.03126 17.5013C1.19724 18.1179 1.52226 18.6801 1.9738 19.1316C2.42534 19.5832 2.98755 19.9082 3.60418 20.0742C5.87501 20.6888 15 20.6888 15 20.6888C15 20.6888 24.125 20.6888 26.3958 20.0742C27.0125 19.9082 27.5747 19.5832 28.0262 19.1316C28.4778 18.6801 28.8028 18.1179 28.9688 17.5013C29.3928 15.1854 29.5985 12.8348 29.5833 10.4804C29.5985 8.12608 29.3928 5.7755 28.9688 3.4596ZM12.0833 14.8554V6.10543L19.6563 10.4804L12.0833 14.8554Z" fill="white"/>
</svg>
