<svg width="25" height="24" viewBox="0 0 25 24" fill="none" xmlns="http://www.w3.org/2000/svg">
<path d="M12.9966 21C17.9671 21 21.9966 16.9706 21.9966 12C21.9966 7.02944 17.9671 3 12.9966 3C8.02602 3 3.99658 7.02944 3.99658 12C3.99658 16.9706 8.02602 21 12.9966 21Z" stroke="#8E8E8E" stroke-width="2" stroke-linecap="round" stroke-linejoin="round"/>
<path d="M12.9966 14.25V13.5C13.5899 13.5 14.1699 13.3241 14.6633 12.9944C15.1566 12.6648 15.5412 12.1962 15.7682 11.6481C15.9953 11.0999 16.0547 10.4967 15.9389 9.91473C15.8232 9.33279 15.5375 8.79824 15.1179 8.37868C14.6983 7.95912 14.1638 7.6734 13.5819 7.55765C12.9999 7.44189 12.3967 7.5013 11.8485 7.72836C11.3004 7.95543 10.8318 8.33994 10.5022 8.83329C10.1725 9.32664 9.99658 9.90666 9.99658 10.5" stroke="#8E8E8E" stroke-width="2" stroke-linecap="round" stroke-linejoin="round"/>
<path d="M12.9966 18.375C13.6179 18.375 14.1216 17.8713 14.1216 17.25C14.1216 16.6287 13.6179 16.125 12.9966 16.125C12.3753 16.125 11.8716 16.6287 11.8716 17.25C11.8716 17.8713 12.3753 18.375 12.9966 18.375Z" fill="#8E8E8E"/>
</svg>
