<svg width="24" height="36" viewBox="0 0 24 36" fill="none" xmlns="http://www.w3.org/2000/svg">
<g clip-path="url(#clip0_11473_63216)">
<path d="M16.6903 22.0895L12.0003 24.8595L11.7603 24.6195V14.6795C11.8403 14.6995 11.9203 14.7095 12.0003 14.7095C12.2503 14.7095 12.4803 14.6495 12.6803 14.5195L16.2403 19.7095C15.9303 19.9595 15.7303 20.3395 15.7303 20.7795C15.7303 21.3995 16.1303 21.9195 16.6903 22.0895Z" fill="white" fill-opacity="0.15"/>
<path d="M17.6303 11.14L17.3303 15.73L17.0903 19.38C16.8603 19.39 16.6403 19.45 16.4503 19.57L12.8903 14.38C13.0503 14.25 13.1903 14.08 13.2703 13.89C13.3503 13.71 13.4003 13.52 13.4003 13.31C13.4003 12.54 12.7703 11.91 12.0003 11.91C11.9203 11.91 11.8403 11.92 11.7603 11.94V0.82L12.0003 0L17.1603 8.56C16.7303 8.79 16.4503 9.24 16.4503 9.76C16.4503 10.46 16.9603 11.04 17.6303 11.14Z" fill="white" fill-opacity="0.15"/>
<path d="M18.5003 21.0204C18.5203 20.9404 18.5303 20.8604 18.5303 20.7804C18.5303 20.0704 18.0103 19.5004 17.3403 19.4004L17.5703 15.8404L17.8803 11.1604C18.1403 11.1504 18.3803 11.0704 18.5903 10.9404L23.0503 18.3304L18.5003 21.0204Z" fill="white" fill-opacity="0.15"/>
<path d="M6.2902 19.4C5.6102 19.48 5.0902 20.06 5.0802 20.77L0.950195 18.33L5.3702 11C5.5402 11.1 5.7302 11.15 5.9302 11.15L6.1402 15.97L6.2902 19.4Z" fill="white" fill-opacity="0.15"/>
<path d="M12.0004 14.71V24.86L7.15039 21.99C7.58039 21.76 7.87039 21.31 7.87039 20.78C7.87039 20.36 7.69039 19.99 7.40039 19.74L11.2704 14.5C11.4104 14.59 11.5804 14.66 11.7604 14.68C11.8404 14.7 11.9204 14.71 12.0004 14.71Z" fill="white" fill-opacity="0.15"/>
<path d="M12.0002 0V11.91C11.9202 11.91 11.8402 11.92 11.7602 11.94C11.1002 12.05 10.6002 12.62 10.6002 13.31C10.6002 13.52 10.6502 13.71 10.7302 13.89C10.8102 14.07 10.9302 14.23 11.0802 14.35L7.20018 19.59C7.01018 19.46 6.78018 19.39 6.54018 19.39L6.39018 15.86L6.18018 11.14C6.87018 11.06 7.39018 10.47 7.39018 9.76C7.39018 9.29 7.16018 8.87 6.80018 8.63L12.0002 0Z" fill="white" fill-opacity="0.15"/>
<path d="M12.0004 26.9497L11.8604 27.1197V35.5997L12.0004 35.9997L23.0504 20.4297L12.0004 26.9597V26.9497Z" fill="white" fill-opacity="0.15"/>
<path d="M12.0002 35.9899V26.9499L0.950195 20.4199L12.0002 35.9899Z" fill="white" fill-opacity="0.15"/>
<path d="M16.69 22.0895L12 24.8595V14.7095C12.25 14.7095 12.48 14.6495 12.68 14.5195L16.24 19.7095C15.93 19.9595 15.73 20.3395 15.73 20.7795C15.73 21.3995 16.13 21.9195 16.69 22.0895Z" fill="white" fill-opacity="0.15"/>
<path d="M17.3301 15.7296L17.0901 19.3796C16.8601 19.3896 16.6401 19.4496 16.4501 19.5696L12.8901 14.3796C13.0501 14.2496 13.1901 14.0796 13.2701 13.8896L17.3301 15.7296Z" fill="white" fill-opacity="0.15"/>
<path d="M18.5003 21.0198C18.5203 20.9398 18.5303 20.8598 18.5303 20.7798C18.5303 20.0698 18.0103 19.4998 17.3403 19.3998L17.5703 15.8398L23.0503 18.3298L18.5003 21.0198Z" fill="white" fill-opacity="0.15"/>
<path d="M6.2902 19.3997C5.6102 19.4797 5.0902 20.0597 5.0802 20.7697L0.950195 18.3297L6.1402 15.9697L6.2902 19.3997Z" fill="white" fill-opacity="0.15"/>
<path d="M11.0801 14.3496L7.20014 19.5896C7.01014 19.4596 6.78014 19.3896 6.54014 19.3896L6.39014 15.8596L10.7301 13.8896C10.8101 14.0696 10.9301 14.2296 11.0801 14.3496Z" fill="white" fill-opacity="0.15"/>
<path d="M12.0004 14.71V24.86L7.15039 21.99C7.58039 21.76 7.87039 21.31 7.87039 20.78C7.87039 20.36 7.69039 19.99 7.40039 19.74L11.2704 14.5C11.4104 14.59 11.5804 14.66 11.7604 14.68C11.8404 14.7 11.9204 14.71 12.0004 14.71Z" fill="white" fill-opacity="0.15"/>
<path d="M7.15008 21.9903C6.95008 22.1103 6.72008 22.1703 6.47008 22.1703C5.70008 22.1703 5.08008 21.5503 5.08008 20.7803L7.15008 21.9903Z" fill="white" fill-opacity="0.15"/>
<path d="M18.5004 21.0195C18.3904 21.6795 17.8204 22.1695 17.1304 22.1695C16.9804 22.1695 16.8304 22.1495 16.6904 22.0895L18.5004 21.0195Z" fill="white" fill-opacity="0.15"/>
<path d="M19.2402 9.76012C19.2402 10.2601 18.9802 10.7001 18.5902 10.9401L17.9602 9.89012L17.8902 9.76012L17.1602 8.56012C17.3602 8.43012 17.5902 8.37012 17.8402 8.37012C18.6202 8.37012 19.2402 8.99012 19.2402 9.76012Z" fill="white" fill-opacity="0.15"/>
<path d="M6.8001 8.63012L6.1201 9.76012L5.8901 10.1401L5.3701 11.0001C4.9101 10.7801 4.6001 10.3001 4.6001 9.76012C4.6001 8.99012 5.2301 8.37012 6.0001 8.37012C6.3001 8.37012 6.5701 8.46012 6.8001 8.63012Z" fill="white" fill-opacity="0.15"/>
<path d="M17.9701 9.76977L17.9601 9.88977L17.8901 9.75977L17.9701 9.76977Z" fill="white" fill-opacity="0.15"/>
</g>
<defs>
<clipPath id="clip0_11473_63216">
<rect width="22.1" height="36" fill="white" transform="translate(0.950195)"/>
</clipPath>
</defs>
</svg>
