<svg width="36" height="36" viewBox="0 0 36 36" fill="none" xmlns="http://www.w3.org/2000/svg">
<g clip-path="url(#clip0_12542_4179)">
<path d="M6.28494 36L11.4949 26.98L16.6949 18L21.8749 8.98L22.7349 7.56L23.1149 8.98L24.6949 14.92L22.9249 18L17.7149 26.98L12.5449 36H18.7649L23.9649 26.98L26.6649 22.32L27.9349 26.98L30.3549 36H35.9349L33.5249 26.98L31.1149 18L30.4749 15.68L34.3549 8.98H28.6949L28.5049 8.32L26.5449 0.95L26.2849 0H20.8549L20.7349 0.19L15.6549 8.98L10.4449 18L5.27494 26.98L0.0649414 36H6.28494Z" fill="white" fill-opacity="0.15"/>
</g>
<defs>
<clipPath id="clip0_12542_4179">
<rect width="35.87" height="36" fill="white" transform="translate(0.0649414)"/>
</clipPath>
</defs>
</svg>
