<svg width="24" height="36" viewBox="0 0 24 36" fill="none" xmlns="http://www.w3.org/2000/svg">
<g clip-path="url(#clip0_12542_4189)">
<path d="M21.995 15.7199C21.995 15.7199 21.975 15.7299 21.955 15.7399L5.32502 25.3399L0.96502 27.8599L0.39502 28.1899V8.50988C0.39502 8.20988 0.71502 8.02988 0.96502 8.17988L4.96502 10.4999L11.215 14.1099C11.545 14.3199 11.535 14.8099 11.205 15.0099C11.205 15.0199 11.195 15.0199 11.195 15.0199L7.47502 17.1699C7.32502 17.2699 7.13502 17.2699 6.96502 17.1799C6.95502 17.1799 6.95502 17.1699 6.94502 17.1699L4.97502 16.0299V20.0199L5.54502 19.6899L13.225 15.2599L16.745 13.2299C16.745 13.2299 16.805 13.1899 16.825 13.1699L17.315 12.8999L16.825 12.6299C16.825 12.6299 16.775 12.5799 16.745 12.5699L14.525 11.2899L5.54502 6.09988L4.97502 5.76988V8.22988C4.97502 8.52988 4.65502 8.70988 4.40502 8.55988L0.58502 6.36988C0.46502 6.30988 0.39502 6.17988 0.39502 6.03988V3.29988C0.39502 1.84988 1.27502 0.719879 2.43502 0.249879C3.30502 -0.110121 4.31502 -0.0901215 5.23502 0.399879C5.25502 0.399879 5.29502 0.419879 5.31502 0.439879L21.955 10.0499C24.125 11.2999 24.145 14.4299 21.995 15.7199Z" fill="white" fill-opacity="0.15"/>
<path d="M21.965 25.9503L5.32502 35.5503C3.12502 36.8203 0.39502 35.2403 0.39502 32.7103V29.3403L0.69502 29.1703L4.08502 27.2103C4.08502 27.2103 4.09502 27.2003 4.10502 27.2003C4.50502 27.0003 4.97502 27.2803 4.97502 27.7303V30.0603L5.84502 29.5603C5.84502 29.5603 5.85502 29.5503 5.86502 29.5503L16.415 23.4503C16.415 23.4503 16.435 23.4403 16.455 23.4303L17.315 22.9303L16.425 22.4203L15.295 21.7703C14.905 21.5403 14.895 20.9903 15.295 20.7503L18.755 18.7503L19.055 18.5703L19.355 18.7503L21.985 20.2603C24.175 21.5203 24.175 24.6903 21.985 25.9503H21.965Z" fill="white" fill-opacity="0.15"/>
</g>
<defs>
<clipPath id="clip0_12542_4189">
<rect width="23.21" height="36" fill="white" transform="translate(0.39502)"/>
</clipPath>
</defs>
</svg>
