<svg width="36" height="36" viewBox="0 0 36 36" fill="none" xmlns="http://www.w3.org/2000/svg">
<g clip-path="url(#clip0_12542_4200)">
<path d="M20.3101 20.1604C18.9901 17.8604 17.6601 15.5704 16.2801 13.1604C13.7801 17.4904 11.3301 21.7404 8.83009 26.0704C8.70009 25.8604 8.61009 25.7104 8.52009 25.5504C8.33009 25.2304 8.16009 24.8904 7.95009 24.5904C7.80009 24.3704 7.86009 24.2104 7.97009 24.0104C8.83009 22.5304 9.68009 21.0404 10.5401 19.5604C11.7701 17.4304 12.9901 15.3004 14.2201 13.1704C14.8901 12.0104 15.5601 10.8504 16.2801 9.61035C19.6101 15.4004 22.9101 21.1404 26.2401 26.9304C26.0801 26.9504 25.9801 26.9804 25.8901 26.9804C25.4601 26.9804 25.0301 26.9804 24.6001 26.9804C24.3701 26.9804 24.2201 26.9104 24.1101 26.7004C23.4001 25.4604 22.6701 24.2304 21.9601 22.9904C21.8001 22.7104 21.6001 22.5404 21.2801 22.4504C19.7401 22.0404 18.1701 21.9404 16.5901 22.1004C16.5001 22.1004 16.4101 22.1104 16.3201 22.1104C16.3001 22.1104 16.2801 22.0904 16.2301 22.0604C16.5801 21.4604 16.9101 20.8504 17.2801 20.2604C17.3401 20.1704 17.5301 20.1004 17.6601 20.1104C18.4101 20.1404 19.1701 20.1804 19.9201 20.2304C20.0301 20.2304 20.1301 20.2404 20.2401 20.2504C20.2701 20.2204 20.2901 20.1804 20.3201 20.1504L20.3101 20.1604Z" fill="white" fill-opacity="0.15"/>
<path d="M13.52 24.1002C14.15 23.9502 14.68 23.8202 15.22 23.7002C16.93 23.3202 18.64 23.3402 20.37 23.5802C20.62 23.6202 20.83 23.7102 20.96 23.9602C21.31 24.6102 21.67 25.2402 22.08 25.9502C21.9 25.9002 21.77 25.8802 21.65 25.8402C20.33 25.4402 18.98 25.2702 17.61 25.3202C15.62 25.4002 13.73 25.8802 12 26.8902C11.94 26.9202 11.88 26.9802 11.82 26.9802C11.17 26.9802 10.52 26.9802 9.79004 26.9802C11.97 23.1902 14.12 19.4702 16.29 15.7002C16.63 16.2902 16.94 16.8102 17.23 17.3402C17.27 17.4202 17.26 17.5702 17.21 17.6502C16.13 19.5302 15.03 21.4102 13.94 23.2902C13.81 23.5202 13.69 23.7602 13.52 24.0902V24.1002Z" fill="white" fill-opacity="0.15"/>
<path d="M27.2101 26.06C23.9101 20.36 20.6601 14.73 17.3501 9.02C17.9001 9.02 18.3601 9.05 18.8101 9.02C19.2301 8.99 19.4701 9.11 19.6901 9.51C20.5601 11.09 21.4701 12.65 22.3701 14.21C23.2301 15.7 24.1101 17.18 24.9701 18.67C25.6601 19.87 26.3401 21.08 27.0201 22.28C27.3601 22.89 27.7101 23.49 28.0601 24.1C28.1801 24.31 28.1601 24.49 28.0401 24.7C27.7701 25.13 27.5201 25.57 27.2101 26.08V26.06Z" fill="white" fill-opacity="0.15"/>
<path d="M18 4.37047C25.53 4.37047 31.63 10.4705 31.63 18.0005C31.63 25.5305 25.53 31.6305 18 31.6305C10.47 31.6305 4.36999 25.5305 4.36999 18.0005C4.36999 10.4705 10.47 4.37047 18 4.37047ZM18 2.73047C13.92 2.73047 10.09 4.32047 7.20999 7.20047C4.32999 10.0805 2.73999 13.9205 2.73999 17.9905C2.73999 22.0605 4.32999 25.9005 7.20999 28.7805C10.09 31.6605 13.93 33.2505 18 33.2505C22.07 33.2505 25.91 31.6605 28.79 28.7805C31.67 25.9005 33.26 22.0605 33.26 17.9905C33.26 13.9205 31.67 10.0805 28.79 7.20047C25.91 4.32047 22.07 2.73047 18 2.73047Z" fill="white" fill-opacity="0.15"/>
<path d="M18 1.64C27.04 1.64 34.36 8.97 34.36 18C34.36 27.03 27.03 34.36 18 34.36C8.97 34.36 1.64 27.04 1.64 18C1.64 8.96 8.96 1.64 18 1.64ZM18 0C13.19 0 8.67 1.87 5.27 5.27C1.87 8.67 0 13.19 0 18C0 22.81 1.87 27.33 5.27 30.73C8.67 34.13 13.19 36 18 36C22.81 36 27.33 34.13 30.73 30.73C34.13 27.33 36 22.81 36 18C36 13.19 34.13 8.67 30.73 5.27C27.33 1.87 22.81 0 18 0Z" fill="white" fill-opacity="0.15"/>
</g>
<defs>
<clipPath id="clip0_12542_4200">
<rect width="36" height="36" fill="white"/>
</clipPath>
</defs>
</svg>
