<svg width="36" height="36" viewBox="0 0 36 36" fill="none" xmlns="http://www.w3.org/2000/svg">
<g clip-path="url(#clip0_12542_4227)">
<path d="M28.5851 2.25484L21.2551 13.1248C20.7451 13.8648 21.7251 14.7648 22.4251 14.1348L29.6351 7.86484C29.8251 7.70484 30.1051 7.82484 30.1051 8.09484V27.6948C30.1051 27.9648 29.7551 28.0848 29.5951 27.8848L7.77507 1.79484C7.07507 0.934844 6.06507 0.464844 4.93507 0.464844H4.15507C2.12507 0.464844 0.445068 2.14484 0.445068 4.20484V31.7948C0.445068 33.8648 2.12507 35.5348 4.18507 35.5348C5.47507 35.5348 6.67507 34.8748 7.38507 33.7448L14.7151 22.8748C15.2251 22.1348 14.2451 21.2348 13.5451 21.8648L6.33507 28.1048C6.14507 28.2648 5.86507 28.1448 5.86507 27.8748V8.29484C5.86507 8.02484 6.21507 7.90484 6.37507 8.10484L28.1951 34.2148C28.8951 35.0748 29.9451 35.5448 31.0351 35.5448H31.8151C33.8851 35.5448 35.5551 33.8648 35.5551 31.8048V4.20484C35.5551 2.13484 33.8751 0.464844 31.8151 0.464844C30.4851 0.464844 29.2851 1.12484 28.5851 2.25484Z" fill="white" fill-opacity="0.15"/>
</g>
<defs>
<clipPath id="clip0_12542_4227">
<rect width="35.11" height="35.07" fill="white" transform="translate(0.445068 0.464844)"/>
</clipPath>
</defs>
</svg>
