<svg width="36" height="36" viewBox="0 0 36 36" fill="none" xmlns="http://www.w3.org/2000/svg">
<g clip-path="url(#clip0_12542_4233)">
<path d="M18.07 6.33984C11.67 6.33984 6.46997 11.5498 6.46997 17.9498C6.46997 24.3498 11.65 29.5498 18.07 29.5498C24.49 29.5498 29.67 24.3498 29.67 17.9498C29.67 11.5498 24.47 6.33984 18.07 6.33984ZM20.41 28.3098C20.41 28.3098 20.31 28.3198 20.27 28.3398H20.24C20.15 28.3598 20.04 28.3898 19.93 28.3998C19.88 28.4198 19.83 28.4198 19.78 28.4298H19.75C19.75 28.4298 19.67 28.4398 19.63 28.4398H19.6C19.55 28.4598 19.51 28.4698 19.45 28.4698C19.4 28.4698 19.34 28.4898 19.29 28.4898H19.26C19.26 28.4898 19.17 28.4998 19.13 28.4998H19.09C19.09 28.4998 19 28.5098 18.96 28.5098H18.92C18.92 28.5098 18.83 28.5298 18.77 28.5298H18.76C18.7 28.5398 18.65 28.5398 18.6 28.5398H18.04C15.67 28.5398 13.36 27.7498 11.5 26.2798C10.59 25.4498 9.97997 24.3498 9.63997 23.5998C9.34997 22.9698 9.11997 22.3198 8.96997 21.6398C8.81997 20.9698 8.73997 20.2898 8.71997 19.5898V19.2398L8.75997 18.6398C8.81997 17.9998 8.94997 17.3598 9.12997 16.7498C9.31997 16.1198 9.56997 15.5098 9.87997 14.9398C10.2 14.3398 10.57 13.7798 11.01 13.2598C11.47 12.6998 12 12.1998 12.58 11.7598C13.13 11.3398 13.73 10.9698 14.37 10.6698C15 10.3798 15.66 10.1598 16.34 10.0098C17.01 9.85984 17.69 9.76984 18.38 9.75984H18.73V11.5698H18.42C16.16 11.6298 13.95 12.5898 12.4 14.4298C11.2 15.8498 10.54 17.6398 10.53 19.4998C10.51 22.0198 11.62 24.4098 13.56 26.0198C14.77 27.0298 16.2 27.6098 17.7 27.9398C18.69 28.1598 19.71 28.2598 20.73 28.2298C20.62 28.2498 20.53 28.2798 20.42 28.3098H20.41ZM24.07 26.6498C23.64 26.9298 23.6 26.9598 23.34 27.1098C23.08 27.2598 22.82 27.3798 22.56 27.4998C22.26 27.6298 22.03 27.7198 21.47 27.9298C20.83 27.9298 19.74 27.8998 18.93 27.7898C17.66 27.6098 16.45 27.3398 15.47 26.8198C14.53 26.3198 13.75 25.7798 13.08 25.0498C12.35 24.2798 11.8 23.3498 11.45 22.3398C11.11 21.3598 10.97 20.3298 11.04 19.2898C11.11 18.2998 11.37 17.3198 11.8 16.4198C12.02 15.9698 12.28 15.5498 12.58 15.1498C12.88 14.7498 13.23 14.3898 13.6 14.0498C14.38 13.3498 15.29 12.8298 16.28 12.4998C17.06 12.2398 17.87 12.1098 18.69 12.0998C19.51 12.0998 20.32 12.2298 21.1 12.4698C21.34 12.5498 21.57 12.6398 21.8 12.7298L21.04 14.3498C20.3 14.0498 19.5 13.8898 18.69 13.8898C18.06 13.8898 17.44 13.9898 16.84 14.1898C13.71 15.2198 12.06 18.6298 13.14 21.7698C14.02 24.3598 16.43 26.0698 19.24 26.5798C19.9 26.6998 20.57 26.7698 21.24 26.7998C22.3 26.8098 22.68 26.8198 24.18 26.5698C24.15 26.5998 24.11 26.6198 24.07 26.6498ZM24.69 26.2198C24.06 26.3598 23.69 26.3998 23.2 26.4398C21.43 26.5698 19.61 26.4098 18.37 26.0098C17.07 25.5698 15.86 24.8098 14.98 23.8598C14.47 23.3098 14.08 22.7298 13.79 22.0998C13.48 21.4098 13.32 20.6498 13.31 19.8898C13.31 18.4298 13.9 17.0198 14.94 15.9798C17.1 13.8198 20.6 13.8298 22.75 15.9798C23.14 16.3598 23.47 16.7998 23.72 17.2798L22.1 18.0798C21.46 16.9498 20.25 16.1798 18.84 16.1798C16.78 16.1798 15.11 17.8498 15.11 19.9098C15.11 21.9698 16.96 23.6498 18.93 24.2998C20.19 24.7298 21.68 24.8298 22.89 24.8298C23.57 24.8298 24.17 24.7898 24.59 24.7698C25.12 24.7298 25.9 24.6498 26.32 24.5998C25.84 25.1998 25.29 25.7498 24.69 26.2198Z" fill="white" fill-opacity="0.15"/>
<path d="M18 0.209961C8.16996 0.209961 0.209961 8.16996 0.209961 18C0.209961 27.83 8.16996 35.79 18 35.79C27.83 35.79 35.79 27.83 35.79 18C35.79 8.16996 27.83 0.209961 18 0.209961ZM30.28 23.09C29.94 23.88 29.53 24.65 29.06 25.35C28.58 26.06 28.04 26.71 27.44 27.31C26.84 27.92 26.18 28.46 25.48 28.93C24.75 29.41 24.01 29.83 23.22 30.16C19.92 31.56 16.19 31.56 12.89 30.16C12.1 29.82 11.34 29.41 10.63 28.93C9.92996 28.46 9.26996 27.92 8.66996 27.31C8.06996 26.71 7.52996 26.06 7.04996 25.35C6.57996 24.63 6.14996 23.88 5.82996 23.09C4.42996 19.79 4.42996 16.07 5.82996 12.77C6.15996 11.98 6.56996 11.22 7.04996 10.51C7.52996 9.80996 8.06996 9.14996 8.66996 8.54996C9.87996 7.33996 11.31 6.36996 12.89 5.69996C16.19 4.30996 19.92 4.30996 23.22 5.69996C24 6.03996 24.76 6.44996 25.48 6.92996C26.18 7.40996 26.84 7.94996 27.44 8.54996C28.04 9.14996 28.58 9.80996 29.06 10.51C29.54 11.22 29.95 11.98 30.28 12.77C30.62 13.57 30.88 14.41 31.06 15.26C31.6 17.89 31.33 20.62 30.28 23.09Z" fill="white" fill-opacity="0.15"/>
</g>
<defs>
<clipPath id="clip0_12542_4233">
<rect width="35.58" height="35.58" fill="white" transform="translate(0.209961 0.209961)"/>
</clipPath>
</defs>
</svg>
