<svg width="36" height="36" viewBox="0 0 36 36" fill="none" xmlns="http://www.w3.org/2000/svg">
<g clip-path="url(#clip0_12542_4240)">
<mask id="mask0_12542_4240" style="mask-type:luminance" maskUnits="userSpaceOnUse" x="0" y="0" width="36" height="36">
<path d="M36 0H0V36H36V0Z" fill="white"/>
</mask>
<g mask="url(#mask0_12542_4240)">
<path d="M17.9999 2.75C18.7399 2.75 19.4699 2.95 20.0999 3.34C20.7299 3.73 21.2399 4.29 21.5699 4.96L32.8199 27.46C33.1299 28.07 33.2699 28.75 33.2399 29.43C33.2099 30.11 33.0099 30.77 32.6499 31.35C32.2899 31.93 31.7899 32.41 31.1899 32.74C30.5899 33.07 29.9199 33.25 29.2399 33.25H6.74989C6.06989 33.25 5.39989 33.08 4.79989 32.74C4.19989 32.41 3.69989 31.93 3.34989 31.35C2.98989 30.77 2.78989 30.11 2.75989 29.43C2.72989 28.75 2.86989 28.07 3.17989 27.46L14.4199 4.96C14.7499 4.29 15.2599 3.73 15.8899 3.34C16.5199 2.95 17.2499 2.74 17.9899 2.75H17.9999ZM17.9999 0C16.7499 0 15.5199 0.35 14.4499 1.01C13.3799 1.67 12.5199 2.61 11.9599 3.73L0.709895 26.23C0.199895 27.26 -0.0401052 28.4 -0.000105166 29.55C0.0498948 30.7 0.399895 31.82 0.999895 32.8C1.59989 33.78 2.44989 34.59 3.45989 35.15C4.46989 35.71 5.59989 36 6.74989 36H29.2499C30.3999 36 31.5299 35.71 32.5399 35.15C33.5499 34.59 34.3899 33.78 34.9999 32.8C35.5999 31.82 35.9499 30.7 35.9999 29.55C36.0499 28.4 35.8099 27.26 35.2899 26.23L24.0399 3.73C23.4799 2.61 22.6199 1.67 21.5499 1.01C20.4799 0.35 19.2499 0 17.9999 0Z" fill="white" fill-opacity="0.15"/>
</g>
</g>
<defs>
<clipPath id="clip0_12542_4240">
<rect width="36" height="36" fill="white"/>
</clipPath>
</defs>
</svg>
