<svg width="38" height="40" viewBox="0 0 38 40" fill="none" xmlns="http://www.w3.org/2000/svg">
<g clip-path="url(#clip0_12542_4247)">
<path d="M15.4952 33.9249C21.2552 33.9249 25.9152 29.2649 25.9152 23.5049C25.9152 17.7449 21.2552 13.0849 15.4952 13.0849C9.73516 13.0849 5.07516 17.7449 5.07516 23.5049C5.07516 29.2649 9.73516 33.9249 15.4952 33.9249ZM15.4952 37.7149C7.64516 37.7149 1.28516 31.3549 1.28516 23.5049C1.28516 15.6549 7.64516 9.29492 15.4952 9.29492C23.3452 9.29492 29.7052 15.6549 29.7052 23.5049C29.7052 31.3549 23.3452 37.7149 15.4952 37.7149Z" fill="white" fill-opacity="0.15"/>
<path d="M23.075 26.3448C28.835 26.3448 33.495 21.6848 33.495 15.9248C33.495 10.1648 28.835 5.50484 23.075 5.50484C17.315 5.50484 12.655 10.1648 12.655 15.9248C12.655 21.6848 17.315 26.3448 23.075 26.3448ZM23.075 30.1348C15.225 30.1348 8.86499 23.7748 8.86499 15.9248C8.86499 8.07484 15.225 1.71484 23.075 1.71484C30.925 1.71484 37.285 8.07484 37.285 15.9248C37.285 23.7748 30.925 30.1348 23.075 30.1348Z" fill="white" fill-opacity="0.15"/>
</g>
<defs>
<clipPath id="clip0_12542_4247">
<rect width="36.57" height="38.23" fill="white" transform="translate(0.715088 0.884766)"/>
</clipPath>
</defs>
</svg>
