<svg width="36" height="36" viewBox="0 0 36 36" fill="none" xmlns="http://www.w3.org/2000/svg">
<g clip-path="url(#clip0_12542_4258)">
<path d="M10.5799 20.5C11.6099 20.5 12.6199 20.16 13.4399 19.52L6.87992 12.96C5.29992 15 5.67992 17.95 7.71992 19.53C8.53992 20.15 9.54992 20.5 10.5799 20.5Z" fill="white" fill-opacity="0.15"/>
<path d="M30.1001 15.8102C30.1001 14.7802 29.7601 13.7702 29.1201 12.9502L22.5601 19.5102C24.6001 21.0902 27.5401 20.7102 29.1201 18.6702C29.7501 17.8502 30.1001 16.8402 30.1001 15.8102Z" fill="white" fill-opacity="0.15"/>
<path d="M33.4 8.66992L30.5 11.5699C32.84 14.3699 32.47 18.5399 29.67 20.8799C27.21 22.9299 23.65 22.9299 21.19 20.8799L18 24.0699L14.82 20.8899C12.02 23.2299 7.85 22.8599 5.51 20.0599C3.46 17.5999 3.46 14.0399 5.51 11.5799L4.02 10.0899L2.61 8.66992C0.9 11.4799 0 14.7099 0 17.9999C0 27.9399 8.06 35.9999 18 35.9999C27.94 35.9999 36 27.9399 36 17.9999C36 14.7099 35.1 11.4799 33.4 8.66992Z" fill="white" fill-opacity="0.15"/>
<path d="M31.02 5.57973C24.17 -1.62027 12.78 -1.89027 5.58997 4.96973C5.37997 5.16973 5.17997 5.36973 4.97997 5.57973C4.52997 6.04973 4.10997 6.53973 3.71997 7.04973L18 21.3397L32.28 7.04973C31.89 6.53973 31.46 6.04973 31.02 5.57973ZM18 2.35973C22.21 2.35973 26.13 3.97973 29.07 6.93973L18 18.0097L6.92997 6.93973C9.86997 3.97973 13.79 2.35973 18 2.35973Z" fill="white" fill-opacity="0.15"/>
</g>
<defs>
<clipPath id="clip0_12542_4258">
<rect width="36" height="36" fill="white"/>
</clipPath>
</defs>
</svg>
