<svg width="36" height="35" viewBox="0 0 36 35" fill="none" xmlns="http://www.w3.org/2000/svg">
<g clip-path="url(#clip0_11473_63178)">
<path fill-rule="evenodd" clip-rule="evenodd" d="M35.5 17.5C35.5 7.83611 27.6639 0 18 0C8.33611 0 0.5 7.83611 0.5 17.5C0.5 27.1639 8.33611 35 18 35C27.6639 35 35.5 27.1639 35.5 17.5ZM24.232 13.835V16.5475L20.3042 18.8614V23.4989L18.0097 24.8406L15.7153 23.4989V18.8614L11.7681 16.5475V13.835L14.0722 12.4837L17.9903 14.8073L21.9375 12.4837L24.2417 13.835H24.232ZM11.7778 9.20727L18 5.54199L24.232 9.20727L21.9375 10.5587L17.9903 8.23505L14.0625 10.5587L11.7681 9.20727H11.7778ZM11.7681 18.4532L14.0625 19.8046V22.4977L11.7681 21.156V18.4532ZM15.6958 25.4046L17.9903 26.756L20.2945 25.4046V28.0977L17.9903 29.449L15.6958 28.0977V25.4046ZM23.5708 11.5115L25.8653 10.1602L28.1695 11.5115V14.2046L25.8653 15.556V12.8629L23.5708 11.5115ZM25.8653 22.1185V17.4907L28.1695 16.1393V23.4893L21.9375 27.1449V24.4324L25.8653 22.1185ZM10.1152 17.5005V22.1283L14.0625 24.4421V27.1546L7.83052 23.4991V16.1491L10.1152 17.5005ZM10.1152 12.8727V15.5658L7.8208 14.2144V11.5213L10.1152 10.1699L12.4194 11.5213L10.1152 12.8727ZM15.7055 11.5213L18 10.1699L20.3041 11.5213L18 12.8727L15.7055 11.5213ZM21.9375 22.5073L24.2319 21.1657V18.4629L21.9375 19.8143V22.5073Z" fill="white"/>
</g>
<defs>
<clipPath id="clip0_11473_63178">
<rect width="35" height="35" fill="white" transform="translate(0.5)"/>
</clipPath>
</defs>
</svg>
