<svg width="24" height="36" viewBox="0 0 24 36" fill="none" xmlns="http://www.w3.org/2000/svg">
<g clip-path="url(#clip0_12542_4324)">
<path d="M7.45501 28.2604C7.54501 19.6904 16.665 17.8704 15.645 8.51043C15.355 5.81043 14.045 2.62043 11.405 0.0604269C11.265 -0.0695731 11.035 0.0404269 11.055 0.230427C11.855 8.84043 5.78501 12.9104 3.05501 16.5004C-2.99499 24.4504 1.45501 34.6504 10.425 36.0004C10.625 36.0304 10.745 35.7904 10.605 35.6504C8.76501 33.8204 7.46501 31.5104 7.46501 28.2704L7.45501 28.2604Z" fill="white" fill-opacity="0.15"/>
<path d="M19.195 14.5401C19.075 14.4401 18.885 14.5001 18.855 14.6601C18.635 15.7701 17.945 17.6101 15.725 20.8301C9.97495 29.1601 12.755 32.8601 15.265 35.6501C15.815 36.3101 15.545 35.5001 16.715 34.6901C18.295 33.5901 18.965 33.4601 20.465 32.1201C22.175 30.4101 23.565 27.7101 23.695 24.9801C23.985 19.0501 20.495 15.6501 19.185 14.5401H19.195Z" fill="white" fill-opacity="0.15"/>
</g>
<defs>
<clipPath id="clip0_12542_4324">
<rect width="23.45" height="36" fill="white" transform="translate(0.274902)"/>
</clipPath>
</defs>
</svg>
