<svg width="36" height="36" viewBox="0 0 36 36" fill="none" xmlns="http://www.w3.org/2000/svg">
<g clip-path="url(#clip0_12542_4332)">
<path d="M17.8399 0.00449235C7.9899 0.0744924 -0.0400953 8.04449 -9.53465e-05 18.0845C0.0399047 27.9845 8.0399 36.0345 18.0699 35.9945C28.0799 35.9445 35.9699 27.8845 35.9999 18.0245C35.9799 8.04449 27.8999 -0.0755076 17.8399 0.00449235ZM4.6099 21.6645C4.1299 20.8745 3.9699 19.9945 3.9099 19.0945C3.7699 16.6945 4.1399 14.3845 5.1499 12.1845C6.4699 9.30449 8.52991 7.10449 11.3099 5.60449C11.9599 5.24449 12.6699 4.99449 13.3499 4.69449C13.4099 4.67449 13.4699 4.64449 13.5499 4.62449C13.1799 5.20449 12.8099 5.73449 12.4699 6.29449C11.5199 7.94449 10.9399 9.71449 10.6799 11.6045C10.5999 12.1845 10.5599 12.7745 10.5199 13.3545C10.5099 13.4845 10.4399 13.5245 10.3399 13.5745C9.1499 14.1545 8.0499 14.8645 7.0699 15.7445C6.3299 16.4145 5.6599 17.1545 5.3399 18.1145C4.9799 19.1745 4.9299 20.2245 5.5599 21.2345C6.2099 22.2945 7.39991 22.8445 8.59991 22.6245C9.85991 22.3845 10.8299 21.3945 11.0399 20.1645C11.1499 19.5645 11.1399 18.8545 10.7399 18.0145C10.7799 17.9745 10.8199 17.9445 10.8599 17.9145C10.9099 17.8945 10.9399 17.8645 11.0199 17.8345C11.6399 20.2345 13.0499 22.1445 14.6799 23.9745C14.3999 24.0845 14.1599 24.1945 13.9099 24.2845C12.7299 24.7545 11.5199 25.0245 10.2599 25.0045C7.7599 24.9445 5.8999 23.7945 4.5999 21.6645H4.6099ZM27.8299 27.6545C27.5299 28.2645 27.1099 28.7845 26.5599 29.2045C24.5799 30.7045 22.3599 31.6445 19.8799 31.9745C17.8599 32.2545 15.8699 32.1345 13.9199 31.5145C12.1699 30.9645 10.5599 30.1345 9.1299 28.9645C9.0899 28.9445 9.0599 28.9045 9.0299 28.8645C9.0199 28.8645 9.01991 28.8445 9.01991 28.8145C9.2199 28.8245 9.4199 28.8345 9.6199 28.8545C12.4499 28.9545 15.0999 28.2645 17.5699 26.8745C17.7699 26.7645 17.8899 26.7645 18.0699 26.8945C19.4899 27.8545 21.0099 28.5745 22.6799 28.9445C23.4999 29.1245 24.3099 29.2245 25.1399 28.9645C26.3999 28.5645 27.3299 27.3545 27.3099 26.0845C27.2899 24.6045 26.4599 23.4945 25.1599 23.0445C23.8899 22.6245 22.5099 23.0645 21.6799 24.1745C21.6399 24.2245 21.5999 24.2745 21.5599 24.3345C21.4399 24.2745 21.3299 24.2045 21.1899 24.1345C22.8599 22.4145 24.0399 20.4345 24.8099 18.1845C24.8499 18.1945 24.8699 18.1845 24.8799 18.1945C26.0499 18.9845 27.0699 19.9145 27.7499 21.1645C28.3499 22.2445 28.5999 23.3945 28.5399 24.6345C28.4899 25.6845 28.2899 26.6845 27.8199 27.6345L27.8299 27.6545ZM14.8199 16.1245C16.9799 15.6445 19.0699 15.7645 21.1499 16.4245C21.0399 17.7145 19.0799 20.8645 17.8899 21.6745C16.3299 20.1345 15.3299 18.2945 14.8099 16.1245H14.8199ZM31.8499 20.4445C31.8499 20.4445 31.8399 20.4845 31.8299 20.4945C31.6499 20.1245 31.4699 19.7545 31.2799 19.3845C30.6399 18.2445 29.8299 17.2445 28.8699 16.3645C28.0899 15.6445 27.2599 14.9845 26.4399 14.2945C26.3699 14.2345 26.2999 14.1745 26.2099 14.1345C25.8999 14.0145 25.8499 13.7945 25.8899 13.4745C26.0599 11.6245 25.8899 9.83449 24.9999 8.17449C24.6999 7.61449 24.4099 7.03449 23.9299 6.60449C22.9899 5.76449 21.9099 5.51449 20.7299 5.93449C19.5399 6.36449 18.8299 7.25449 18.6899 8.52449C18.4999 10.3045 19.7699 11.8145 21.5599 11.9645C21.5999 11.9745 21.6299 11.9745 21.6799 11.9845V12.3445C19.3099 11.8745 16.9499 11.9045 14.5399 12.2745C14.5899 11.8945 14.6099 11.5445 14.6699 11.1945C14.8899 9.93449 15.2799 8.73449 15.9199 7.62449C16.3399 6.90449 16.9499 6.33449 17.6499 5.88449C19.9799 4.35449 22.3899 4.29449 24.8099 5.66449C28.4099 7.69449 30.7099 10.7445 31.6899 14.7745C32.1499 16.6045 32.1699 18.4645 31.8699 20.3245C31.8699 20.3645 31.8599 20.3945 31.8499 20.4345V20.4445Z" fill="white" fill-opacity="0.15"/>
</g>
<defs>
<clipPath id="clip0_12542_4332">
<rect width="36" height="35.99" fill="white" transform="translate(0 0.00488281)"/>
</clipPath>
</defs>
</svg>
