<svg width="36" height="36" viewBox="0 0 36 36" fill="none" xmlns="http://www.w3.org/2000/svg">
<g clip-path="url(#clip0_12542_4345)">
<path d="M36 18.0604C35.7799 8.12039 27.5499 0.240391 17.61 0.450391C7.66995 0.660391 -0.210049 8.90039 -4.87305e-05 18.8404C0.149951 25.8704 4.38995 32.1704 10.84 34.9704C11.72 33.6504 12.39 32.2104 12.83 30.6904C13.19 29.7704 13.58 28.8704 13.99 28.0004C15.99 28.6004 18.15 28.0504 19.62 26.5704L19.68 26.5104C17.88 25.8404 15.86 26.1404 14.34 27.3004C14.84 26.2604 15.38 25.2504 15.94 24.2704C17.9 24.9604 20.08 24.5204 21.62 23.1104L21.68 23.0504C19.94 22.3104 17.9499 22.5004 16.3799 23.5504C16.9399 22.6304 17.51 21.7304 18.11 20.8904C20.14 21.4204 22.2999 20.7904 23.7099 19.2304L23.76 19.1704C22.09 18.6304 20.27 18.9104 18.84 19.9204C18.8899 19.8604 18.9499 19.7804 18.99 19.7204C19.35 19.2504 19.7299 18.7904 20.1 18.3404C22.43 17.5804 24.16 15.5804 24.57 13.1604L24.59 13.0704H24.57C22.1399 13.7004 20.27 15.6604 19.77 18.1304C19.41 18.5704 19.05 19.0004 18.7 19.4504C19.29 17.9004 19.16 16.1804 18.34 14.7404L18.29 14.8004C17.04 16.5104 16.85 18.7804 17.8099 20.6704C17.24 21.4804 16.68 22.3104 16.15 23.1804C16.49 21.4004 15.95 19.5604 14.69 18.2604L14.66 18.3404C13.88 20.2904 14.25 22.5204 15.62 24.1104C15.09 25.0304 14.6 25.9804 14.11 26.9604C14.41 25.1104 13.79 23.2204 12.45 21.9004L12.42 21.9804C11.72 24.0204 12.21 26.2904 13.68 27.8604C13.36 28.5404 13.06 29.2104 12.78 29.9204C12.7 29.8504 12.61 29.7904 12.51 29.7504C12 29.6004 11.51 29.3804 11.05 29.1004C10.67 28.8804 10.27 28.6904 9.85995 28.5604C8.22995 28.0304 8.47995 27.2504 7.62995 25.6704C7.35995 25.3404 7.06995 25.0304 6.75995 24.7404C6.47995 24.5604 6.23995 24.3004 6.07995 24.0004C5.88995 23.6304 5.77995 23.2204 5.72995 22.8104C5.71995 22.3404 5.40995 21.9304 4.95995 21.7904C2.56995 20.9604 3.63995 17.8604 3.72995 17.4504C3.68995 16.9204 3.57995 16.4104 3.37995 15.9104C3.35995 15.8504 3.33995 15.7804 3.32995 15.7104C3.19995 15.0604 3.37995 14.3804 3.82995 13.8904C4.11995 13.6004 5.10995 13.1404 5.31995 12.8704C5.52995 12.6004 5.67995 12.3004 5.88995 12.0404C6.55995 11.3704 7.32995 10.8204 8.17995 10.4004C8.86995 10.0204 8.98995 9.06039 9.25995 8.76039C9.70995 8.25039 10.4 8.25039 10.92 7.80039C11.18 7.57039 11.56 7.45039 11.79 7.21039C12.99 6.11039 14.5099 5.41039 16.1299 5.21039C17.25 5.12039 18.3799 5.22039 19.4699 5.51039C19.6299 5.54039 19.78 5.57039 19.94 5.62039C22.42 5.71039 25.4 6.22039 26.49 7.28039C27.03 7.80039 27.42 8.44039 27.65 9.15039C27.83 9.70039 28.07 10.2304 28.37 10.7204L29.03 11.8004C29.45 12.4804 29.59 13.3104 29.41 14.0904C29.2899 14.4704 29.2799 14.8804 29.3799 15.2604C29.7299 15.7904 30.14 16.2704 30.6 16.7104C30.78 16.8904 30.98 17.0504 31.2 17.1904C31.71 17.4904 32.2 17.8304 32.68 18.1804C32.7099 18.4804 32.58 18.7604 32.33 18.9304C31.91 19.3104 31.1 19.8904 31.1 19.8904C31.13 20.0604 31.18 20.2204 31.25 20.3704C31.37 20.5804 31.6399 20.9104 31.5499 21.2004C31.4599 21.4904 30.87 21.7304 31.04 22.0404C31.21 22.3704 31.63 22.4604 31.51 22.7604C31.3899 23.0504 30.8 23.5504 30.86 23.7704C30.92 23.9904 31.4 26.0004 30.29 26.3404C28.91 26.6104 27.51 26.7704 26.11 26.8104C25.65 26.8404 25.2299 27.1004 25.01 27.5004C24.8 27.9004 24.66 28.3304 24.6 28.7804C24.19 30.3804 23.65 31.9504 22.99 33.4604C22.99 33.4604 22.9399 33.5504 22.8799 33.6904C22.7299 33.9904 22.64 34.3104 22.61 34.6404C22.7 34.8804 22.85 35.1004 23.03 35.2904C23.23 35.5204 23.5399 35.6004 23.82 35.5204C31.2199 32.9404 36.13 25.9004 35.99 18.0704L36 18.0604Z" fill="white" fill-opacity="0.15"/>
</g>
<defs>
<clipPath id="clip0_12542_4345">
<rect width="36" height="35.1" fill="white" transform="translate(0 0.450195)"/>
</clipPath>
</defs>
</svg>
