<svg width="28" height="36" viewBox="0 0 28 36" fill="none" xmlns="http://www.w3.org/2000/svg">
<g clip-path="url(#clip0_12542_4348)">
<path d="M17.81 35.7551C15.28 35.7551 13.43 35.1451 12.26 33.9251C11.18 32.8951 10.55 31.4751 10.52 29.9751C10.51 29.5251 10.61 29.0751 10.83 28.6751C11.03 28.3251 11.32 28.0451 11.66 27.8451C12.48 27.4351 13.44 27.4351 14.25 27.8451C14.6 28.0451 14.88 28.3351 15.08 28.6751C15.3 29.0751 15.41 29.5251 15.4 29.9751C15.42 30.5151 15.27 31.0551 14.96 31.5051C14.7 31.8651 14.33 32.1451 13.91 32.2751C14.33 32.8051 14.92 33.1751 15.57 33.3151C16.31 33.5251 17.07 33.6351 17.84 33.6451C18.86 33.6451 19.85 33.3551 20.7 32.7951C21.58 32.1751 22.23 31.2951 22.56 30.2751C22.98 29.0651 23.19 27.7851 23.17 26.4951C23.2 25.1551 22.98 23.8251 22.5 22.5651C22.14 21.5651 21.47 20.7051 20.57 20.1251C19.74 19.6051 18.78 19.3251 17.8 19.3351C16.94 19.4051 16.12 19.6851 15.4 20.1551L13.62 21.0451V20.1551L21.63 9.41512H10.53V20.5651C10.5 21.3651 10.71 22.1651 11.14 22.8451C11.56 23.4451 12.27 23.7851 13 23.7351C13.67 23.7251 14.31 23.4951 14.84 23.0851C15.44 22.6451 15.96 22.1051 16.38 21.4951C16.42 21.3851 16.49 21.2951 16.58 21.2251C16.65 21.1651 16.75 21.1251 16.85 21.1251C17.04 21.1451 17.23 21.2251 17.37 21.3451C17.56 21.5551 17.66 21.8251 17.65 22.0951C17.63 22.2851 17.6 22.4651 17.55 22.6451C17.16 23.5951 16.49 24.4151 15.65 25.0051C14.86 25.5351 13.93 25.8251 12.98 25.8151C10.58 25.8151 8.90996 25.3451 7.98996 24.3951C7.02996 23.3351 6.52996 21.9351 6.60996 20.5151V9.39512H0.959961V7.32512H6.62996V2.60512L5.32996 1.30512V0.245117H9.09996L10.52 0.975117V7.32512L25.18 7.28512L26.64 8.74512L17.65 17.7751C18.19 17.5551 18.76 17.4151 19.35 17.3651C20.5 17.4151 21.63 17.7351 22.64 18.3051C23.81 18.8551 24.79 19.7351 25.47 20.8351C26.08 21.7651 26.51 22.7951 26.75 23.8851C26.94 24.7451 27.04 25.6151 27.06 26.4951C27.06 28.1651 26.69 29.8251 25.95 31.3251C25.25 32.7851 24.08 33.9551 22.62 34.6551C21.13 35.3851 19.49 35.7651 17.83 35.7651L17.81 35.7551Z" fill="white" fill-opacity="0.15"/>
</g>
<defs>
<clipPath id="clip0_12542_4348">
<rect width="26.08" height="35.51" fill="white" transform="translate(0.959961 0.245117)"/>
</clipPath>
</defs>
</svg>
