<svg width="36" height="32" viewBox="0 0 36 32" fill="none" xmlns="http://www.w3.org/2000/svg">
<g clip-path="url(#clip0_12542_4352)">
<path d="M30.92 4.75962L26.59 6.96962L5.65 17.6296C5.58 17.0896 5.54 16.5496 5.54 15.9996C5.54 9.10962 11.14 3.53962 18.03 3.54962C20.15 3.54962 22.24 4.09962 24.09 5.12962L26.57 3.86962L26.94 3.67962C20.14 -1.27038 10.61 0.249624 5.67 7.05962C3.78 9.65962 2.77 12.7896 2.77 16.0096C2.77 16.3996 2.78 16.7796 2.81 17.1696C2.89 18.2796 2.3 19.3396 1.31 19.8496L0 20.5196V23.6296L3.85 21.6696L5.1 21.0296L6.33 20.3996L28.4 9.15962L30.88 7.89962L36.01 5.28962V2.15962L30.93 4.74962L30.92 4.75962Z" fill="white" fill-opacity="0.15"/>
<path d="M36 8.38965L7.58 22.8596L5.1 24.1296L0 26.7296V29.8396L5.07 27.2596L9.4 25.0496L30.35 14.3696C30.42 14.9096 30.46 15.4596 30.46 16.0096C30.46 22.8996 24.87 28.4797 17.98 28.4697C15.85 28.4697 13.75 27.9197 11.89 26.8797L11.74 26.9596L9.05 28.3296C15.86 33.2696 25.38 31.7596 30.32 24.9496C32.21 22.3496 33.22 19.2196 33.23 16.0096C33.23 15.6196 33.21 15.2296 33.19 14.8396C33.11 13.7296 33.7 12.6696 34.69 12.1596L36 11.4896V8.38965Z" fill="white" fill-opacity="0.15"/>
</g>
<defs>
<clipPath id="clip0_12542_4352">
<rect width="36" height="30.46" fill="white" transform="translate(0 0.769531)"/>
</clipPath>
</defs>
</svg>
