<svg width="36" height="36" viewBox="0 0 36 36" fill="none" xmlns="http://www.w3.org/2000/svg">
<path d="M28.23 0.0498047C23.95 0.0498047 20.47 3.5098 20.46 7.7898V16.3698C19.66 16.4198 18.84 16.4598 17.99 16.4598C17.14 16.4598 16.33 16.4898 15.52 16.5398V7.7898C15.47 3.4998 11.93 0.0798047 7.64 0.149805C3.45 0.219805 0.07 3.5998 0 7.7898V28.3098C0.07 32.5998 3.6 36.0198 7.89 35.9498C12.08 35.8798 15.47 32.4998 15.53 28.3098V19.7298C16.33 19.6798 17.15 19.6398 18 19.6398C18.85 19.6398 19.66 19.6098 20.47 19.5598V28.3098C20.54 32.5998 24.07 36.0198 28.36 35.9498C32.55 35.8798 35.94 32.4998 36 28.3098V7.7898C35.99 3.5098 32.51 0.0498047 28.23 0.0498047ZM7.77 3.2198C10.3 3.2198 12.35 5.2598 12.35 7.7898V16.8798C10.08 17.2098 7.86 17.8398 5.75 18.7498C4.84 19.1498 3.98 19.6598 3.19 20.2798V7.7898C3.19 5.2698 5.24 3.2198 7.77 3.2198ZM12.35 28.3098C12.35 30.8398 10.3 32.8898 7.77 32.8998C5.24 32.8998 3.19 30.8498 3.18 28.3198V26.2598C3.18 24.4398 4.62 22.7198 7.03 21.6498C8.73 20.9198 10.52 20.3898 12.34 20.0998V28.3198L12.35 28.3098ZM28.23 32.8798C25.7 32.8798 23.65 30.8398 23.65 28.3098V19.2198C25.92 18.8898 28.14 18.2598 30.25 17.3498C31.16 16.9498 32.02 16.4398 32.81 15.8198V28.2998C32.81 30.8198 30.76 32.8698 28.23 32.8698V32.8798ZM28.96 14.4498C27.26 15.1798 25.47 15.7098 23.65 15.9998V7.7898C23.65 5.2598 25.7 3.2098 28.23 3.1998C30.76 3.1998 32.81 5.2498 32.82 7.7798V9.8398C32.82 11.6498 31.38 13.3698 28.97 14.4398L28.96 14.4498Z" fill="white" fill-opacity="0.15"/>
</svg>
