<svg width="36" height="36" viewBox="0 0 36 36" fill="none" xmlns="http://www.w3.org/2000/svg">
<g clip-path="url(#clip0_12542_4365)">
<path fill-rule="evenodd" clip-rule="evenodd" d="M18.01 0C13.04 0 8.54 2.01 5.28 5.27C2.01 8.53 0 13.03 0 18.01C0 27.94 8.06 36 18.01 36C27.96 36 36 27.94 36 18.01C36 8.08 27.94 0 18.01 0ZM26.58 24.37C26.57 26.34 24.97 27.94 22.99 27.94C21.01 27.94 19.4 26.33 19.4 24.35C19.4 22.37 21.01 20.78 22.99 20.78H23C23.99 20.78 24.87 21.18 25.52 21.83C26.17 22.47 26.57 23.37 26.57 24.35L26.58 24.37ZM17.43 12.94C12.96 19.79 10.22 29.3 9.15 32.53C8.55 26.43 11.72 18.13 14.05 13.22C12.99 13.27 7.3 13.67 4.14 16.93C4.24 16.62 6.14 11.64 15.67 10.11L15.71 10.04C23.42 -1.22 29.21 5.5 29.21 5.5C25.7 4.91 22.64 6.67 20.03 9.54C21.3 9.49 29.51 9.39 31.89 15.89C31.62 15.7 26.85 12.5 17.45 12.94H17.43Z" fill="white" fill-opacity="0.15"/>
</g>
<defs>
<clipPath id="clip0_12542_4365">
<rect width="36" height="36" fill="white"/>
</clipPath>
</defs>
</svg>
