<svg width="34" height="36" viewBox="0 0 34 36" fill="none" xmlns="http://www.w3.org/2000/svg">
<g opacity="0.15" clip-path="url(#clip0_12542_4369)">
<path d="M20.6451 17.1504C17.4951 19.0104 13.9951 16.8604 13.4451 15.7604C13.4451 15.7604 9.74511 10.4704 16.5151 7.23043C16.5151 7.23043 18.5651 6.52043 20.0251 4.94043C25.8751 6.40043 30.4351 11.1304 31.6351 17.0804C30.4051 16.2704 28.5151 15.5004 25.7651 15.4104C25.7651 15.4104 23.7951 15.2904 20.6451 17.1504Z" fill="white"/>
<path d="M31.9551 20.2301C31.9551 23.9901 30.6351 27.4401 28.4351 30.1501C24.9051 30.8301 22.0351 28.3001 21.6051 24.9701C21.5851 20.7401 24.4051 19.3201 25.4651 18.9401C25.4951 18.9301 25.5351 18.9201 25.5751 18.9001C25.6851 18.8701 25.7651 18.8401 25.8051 18.8301C25.8351 18.8201 25.8551 18.8201 25.8551 18.8201C27.1851 18.4701 29.2351 18.1801 31.8651 18.5701C31.9251 19.1101 31.9551 19.6701 31.9551 20.2301Z" fill="white"/>
<path d="M29.9651 29.6804C29.9651 29.6804 24.6351 36.9304 14.5751 35.9004C4.95508 34.9204 1.52508 26.7504 0.955078 24.2904C1.01508 24.4904 1.05508 24.6004 1.05508 24.6004C1.05508 24.6004 2.81508 31.4904 11.1351 30.4204C11.1351 30.4204 15.1551 29.8404 17.7551 27.0704C20.3551 24.2904 19.1451 22.6204 24.1451 19.4604C24.1451 19.4604 24.6551 19.1704 25.6051 18.9004C24.6551 19.2204 21.6151 20.5804 21.6351 24.9704C22.1251 28.7604 25.7751 31.5104 29.9651 29.6804Z" fill="url(#paint0_linear_12542_4369)"/>
<path d="M21.2649 0C21.2649 0 20.8449 2.22 17.1949 3.11C13.5449 4 8.31495 5.83 5.36495 8.77C3.83495 9.96 1.46495 13.35 0.824946 16.71C-0.175054 21.13 1.04495 24.6 1.04495 24.6C1.04495 24.6 2.80495 31.49 11.1249 30.42C11.1249 30.42 15.1449 29.84 17.7449 27.07C20.3449 24.29 19.1349 22.62 24.1349 19.46C24.1349 19.46 27.695 17.46 33.5649 18.91C33.5649 18.91 31.6249 15.61 25.7549 15.41C25.7549 15.41 23.7849 15.29 20.6349 17.15C17.4849 19.01 13.9849 16.86 13.4349 15.76C13.4349 15.76 9.73495 10.47 16.5049 7.23C16.5049 7.23 22.6449 5.11 21.2649 0.01V0Z" fill="url(#paint1_linear_12542_4369)"/>
</g>
<defs>
<linearGradient id="paint0_linear_12542_4369" x1="17.3451" y1="17.8404" x2="14.0751" y2="33.6804" gradientUnits="userSpaceOnUse">
<stop stop-color="white"/>
<stop offset="0.98" stop-color="white" stop-opacity="0.5"/>
</linearGradient>
<linearGradient id="paint1_linear_12542_4369" x1="17.5949" y1="22.5" x2="11.4249" y2="7.39" gradientUnits="userSpaceOnUse">
<stop stop-color="white"/>
<stop offset="0.98" stop-color="white" stop-opacity="0.5"/>
</linearGradient>
<clipPath id="clip0_12542_4369">
<rect width="33.13" height="36" fill="white" transform="translate(0.435059)"/>
</clipPath>
</defs>
</svg>
