<svg width="36" height="36" viewBox="0 0 36 36" fill="none" xmlns="http://www.w3.org/2000/svg">
<g clip-path="url(#clip0_12542_4386)">
<path d="M18 0C8.06 0 0 8.06 0 18C0 27.94 8.06 36 18 36C27.94 36 36 27.94 36 18C36 8.06 27.94 0 18 0ZM22.04 30.12C19.72 26.68 15.12 19.79 15.12 19.79C14 20.96 13.23 21.75 13.09 21.9C13.06 21.93 13.04 21.97 13.02 22.01V30.11H6.99V5.88H13.02V14.63C13.16 14.53 18.66 8.72 21.3 5.95C21.37 5.86 21.48 5.88 21.57 5.88H28.48C28.48 5.88 23.46 11.12 19.15 15.6C19.15 15.6 22.92 21.16 24.81 23.93C26.13 25.84 27.43 27.77 28.73 29.69C28.84 29.83 28.93 29.97 29.01 30.12C26.69 30.13 24.36 30.13 22.04 30.12Z" fill="white" fill-opacity="0.15"/>
</g>
<defs>
<clipPath id="clip0_12542_4386">
<rect width="36" height="36" fill="white"/>
</clipPath>
</defs>
</svg>
