<svg width="36" height="36" viewBox="0 0 36 36" fill="none" xmlns="http://www.w3.org/2000/svg">
<path d="M18 0C8.06 0 0 8.06 0 18C0 27.94 8.06 36 18 36C27.94 36 36 27.94 36 18C36.03 8.09 28.02 0.03 18.1 0H18ZM18.31 18.61L16.44 24.93H26.46C26.74 24.93 26.97 25.14 26.98 25.42V25.59L26.11 28.6C26.03 28.89 25.76 29.09 25.46 29.08H10.12L12.69 20.32L9.81 21.19L10.46 19.19L13.34 18.32L16.96 6.03C17.04 5.74 17.31 5.54 17.61 5.55H21.49C21.77 5.55 22 5.76 22.01 6.04V6.21L18.96 16.58L21.84 15.71L21.23 17.8L18.31 18.63V18.61Z" fill="white" fill-opacity="0.15"/>
</svg>
