<svg width="34" height="26" viewBox="0 0 34 26" fill="none" xmlns="http://www.w3.org/2000/svg">
<g clip-path="url(#clip0_11473_63188)">
<path d="M5.52483 19.8436C5.73261 19.6409 6.01594 19.5303 6.30872 19.5303H33.4426C33.9337 19.5303 34.1887 20.1109 33.8393 20.4519L28.4748 25.687C28.2671 25.8897 27.9837 26.0003 27.6909 26.0003H0.557053C0.0659417 26.0003 -0.189058 25.4197 0.160386 25.0787L5.52483 19.8436Z" fill="white"/>
<path d="M5.52483 0.313364C5.74205 0.110599 6.01594 0 6.30872 0H33.4426C33.9337 0 34.1887 0.580645 33.8393 0.921659L28.4748 6.15668C28.2671 6.35945 27.9837 6.47005 27.6909 6.47005H0.557053C0.0659417 6.47005 -0.189058 5.8894 0.160386 5.54839L5.52483 0.313364Z" fill="white"/>
<path d="M28.4748 10.0184C28.2671 9.81568 27.9837 9.70508 27.6909 9.70508H0.557053C0.0659417 9.70508 -0.189058 10.2857 0.160386 10.6267L5.52483 15.8618C5.73261 16.0645 6.01594 16.1751 6.30872 16.1751H33.4426C33.9337 16.1751 34.1887 15.5945 33.8393 15.2535L28.4748 10.0184Z" fill="white"/>
</g>
<defs>
<clipPath id="clip0_11473_63188">
<rect width="34" height="26" fill="white"/>
</clipPath>
</defs>
</svg>
