<svg width="36" height="36" viewBox="0 0 36 36" fill="none" xmlns="http://www.w3.org/2000/svg">
<g clip-path="url(#clip0_12542_4403)">
<path d="M29.92 8.65L26 12.57C26.8799 14 27.4 15.67 27.4 17.46C27.4 22.56 23.24 26.69 18.17 26.69C16.38 26.69 14.71 26.17 13.28 25.26L9.35995 29.18C11.82 31.06 14.85 32.15 18.16 32.15C26.2299 32.15 32.8499 25.56 32.8499 17.46C32.8499 14.15 31.76 11.12 29.91 8.66L29.92 8.65ZM18.17 2.76C10.07 2.76 3.44995 9.35 3.44995 17.45C3.44995 20.76 4.56995 23.79 6.38995 26.25L10.31 22.33C9.42995 20.9 8.90995 19.23 8.90995 17.44C8.90995 12.34 13.07 8.21 18.17 8.21C19.96 8.21 21.63 8.73 23.03 9.61L26.95 5.72C24.49 3.84 21.46 2.75 18.18 2.75L18.17 2.76Z" fill="white" fill-opacity="0.15"/>
<path d="M32.27 7.58988C34.3301 7.58988 36 5.9199 36 3.85988C36 1.79986 34.3301 0.129883 32.27 0.129883C30.21 0.129883 28.54 1.79986 28.54 3.85988C28.54 5.9199 30.21 7.58988 32.27 7.58988Z" fill="white" fill-opacity="0.15"/>
<path d="M3.73 35.8702C5.79002 35.8702 7.46 34.2002 7.46 32.1402C7.46 30.0801 5.79002 28.4102 3.73 28.4102C1.66998 28.4102 0 30.0801 0 32.1402C0 34.2002 1.66998 35.8702 3.73 35.8702Z" fill="white" fill-opacity="0.15"/>
</g>
<defs>
<clipPath id="clip0_12542_4403">
<rect width="36" height="35.74" fill="white" transform="translate(0 0.129883)"/>
</clipPath>
</defs>
</svg>
