<svg width="36" height="38" viewBox="0 0 36 38" fill="none" xmlns="http://www.w3.org/2000/svg">
<path fill-rule="evenodd" clip-rule="evenodd" d="M32.1249 8.13512C29.4349 4.65512 25.5349 2.45512 21.1749 2.45512C12.7749 2.45512 6.63491 10.4051 6.63491 19.0351C6.63491 25.0351 10.5449 29.5451 14.8949 29.5451C15.3149 29.5451 15.6949 29.5051 16.1149 29.4351C13.1849 27.2351 11.3049 23.2551 11.3049 18.9951C11.3049 12.1751 15.8349 6.88512 21.1749 6.88512C26.9949 6.88512 31.0449 12.7751 31.0449 18.9951C31.0449 23.6151 29.4049 28.1951 26.5849 31.5651C24.1049 34.5151 20.9049 36.3951 17.3749 36.9651C17.3749 36.9651 17.6549 37.0051 18.0349 37.0051C27.7949 37.0051 35.7149 28.9451 35.7149 19.0051C35.7149 14.9251 34.3849 11.1551 32.1249 8.14512V8.13512ZM29.4349 18.9951C29.4349 12.9951 25.5249 8.48512 21.1749 8.48512C20.7549 8.48512 20.3749 8.52512 19.9549 8.59512C22.8849 10.7651 24.7349 14.7051 24.7349 18.9951C24.7349 25.8151 20.2049 31.1051 14.8649 31.1051C9.04491 31.1051 4.99491 25.2151 4.99491 18.9951C4.99491 14.3751 6.63491 9.79512 9.45491 6.42512C11.9349 3.48512 15.1449 1.59512 18.6649 1.03512C18.6649 1.03512 18.3849 0.995117 17.9649 0.995117C8.20491 0.995117 0.284912 9.05512 0.284912 18.9951C0.284912 23.0751 1.61491 26.8451 3.87491 29.8551C6.56491 33.3351 10.5049 35.5351 14.8249 35.5351C23.2949 35.5751 29.4349 27.6151 29.4349 18.9951Z" fill="white" fill-opacity="0.15"/>
</svg>
