<svg width="24" height="36" viewBox="0 0 24 36" fill="none" xmlns="http://www.w3.org/2000/svg">
<g clip-path="url(#clip0_12542_4438)">
<path d="M10.4749 22.17C10.4749 22.92 9.87486 23.54 9.10486 23.54C8.33486 23.54 7.73486 22.92 7.73486 22.17C7.73486 21.42 8.33486 20.79 9.10486 20.79C9.87486 20.79 10.4749 21.41 10.4749 22.17Z" fill="white" fill-opacity="0.15"/>
<path d="M9.58509 26.3097C9.87509 27.0097 9.53509 27.8097 8.83509 28.0997C8.13509 28.3897 7.33509 28.0497 7.04509 27.3497C6.75509 26.6497 7.09509 25.8497 7.79509 25.5597C8.49509 25.2697 9.29509 25.6097 9.58509 26.3097Z" fill="white" fill-opacity="0.15"/>
<path d="M13.2151 29.9198C13.2151 30.6798 12.6151 31.2998 11.8451 31.2998C11.0751 31.2998 10.4651 30.6798 10.4651 29.9198C10.4651 29.1598 11.0851 28.5498 11.8451 28.5498C12.6051 28.5498 13.2151 29.1698 13.2151 29.9198Z" fill="white" fill-opacity="0.15"/>
<path d="M13.715 24.2002C14.295 24.6802 14.365 25.5502 13.875 26.1202C13.375 26.7002 12.525 26.7702 11.945 26.2802C11.365 25.7802 11.305 24.9302 11.795 24.3502C12.275 23.7702 13.145 23.7102 13.715 24.2002Z" fill="white" fill-opacity="0.15"/>
<path d="M15.3049 20.5497C15.3049 21.3097 14.7049 21.9297 13.9349 21.9297C13.1649 21.9297 12.5649 21.3097 12.5649 20.5497C12.5649 19.7897 13.1649 19.1797 13.9349 19.1797C14.7049 19.1797 15.3049 19.7997 15.3049 20.5497Z" fill="white" fill-opacity="0.15"/>
<path d="M17.6649 27.8302C17.9549 28.5302 17.6149 29.3302 16.9149 29.6202C16.2149 29.9102 15.4049 29.5702 15.1249 28.8702C14.8349 28.1702 15.1749 27.3702 15.8749 27.0802C16.5749 26.7902 17.3749 27.1302 17.6649 27.8302Z" fill="white" fill-opacity="0.15"/>
<path d="M18.3049 24.75C17.8049 25.33 16.9349 25.39 16.3749 24.9C15.7949 24.42 15.7349 23.55 16.2249 22.98C16.7049 22.4 17.5749 22.33 18.1449 22.82C18.7249 23.32 18.7949 24.17 18.3049 24.75Z" fill="white" fill-opacity="0.15"/>
<path d="M12.355 14.46C10.145 14.46 8.09497 15.13 6.39497 16.26L6.86497 19.1C8.31497 17.79 10.235 17 12.355 17C16.905 17 20.595 20.69 20.595 25.24C20.595 29.79 16.905 33.46 12.355 33.46C7.80497 33.46 4.13497 29.78 4.13497 25.24C4.13497 24.67 4.19497 24.1 4.30497 23.57L3.55497 19.05C2.32497 20.8 1.59497 22.93 1.59497 25.24C1.59497 31.18 6.41497 36 12.355 36C18.295 36 23.125 31.18 23.125 25.24C23.125 19.3 18.285 14.47 12.355 14.47V14.46Z" fill="white" fill-opacity="0.15"/>
<path d="M7.37494 23.62C7.50494 24.37 7.00494 25.1 6.23494 25.22C6.16494 25.23 6.07494 25.24 6.00494 25.24C5.33494 25.24 4.74494 24.76 4.63494 24.08L4.45494 22.99L3.74494 18.77L0.884938 1.62C0.764938 0.86 1.26494 0.15 2.03494 0.02C2.10494 0 2.18494 0 2.25494 0C2.75494 0 3.21494 0.28 3.46494 0.69C3.54494 0.84 3.61494 0.99 3.63494 1.16L6.18494 16.42L6.65494 19.3L7.38494 23.62H7.37494Z" fill="white" fill-opacity="0.15"/>
<path d="M13.2151 29.9198C13.2151 30.6798 12.6151 31.2998 11.8451 31.2998C11.0751 31.2998 10.4651 30.6798 10.4651 29.9198C10.4651 29.1598 11.0851 28.5498 11.8451 28.5498C12.6051 28.5498 13.2151 29.1698 13.2151 29.9198Z" fill="white" fill-opacity="0.15"/>
<path d="M15.3049 20.5497C15.3049 21.3097 14.7049 21.9297 13.9349 21.9297C13.1649 21.9297 12.5649 21.3097 12.5649 20.5497C12.5649 19.7897 13.1649 19.1797 13.9349 19.1797C14.7049 19.1797 15.3049 19.7997 15.3049 20.5497Z" fill="white" fill-opacity="0.15"/>
<path d="M10.4751 22.17C10.4751 22.92 9.87511 23.54 9.10511 23.54C8.33511 23.54 7.73511 22.92 7.73511 22.17C7.73511 21.42 8.33511 20.79 9.10511 20.79C9.87511 20.79 10.4751 21.41 10.4751 22.17Z" fill="white" fill-opacity="0.15"/>
<path d="M13.875 26.1202C13.375 26.7002 12.525 26.7702 11.945 26.2802C11.365 25.7802 11.305 24.9302 11.795 24.3502C12.275 23.7702 13.145 23.7102 13.715 24.2002C14.295 24.6802 14.365 25.5502 13.875 26.1202Z" fill="white" fill-opacity="0.15"/>
<path d="M18.3049 24.75C17.8049 25.33 16.9349 25.39 16.3749 24.9C15.7949 24.42 15.7349 23.55 16.2249 22.98C16.7049 22.4 17.5749 22.33 18.1449 22.82C18.7249 23.32 18.7949 24.17 18.3049 24.75Z" fill="white" fill-opacity="0.15"/>
<path d="M8.83509 28.0997C8.13509 28.3897 7.33509 28.0497 7.04509 27.3497C6.75509 26.6497 7.09509 25.8497 7.79509 25.5597C8.49509 25.2697 9.29509 25.6097 9.58509 26.3097C9.87509 27.0097 9.53509 27.8097 8.83509 28.0997Z" fill="white" fill-opacity="0.15"/>
<path d="M16.9149 29.6202C16.2149 29.9102 15.4049 29.5702 15.1249 28.8702C14.8349 28.1702 15.1749 27.3702 15.8749 27.0802C16.5749 26.7902 17.3749 27.1302 17.6649 27.8302C17.9549 28.5302 17.6149 29.3302 16.9149 29.6202Z" fill="white" fill-opacity="0.15"/>
</g>
<defs>
<clipPath id="clip0_12542_4438">
<rect width="22.27" height="36" fill="white" transform="translate(0.86499)"/>
</clipPath>
</defs>
</svg>
