<svg width="34" height="36" viewBox="0 0 34 36" fill="none" xmlns="http://www.w3.org/2000/svg">
<g clip-path="url(#clip0_12542_4457)">
<path d="M17.0049 7.56C20.5892 7.56 23.4949 5.86764 23.4949 3.78C23.4949 1.69236 20.5892 0 17.0049 0C13.4206 0 10.5149 1.69236 10.5149 3.78C10.5149 5.86764 13.4206 7.56 17.0049 7.56Z" fill="white" fill-opacity="0.15"/>
<path d="M17.0049 36.0004C20.5892 36.0004 23.4949 34.3081 23.4949 32.2204C23.4949 30.1328 20.5892 28.4404 17.0049 28.4404C13.4206 28.4404 10.5149 30.1328 10.5149 32.2204C10.5149 34.3081 13.4206 36.0004 17.0049 36.0004Z" fill="white" fill-opacity="0.15"/>
<path d="M7.95451 12.7825C9.74667 9.67842 9.73388 6.31586 7.92593 5.27204C6.11798 4.22822 3.19952 5.89842 1.40735 9.00254C-0.38481 12.1067 -0.372017 15.4692 1.43593 16.513C3.24388 17.5569 6.16234 15.8867 7.95451 12.7825Z" fill="white" fill-opacity="0.15"/>
<path d="M32.5895 26.9935C34.3817 23.8894 34.3689 20.5268 32.5609 19.483C30.753 18.4392 27.8345 20.1094 26.0424 23.2135C24.2502 26.3176 24.263 29.6802 26.0709 30.724C27.8789 31.7678 30.7974 30.0976 32.5895 26.9935Z" fill="white" fill-opacity="0.15"/>
<path d="M7.92739 30.7319C9.73534 29.6881 9.74813 26.3255 7.95597 23.2214C6.16381 20.1172 3.24534 18.447 1.43739 19.4909C-0.370552 20.5347 -0.383346 23.8972 1.40882 27.0014C3.20098 30.1055 6.11945 31.7757 7.92739 30.7319Z" fill="white" fill-opacity="0.15"/>
<path d="M32.5663 16.5063C34.3743 15.4625 34.3871 12.0999 32.5949 8.99578C30.8027 5.89166 27.8843 4.22145 26.0763 5.26527C24.2684 6.30909 24.2556 9.67166 26.0477 12.7758C27.8399 15.8799 30.7584 17.5501 32.5663 16.5063Z" fill="white" fill-opacity="0.15"/>
</g>
<defs>
<clipPath id="clip0_12542_4457">
<rect width="33.85" height="36" fill="white" transform="translate(0.0749512)"/>
</clipPath>
</defs>
</svg>
