<svg width="36" height="20" viewBox="0 0 36 20" fill="none" xmlns="http://www.w3.org/2000/svg">
<g clip-path="url(#clip0_12542_4466)">
<path d="M27.26 0.974609C25.25 0.974609 23.05 2.06461 20.74 4.22461C19.65 5.23461 18.68 6.34461 17.98 7.21461C17.98 7.21461 19.1 8.50461 20.34 9.90461C21.01 9.06461 21.97 7.91461 23.08 6.88461C25.14 4.95461 26.48 4.56461 27.26 4.56461C30.15 4.56461 32.5 6.99461 32.5 9.99461C32.5 12.9946 30.15 15.3946 27.26 15.4246C27.12 15.4246 26.96 15.4046 26.76 15.3646C27.6 15.7546 28.52 16.0346 29.37 16.0346C34.67 16.0346 35.71 12.3746 35.77 12.1146C35.92 11.4446 36.01 10.7446 36.01 10.0146C36 5.02461 32.09 0.974609 27.27 0.974609H27.26Z" fill="white" fill-opacity="0.15"/>
<path d="M8.74 19.0249C10.75 19.0249 12.95 17.9349 15.26 15.7749C16.35 14.7649 17.32 13.6549 18.02 12.7849C18.02 12.7849 16.9 11.4949 15.66 10.0949C14.99 10.9349 14.03 12.0849 12.92 13.1149C10.86 15.0249 9.51 15.4349 8.74 15.4349C5.85 15.4349 3.5 13.0049 3.5 10.0049C3.5 7.00493 5.85 4.60493 8.74 4.57493C8.88 4.57493 9.04 4.59493 9.24 4.63493C8.4 4.24493 7.48 3.96493 6.63 3.96493C1.34 3.94493 0.3 7.60493 0.24 7.87493C0.09 8.54493 0 9.24493 0 9.97493C0 14.9649 3.91 19.0149 8.74 19.0149V19.0249Z" fill="white" fill-opacity="0.15"/>
<path fill-rule="evenodd" clip-rule="evenodd" d="M12.78 6.96461C12.2 6.40461 9.37002 4.10461 6.66002 4.02461C1.82002 3.90461 0.40002 7.41461 0.27002 7.86461C1.20002 3.93461 4.66002 0.994609 8.75002 0.974609C12.09 0.974609 15.47 4.25461 17.97 7.21461H17.98C17.98 7.21461 19.1 8.49461 20.34 9.89461C20.34 9.89461 21.75 11.5546 23.23 13.0046C23.81 13.5646 26.63 15.8346 29.34 15.9146C34.31 16.0546 35.68 12.3446 35.75 12.0646C34.84 16.0246 31.37 18.9746 27.26 19.0046C23.92 19.0046 20.54 15.7246 18.03 12.7646C18.03 12.7746 18.02 12.7746 18.02 12.7846C18.02 12.7846 16.9 11.4946 15.66 10.0946C15.67 10.0946 14.26 8.42461 12.77 6.97461L12.78 6.96461ZM0.27002 7.91461C0.27002 7.91461 0.27002 7.89461 0.28002 7.88461C0.27002 7.89461 0.27002 7.90461 0.27002 7.91461Z" fill="white" fill-opacity="0.15"/>
</g>
<defs>
<clipPath id="clip0_12542_4466">
<rect width="36" height="18.05" fill="white" transform="translate(0 0.974609)"/>
</clipPath>
</defs>
</svg>
