<svg width="32" height="34" viewBox="0 0 32 34" fill="none" xmlns="http://www.w3.org/2000/svg">
<path d="M29.9998 0.865234L15.9698 8.96523L1.96984 0.865234C1.45984 1.16523 1.33984 1.22523 0.839844 1.51523V11.0952L6.56984 14.4152L9.08984 15.8652H11.1998L13.7198 14.4152L27.5698 6.40523V11.0952L18.8198 16.1352L17.3398 16.9952L18.8198 17.8552L27.5698 22.8952V27.5852L13.7198 19.5752L11.1998 18.1252H9.08984L6.56984 19.5752L0.839844 22.9052V32.4852C1.33984 32.7852 1.45984 32.8452 1.96984 33.1352L15.9998 25.0352L30.0298 33.1352C30.5298 32.8352 30.6498 32.7752 31.1598 32.4852V22.9052L20.8998 16.9752L31.1598 11.0452V1.51523C30.6298 1.21523 30.5098 1.15523 29.9998 0.865234ZM10.1198 12.3452L4.38984 9.02523V4.33523L14.1798 10.0052L10.1198 12.3452ZM4.39984 29.6652V24.9752L10.1298 21.6552L14.1898 23.9952L4.39984 29.6652Z" fill="white" fill-opacity="0.15"/>
</svg>
