<svg width="28" height="36" viewBox="0 0 28 36" fill="none" xmlns="http://www.w3.org/2000/svg">
<g clip-path="url(#clip0_12542_4476)">
<path d="M9.58508 21.99C-0.744919 14.89 3.86508 3.76 23.0351 0L24.4651 1.27C6.93508 5.62 0.57508 13.19 9.58508 21.99Z" fill="white" fill-opacity="0.15"/>
<path d="M6.50511 17.0898C3.96511 10.6498 14.5651 3.33977 25.3751 2.00977L26.8051 3.11977C17.2651 5.12977 7.73511 8.73977 6.51511 17.0798L6.50511 17.0898Z" fill="white" fill-opacity="0.15"/>
<path d="M8.09512 19.1301C4.20512 13.5701 15.6151 5.57008 27.7551 4.08008L26.8051 5.99008C18.9651 6.68008 6.62512 12.7501 8.10512 19.1301H8.09512Z" fill="white" fill-opacity="0.15"/>
<path d="M9.37502 20.7704C5.65502 15.6704 15.675 8.80043 26.485 6.94043L25.425 8.74043C16.715 10.0704 8.58502 16.2604 9.37502 20.7704Z" fill="white" fill-opacity="0.15"/>
<path d="M18.4151 14.0098C28.7451 21.1098 24.1351 32.2398 4.95515 35.9998L3.52515 34.7298C21.0651 30.3898 27.4151 22.8098 18.4151 14.0098Z" fill="white" fill-opacity="0.15"/>
<path d="M21.4951 18.9102C24.0351 25.3502 13.4451 32.6602 2.63508 33.9802L1.20508 32.8702C10.7451 30.8602 20.2751 27.2502 21.4951 18.9102Z" fill="white" fill-opacity="0.15"/>
<path d="M19.9051 16.8701C23.7951 22.4301 12.3851 30.4301 0.245117 31.9201L1.19512 30.0101C9.03512 29.3201 21.3751 23.2501 19.8951 16.8701H19.9051Z" fill="white" fill-opacity="0.15"/>
<path d="M18.6251 15.2305C22.3451 20.3305 12.3251 27.2005 1.51514 29.0605L2.57514 27.2605C11.2851 25.9305 19.4151 19.7405 18.6251 15.2305Z" fill="white" fill-opacity="0.15"/>
</g>
<defs>
<clipPath id="clip0_12542_4476">
<rect width="27.51" height="36" fill="white" transform="translate(0.245117)"/>
</clipPath>
</defs>
</svg>
