<svg width="36" height="24" viewBox="0 0 36 24" fill="none" xmlns="http://www.w3.org/2000/svg">
<g clip-path="url(#clip0_12542_4486)">
<path d="M14 1.54018C7.78004 3.94018 7.21004 10.0802 5.43004 12.9502C3.62004 15.8502 -0.509958 17.4502 0.0500417 18.9302C0.620042 20.4102 4.76004 18.8202 8.03004 19.7602C11.27 20.6902 15.78 24.8702 22 22.4802C25.17 21.2602 27.46 18.7402 28.52 15.7702C28.63 15.4502 28.42 15.1102 28.08 15.0802C27.87 15.0602 27.67 15.1702 27.58 15.3602C26.63 17.2702 24.99 18.8402 22.84 19.6702C19.3 21.0302 15.43 19.9602 13.05 17.2802C12.51 16.6702 12.05 15.9802 11.68 15.2102C11.58 15.0002 11.48 14.7802 11.4 14.5602C11.31 14.3402 11.24 14.1102 11.18 13.8902C13.05 13.0102 15.21 12.0902 17.65 11.1502C20.05 10.2302 22.23 9.48018 24.18 8.88018C25.49 8.47018 26.7 8.14018 27.79 7.86018C27.87 7.84018 27.95 7.82018 28.02 7.80018C28.18 7.76018 28.35 7.85017 28.41 8.01017C28.45 8.11017 28.48 8.20018 28.51 8.30018C28.73 8.91018 28.89 9.53018 28.99 10.1502C29.04 10.4202 29.33 10.5702 29.57 10.4402C30.46 9.96018 31.28 9.49018 32.01 9.04018C34.73 7.36018 36.24 5.93017 35.93 5.12017C35.62 4.31017 33.55 4.26018 30.41 4.84018C29.41 5.02017 28.3 5.27017 27.11 5.58017C26.9 5.63018 26.69 5.69017 26.48 5.74017C25.48 6.01017 24.42 6.31017 23.31 6.66017C21.26 7.30017 19.06 8.06017 16.79 8.94018C14.66 9.76017 12.65 10.6102 10.8 11.4602C10.78 7.87018 12.94 4.47018 16.48 3.11018C18.62 2.28018 20.89 2.35018 22.87 3.13018C23.07 3.21018 23.29 3.15018 23.43 3.00018C23.66 2.75018 23.59 2.35018 23.29 2.19018C20.52 0.690175 17.14 0.360175 13.97 1.58018L14 1.54018Z" fill="white" fill-opacity="0.15"/>
</g>
<defs>
<clipPath id="clip0_12542_4486">
<rect width="36" height="22.42" fill="white" transform="translate(0 0.790039)"/>
</clipPath>
</defs>
</svg>
