<svg width="37" height="36" viewBox="0 0 37 36" fill="none" xmlns="http://www.w3.org/2000/svg">
<path fill-rule="evenodd" clip-rule="evenodd" d="M36.7002 18C36.7002 27.9411 28.6413 36 18.7002 36C8.75907 36 0.700195 27.9411 0.700195 18C0.700195 8.05887 8.75907 0 18.7002 0C28.6413 0 36.7002 8.05887 36.7002 18ZM11.5801 13.7504L8.58008 12.4804V25.9504L18.7001 19.9704L28.8201 25.9504V12.4804L25.8901 13.7504V20.9004L18.7001 16.6404L11.5801 20.9004V13.7504ZM18.7001 6.19043L8.92008 11.9304L11.5801 13.0304L18.7001 8.87043L25.8901 13.0304L28.5501 11.9304L18.7001 6.19043ZM13.2501 23.9604L11.0301 25.2304H11.0401L18.7401 29.8204L26.4401 25.2304L24.1601 23.9604L18.7401 27.1404L13.2501 23.9604Z" fill="white" fill-opacity="0.15"/>
</svg>
