<svg width="31" height="36" viewBox="0 0 31 36" fill="none" xmlns="http://www.w3.org/2000/svg">
<g clip-path="url(#clip0_12542_4503)">
<path d="M28.06 7.34L15.35 0L2.64 7.34L0 8.86V26.58L15.35 35.44L30.7 26.58V8.86L28.06 7.34ZM28.06 25.06L15.35 32.4L2.64 25.06V13.43L7.23 16.08V22.4L15.35 27.09L23.46 22.4V16.09L28.06 13.43V25.06ZM16.05 20.37L22.07 16.89V21.6L16.05 25.08V20.37ZM14.65 25.08L8.63 21.6V16.89L14.65 20.37V25.08ZM28.06 10.39L23.46 13.05V13.03L22.07 12.23L15.35 8.35L8.63 12.23L7.23 13.03L2.64 10.39L15.35 3.05L28.06 10.38V10.39Z" fill="white" fill-opacity="0.15"/>
</g>
<defs>
<clipPath id="clip0_12542_4503">
<rect width="30.7" height="35.44" fill="white"/>
</clipPath>
</defs>
</svg>
