<svg width="36" height="36" viewBox="0 0 36 36" fill="none" xmlns="http://www.w3.org/2000/svg">
<path d="M18.0001 9.96016C20.7301 9.96016 22.9401 7.77016 22.9401 5.06016C22.9401 2.35016 20.7301 0.160156 18.0001 0.160156C15.2701 0.160156 13.0601 2.35016 13.0601 5.06016C13.0601 7.77016 15.2701 9.96016 18.0001 9.96016Z" fill="white" fill-opacity="0.15"/>
<path d="M31.7399 20.2003C29.3799 18.8503 26.3599 19.6503 24.9999 21.9903C24.5399 22.7903 24.3199 23.6803 24.3399 24.5503C24.3899 26.7203 22.4299 27.8303 20.5699 26.7203C20.4999 26.6803 20.4299 26.6303 20.3399 26.6003C18.4599 25.5503 18.4599 23.3303 20.3399 22.3003C21.8799 21.4703 22.9299 19.8503 22.9299 17.9903V17.8803C22.8799 15.7103 24.8399 14.6003 26.6999 15.7103C28.1799 16.6203 30.1199 16.6903 31.7299 15.7603C34.0899 14.4103 34.8999 11.4103 33.5399 9.07034C32.1799 6.73034 29.1599 5.93035 26.7999 7.28035C25.1899 8.20035 24.2999 9.91034 24.3299 11.6303C24.3799 13.8003 22.4199 14.9103 20.5699 13.8003C19.8199 13.3403 18.9399 13.0703 17.9899 13.0703C17.0399 13.0703 16.1699 13.3403 15.4099 13.7803C13.5499 14.8803 11.5999 13.7603 11.6499 11.6103C11.6899 9.87034 10.7899 8.18035 9.17994 7.26035C6.81994 5.91035 3.79994 6.73034 2.43994 9.07034C1.07994 11.4103 1.89994 14.4103 4.25994 15.7603C5.86994 16.6803 7.79994 16.5903 9.28994 15.7103C11.1499 14.5903 13.0999 15.7103 13.0499 17.8803V17.9903C13.0499 19.8503 14.0899 21.4703 15.6399 22.3003C17.5199 23.3503 17.5199 25.5703 15.6399 26.6003C15.5699 26.6403 15.4999 26.6903 15.4299 26.7203C13.5699 27.8203 11.6199 26.7003 11.6699 24.5503C11.6899 23.6803 11.4699 22.7903 11.0099 21.9803C9.64994 19.6403 6.62994 18.8403 4.26994 20.1903C1.90994 21.5703 1.09994 24.5703 2.45994 26.9203C3.81994 29.2603 6.83994 30.0603 9.19994 28.7103C9.23994 28.6903 9.24994 28.6703 9.28994 28.6603C11.1499 27.5403 13.0999 28.6603 13.0499 30.8303V30.9503C13.0499 33.6503 15.2699 35.8503 17.9899 35.8503C20.7099 35.8503 22.9299 33.6503 22.9299 30.9503V30.8403C22.8799 28.6703 24.8399 27.5603 26.6999 28.6703C26.7399 28.6903 26.7699 28.7103 26.8099 28.7403C29.1699 30.0903 32.1899 29.2903 33.5499 26.9503C34.9099 24.5503 34.0999 21.5503 31.7399 20.2103V20.2003Z" fill="white" fill-opacity="0.15"/>
</svg>
