<svg width="36" height="36" viewBox="0 0 36 36" fill="none" xmlns="http://www.w3.org/2000/svg">
<g clip-path="url(#clip0_11473_63196)">
<path d="M25.0499 15.8803C25.0499 16.0003 25.0399 16.1303 25.0099 16.2903C24.9199 16.6803 24.7299 16.9703 24.4399 17.1803C24.1599 17.3903 23.8299 17.4903 23.4499 17.4903H21.8999L22.4099 15.0703H24.0299C24.3999 15.0703 24.6599 15.1403 24.8099 15.2903C24.9599 15.4203 25.0399 15.6203 25.0399 15.8803H25.0499Z" fill="white"/>
<path d="M18 0C8.06 0 0 8.06 0 18C0 27.94 8.06 36 18 36C27.94 36 36 27.94 36 18C36 8.06 27.94 0 18 0ZM17.98 16.77C17.84 17.57 17.68 18.35 17.49 19.11C17.18 20.34 16.63 21.27 15.86 21.88C15.09 22.48 14.05 22.79 12.75 22.79C11.68 22.79 10.8 22.54 10.12 22.03C9.44 21.53 9.11 20.79 9.11 19.84C9.11 19.64 9.13 19.4 9.18 19.11C9.3 18.46 9.46 17.68 9.68 16.77C10.29 14.29 11.87 13.05 14.42 13.05C15.11 13.05 15.74 13.17 16.28 13.4C16.83 13.62 17.26 13.97 17.58 14.43C17.9 14.88 18.05 15.42 18.05 16.05C18.05 16.24 18.03 16.48 17.98 16.77ZM27.5 16.31C27.27 17.35 26.82 18.11 26.14 18.61C25.46 19.11 24.54 19.35 23.36 19.35H21.54L20.92 22.31C20.9 22.41 20.85 22.49 20.77 22.55C20.69 22.61 20.6 22.64 20.51 22.64H18.67C18.57 22.64 18.49 22.61 18.44 22.55C18.4 22.48 18.38 22.4 18.4 22.31L20.26 13.53C20.28 13.43 20.33 13.35 20.41 13.29C20.49 13.23 20.58 13.19 20.67 13.19H24.26C25.26 13.19 26.06 13.4 26.66 13.81C27.27 14.22 27.58 14.82 27.58 15.61C27.58 15.84 27.55 16.07 27.5 16.31ZM14.23 15C13.73 15 13.29 15.15 12.93 15.45C12.58 15.75 12.33 16.2 12.17 16.81C12.01 17.41 11.85 18.15 11.68 19.03C11.64 19.21 11.63 19.4 11.63 19.6C11.63 20.43 12.04 20.84 12.93 20.84C13.43 20.84 13.86 20.69 14.21 20.39C14.57 20.09 14.83 19.64 14.98 19.03C15.19 18.18 15.35 17.45 15.45 16.81C15.49 16.62 15.5 16.43 15.5 16.23C15.5 15.41 15.1 15 14.22 15H14.23Z" fill="white"/>
</g>
<defs>
<clipPath id="clip0_11473_63196">
<rect width="36" height="36" fill="white"/>
</clipPath>
</defs>
</svg>
