<svg width="34" height="34" viewBox="0 0 34 34" fill="none" xmlns="http://www.w3.org/2000/svg">
<g clip-path="url(#clip0_11473_63200)">
<mask id="mask0_11473_63200" style="mask-type:luminance" maskUnits="userSpaceOnUse" x="0" y="0" width="34" height="34">
<path d="M34 0H0V34H34V0Z" fill="white"/>
</mask>
<g mask="url(#mask0_11473_63200)">
<path d="M5.89353 31.6293C4.49575 31.6293 3.08853 31.6293 1.69075 31.6293C1.04853 31.6293 0.462976 31.5066 0.13242 30.8455C-0.113135 30.3638 -0.00924646 29.9105 0.236309 29.4666C0.916309 28.2388 1.59631 27.0205 2.2952 25.8021C6.44131 18.5205 10.578 11.2388 14.7241 3.95712C14.8846 3.68323 15.0358 3.40934 15.2152 3.1449C15.8952 2.13434 16.9719 2.11545 17.633 3.1449C18.1713 3.98545 18.6435 4.85434 19.1441 5.72323C20.0696 7.34768 20.9858 8.97212 21.9113 10.5966C22.7519 12.0699 22.7613 13.5432 21.9113 15.026C19.1724 19.8332 16.4335 24.631 13.6946 29.4382C12.8352 30.9399 11.5319 31.6482 9.81298 31.6388C8.5002 31.6388 7.18742 31.6388 5.88409 31.6388L5.89353 31.6293Z" fill="white" fill-opacity="0.15"/>
<path d="M27.0208 31.6289C25.3302 31.6289 23.6491 31.6289 21.9586 31.6289C21.7036 31.6289 21.4486 31.61 21.1936 31.5628C20.3436 31.4117 19.8808 30.59 20.183 29.7872C20.3058 29.4661 20.4758 29.1639 20.6552 28.8617C22.2608 26.0944 23.8569 23.3367 25.4719 20.5789C25.6136 20.3333 25.7741 20.0878 25.9347 19.8611C26.5297 19.0772 27.5308 19.0583 28.1164 19.8422C28.3619 20.1633 28.5697 20.5222 28.768 20.8717C30.3264 23.535 31.8847 26.2078 33.4336 28.8806C33.6036 29.1828 33.7736 29.485 33.8964 29.8061C34.1986 30.6089 33.7264 31.4306 32.8764 31.5628C32.4514 31.6289 32.0075 31.6289 31.573 31.6289C30.0525 31.6289 28.5319 31.6289 27.0114 31.6289H27.0208Z" fill="white" fill-opacity="0.15"/>
</g>
</g>
<defs>
<clipPath id="clip0_11473_63200">
<rect width="34" height="34" fill="white"/>
</clipPath>
</defs>
</svg>
