<svg width="30" height="36" viewBox="0 0 30 36" fill="none" xmlns="http://www.w3.org/2000/svg">
<path fill-rule="evenodd" clip-rule="evenodd" d="M23.4502 15.0097C24.9202 16.8497 25.8002 19.1897 25.8002 21.7197C25.8002 24.2497 24.9002 26.6597 23.3902 28.5097L23.2602 28.6697L23.2302 28.4697C23.2002 28.2997 23.1702 28.1197 23.1302 27.9497C22.3802 24.6297 19.9202 21.7897 15.8702 19.4897C13.1402 17.9397 11.5702 16.0697 11.1602 13.9497C10.8902 12.5797 11.0902 11.1997 11.4702 10.0197C11.8502 8.83969 12.4202 7.84969 12.9002 7.25969L14.4702 5.32969C14.7502 4.98969 15.2602 4.98969 15.5402 5.32969L23.4602 15.0097H23.4502ZM25.9402 13.0897L15.3902 0.179688C15.1902 -0.0703125 14.8102 -0.0703125 14.6102 0.179688L4.06018 13.0897L4.03018 13.1297C2.09018 15.5397 0.930176 18.5997 0.930176 21.9397C0.930176 29.6997 7.23018 35.9997 15.0102 35.9997C22.7902 35.9997 29.0902 29.7097 29.0902 21.9397C29.0902 18.6097 27.9302 15.5397 25.9902 13.1297L25.9602 13.0897H25.9402ZM6.58018 14.9697L7.52018 13.8197L7.55018 14.0297C7.57018 14.1997 7.60018 14.3697 7.63018 14.5397C8.24018 17.7397 10.4202 20.4197 14.0702 22.4897C17.2402 24.2897 19.0902 26.3697 19.6202 28.6497C19.8402 29.5997 19.8802 30.5297 19.7902 31.3497V31.3997L19.7402 31.4197C18.3102 32.1197 16.7002 32.5097 15.0002 32.5097C9.04018 32.5097 4.20018 27.6797 4.20018 21.7297C4.20018 19.1697 5.09018 16.8197 6.58018 14.9797V14.9697Z" fill="#3A3A3A"/>
</svg>
