<svg width="17" height="17" viewBox="0 0 17 17" fill="none" xmlns="http://www.w3.org/2000/svg">
<path fill-rule="evenodd" clip-rule="evenodd" d="M2.65625 1.85938C2.65625 1.71268 2.77518 1.59375 2.92188 1.59375H11.9531C12.0999 1.59375 12.2188 1.71268 12.2188 1.85938V10.0794C12.2188 10.5195 12.5755 10.8763 13.0156 10.8763C13.4557 10.8763 13.8125 10.5195 13.8125 10.0794V1.85938C13.8125 0.832471 12.98 0 11.9531 0H2.92188C1.89497 0 1.0625 0.832471 1.0625 1.85938V14.0781C1.0625 15.105 1.89497 15.9375 2.92188 15.9375H6.29088C6.73098 15.9375 7.08776 15.5807 7.08776 15.1406C7.08776 14.7005 6.73098 14.3438 6.29088 14.3438H2.92188C2.77518 14.3438 2.65625 14.2249 2.65625 14.0781V1.85938ZM5.04688 4.25C4.60678 4.25 4.25 4.60678 4.25 5.04688C4.25 5.48697 4.60678 5.84375 5.04688 5.84375H9.82812C10.2682 5.84375 10.625 5.48697 10.625 5.04688C10.625 4.60678 10.2682 4.25 9.82812 4.25H5.04688ZM4.25 8.23438C4.25 7.79428 4.60678 7.4375 5.04688 7.4375H7.17188C7.61197 7.4375 7.96875 7.79428 7.96875 8.23438C7.96875 8.67447 7.61197 9.03125 7.17188 9.03125H5.04688C4.60678 9.03125 4.25 8.67447 4.25 8.23438ZM16.7599 11.992C17.0747 11.6845 17.0807 11.1799 16.7733 10.8651C16.4658 10.5503 15.9612 10.5443 15.6464 10.8517L11.3691 15.0287L9.86135 13.5156C9.5507 13.2039 9.04615 13.2031 8.7344 13.5136C8.42265 13.8243 8.42176 14.3289 8.7324 14.6406L10.7969 16.7125C11.1054 17.022 11.6056 17.0254 11.9182 16.7201L16.7599 11.992Z" fill="white"/>
</svg>
