<svg width="34" height="28" viewBox="0 0 34 28" fill="none" xmlns="http://www.w3.org/2000/svg">
<path d="M28.8012 2.27799C26.6004 1.2138 24.2471 0.440388 21.7868 0C21.4846 0.564561 21.1316 1.32391 20.8882 1.92797C18.2729 1.52149 15.6816 1.52149 13.1143 1.92797C12.871 1.32391 12.51 0.564561 12.2051 0C9.74214 0.440388 7.38615 1.21664 5.18527 2.28363C0.746077 9.2163 -0.457316 15.9768 0.144382 22.6413C3.08869 24.9136 5.94208 26.2939 8.74731 27.1972C9.43994 26.2121 10.0577 25.1648 10.5898 24.0611C9.57631 23.6631 8.60558 23.172 7.68835 22.6018C7.93169 22.4155 8.16971 22.2207 8.39967 22.0203C13.9941 24.7245 20.0726 24.7245 25.6002 22.0203C25.8329 22.2207 26.0708 22.4155 26.3115 22.6018C25.3916 23.1748 24.4182 23.6659 23.4047 24.064C23.9368 25.1648 24.5519 26.2149 25.2472 27.2C28.0551 26.2967 30.9112 24.9164 33.8555 22.6413C34.5615 14.9154 32.6494 8.21704 28.8012 2.27799ZM11.352 18.5427C9.67261 18.5427 8.29537 16.9224 8.29537 14.9493C8.29537 12.9762 9.6432 11.3531 11.352 11.3531C13.0608 11.3531 14.438 12.9734 14.4086 14.9493C14.4113 16.9224 13.0608 18.5427 11.352 18.5427ZM22.6479 18.5427C20.9685 18.5427 19.5912 16.9224 19.5912 14.9493C19.5912 12.9762 20.939 11.3531 22.6479 11.3531C24.3567 11.3531 25.7339 12.9734 25.7045 14.9493C25.7045 16.9224 24.3567 18.5427 22.6479 18.5427Z" fill="white"/>
</svg>
