<svg width="34" height="30" viewBox="0 0 34 30" fill="none" xmlns="http://www.w3.org/2000/svg">
<path d="M33.75 14.0625C33.75 12.6779 32.9912 11.482 31.875 10.8328V1.87559C31.875 1.36289 31.466 0 30 0C29.5828 0 29.1686 0.139453 28.8293 0.411328L23.8471 4.39746C21.3445 6.39785 18.2027 7.5 15 7.5H3.75C1.67871 7.5 0 9.17871 0 11.25V16.875C0 18.9463 1.67871 20.625 3.75 20.625H5.72461C5.64316 21.2391 5.59687 21.8637 5.59687 22.5C5.59687 24.8303 6.13945 27.0322 7.09453 29.0004C7.39863 29.6268 8.0625 30 8.75859 30H13.1109C14.6373 30 15.5537 28.2516 14.6285 27.0375C13.6676 25.7766 13.0963 24.2039 13.0963 22.5C13.0963 21.849 13.1912 21.2232 13.3547 20.625H15C18.2027 20.625 21.3445 21.7271 23.8465 23.7275L28.8287 27.7137C29.1609 27.9797 29.574 28.1244 29.9994 28.125C31.4596 28.125 31.8744 26.7902 31.8744 26.25V17.2928C32.9912 16.643 33.75 15.4471 33.75 14.0625ZM28.125 22.3488L26.1885 20.7996C23.0244 18.2684 19.05 16.875 15 16.875V11.25C19.05 11.25 23.0244 9.85664 26.1885 7.32539L28.125 5.77617V22.3488Z" fill="white"/>
</svg>
