<svg width="38" height="28" viewBox="0 0 38 28" fill="none" xmlns="http://www.w3.org/2000/svg">
<path fill-rule="evenodd" clip-rule="evenodd" d="M33.4699 1.46312C35.0635 1.90119 36.3186 3.19194 36.7445 4.83108C37.5185 7.80183 37.5185 14.0003 37.5185 14.0003C37.5185 14.0003 37.5185 20.1986 36.7445 23.1696C36.3186 24.8087 35.0635 26.0995 33.4699 26.5377C30.5818 27.3337 19 27.3337 19 27.3337C19 27.3337 7.4181 27.3337 4.52985 26.5377C2.9362 26.0995 1.68115 24.8087 1.25522 23.1696C0.481445 20.1986 0.481445 14.0003 0.481445 14.0003C0.481445 14.0003 0.481445 7.80183 1.25522 4.83108C1.68115 3.19194 2.9362 1.90119 4.52985 1.46312C7.4181 0.666992 19 0.666992 19 0.666992C19 0.666992 30.5818 0.666992 33.4699 1.46312ZM15.5278 8.78281V20.377L24.787 14.5801L15.5278 8.78281Z" fill="white"/>
</svg>
