<svg xmlns="http://www.w3.org/2000/svg" width="24" height="25" viewBox="0 0 24 25" fill="none">
    <g clip-path="url(#clip0_15142_27342)">
        <path fill-rule="evenodd" clip-rule="evenodd"
            d="M12 0.5C18.6279 0.5 24 5.87212 24 12.5C24 19.1279 18.6279 24.5 12 24.5C5.37212 24.5 0 19.1279 0 12.5C0 5.87212 5.37212 0.5 12 0.5Z"
            fill="#F0B90B" />
        <path
            d="M6.5951 12.5L6.60375 15.6731L9.2999 17.2596V19.1173L5.02586 16.6106V11.5721L6.5951 12.5ZM6.5951 9.32693V11.176L5.0249 10.2471V8.39808L6.5951 7.46924L8.17298 8.39808L6.5951 9.32693ZM10.4259 8.39808L11.9961 7.46924L13.5739 8.39808L11.9961 9.32693L10.4259 8.39808Z"
            fill="white" />
        <path
            d="M7.72998 15.0154V13.1577L9.30017 14.0865V15.9356L7.72998 15.0154ZM10.4261 17.925L11.9963 18.8539L13.5742 17.925V19.774L11.9963 20.7029L10.4261 19.774V17.925ZM15.8261 8.39808L17.3963 7.46924L18.9742 8.39808V10.2471L17.3963 11.176V9.32693L15.8261 8.39808ZM17.3963 15.6731L17.405 12.5L18.9752 11.5712V16.6096L14.7011 19.1164V17.2587L17.3963 15.6731Z"
            fill="white" />
        <path d="M16.2704 15.0154L14.7002 15.9356V14.0866L16.2704 13.1577V15.0154Z" fill="white" />
        <path
            d="M16.2704 9.98462L16.279 11.8423L13.5752 13.4289V16.6096L12.005 17.5298L10.4348 16.6096V13.4289L7.73094 11.8423V9.98462L9.30786 9.05577L11.9954 10.65L14.6992 9.05577L16.2771 9.98462H16.2704ZM7.72998 6.8125L11.9963 4.29712L16.2704 6.8125L14.7002 7.74135L11.9963 6.14712L9.30017 7.74135L7.72998 6.8125Z"
            fill="white" />
    </g>
    <defs>
        <clipPath id="clip0_15142_27342">
            <rect width="24" height="24" fill="white" transform="translate(0 0.5)" />
        </clipPath>
    </defs>
</svg>