<svg width="200" height="201" viewBox="0 0 200 201" fill="none" xmlns="http://www.w3.org/2000/svg">
<circle cx="100" cy="100.174" r="99.5" fill="white" stroke="#CBCBCB"/>
<path d="M96.6224 106.147L115.308 124.833C116.973 126.498 117.909 128.757 117.909 131.112V131.114C117.909 136.019 113.933 139.997 109.026 139.997H108.476C106.121 139.997 103.862 139.061 102.197 137.396L84.0589 119.258C82.3936 117.593 81.4575 115.334 81.4575 112.979V112.429C81.4575 107.524 85.4335 103.546 90.3407 103.546H90.3431C92.6982 103.546 94.9572 104.482 96.6224 106.147Z" fill="black"/>
<path d="M161.455 112.429V112.981C161.455 115.336 160.519 117.595 158.854 119.263L140.715 137.399C139.05 139.064 136.791 140 134.436 140H133.887C128.982 140 125.003 136.024 125.003 131.117V131.114C125.003 128.759 125.94 126.5 127.605 124.833L146.292 106.147C147.958 104.482 150.217 103.546 152.572 103.546C157.479 103.546 161.455 107.522 161.455 112.429Z" fill="black"/>
<path d="M108.476 60H109.028C113.933 60 117.911 63.976 117.911 68.8832C117.911 71.2382 116.975 73.4972 115.31 75.1625L96.6249 93.8501C94.9596 95.5154 92.7006 96.4515 90.3431 96.4515H90.3407C85.436 96.4515 81.4575 92.4755 81.4575 87.5683V87.019C81.4575 84.6639 82.3936 82.405 84.0589 80.7397L102.195 62.6014C103.86 60.9361 106.119 60 108.476 60Z" fill="black"/>
<path d="M161.455 87.0189V87.5707C161.455 92.4754 157.479 96.4539 152.572 96.4539C150.217 96.4539 147.958 95.5177 146.292 93.8525L127.605 75.1648C125.94 73.4996 125.003 71.2406 125.003 68.8855C125.003 63.9808 128.979 60.0024 133.887 60.0024H134.438C136.793 60.0024 139.052 60.9385 140.718 62.6038L158.854 80.7396C160.519 82.4024 161.455 84.6614 161.455 87.0189Z" fill="black"/>
<path d="M74.4515 112.429V112.981C74.4515 115.336 73.5154 117.595 71.8501 119.263L53.7118 137.399C52.0465 139.064 49.7875 140 47.4325 140H46.8832C41.9785 140 38 136.024 38 131.117V131.114C38 128.759 38.9361 126.5 40.6014 124.833L59.289 106.147C60.9543 104.482 63.2133 103.546 65.5683 103.546C70.4755 103.546 74.4515 107.522 74.4515 112.429Z" fill="black"/>
<path d="M74.4515 87.0188V87.5706C74.4515 92.4753 70.4755 96.4538 65.5683 96.4538C63.2133 96.4538 60.9543 95.5177 59.289 93.8524L40.6014 75.1648C38.9361 73.4995 38 71.2405 38 68.8855C38 63.9808 41.976 60.0023 46.8832 60.0023H47.435C49.79 60.0023 52.049 60.9384 53.7143 62.6037L71.8501 80.7395C73.5154 82.4024 74.4515 84.6613 74.4515 87.0188Z" fill="black"/>
</svg>
