<svg width="117" height="36" viewBox="0 0 117 36" fill="none" xmlns="http://www.w3.org/2000/svg">
<g clip-path="url(#clip0_11182_72102)">
<path d="M33.5279 25.5142C33.3464 25.0755 33.1763 24.6142 32.9947 24.2205L32.1552 22.3417L32.1212 22.308C29.6254 16.908 26.9594 11.418 24.1347 6.01796L24.0212 5.79296C23.7376 5.26421 23.454 4.6792 23.159 4.1392C22.796 3.49796 22.4443 2.81171 21.8657 2.1592C21.3018 1.47648 20.592 0.926417 19.7877 0.548717C18.9833 0.171017 18.1045 -0.0249023 17.2145 -0.0249023C16.3245 -0.0249023 15.4457 0.171017 14.6413 0.548717C13.837 0.926417 13.1272 1.47648 12.5632 2.1592C12.03 2.81171 11.633 3.49796 11.2699 4.1392C10.9863 4.72421 10.7027 5.29796 10.4078 5.8267L10.2943 6.05171C7.51491 11.4517 4.80356 16.9417 2.30776 22.3417L2.2397 22.4092C1.99012 22.9942 1.69516 23.6017 1.41155 24.2542C1.23003 24.648 1.04852 25.0755 0.867008 25.548C0.376961 26.7852 0.220473 28.1278 0.412968 29.4433C0.605462 30.7588 1.14029 32.0018 1.96476 33.0499C2.78922 34.098 3.87485 34.915 5.11466 35.4203C6.35447 35.9257 7.70566 36.1019 9.03507 35.9317C10.3096 35.7653 11.5369 35.3443 12.6426 34.6942C14.1174 33.873 15.5355 32.6805 17.1237 30.9592C18.712 32.6805 20.1641 33.873 21.6048 34.7055C22.9903 35.5119 24.5593 35.957 26.1653 35.9992C28.0251 36.0069 29.8249 35.347 31.2323 34.1415C32.6398 32.936 33.56 31.2662 33.8229 29.4405C34.1267 28.1285 34.0239 26.756 33.5279 25.503V25.5142ZM17.2372 27.3817C15.2859 24.9067 14.0153 22.6342 13.5842 20.688C13.4056 19.9668 13.3671 19.2184 13.4708 18.483C13.5502 17.9092 13.7657 17.403 14.0607 16.9755C14.7414 15.9967 15.9326 15.3892 17.2372 15.3892C17.8567 15.3704 18.4713 15.5045 19.0257 15.7794C19.5801 16.0543 20.057 16.4614 20.4136 16.9642C20.7086 17.4142 20.9242 17.9092 20.9922 18.483C21.1057 19.1355 21.0603 19.8892 20.8788 20.688C20.4477 22.6005 19.1771 24.8955 17.2372 27.3817ZM31.6901 29.0467C31.5612 29.9736 31.1896 30.8509 30.6124 31.5911C30.0352 32.3313 29.2725 32.9086 28.4002 33.2655C27.538 33.6255 26.5851 33.7267 25.6548 33.6255C24.7473 33.513 23.8397 33.2205 22.9094 32.6805C21.3649 31.7338 19.976 30.5576 18.7914 29.193C21.1737 26.268 22.6145 23.6017 23.159 21.228C23.4199 20.103 23.454 19.0905 23.3405 18.1567C23.1989 17.2717 22.8661 16.4274 22.3649 15.6817C21.7927 14.8731 21.0289 14.2163 20.1407 13.7691C19.2525 13.3218 18.2672 13.0978 17.2712 13.1167C15.1725 13.1167 13.3006 14.0842 12.1662 15.6705C11.6555 16.4143 11.3254 17.2652 11.2019 18.1567C11.0544 19.1017 11.0884 20.148 11.3834 21.228C11.9279 23.6017 13.4027 26.3017 15.751 29.2155C14.5865 30.6061 13.1944 31.7927 11.633 32.7255C10.6914 33.2655 9.79516 33.5467 8.8876 33.6592C7.4762 33.8385 6.0505 33.4581 4.92037 32.6007C3.79024 31.7433 3.04703 30.4782 2.8523 29.0805C2.73886 28.1805 2.81827 27.2805 3.18129 26.268C3.29474 25.908 3.46491 25.548 3.64642 25.1205C3.896 24.5355 4.19096 23.928 4.47457 23.3205L4.51995 23.2417C6.97037 17.8755 9.64768 12.3967 12.4271 7.03046L12.5405 6.80546C12.8241 6.26546 13.1078 5.69171 13.4027 5.15171C13.6977 4.57796 14.0153 4.02671 14.4237 3.57671C14.7772 3.15823 15.219 2.82169 15.7178 2.59077C16.2166 2.35986 16.7604 2.24019 17.3109 2.24019C17.8614 2.24019 18.4052 2.35986 18.904 2.59077C19.4029 2.82169 19.8446 3.15823 20.1981 3.57671C20.5952 4.02671 20.9241 4.57796 21.2191 5.15171C21.5027 5.69171 21.7863 6.27671 22.0813 6.80546L22.1947 7.03046C24.9628 12.3967 27.6401 17.8755 30.1359 23.2417L30.1699 23.2755C30.4649 23.8605 30.7145 24.513 30.9981 25.0755C31.1796 25.5142 31.3611 25.863 31.4746 26.2342C31.6901 27.2467 31.8036 28.1467 31.6901 29.0467ZM47.4817 27.1342C46.6269 27.1466 45.7802 26.968 45.0044 26.6116C44.2287 26.2552 43.5438 25.7302 43.0006 25.0755C41.78 23.6804 41.1322 21.8817 41.1855 20.0355C41.1668 18.1491 41.8355 16.3194 43.0687 14.883C43.6391 14.2199 44.3491 13.6889 45.1488 13.3274C45.9485 12.9659 46.8184 12.7826 47.6973 12.7905C48.5242 12.768 49.3433 12.9545 50.0776 13.3323C50.8119 13.7102 51.4372 14.267 51.8947 14.9505L52.0082 13.1842H55.3208V26.7742H51.9968L51.8834 24.7942C51.4116 25.524 50.7596 26.122 49.9892 26.5315C49.2189 26.9411 48.3557 27.1485 47.4817 27.1342ZM48.3439 23.8942C49.0019 23.8942 49.5804 23.7142 50.125 23.388C50.6241 23.028 51.0325 22.5555 51.3502 21.9817C51.6338 21.408 51.7813 20.7217 51.7813 19.9567C51.8255 19.2923 51.6951 18.6278 51.4028 18.0284C51.1105 17.4289 50.6663 16.9149 50.1136 16.5367C49.5826 16.2086 48.9695 16.0347 48.3439 16.0347C47.7183 16.0347 47.1051 16.2086 46.5741 16.5367C46.075 16.8967 45.6666 17.3692 45.3489 17.943C45.0489 18.5757 44.9013 19.2689 44.9178 19.968C44.8736 20.6324 45.004 21.2968 45.2963 21.8963C45.5887 22.4958 46.0329 23.0097 46.5855 23.388C47.1187 23.7142 47.6973 23.8942 48.3439 23.8942ZM60.993 9.51671C60.993 9.91046 60.925 10.2705 60.7435 10.563C60.562 10.8442 60.3124 11.103 59.9834 11.283C59.6544 11.463 59.3027 11.5305 58.9397 11.5305C58.5767 11.5305 58.2136 11.463 57.8846 11.283C57.5735 11.1112 57.3118 10.8633 57.1246 10.563C56.9489 10.2425 56.8627 9.88128 56.875 9.51671C56.875 9.11171 56.9544 8.75171 57.1246 8.47046C57.3061 8.13296 57.567 7.93046 57.8846 7.75046C58.2136 7.57046 58.5653 7.4917 58.9397 7.4917C59.3008 7.48345 59.6579 7.56827 59.976 7.73785C60.2942 7.90743 60.5625 8.15598 60.7548 8.45921C60.9199 8.7872 61.0017 9.15022 60.993 9.51671ZM57.1359 26.7292V13.1617H60.7435V26.7517H57.1246L57.1359 26.7292ZM70.3863 16.7167V16.7617C70.2162 16.683 69.9893 16.6492 69.8191 16.6155C69.5922 16.5705 69.4107 16.5705 69.1952 16.5705C68.1855 16.5705 67.4254 16.863 66.9262 17.4705C66.3817 18.0892 66.1321 18.9555 66.1321 20.0692V26.7405H62.5132V13.1505H65.8372L65.9506 15.2092C66.3136 14.4892 66.7447 13.9492 67.3573 13.5442C67.9667 13.1507 68.6841 12.9542 69.4107 12.9817C69.6716 12.9817 69.9212 13.0042 70.1367 13.0492C70.2502 13.083 70.3183 13.083 70.3863 13.1167V16.7167ZM71.8384 26.7292V7.58171H75.446V14.8942C75.9565 14.2417 76.5351 13.7355 77.2611 13.3417C78.4105 12.7828 79.7163 12.6243 80.9677 12.8917C82.2192 13.1591 83.3432 13.8368 84.1586 14.8155C85.3819 16.2134 86.0299 18.0166 85.9737 19.8667C85.9924 21.7531 85.3237 23.5828 84.0905 25.0192C83.5201 25.6823 82.8101 26.2132 82.0104 26.5748C81.2107 26.9363 80.3408 27.1196 79.462 27.1117C78.635 27.1341 77.8159 26.9477 77.0816 26.5698C76.3474 26.192 75.722 25.6351 75.2645 24.9517L75.151 26.718L71.8384 26.7517V26.7292ZM78.8153 23.8942C79.462 23.8942 80.0405 23.7142 80.5851 23.388C81.0842 23.028 81.4926 22.5555 81.8103 21.9817C82.1052 21.408 82.2414 20.7217 82.2414 19.9567C82.2414 19.203 82.1052 18.5167 81.8103 17.943C81.5124 17.3897 81.0938 16.9093 80.5851 16.5367C80.0541 16.2086 79.441 16.0347 78.8153 16.0347C78.1897 16.0347 77.5766 16.2086 77.0456 16.5367C76.5351 16.8967 76.138 17.3692 75.809 17.943C75.509 18.5757 75.3614 19.2689 75.3779 19.968C75.3337 20.6324 75.4641 21.2968 75.7564 21.8963C76.0487 22.4958 76.4929 23.0097 77.0456 23.388C77.5788 23.7142 78.1573 23.8942 78.8153 23.8942ZM87.3351 26.7405V13.1505H90.659L90.7725 14.9167C91.1902 14.2397 91.7827 13.6856 92.4887 13.3118C93.1948 12.9379 93.9887 12.758 94.7884 12.7905C95.7029 12.7748 96.6017 13.0268 97.3725 13.5151C98.1433 14.0033 98.7519 14.7061 99.122 15.5355C99.5191 16.3905 99.7346 17.448 99.7346 18.6292V26.7742H96.1157V19.1017C96.1157 18.1567 95.9002 17.4142 95.4691 16.863C95.038 16.323 94.4481 16.0305 93.6993 16.0305C93.1548 16.0305 92.6783 16.143 92.2586 16.3905C91.8615 16.6492 91.5325 16.9755 91.283 17.4367C91.0306 17.903 90.9055 18.4265 90.9199 18.9555V26.7405H87.3351ZM101.538 26.7405V7.57046H105.157V14.883C105.648 14.2268 106.285 13.693 107.02 13.3239C107.754 12.9548 108.565 12.7606 109.389 12.7567C110.244 12.7443 111.09 12.9229 111.866 13.2793C112.642 13.6357 113.327 14.1607 113.87 14.8155C115.085 16.2133 115.728 18.0111 115.674 19.8555C115.693 21.742 115.025 23.572 113.791 25.008C113.22 25.671 112.51 26.202 111.71 26.5635C110.911 26.9251 110.041 27.1083 109.162 27.1005C108.335 27.1229 107.516 26.9364 106.782 26.5586C106.047 26.1807 105.422 25.6239 104.964 24.9405L104.862 26.7067L101.538 26.7405ZM108.549 23.8942C109.207 23.8942 109.786 23.7142 110.319 23.388C110.83 23.028 111.227 22.5555 111.556 21.9817C111.839 21.408 111.987 20.7217 111.987 19.9567C112.031 19.2923 111.901 18.6278 111.608 18.0284C111.316 17.4289 110.872 16.9149 110.319 16.5367C109.788 16.2086 109.175 16.0347 108.549 16.0347C107.924 16.0347 107.311 16.2086 106.78 16.5367C106.28 16.8967 105.872 17.3692 105.554 17.943C105.238 18.57 105.089 19.2674 105.123 19.968C105.079 20.6324 105.209 21.2968 105.502 21.8963C105.794 22.4958 106.238 23.0097 106.791 23.388C107.324 23.7142 107.869 23.8942 108.549 23.8942Z" fill="white"/>
</g>
<defs>
<clipPath id="clip0_11182_72102">
<rect width="115.714" height="36" fill="white" transform="translate(0.356934)"/>
</clipPath>
</defs>
</svg>
