<svg width="80" height="25" viewBox="0 0 80 25" fill="none" xmlns="http://www.w3.org/2000/svg">
<g clip-path="url(#clip0_11187_74638)">
<path d="M59.4911 24.0422L66.1627 16.653L59.4911 9.2627H66.5304L69.8347 12.8524L73.0167 9.2627H79.8104L73.1704 16.6225L79.9015 24.0422H72.8333L69.5589 20.423L66.3154 24.0422H59.4911Z" fill="white"/>
<path d="M59.491 5.94989H51.9348V9.26291H59.491V14.2559H51.9348V18.8389H59.491V24.0425H46.3811V0.760742H59.491V5.94989Z" fill="white"/>
<path d="M40.8508 0.760742V10.2887H40.7899C39.5656 8.90154 38.0358 8.41948 36.2609 8.41948C32.625 8.41948 29.8863 10.8558 28.9249 14.077C27.8285 10.5277 25.001 8.35297 20.8083 8.35297C17.4035 8.35297 14.7148 9.85949 13.3117 12.3143V9.26326H6.27374V5.95057H13.9541V0.760742H0V24.0428H6.27374V14.2559H12.527C12.3405 14.9749 12.241 15.7446 12.241 16.5569C12.241 21.4134 16.0049 24.8211 20.8083 24.8211C24.8477 24.8211 27.5096 22.9518 28.9176 19.5438H23.5412C22.8139 20.5676 22.2623 20.8717 20.8083 20.8717C19.1224 20.8717 17.6689 19.4218 17.6689 17.703H28.6164C29.0911 21.5605 32.1395 24.8873 36.3228 24.8873C38.1273 24.8873 39.7795 24.0123 40.7899 22.5349H40.8508V24.0421H46.3812V0.760742H40.8508ZM17.8435 14.3255C18.1924 12.8468 19.3558 11.8803 20.8083 11.8803C22.4073 11.8803 23.5117 12.817 23.8021 14.3255C23.9245 14.3255 17.8435 14.3255 17.8435 14.3255ZM37.4946 20.4977C35.456 20.4977 34.1892 18.6253 34.1892 16.6703C34.1892 14.5806 35.2911 12.5711 37.4946 12.5711C39.7795 12.5711 40.6897 14.5806 40.6897 16.6703C40.6894 18.6521 39.7249 20.4977 37.4946 20.4977Z" fill="white"/>
</g>
<defs>
<clipPath id="clip0_11187_74638">
<rect width="80" height="24" fill="white" transform="translate(0 0.760742)"/>
</clipPath>
</defs>
</svg>
