<svg width="109" height="36" viewBox="0 0 109 36" fill="none" xmlns="http://www.w3.org/2000/svg">
<g clip-path="url(#clip0_11182_72115)">
<path d="M46.0309 18.4618C46.0309 23.4588 42.0643 27.141 37.1964 27.141C32.3284 27.141 28.3618 23.4588 28.3618 18.4618C28.3618 13.4297 32.3284 9.78271 37.1964 9.78271C42.0643 9.78271 46.0309 13.4297 46.0309 18.4618ZM42.1636 18.4618C42.1636 15.3392 39.8646 13.2027 37.1964 13.2027C34.5281 13.2027 32.2292 15.3392 32.2292 18.4618C32.2292 21.5531 34.5281 23.721 37.1964 23.721C39.8646 23.721 42.1636 21.5492 42.1636 18.4618Z" fill="white"/>
<path d="M65.0895 18.4618C65.0895 23.4588 61.1229 27.141 56.255 27.141C51.387 27.141 47.4204 23.4588 47.4204 18.4618C47.4204 13.4336 51.387 9.78271 56.255 9.78271C61.1229 9.78271 65.0895 13.4297 65.0895 18.4618ZM61.2222 18.4618C61.2222 15.3392 58.9232 13.2027 56.255 13.2027C53.5867 13.2027 51.2878 15.3392 51.2878 18.4618C51.2878 21.5531 53.5867 23.721 56.255 23.721C58.9232 23.721 61.2222 21.5492 61.2222 18.4618Z" fill="white"/>
<path d="M83.3541 10.3071V25.8888C83.3541 32.2984 79.5186 34.9162 74.9841 34.9162C70.7158 34.9162 68.1468 32.1027 67.178 29.8018L70.545 28.4205C71.1446 29.8331 72.6137 31.5001 74.9802 31.5001C77.8827 31.5001 79.6813 29.7353 79.6813 26.4131V25.1649H79.5464C78.6808 26.2175 77.0131 27.1371 74.9087 27.1371C70.5053 27.1371 66.4712 23.3571 66.4712 18.4931C66.4712 13.594 70.5053 9.78271 74.9087 9.78271C77.0091 9.78271 78.6768 10.7023 79.5464 11.7236H79.6813V10.311H83.3541V10.3071ZM79.9553 18.4931C79.9553 15.4371 77.8866 13.2027 75.2541 13.2027C72.5859 13.2027 70.3505 15.4371 70.3505 18.4931C70.3505 21.5179 72.5859 23.721 75.2541 23.721C77.8866 23.721 79.9553 21.5179 79.9553 18.4931Z" fill="white"/>
<path d="M89.4098 1.17383V26.6086H85.6377V1.17383H89.4098Z" fill="white"/>
<path d="M104.109 21.3184L107.111 23.2905C106.142 24.7032 103.807 27.1371 99.773 27.1371C94.77 27.1371 91.0337 23.3258 91.0337 18.4579C91.0337 13.2966 94.8018 9.77881 99.3402 9.77881C103.91 9.77881 106.146 13.3632 106.876 15.3001L107.277 16.2862L95.5046 21.0914C96.4059 22.8327 97.8075 23.721 99.773 23.721C101.742 23.721 103.108 22.7662 104.109 21.3184ZM94.8693 18.1958L102.739 14.9753C102.306 13.8914 101.004 13.1362 99.4712 13.1362C97.5058 13.1362 94.77 14.8462 94.8693 18.1958Z" fill="white"/>
<path d="M14.0836 16.2041V12.5219H26.6744C26.7974 13.1636 26.861 13.9228 26.861 14.7445C26.861 17.5071 26.0946 20.9232 23.6249 23.3571C21.2227 25.8223 18.1535 27.1371 14.0876 27.1371C6.55141 27.1371 0.214355 21.0876 0.214355 13.6606C0.214355 6.23365 6.55141 0.184082 14.0876 0.184082C18.2567 0.184082 21.2267 1.79626 23.4582 3.89756L20.8217 6.49582C19.2216 5.01669 17.0536 3.86626 14.0836 3.86626C8.58039 3.86626 4.27627 8.23712 4.27627 13.6606C4.27627 19.0841 8.58039 23.4549 14.0836 23.4549C17.6532 23.4549 19.6861 22.0423 20.9885 20.7589C22.0446 19.718 22.7395 18.231 23.0135 16.2002L14.0836 16.2041Z" fill="white"/>
</g>
<defs>
<clipPath id="clip0_11182_72115">
<rect width="108" height="36" fill="white" transform="translate(0.0712891)"/>
</clipPath>
</defs>
</svg>
