<svg width="109" height="36" viewBox="0 0 109 36" fill="none" xmlns="http://www.w3.org/2000/svg">
<g clip-path="url(#clip0_11182_72104)">
<path d="M11.7671 5.95898V16.1136H3.83646V5.95898H0.0712891V30.1991H3.83646V20.3742H11.7671V30.1991H15.5323V5.95898H11.7671Z" fill="white"/>
<path d="M27.582 22.3634C27.582 23.3348 27.2538 24.2665 26.6697 24.9534C26.0855 25.6404 25.2932 26.0263 24.4671 26.0263C23.641 26.0263 22.8487 25.6404 22.2646 24.9534C21.6804 24.2665 21.3522 23.3348 21.3522 22.3634V11.981H17.7808V22.3634C17.7808 24.4467 18.4845 26.4447 19.7373 27.9178C20.99 29.3909 22.689 30.2185 24.4607 30.2185C26.2323 30.2185 27.9313 29.3909 29.1841 27.9178C30.4368 26.4447 31.1406 24.4467 31.1406 22.3634V11.981H27.582V22.3634Z" fill="white"/>
<path d="M54.0436 13.0505C54.0436 10.9224 55.2409 10.2477 56.5525 10.2477C57.6096 10.2477 59.0061 11.1936 59.9192 12.3411L62.2584 9.10017C61.0907 7.24323 58.722 5.95898 56.7831 5.95898C52.9091 5.95898 50.1069 8.62726 50.1069 13.0505C50.1069 21.2571 58.6371 18.6539 58.6371 23.2464C58.6371 24.6629 57.4675 25.9146 56.1282 25.9146C54.016 25.9146 53.3316 24.6998 52.3612 23.4156L49.7656 26.5893C51.4259 28.9864 53.4736 30.2034 55.9271 30.2034C59.6075 30.2034 62.5683 27.5026 62.5683 23.2811C62.5683 14.1699 54.0381 17.0009 54.0381 13.0505" fill="white"/>
<path d="M106.815 26.3268C104.705 26.3268 104.105 25.253 104.105 23.6086V16.3305H107.385V12.6427H104.105V7.77686L100.484 9.68803V24.5132C100.484 28.3052 102.709 30.2164 105.76 30.2164C106.238 30.2266 106.717 30.1816 107.188 30.0819L108.071 26.2574C107.673 26.2899 107.215 26.3224 106.815 26.3224" fill="white"/>
<path d="M41.1762 12.1027C39.4071 12.1027 38.1729 12.7058 36.9793 14.0833V6.10449H33.4023V20.8928C33.4023 26.4289 36.8059 30.2209 40.6301 30.2209C44.8731 30.2209 48.6051 26.3617 48.6051 21.164C48.6051 16.0313 45.1701 12.1049 41.1762 12.1049V12.1027ZM41.1541 25.9886C40.3514 25.9886 39.5667 25.7086 38.8993 25.1842C38.2319 24.6598 37.7117 23.9145 37.4045 23.0424C37.0973 22.1703 37.017 21.2107 37.1736 20.285C37.3301 19.3592 37.7167 18.5088 38.2843 17.8413C38.8519 17.1739 39.575 16.7194 40.3623 16.5352C41.1496 16.3511 41.9656 16.4456 42.7072 16.8068C43.4488 17.168 44.0826 17.7797 44.5286 18.5646C44.9745 19.3494 45.2125 20.2721 45.2125 21.216C45.2125 22.4818 44.7849 23.6957 44.0238 24.5907C43.2627 25.4857 42.2304 25.9886 41.1541 25.9886Z" fill="white"/>
<path d="M80.0162 20.9427C80.0162 15.7363 76.2916 11.8857 72.0413 11.8857C68.2171 11.8857 64.8135 15.6777 64.8135 21.2138V36.0108H68.3905V28.0212C69.5822 29.3965 70.8182 30.0018 72.5855 30.0018C76.5794 30.0018 80.0143 26.0775 80.0143 20.9427H80.0162ZM76.6292 20.8906C76.6292 21.8345 76.3912 22.7573 75.9452 23.5421C75.4993 24.3269 74.8654 24.9386 74.1238 25.2999C73.3822 25.6611 72.5662 25.7556 71.7789 25.5714C70.9917 25.3873 70.2685 24.9327 69.7009 24.2653C69.1333 23.5978 68.7468 22.7475 68.5902 21.8217C68.4336 20.8959 68.514 19.9363 68.8212 19.0643C69.1283 18.1922 69.6485 17.4468 70.3159 16.9224C70.9834 16.398 71.768 16.1181 72.5707 16.1181C73.6471 16.1181 74.6794 16.6209 75.4405 17.5159C76.2016 18.411 76.6292 19.6249 76.6292 20.8906Z" fill="white"/>
<path d="M91.5716 11.682V7.4562C92.0465 7.19525 92.4486 6.78106 92.7311 6.26182C93.0136 5.74259 93.1649 5.13967 93.1673 4.52326V4.42564C93.1673 3.56263 92.8758 2.73497 92.3568 2.12472C91.8379 1.51448 91.1341 1.17165 90.4002 1.17165H90.3172C89.5833 1.17165 88.8794 1.51448 88.3605 2.12472C87.8415 2.73497 87.55 3.56263 87.55 4.42564V4.52326C87.5524 5.13967 87.7037 5.74259 87.9862 6.26182C88.2687 6.78106 88.6708 7.19525 89.1457 7.4562V11.682C87.7808 11.9276 86.4953 12.5929 85.4193 13.6106L75.5646 4.58401C75.6343 4.28634 75.6715 3.97944 75.6752 3.67072C75.6763 2.94553 75.4945 2.23625 75.1528 1.63259C74.811 1.02893 74.3247 0.558014 73.7554 0.279406C73.186 0.000797672 72.5592 -0.0729865 71.9541 0.0673862C71.3491 0.207759 70.7931 0.555982 70.3563 1.06801C69.9196 1.58004 69.6219 2.23287 69.5007 2.94392C69.3795 3.65498 69.4404 4.39232 69.6757 5.06268C69.9109 5.73304 70.3099 6.3063 70.8223 6.70995C71.3346 7.11361 71.9372 7.32952 72.5539 7.33038C73.0932 7.32754 73.6224 7.1585 74.0887 6.84011L83.7941 15.7192C82.922 17.268 82.467 19.0899 82.4884 20.9473C82.5098 22.8047 83.0066 24.6114 83.914 26.1319L80.9623 29.6029C80.7237 29.5132 80.475 29.4657 80.2244 29.4619C79.7182 29.4623 79.2234 29.6392 78.8026 29.9702C78.3818 30.3012 78.0539 30.7715 77.8603 31.3216C77.6667 31.8717 77.6162 32.477 77.715 33.0608C77.8139 33.6447 78.0577 34.181 78.4157 34.602C78.7737 35.023 79.2298 35.3097 79.7263 35.426C80.2228 35.5422 80.7375 35.4828 81.2053 35.2551C81.6731 35.0275 82.073 34.6419 82.3545 34.1471C82.636 33.6522 82.7865 33.0704 82.7868 32.4751C82.7837 32.1804 82.7432 31.888 82.6669 31.6073L85.5872 28.1733C86.5394 29.035 87.6467 29.629 88.8243 29.9097C90.0019 30.1905 91.2185 30.1506 92.3809 29.7931C93.5434 29.4357 94.6208 28.7701 95.5308 27.8473C96.4407 26.9246 97.159 25.7692 97.6306 24.4696C98.1022 23.17 98.3146 21.7608 98.2515 20.3498C98.1884 18.9388 97.8516 17.5635 97.2668 16.3292C96.682 15.095 95.8647 14.0345 94.8775 13.2289C93.8904 12.4234 92.7595 11.8943 91.5716 11.682ZM90.3614 25.5788C89.5626 25.5779 88.782 25.2986 88.1181 24.7761C87.4542 24.2537 86.937 23.5115 86.6317 22.6435C86.3265 21.7754 86.2469 20.8205 86.403 19.8992C86.5592 18.978 86.9441 18.1319 87.509 17.4678C88.074 16.8038 88.7937 16.3515 89.5772 16.1683C90.3606 15.9851 91.1727 16.0792 91.9107 16.4385C92.6488 16.7979 93.2797 17.4065 93.7236 18.1874C94.1676 18.9683 94.4048 19.8864 94.4052 20.8258C94.4052 22.0858 93.9795 23.2942 93.2219 24.1851C92.4642 25.0761 91.4366 25.5766 90.3651 25.5766" fill="white"/>
</g>
<defs>
<clipPath id="clip0_11182_72104">
<rect width="108" height="36" fill="white" transform="translate(0.0712891)"/>
</clipPath>
</defs>
</svg>
