<svg width="157" height="36" viewBox="0 0 157 36" fill="none" xmlns="http://www.w3.org/2000/svg">
<g clip-path="url(#clip0_11182_72122)">
<path d="M55.4389 20.735L54.504 23.5815H54.4261C54.2702 22.9396 53.9846 21.9629 53.5171 20.7908L48.505 7.25589H43.5967V28.828H46.8429V15.5164C46.8429 14.6791 46.8429 13.7303 46.8169 12.5582C46.791 11.9722 46.739 11.5257 46.713 11.1908H46.791C46.9468 12.028 47.1286 12.6419 47.2584 13.0326L53.2834 28.7722H55.5687L61.5418 12.8931C61.6716 12.5303 61.8015 11.8047 61.9313 11.1908H62.0092C61.9313 12.7815 61.8794 14.2047 61.8534 15.0698V28.7443H65.3074V7.20007H60.5809L55.4389 20.735ZM68.5795 13.2838H71.9556V28.7443H68.5795V13.2838ZM70.2936 6.75356C69.7222 6.75356 69.2548 6.97682 68.8652 7.36751C68.4757 7.75821 68.2679 8.26054 68.2679 8.87449C68.2679 9.46054 68.4757 9.96286 68.8652 10.3536C69.2548 10.7443 69.7222 10.9396 70.2936 10.9396C70.8649 10.9396 71.3583 10.7164 71.7219 10.3536C72.1114 9.96286 72.3192 9.46054 72.3192 8.87449C72.3192 8.28844 72.1114 7.78612 71.7219 7.36751C71.3843 6.97682 70.8909 6.75356 70.2936 6.75356ZM83.9277 13.1443C83.3044 13.0047 82.6551 12.921 82.0319 12.921C80.4997 12.921 79.0973 13.2838 77.9286 14.0094C76.76 14.735 75.8251 15.7396 75.2278 16.9954C74.6045 18.2791 74.2929 19.7582 74.2929 21.4605C74.2929 22.9396 74.6045 24.2512 75.2018 25.4512C75.7991 26.6233 76.6302 27.5722 77.7469 28.214C78.8116 28.8559 80.0582 29.1908 81.4605 29.1908C83.0707 29.1908 84.4471 28.828 85.5378 28.1582L85.5638 28.1303V24.7815L85.4339 24.8931C84.9405 25.2838 84.3691 25.6187 83.7978 25.814C83.2005 26.0373 82.6551 26.1489 82.1877 26.1489C80.8373 26.1489 79.7725 25.7303 79.0194 24.8094C78.2403 23.9164 77.8507 22.6884 77.8507 21.1536C77.8507 19.5629 78.2403 18.307 79.0454 17.3861C79.8504 16.4652 80.9152 15.9908 82.2137 15.9908C83.3044 15.9908 84.4211 16.3815 85.4339 17.1629L85.5638 17.2745V13.7303L85.5378 13.7024C85.0963 13.507 84.6029 13.2838 83.9277 13.1443ZM95.0687 13.0326C94.2376 13.0326 93.4585 13.3117 92.7833 13.8977C92.212 14.4001 91.8225 15.1257 91.4848 15.9908H91.4589V13.2838H88.0828V28.7443H91.4589V20.8466C91.4589 19.507 91.7186 18.3908 92.2899 17.5815C92.8612 16.7443 93.5884 16.3257 94.4714 16.3257C94.783 16.3257 95.0946 16.4094 95.4842 16.4652C95.8478 16.5768 96.1075 16.6884 96.2892 16.828L96.4191 16.9396V13.3117L96.3412 13.2838C96.1075 13.1164 95.64 13.0326 95.0687 13.0326ZM104.262 12.9489C101.899 12.9489 100.003 13.7024 98.6785 15.1815C97.328 16.6605 96.6788 18.6977 96.6788 21.2652C96.6788 23.6652 97.354 25.6187 98.6525 27.0419C99.951 28.4373 101.717 29.1629 103.924 29.1629C106.236 29.1629 108.079 28.4094 109.404 26.9024C110.754 25.3954 111.404 23.3861 111.404 20.9024C111.404 18.4466 110.78 16.4931 109.508 15.0698C108.287 13.6466 106.495 12.9489 104.262 12.9489ZM106.963 24.8373C106.34 25.7024 105.353 26.121 104.132 26.121C102.912 26.121 101.925 25.7024 101.223 24.7815C100.522 23.9164 100.185 22.6605 100.185 21.0698C100.185 19.4233 100.548 18.1675 101.223 17.2745C101.925 16.3815 102.886 15.935 104.106 15.935C105.301 15.935 106.236 16.3536 106.911 17.2187C107.586 18.0838 107.95 19.3396 107.95 20.9861C107.898 22.6605 107.612 23.9722 106.963 24.8373ZM118.935 19.7024C117.87 19.228 117.195 18.8652 116.883 18.5582C116.624 18.2791 116.494 17.8884 116.494 17.3861C116.494 16.9675 116.65 16.5489 117.039 16.2698C117.429 15.9908 117.87 15.8512 118.519 15.8512C119.091 15.8512 119.688 15.9629 120.259 16.1303C120.831 16.2977 121.35 16.5489 121.766 16.8838L121.895 16.9954V13.5908L121.817 13.5629C121.428 13.3954 120.909 13.228 120.285 13.0884C119.662 12.9768 119.091 12.921 118.623 12.921C117.013 12.921 115.689 13.3396 114.65 14.2605C113.611 15.1257 113.118 16.2977 113.118 17.6652C113.118 18.3908 113.222 19.0326 113.455 19.5629C113.689 20.0931 114.027 20.5954 114.494 21.014C114.961 21.4047 115.637 21.8512 116.572 22.2698C117.351 22.6326 117.948 22.9117 118.312 23.135C118.675 23.3582 118.909 23.6094 119.091 23.8047C119.221 24.028 119.298 24.3071 119.298 24.6698C119.298 25.7024 118.571 26.2047 117.091 26.2047C116.52 26.2047 115.922 26.0931 115.221 25.8419C114.52 25.5908 113.871 25.228 113.325 24.8094L113.196 24.6977V28.2419L113.273 28.2698C113.767 28.521 114.364 28.6884 115.091 28.8838C115.818 29.0233 116.468 29.135 117.039 29.135C118.779 29.135 120.207 28.7164 121.22 27.7954C122.259 26.9024 122.804 25.7582 122.804 24.2791C122.804 23.2466 122.545 22.3257 121.973 21.628C121.22 20.9582 120.285 20.2605 118.935 19.7024ZM131.712 12.9489C129.349 12.9489 127.453 13.7024 126.128 15.1815C124.804 16.6605 124.129 18.6977 124.129 21.2652C124.129 23.6652 124.804 25.6187 126.102 27.0419C127.401 28.4373 129.167 29.1629 131.374 29.1629C133.686 29.1629 135.53 28.4094 136.854 26.9024C138.204 25.3954 138.854 23.3861 138.854 20.9024C138.854 18.4466 138.23 16.4931 136.958 15.0698C135.737 13.6466 133.945 12.9489 131.712 12.9489ZM134.387 24.8373C133.764 25.7024 132.777 26.121 131.556 26.121C130.31 26.121 129.349 25.7024 128.648 24.7815C127.946 23.9164 127.609 22.6605 127.609 21.0698C127.609 19.4233 127.972 18.1675 128.648 17.2745C129.349 16.3815 130.31 15.935 131.53 15.935C132.699 15.935 133.66 16.3536 134.335 17.2187C135.01 18.0838 135.374 19.3396 135.374 20.9861C135.374 22.6605 135.036 23.9722 134.387 24.8373ZM156.903 16.2698V13.2838H153.501V8.70705L153.397 8.73496L150.176 9.76751L150.099 9.79542V13.2838H145.008V11.3303C145.008 10.4373 145.216 9.73961 145.58 9.2931C145.943 8.84658 146.489 8.62333 147.164 8.62333C147.631 8.62333 148.125 8.73496 148.67 8.98612L148.8 9.06984V5.91635L148.722 5.88844C148.255 5.721 147.631 5.60938 146.826 5.60938C145.813 5.60938 144.931 5.86054 144.125 6.27914C143.32 6.75356 142.723 7.39542 142.282 8.26054C141.84 9.09775 141.606 10.0466 141.606 11.135V13.2838H139.243V16.2419H141.606V28.7443H145.008V16.2698H150.099V24.2233C150.099 27.4884 151.527 29.135 154.384 29.135C154.851 29.135 155.344 29.0512 155.812 28.9675C156.305 28.8559 156.669 28.7164 156.877 28.6047L156.903 28.5768V25.5908L156.773 25.7024C156.565 25.8419 156.383 25.9536 156.072 26.0373C155.812 26.121 155.578 26.1489 155.396 26.1489C154.721 26.1489 154.254 25.9815 153.916 25.5629C153.604 25.1722 153.449 24.5303 153.449 23.5815V16.2698H156.903Z" fill="white"/>
<path d="M0.0712891 0H15.9907V17.107H0.0712891V0Z" fill="white"/>
<path d="M17.6528 0H33.5723V17.107H17.6528V0Z" fill="white"/>
<path d="M0.0712891 18.8931H15.9907V36H0.0712891V18.8931Z" fill="white"/>
<path d="M17.6528 18.8931H33.5723V36H17.6528V18.8931Z" fill="white"/>
</g>
<defs>
<clipPath id="clip0_11182_72122">
<rect width="156.857" height="36" fill="white" transform="translate(0.0712891)"/>
</clipPath>
</defs>
</svg>
