<svg width="144" height="36" viewBox="0 0 144 36" fill="none" xmlns="http://www.w3.org/2000/svg">
<g clip-path="url(#clip0_11182_72128)">
<path d="M51.7164 12.8048V14.845H51.7743C52.456 13.7527 53.5877 12.4663 56.0961 12.4663C58.0476 12.4663 59.5447 13.536 60.1863 15.1519H60.2442C60.7922 14.3349 61.4205 13.7166 62.1244 13.2787C62.9576 12.7597 63.8843 12.4618 65.0517 12.4618C67.6938 12.4618 70.0329 14.3124 70.0329 18.9796V27.831H66.0052V19.5979C66.0052 17.2328 65.2121 15.8651 63.5635 15.8651C62.3561 15.8651 61.4784 16.6866 61.1442 17.6977C61.0284 18.0452 60.9749 18.5192 60.9749 18.9164V27.8355H56.9471V19.2639C56.9471 17.2553 56.1852 15.8606 54.559 15.8606C53.258 15.8606 52.4426 16.8987 52.1085 17.7879C51.9659 18.1671 51.9213 18.6049 51.9213 19.0157V27.831H47.8891V12.8048H51.7164ZM90.8223 12.8048V15.6394H90.9336C91.6733 13.4728 93.4287 12.4663 94.9703 12.4663C95.3579 12.4663 95.5718 12.4979 95.8837 12.5611V16.497C95.5139 16.4429 95.1708 16.3887 94.6896 16.3887C92.9431 16.3887 91.7267 17.4178 91.4193 19.0292C91.3525 19.3632 91.3302 19.7243 91.3302 20.1396V27.8355H87.1955V12.8048H90.8223ZM101.498 7.82617V12.5565H104.991V16.3842H101.498V22.0308C101.498 23.8589 101.957 24.7436 103.32 24.7436C103.962 24.7436 104.434 24.6623 104.844 24.5585L104.897 27.7317C104.349 27.9393 103.182 28.165 101.997 28.165C100.602 28.165 99.4392 27.673 98.7308 26.9102C97.9199 26.039 97.5456 24.6127 97.5456 22.5815V7.82617H101.498ZM45.0822 27.831H41.0722V7.82617H45.0822V27.831ZM34.389 22.4641C34.389 22.7395 34.3667 23.0284 34.291 23.2766C33.9791 24.3193 32.9142 25.1995 31.5865 25.1995C30.4771 25.1995 29.5949 24.563 29.5949 23.2134C29.5949 21.1507 31.8404 20.5774 34.3934 20.591V22.4641H34.389ZM38.3945 18.8667C38.3945 15.4589 36.9598 12.4663 32.1078 12.4663C29.6171 12.4663 27.6389 13.1749 26.5607 13.8068L27.3493 16.5422C28.334 15.9102 29.9068 15.3912 31.3949 15.3912C33.8588 15.3866 34.2598 16.804 34.2598 17.7112V17.9279C28.8909 17.9188 25.5003 19.8011 25.5003 23.6377C25.5003 25.9803 27.2245 28.174 30.2275 28.174C32.0766 28.174 33.6182 27.4292 34.5449 26.2331H34.634C34.634 26.2331 35.2489 28.8285 38.6262 27.8355C38.4479 26.7522 38.39 25.6012 38.39 24.2155V18.8667H38.3945ZM5.35698 7.82617C5.77134 9.9431 6.94759 16.0908 6.94759 16.0908C7.44215 18.6185 7.89661 21.268 8.23969 23.3624H8.30206C8.63623 21.1371 9.16197 19.0292 9.72337 16.4203L11.7061 7.82617H16.0947L17.9482 16.6415C18.4339 19.0924 18.8215 20.9837 19.1289 23.2631H19.1868C19.521 20.9611 19.9576 18.9931 20.4344 16.4744L22.2166 7.82617H26.427L21.2096 27.831C17.8858 28.5667 16.6116 27.2126 16.1571 25.064C15.7026 22.911 14.8115 18.8171 14.8115 18.8171C14.3526 16.5738 13.9962 14.994 13.7467 12.692H13.6843C13.3279 14.9714 12.9536 16.5692 12.4011 18.8126L10.2135 27.8355C6.81839 28.5216 5.64213 27.506 4.99163 24.7481C4.43024 22.3874 0.928223 7.83069 0.928223 7.83069H5.35698V7.82617ZM80.5122 22.4641C80.5122 22.7395 80.49 23.0284 80.4142 23.2766C80.1023 24.3193 79.0375 25.1995 77.7097 25.1995C76.6003 25.1995 75.7181 24.563 75.7181 23.2134C75.7181 21.1507 77.9637 20.5774 80.5167 20.591V22.4641H80.5122ZM84.5177 18.8667C84.5177 15.4589 83.0831 12.4663 78.231 12.4663C75.7404 12.4663 73.7622 13.1749 72.6839 13.8068L73.4726 16.5422C74.4572 15.9102 76.03 15.3912 77.5182 15.3912C79.9776 15.3866 80.383 16.804 80.383 17.7112V17.9279C75.0186 17.9188 71.628 19.8011 71.628 23.6377C71.628 25.9803 73.3567 28.174 76.3553 28.174C78.1998 28.174 79.7459 27.4292 80.6682 26.2331H80.7617C80.7617 26.2331 81.3766 28.8285 84.7539 27.8355C84.5757 26.7522 84.5177 25.6012 84.5177 24.2155V18.8667Z" fill="white"/>
<path d="M121.246 20.9411C121.641 21.6716 121.614 22.487 121.192 22.8594L113.9 28.2844C113.14 28.751 112.003 28.1854 111.359 27.0024C110.711 25.8146 110.827 24.4902 111.586 24.0236L119.66 20.0361C120.166 19.8288 120.85 20.2105 121.246 20.9411ZM130.843 20.9411C131.243 20.2105 131.922 19.8335 132.428 20.0314L140.507 24.0189C141.266 24.4855 141.377 25.8099 140.733 26.9976C140.085 28.1807 138.944 28.7416 138.189 28.2797L130.896 22.8547C130.479 22.487 130.448 21.6669 130.843 20.9411ZM126.042 23.8822C126.837 23.8822 127.49 24.3158 127.579 24.8861L128.365 34.3032C128.365 35.2365 127.339 36 126.046 36C124.759 36 123.728 35.2365 123.728 34.3032L124.51 24.8861C124.599 24.3158 125.251 23.8822 126.042 23.8822ZM130.896 13.1453L138.189 7.71563C138.944 7.24902 140.085 7.8099 140.733 8.99764C141.377 10.1854 141.266 11.5098 140.507 11.9764L132.428 15.9686C131.922 16.1665 131.238 15.7895 130.843 15.0589C130.448 14.3284 130.479 13.513 130.896 13.1453ZM119.66 15.9686L111.586 11.9764C110.831 11.5098 110.715 10.1854 111.359 8.99764C112.003 7.8099 113.145 7.24902 113.9 7.71563L121.192 13.1453C121.614 13.5082 121.641 14.3284 121.246 15.0589C120.85 15.7895 120.166 16.1665 119.66 15.9686ZM124.51 11.1139L123.728 1.69678C123.728 0.763551 124.754 0 126.046 0C127.339 0 128.365 0.763551 128.365 1.69678L127.579 11.1139C127.49 11.6795 126.837 12.1178 126.042 12.1178C125.251 12.1178 124.599 11.6795 124.51 11.1139ZM142.705 28.2467V28.011H142.905C142.972 28.011 143.016 28.0581 143.016 28.1288C143.016 28.1948 142.972 28.2467 142.905 28.2467H142.705ZM142.541 28.6756C142.541 28.6991 142.559 28.7227 142.585 28.7227H142.67C142.692 28.7227 142.714 28.6991 142.714 28.6756V28.4069H142.852L142.963 28.6897C142.972 28.7086 142.985 28.7227 143.003 28.7227H143.105C143.136 28.7227 143.158 28.6897 143.145 28.6567C143.105 28.5719 143.065 28.4823 143.025 28.3928C143.092 28.3692 143.194 28.2985 143.194 28.1288C143.194 27.9497 143.056 27.846 142.918 27.846H142.585C142.563 27.846 142.541 27.8696 142.541 27.8932V28.6756ZM142.181 28.2844C142.181 27.9026 142.474 27.5915 142.834 27.5915C143.194 27.5915 143.487 27.8979 143.487 28.2844C143.487 28.6661 143.198 28.9772 142.834 28.9772C142.47 28.9772 142.181 28.6661 142.181 28.2844ZM142.026 28.2844C142.026 28.7557 142.386 29.1422 142.834 29.1422C143.278 29.1422 143.642 28.7557 143.642 28.2844C143.642 27.813 143.278 27.4265 142.834 27.4265C142.386 27.4265 142.026 27.813 142.026 28.2844Z" fill="white"/>
</g>
<defs>
<clipPath id="clip0_11182_72128">
<rect width="142.714" height="36" fill="white" transform="translate(0.928223)"/>
</clipPath>
</defs>
</svg>
