<svg width="36" height="36" viewBox="0 0 36 36" fill="none" xmlns="http://www.w3.org/2000/svg">
<g clip-path="url(#clip0_12542_4194)">
<path d="M27.6499 12.1597H24.5399C24.1799 12.1597 23.8299 11.9997 23.5899 11.7297L22.3299 10.3097C21.9599 9.89971 21.3399 9.86971 20.9299 10.2297C20.8999 10.2497 20.8799 10.2797 20.8499 10.3097L19.7699 11.5297C19.4199 11.9297 18.9099 12.1597 18.3799 12.1597H1.34993C0.859932 13.5697 0.549932 15.0297 0.429932 16.5097H16.4899C16.7699 16.5097 17.0399 16.3897 17.2299 16.1897L18.7299 14.6297C18.9199 14.4397 19.1799 14.3297 19.4399 14.3297H19.4999C19.7799 14.3297 20.0499 14.4497 20.2399 14.6597L21.4999 16.0797C21.7399 16.3497 22.0799 16.5097 22.4499 16.5097H35.5599C35.4399 15.0297 35.1299 13.5597 34.6399 12.1597H27.6399H27.6499Z" fill="white" fill-opacity="0.15"/>
<path d="M10.1499 25.6598C10.4299 25.6598 10.6999 25.5398 10.8899 25.3398L12.3799 23.7798C12.5699 23.5898 12.8299 23.4798 13.0899 23.4798H13.1499C13.4299 23.4798 13.6999 23.5998 13.8899 23.8098L15.1499 25.2298C15.3899 25.4998 15.7299 25.6598 16.0999 25.6598H33.8699C34.5499 24.2698 35.0399 22.7898 35.3199 21.2698H18.2599C17.8999 21.2698 17.5599 21.1098 17.3199 20.8498L16.0599 19.4298C15.8699 19.2198 15.5999 19.0898 15.3199 19.0898C15.0399 19.0898 14.7699 19.2098 14.5799 19.4298L13.4999 20.6498C13.1399 21.0498 12.6299 21.2798 12.0999 21.2798H0.669922C0.949922 22.7998 1.43992 24.2798 2.11992 25.6798H10.1499V25.6598Z" fill="white" fill-opacity="0.15"/>
<path d="M22.7499 7.39976C23.0299 7.39976 23.2999 7.27976 23.4999 7.07976L24.9899 5.51976C25.1799 5.31976 25.4299 5.20976 25.6999 5.20976H25.7599C26.0399 5.20976 26.3099 5.32976 26.4999 5.54976L27.7599 6.96976C27.9999 7.23976 28.3499 7.38976 28.7099 7.38976H32.0899C26.2499 -0.390243 15.1999 -1.96024 7.4099 3.87976C6.0799 4.87976 4.8999 6.05976 3.8999 7.38976H22.7499V7.39976Z" fill="white" fill-opacity="0.15"/>
<path d="M15.9699 30.0201H11.3499C10.9899 30.0201 10.6499 29.8601 10.4099 29.5901L9.14986 28.1701C8.77986 27.7601 8.14986 27.7301 7.73986 28.0901C7.70986 28.1101 7.68986 28.1401 7.65986 28.1701L6.56986 29.4101C6.21986 29.8101 5.70986 30.0401 5.17986 30.0401H5.10986C11.7499 37.1601 22.8999 37.5501 30.0199 30.9101C30.3199 30.6301 30.6099 30.3401 30.8899 30.0401L15.9599 30.0201H15.9699Z" fill="white" fill-opacity="0.15"/>
</g>
<defs>
<clipPath id="clip0_12542_4194">
<rect width="35.14" height="35.3" fill="white" transform="translate(0.429932 0.349609)"/>
</clipPath>
</defs>
</svg>
