<svg width="34" height="36" viewBox="0 0 34 36" fill="none" xmlns="http://www.w3.org/2000/svg">
<g clip-path="url(#clip0_12542_4212)">
<path d="M29.7299 9.05961C29.7299 9.05961 29.7299 9.06961 29.7299 9.07961C30.4399 9.26961 31.0099 9.20961 31.4599 9.02961C31.4999 8.99961 31.5399 8.96961 31.5899 8.93961C31.1199 9.17961 30.5099 9.24961 29.7399 9.05961H29.7299ZM28.3099 10.7096C27.0499 9.01961 25.4599 7.59961 23.6399 6.53961C23.1999 6.28961 22.7499 6.04961 22.2799 5.84961C22.2699 5.84961 22.2599 5.85961 22.2599 5.85961C22.7299 6.06961 23.1899 6.30961 23.6399 6.57961C25.4699 7.63961 27.0699 9.07961 28.3299 10.7896C28.3299 10.7896 28.3399 10.7596 28.3399 10.7496C28.3299 10.7396 28.3199 10.7196 28.3099 10.7096ZM22.1899 6.75961C24.9299 8.14961 27.1999 10.3396 28.7299 13.0496V12.9596C27.2599 10.2496 24.9599 8.06961 22.1899 6.75961Z" fill="white" fill-opacity="0.15"/>
<path d="M28.34 10.7496C28.34 10.7496 28.33 10.7796 28.33 10.7896C27.07 9.07961 25.47 7.63961 23.64 6.57961C23.19 6.30961 22.73 6.06961 22.26 5.85961C22.26 5.85961 22.27 5.84961 22.28 5.84961C22.75 6.04961 23.2 6.28961 23.64 6.53961C25.46 7.59961 27.05 9.01961 28.31 10.7096C28.32 10.7096 28.33 10.7396 28.34 10.7496Z" fill="url(#paint0_radial_12542_4212)"/>
<path opacity="0.6" d="M23.64 6.53961V6.57961C23.19 6.30961 22.73 6.06961 22.26 5.85961C22.26 5.85961 22.27 5.84961 22.28 5.84961C22.75 6.04961 23.2 6.28961 23.64 6.53961Z" fill="#A98698"/>
<path opacity="0.6" d="M31.58 8.94043C31.58 8.94043 31.49 9.00043 31.45 9.03043C31 9.21043 30.43 9.27043 29.72 9.08043C29.72 9.07043 29.72 9.07043 29.72 9.06043C30.49 9.25043 31.1 9.18043 31.57 8.94043H31.58Z" fill="#A98698"/>
<path d="M28.31 10.7096C27.05 9.01961 25.46 7.59961 23.64 6.53961C23.2 6.28961 22.75 6.04961 22.28 5.84961C22.27 5.84961 22.26 5.85961 22.26 5.85961C22.73 6.06961 23.19 6.30961 23.64 6.57961C25.47 7.63961 27.07 9.07961 28.33 10.7896C28.33 10.7896 28.34 10.7596 28.34 10.7496C28.33 10.7396 28.32 10.7196 28.31 10.7096Z" fill="white" fill-opacity="0.15"/>
<path d="M33.4 6.36H33.38C33.01 4.95 31.84 3.54 29.72 1.97C28.02 0.72 26.22 0 24.78 0C24.49 0 24.23 0.03 23.97 0.08C23.32 0.21 22.74 0.69 22.37 1.41C21.93 2.26 21.82 3.41 22.11 4.1C22.21 4.31 22.35 4.58 22.5 4.82C22.05 5.09 21.67 5.3 21.35 5.46C19.68 4.82 17.87 4.48 15.99 4.48C7.44001 4.47 0.51001 11.53 0.51001 20.24C0.51001 28.95 7.44001 36 15.99 36C24.54 36 31.47 28.94 31.47 20.24C31.47 17.06 30.54 14.1 28.94 11.63C29.06 11.05 29.25 10.43 29.47 9.8C29.84 9.91 30.2 9.96 30.57 9.96C31.54 9.96 32.37 9.56 32.9 8.84C33.42 8.12 33.63 7.16 33.4 6.36ZM30.61 20.23C30.61 28.45 24.05 35.11 15.99 35.11C7.91001 35.12 1.37001 28.46 1.37001 20.24C1.37001 12.02 7.91001 5.35 15.99 5.35C17.96 5.35 19.83 5.75 21.55 6.46C21.76 6.55 21.98 6.65 22.19 6.76C24.96 8.07 27.26 10.25 28.74 12.96C29.93 15.11 30.61 17.59 30.61 20.23ZM28.31 10.71C28.31 10.71 28.33 10.74 28.34 10.75C28.34 10.76 28.33 10.78 28.33 10.79C27.07 9.08 25.47 7.64 23.64 6.58C23.19 6.31 22.73 6.07 22.26 5.86C22.26 5.86 22.27 5.85 22.28 5.85C22.29 5.85 22.31 5.83 22.33 5.82C22.34 5.82 22.35 5.83 22.36 5.83C23.2 5.38 24.39 4.62 25.77 3.5C26.17 3.67 26.67 3.93 27.26 4.3C27.42 4.41 27.6 4.52 27.78 4.64C28.77 5.31 29.64 6.05 30.19 6.64C29.27 7.86 28.67 9.54 28.31 10.71ZM24.07 3.84C24.04 3.65 24.07 3.47 24.23 3.33C24.31 3.25 24.52 3.2 24.85 3.25C24.59 3.46 24.33 3.65 24.07 3.84ZM30.67 7.3H30.68C30.76 7.43 30.78 7.57 30.78 7.65C30.78 7.89 30.7 7.97 30.65 8.02C30.55 8.1 30.34 8.15 30.15 8.15C30.31 7.83 30.49 7.56 30.67 7.3ZM31.59 8.93L31.58 8.94C31.53 8.97 31.49 9 31.45 9.03C31 9.21 30.43 9.27 29.72 9.08C29.72 9.07 29.72 9.07 29.72 9.06C29.75 9 29.77 8.93 29.8 8.87C29.9 8.9 30.04 8.9 30.17 8.9C30.48 8.9 30.85 8.85 31.14 8.61C31.35 8.45 31.58 8.16 31.56 7.62C31.56 7.11 31.17 6.48 30.36 5.7C29.78 5.14 29 4.53 28.22 3.97C25.97 2.45 24.4 2.03 23.7 2.75C23.23 3.23 23.28 3.82 23.44 4.24C23.35 4.3 23.26 4.36 23.17 4.42C23 4.18 22.87 3.97 22.8 3.81C22.49 3.06 22.85 1.12 24.11 0.85C24.3 0.81 24.51 0.79 24.74 0.79C24.89 0.79 25.05 0.8 25.22 0.82C25.37 0.83 25.52 0.86 25.67 0.89C25.79 0.91 25.92 0.94 26.06 0.98C26.18 1.01 26.31 1.05 26.44 1.1C26.46 1.1 26.48 1.11 26.5 1.12H26.52C27.38 1.42 28.33 1.91 29.26 2.61C31.19 4.05 32.29 5.33 32.63 6.58C32.84 7.39 32.5 8.47 31.58 8.93H31.59Z" fill="white" fill-opacity="0.15"/>
<path d="M2.08008 20.0996V20.2296C2.08008 20.2996 2.08008 20.3796 2.09008 20.4496C2.27008 28.0996 8.44008 34.2396 15.9901 34.2396C23.5401 34.2396 29.8701 27.8996 29.8701 20.0996H2.08008ZM15.1801 31.1196C14.7701 31.1196 14.4601 30.7896 14.4601 30.3796C14.4601 29.9696 14.7801 29.6396 15.1801 29.6396C15.5801 29.6396 15.9001 29.9796 15.9001 30.3796C15.9001 30.7796 15.5701 31.1196 15.1801 31.1196ZM17.0801 32.4496C16.7901 32.4496 16.5401 32.2096 16.5401 31.9096C16.5401 31.6096 16.7801 31.3596 17.0801 31.3596C17.3801 31.3596 17.6101 31.5996 17.6101 31.9096C17.6101 32.2196 17.3801 32.4496 17.0801 32.4496ZM18.9401 30.7496C18.5301 30.7496 18.2101 30.4196 18.2201 30.0196C18.2201 29.5996 18.5401 29.2796 18.9401 29.2796C19.3401 29.2796 19.6601 29.6096 19.6601 30.0196C19.6601 30.4296 19.3301 30.7496 18.9401 30.7496ZM20.4101 32.0596C20.1001 32.0596 19.8601 31.8196 19.8701 31.5096C19.8701 31.2096 20.1001 30.9696 20.4101 30.9696C20.7001 30.9696 20.9401 31.2096 20.9401 31.5096C20.9401 31.8096 20.7101 32.0596 20.4101 32.0596ZM22.6901 27.8896C22.0401 27.8896 21.5101 27.3596 21.5101 26.6896C21.5101 26.0196 22.0301 25.4896 22.6901 25.4896C23.3501 25.4896 23.8701 26.0196 23.8701 26.6896C23.8701 27.3596 23.3501 27.8896 22.6901 27.8896Z" fill="white" fill-opacity="0.15"/>
<path d="M29.8501 20.24C29.8501 18.62 27.0801 17.68 23.3901 17.36C20.7201 17.15 18.0301 17.41 14.9401 18.37C12.2701 19.17 9.87008 19.04 8.12008 18.82C4.22008 18.37 2.08008 18.31 2.08008 20.23C2.08008 23 7.62008 26.46 15.9401 25.26C20.1501 24.65 22.3201 23.4 24.8001 22.54C27.4901 21.63 29.8501 21.66 29.8501 20.22V20.24Z" fill="white" fill-opacity="0.15"/>
<path d="M20.2599 13.5999C21.5399 13.5999 22.5799 12.5499 22.5799 11.2399C22.5799 9.92988 21.5399 8.87988 20.2599 8.87988C18.9799 8.87988 17.9399 9.92988 17.9399 11.2399C17.9399 12.5499 18.9699 13.5999 20.2599 13.5999Z" fill="white" fill-opacity="0.15"/>
<path d="M24.0401 15.3501C24.5801 15.3501 25.0201 14.9101 25.0201 14.3601C25.0201 13.8101 24.5901 13.3701 24.0401 13.3701C23.4901 13.3701 23.0601 13.8101 23.0601 14.3601C23.0601 14.9101 23.5001 15.3501 24.0401 15.3501Z" fill="white" fill-opacity="0.15"/>
</g>
<defs>
<radialGradient id="paint0_radial_12542_4212" cx="0" cy="0" r="1" gradientUnits="userSpaceOnUse" gradientTransform="translate(28.04 7.83961) scale(5.87)">
<stop stop-color="#FFEAFF" stop-opacity="0.6"/>
<stop offset="0.68" stop-color="#A087C9"/>
<stop offset="1" stop-color="#10002F"/>
</radialGradient>
<clipPath id="clip0_12542_4212">
<rect width="32.98" height="36" fill="white" transform="translate(0.51001)"/>
</clipPath>
</defs>
</svg>
