<svg width="36" height="36" viewBox="0 0 36 36" fill="none" xmlns="http://www.w3.org/2000/svg">
<g clip-path="url(#clip0_12542_4251)">
<path d="M21.4201 21.76C20.8101 24.22 16.6801 22.89 15.3501 22.56L16.4301 18.21C17.7701 18.54 22.0601 19.21 21.4201 21.76Z" fill="white" fill-opacity="0.15"/>
<path d="M22.0402 15.4003C21.4802 17.6303 18.0402 16.5003 16.9302 16.2203L17.9102 12.2803C19.0202 12.5503 22.6202 13.0703 22.0402 15.4003Z" fill="white" fill-opacity="0.15"/>
<path d="M22.3501 0.539884C12.7101 -1.87012 2.94006 3.99988 0.540063 13.6499C-1.85994 23.2899 4.00006 33.0599 13.6401 35.4599C23.2901 37.8699 33.0601 31.9999 35.4601 22.3499C37.8601 12.7099 32.0001 2.93988 22.3501 0.539884ZM25.9401 15.4399C25.6801 17.1899 24.7101 18.0399 23.4201 18.3399C25.1901 19.2599 26.0901 20.6699 25.2301 23.1299C24.1601 26.1699 21.6301 26.4299 18.2601 25.7899L17.4501 29.0699L15.4701 28.5799L16.2801 25.3399C15.7701 25.2199 15.2401 25.0799 14.7001 24.9399L13.8901 28.1799L11.9201 27.6899L12.7401 24.4099C12.2801 24.2899 11.8101 24.1599 11.3301 24.0399L8.76006 23.3999L9.74006 21.1399C9.74006 21.1399 11.0901 21.4999 11.1801 21.4999C11.7401 21.6399 11.9801 21.2799 12.0801 21.0299L13.3701 15.8499C13.4501 15.8699 13.5201 15.8899 13.5801 15.9099C13.5001 15.8699 13.4301 15.8499 13.3801 15.8399L14.3001 12.1399C14.3201 11.7199 14.1801 11.1899 13.3801 10.9899C13.3801 10.9599 11.9401 10.6399 11.9401 10.6399L12.4701 8.52988L15.1901 9.20988C15.6001 9.31988 16.0201 9.41988 16.4501 9.50988L17.2601 6.26988L19.2301 6.75988L18.4401 9.93988C18.9701 10.0599 19.5001 10.1899 20.0201 10.3199L20.8101 7.15988L22.7901 7.64988L21.9801 10.8899C24.4701 11.7499 26.3001 13.0399 25.9401 15.4399Z" fill="white" fill-opacity="0.15"/>
</g>
<defs>
<clipPath id="clip0_12542_4251">
<rect width="36" height="36" fill="white"/>
</clipPath>
</defs>
</svg>
