<svg width="38" height="34" viewBox="0 0 38 34" fill="none" xmlns="http://www.w3.org/2000/svg">
<g clip-path="url(#clip0_12542_4264)">
<path d="M26.245 30.6045C26.685 30.6045 27.055 30.8545 27.055 31.1645C27.055 31.4745 26.685 31.7245 26.245 31.7245H14.435C13.995 31.7245 13.625 31.4745 13.625 31.1645C13.625 30.8545 13.995 30.6045 14.435 30.6045H26.245Z" fill="white" fill-opacity="0.15"/>
<path d="M11.885 31.7352C12.3323 31.7352 12.695 31.3726 12.695 30.9252C12.695 30.4779 12.3323 30.1152 11.885 30.1152C11.4376 30.1152 11.075 30.4779 11.075 30.9252C11.075 31.3726 11.4376 31.7352 11.885 31.7352Z" fill="white" fill-opacity="0.15"/>
<path d="M18.965 28.745C19.4124 28.745 19.775 28.3824 19.775 27.935C19.775 27.4876 19.4124 27.125 18.965 27.125C18.5177 27.125 18.155 27.4876 18.155 27.935C18.155 28.3824 18.5177 28.745 18.965 28.745Z" fill="white" fill-opacity="0.15"/>
<path d="M32.8351 27.125C33.2751 27.125 33.6451 27.495 33.6451 27.935C33.6451 28.375 33.2751 28.745 32.8351 28.745H21.2751C20.8351 28.745 20.4651 28.375 20.4651 27.935C20.4651 27.495 20.8351 27.125 21.2751 27.125H32.8351Z" fill="white" fill-opacity="0.15"/>
<path d="M3.79511 25.7645C4.24246 25.7645 4.60511 25.4019 4.60511 24.9545C4.60511 24.5072 4.24246 24.1445 3.79511 24.1445C3.34776 24.1445 2.98511 24.5072 2.98511 24.9545C2.98511 25.4019 3.34776 25.7645 3.79511 25.7645Z" fill="white" fill-opacity="0.15"/>
<path d="M15.3051 24.1445C15.7451 24.1445 16.1151 24.5145 16.1151 24.9545C16.1151 25.3945 15.7451 25.7645 15.3051 25.7645H5.7851C5.3451 25.7645 4.9751 25.3945 4.9751 24.9545C4.9751 24.5145 5.3451 24.1445 5.7851 24.1445H15.2951H15.3051Z" fill="white" fill-opacity="0.15"/>
<path d="M36.625 24.1445C37.065 24.1445 37.435 24.5145 37.435 24.9545C37.435 25.3945 37.065 25.7645 36.625 25.7645H17.725C17.285 25.7645 16.915 25.3945 16.915 24.9545C16.915 24.5145 17.285 24.1445 17.725 24.1445H36.625Z" fill="white" fill-opacity="0.15"/>
<path d="M33.085 21.1553C33.525 21.1553 33.895 21.5253 33.895 21.9653C33.895 22.4053 33.525 22.7753 33.085 22.7753H9.89496C9.45496 22.7753 9.08496 22.4053 9.08496 21.9653C9.08496 21.5253 9.45496 21.1553 9.89496 21.1553H33.085Z" fill="white" fill-opacity="0.15"/>
<path d="M7.34516 22.7753C7.79251 22.7753 8.15516 22.4126 8.15516 21.9653C8.15516 21.5179 7.79251 21.1553 7.34516 21.1553C6.89781 21.1553 6.53516 21.5179 6.53516 21.9653C6.53516 22.4126 6.89781 22.7753 7.34516 22.7753Z" fill="white" fill-opacity="0.15"/>
<path d="M28.2351 18.2354C28.6751 18.2354 29.0451 18.6054 29.0451 19.0454C29.0451 19.4854 28.6751 19.8554 28.2351 19.8554H5.04511C4.60511 19.8554 4.23511 19.4854 4.23511 19.0454C4.23511 18.6054 4.60511 18.2354 5.04511 18.2354H28.2351Z" fill="white" fill-opacity="0.15"/>
<path d="M2.24506 19.8554C2.69241 19.8554 3.05506 19.4927 3.05506 19.0454C3.05506 18.598 2.69241 18.2354 2.24506 18.2354C1.79771 18.2354 1.43506 18.598 1.43506 19.0454C1.43506 19.4927 1.79771 19.8554 2.24506 19.8554Z" fill="white" fill-opacity="0.15"/>
<path d="M7.34516 16.8749C7.79251 16.8749 8.15516 16.5122 8.15516 16.0649C8.15516 15.6175 7.79251 15.2549 7.34516 15.2549C6.89781 15.2549 6.53516 15.6175 6.53516 16.0649C6.53516 16.5122 6.89781 16.8749 7.34516 16.8749Z" fill="white" fill-opacity="0.15"/>
<path d="M35.3251 15.2549C35.7651 15.2549 36.1351 15.6249 36.1351 16.0649C36.1351 16.5049 35.7651 16.8749 35.3251 16.8749H10.0751C9.63514 16.8749 9.26514 16.5049 9.26514 16.0649C9.26514 15.6249 9.63514 15.2549 10.0751 15.2549H35.3151H35.3251Z" fill="white" fill-opacity="0.15"/>
<path d="M33.2949 13.205H11.5049C11.5049 6.92496 16.3749 1.83496 22.3949 1.83496C28.4149 1.83496 33.2849 6.93496 33.2849 13.205H33.2949Z" fill="white" fill-opacity="0.15"/>
</g>
<defs>
<clipPath id="clip0_12542_4264">
<rect width="36.87" height="33.61" fill="white" transform="translate(0.564941 0.195312)"/>
</clipPath>
</defs>
</svg>
