<svg width="36" height="34" viewBox="0 0 36 34" fill="none" xmlns="http://www.w3.org/2000/svg">
<g clip-path="url(#clip0_12542_4287)">
<path d="M10.0301 16.88C9.95008 18.19 10.9601 19.31 12.2701 19.38H12.4101C13.7301 19.38 14.7901 18.32 14.7801 17C14.7801 15.68 13.7201 14.62 12.4001 14.63C11.1401 14.63 10.0901 15.62 10.0301 16.88Z" fill="white" fill-opacity="0.15"/>
<path d="M1.16001 16.2704C0.74001 16.2404 0.37001 16.5704 0.35001 16.9904C0.33001 17.4104 0.65001 17.7805 1.07001 17.8005C1.49001 17.8305 1.85001 17.5004 1.88001 17.0804C1.91001 16.6604 1.58001 16.3004 1.16001 16.2704Z" fill="white" fill-opacity="0.15"/>
<path d="M9.88002 3.08038C10.26 2.89038 10.41 2.42038 10.22 2.04038C10.03 1.66038 9.56002 1.51038 9.18002 1.70038C8.80002 1.89038 8.65002 2.35038 8.84002 2.73038C9.03002 3.12038 9.49002 3.28038 9.88002 3.08038Z" fill="white" fill-opacity="0.15"/>
<path d="M12.2901 7.29009C12.8701 7.00009 13.1101 6.28009 12.8201 5.70009C12.5301 5.12009 11.8101 4.88009 11.2301 5.17009C10.6501 5.46009 10.4101 6.18009 10.7001 6.76009C10.9901 7.34009 11.7101 7.58009 12.2901 7.29009Z" fill="white" fill-opacity="0.15"/>
<path d="M4.17002 10.1804C4.62002 10.4704 5.22002 10.3504 5.53002 9.90039C5.82002 9.45039 5.70002 8.85039 5.25002 8.54039C4.80002 8.25039 4.20002 8.37039 3.89002 8.82039C3.59002 9.27039 3.72002 9.88039 4.17002 10.1804Z" fill="white" fill-opacity="0.15"/>
<path d="M5.60991 15.8401C4.94991 15.8001 4.39991 16.3001 4.35991 16.9601C4.31991 17.6201 4.81991 18.1701 5.47991 18.2101C6.13991 18.2501 6.68991 17.7501 6.72991 17.0901C6.76991 16.4401 6.26991 15.8801 5.60991 15.8401Z" fill="white" fill-opacity="0.15"/>
<path d="M4.30009 23.82C3.82009 24.06 3.62009 24.65 3.87009 25.14C4.11009 25.62 4.70009 25.82 5.19009 25.57C5.67009 25.33 5.87009 24.74 5.62009 24.25C5.38009 23.77 4.78009 23.57 4.30009 23.82Z" fill="white" fill-opacity="0.15"/>
<path d="M8.92012 13.3899C9.57012 13.8099 10.4401 13.6299 10.8501 12.9899C11.2701 12.3399 11.0901 11.4699 10.4501 11.0599C9.80012 10.6399 8.93012 10.8199 8.52012 11.4599C8.10012 12.0999 8.28012 12.9699 8.92012 13.3899Z" fill="white" fill-opacity="0.15"/>
<path d="M23.55 7.20037C24.1 7.56037 24.84 7.41037 25.2 6.86037C25.56 6.31037 25.41 5.57037 24.86 5.21037C24.31 4.85037 23.57 5.00037 23.21 5.55037C22.84 6.11037 22.99 6.84037 23.55 7.20037Z" fill="white" fill-opacity="0.15"/>
<path d="M25.98 3.00955C26.34 3.24955 26.81 3.13955 27.04 2.77955C27.27 2.41955 27.17 1.94955 26.81 1.71955C26.45 1.48955 25.98 1.58955 25.75 1.93955C25.52 2.29955 25.63 2.77955 25.98 3.00955Z" fill="white" fill-opacity="0.15"/>
<path d="M23.73 14.6099C22.42 14.5299 21.29 15.5399 21.23 16.8499C21.15 18.1599 22.16 19.2899 23.47 19.3499H23.6C24.91 19.3499 25.97 18.2899 25.97 16.9699C25.97 15.7199 24.99 14.6699 23.73 14.6099Z" fill="white" fill-opacity="0.15"/>
<path d="M13.07 13.2204C13.47 14.0204 14.29 14.5304 15.2 14.5304C16.51 14.5304 17.57 13.4704 17.57 12.1504C17.57 11.7804 17.49 11.4204 17.32 11.0804C16.73 9.90042 15.3 9.43042 14.13 10.0304C12.95 10.6304 12.48 12.0604 13.08 13.2304L13.07 13.2204Z" fill="white" fill-opacity="0.15"/>
<path d="M31.6901 10.1803C32.1701 9.94033 32.3601 9.34033 32.1101 8.86033C31.8601 8.38033 31.2701 8.19033 30.7901 8.44033C30.3101 8.69033 30.1201 9.27033 30.3601 9.75033C30.6101 10.2303 31.2001 10.4303 31.6901 10.1803Z" fill="white" fill-opacity="0.15"/>
<path d="M25.6701 10.9299C24.9801 11.2799 24.7001 12.1199 25.0501 12.7999C25.4001 13.4899 26.2401 13.7699 26.9201 13.4199C27.6001 13.0699 27.8901 12.2299 27.5401 11.5499C27.1901 10.8699 26.3501 10.5899 25.6701 10.9299Z" fill="white" fill-opacity="0.15"/>
<path d="M17.9 2.65002C18.44 2.68002 18.9 2.26002 18.94 1.73002C18.98 1.20002 18.55 0.730024 18.02 0.690024C17.48 0.660024 17.02 1.07002 16.98 1.60002C16.95 2.15002 17.37 2.61002 17.9 2.64002V2.65002Z" fill="white" fill-opacity="0.15"/>
<path d="M17.89 8.79975C18.66 8.84975 19.32 8.24975 19.36 7.47975C19.41 6.70975 18.81 6.04975 18.04 6.00975C17.27 5.95975 16.61 6.55975 16.57 7.32975C16.53 8.09975 17.12 8.75975 17.89 8.79975Z" fill="white" fill-opacity="0.15"/>
<path d="M10.3299 23.0599C11.0199 22.7099 11.2999 21.8699 10.9499 21.1899C10.5999 20.4999 9.75992 20.2199 9.07992 20.5699C8.39992 20.9199 8.10992 21.7599 8.45992 22.4399C8.80992 23.1299 9.64992 23.4099 10.3299 23.0599Z" fill="white" fill-opacity="0.15"/>
<path d="M18.8 10.8398C18.08 11.9398 18.39 13.4098 19.49 14.1198C20.59 14.8298 22.06 14.5298 22.77 13.4298C23.48 12.3298 23.18 10.8598 22.08 10.1498C21.69 9.89977 21.24 9.75977 20.78 9.75977C19.98 9.75977 19.24 10.1598 18.79 10.8298L18.8 10.8398Z" fill="white" fill-opacity="0.15"/>
<path d="M22.9301 20.7796C22.3401 19.5996 20.9101 19.1296 19.7401 19.7296C18.5601 20.3196 18.0901 21.7496 18.6901 22.9196C19.2801 24.0996 20.7101 24.5696 21.8801 23.9696C23.0501 23.3896 23.5301 21.9696 22.9401 20.7996C22.9401 20.7996 22.9401 20.793 22.9401 20.7796H22.9301Z" fill="white" fill-opacity="0.15"/>
<path d="M27.08 20.6097C26.43 20.1897 25.56 20.3697 25.15 21.0097C24.73 21.6597 24.91 22.5297 25.55 22.9397C26.2 23.3597 27.07 23.1797 27.48 22.5397C27.9 21.8997 27.72 21.0297 27.08 20.6097Z" fill="white" fill-opacity="0.15"/>
<path d="M31.6401 17.0403C31.6801 16.3803 31.1801 15.8303 30.5201 15.7903C29.8601 15.7503 29.3101 16.2503 29.2701 16.9103C29.2301 17.5703 29.7301 18.1203 30.3901 18.1603C31.0401 18.2003 31.6001 17.6903 31.6401 17.0403Z" fill="white" fill-opacity="0.15"/>
<path d="M34.92 16.1904C34.5 16.1604 34.13 16.4904 34.11 16.9104C34.09 17.3304 34.41 17.7004 34.83 17.7204C35.25 17.7504 35.61 17.4204 35.64 17.0004C35.66 16.5804 35.34 16.2204 34.92 16.1904Z" fill="white" fill-opacity="0.15"/>
<path d="M31.8201 23.8197C31.3701 23.5297 30.7701 23.6497 30.4601 24.0997C30.1701 24.5497 30.2901 25.1497 30.7401 25.4597C31.1901 25.7497 31.7901 25.6297 32.1001 25.1797C32.4001 24.7297 32.2701 24.1197 31.8201 23.8197Z" fill="white" fill-opacity="0.15"/>
<path d="M10.01 30.9896C9.65004 30.7496 9.18004 30.8596 8.95004 31.2096C8.71004 31.5696 8.82004 32.0396 9.17004 32.2696C9.53004 32.5096 10 32.3996 10.23 32.0496C10.47 31.6996 10.37 31.2196 10.01 30.9896Z" fill="white" fill-opacity="0.15"/>
<path d="M26.12 30.9096C25.74 31.0996 25.59 31.5696 25.78 31.9496C25.97 32.3296 26.44 32.4796 26.82 32.2896C27.2 32.0996 27.35 31.6396 27.16 31.2596C26.97 30.8696 26.51 30.7096 26.12 30.9096Z" fill="white" fill-opacity="0.15"/>
<path d="M17.1999 23.1598C17.9199 22.0598 17.6099 20.5899 16.5099 19.8699C15.4099 19.1499 13.9399 19.4599 13.2199 20.5599C12.4999 21.6599 12.8099 23.1299 13.9099 23.8499C14.2999 24.0999 14.7499 24.2398 15.2099 24.2398C16.0199 24.2398 16.7599 23.8398 17.2099 23.1698L17.1999 23.1598Z" fill="white" fill-opacity="0.15"/>
<path d="M12.45 26.8002C11.9 26.4402 11.16 26.5902 10.8 27.1402C10.44 27.6902 10.59 28.4302 11.14 28.7902C11.69 29.1502 12.43 29.0002 12.79 28.4502C13.16 27.9002 13.01 27.1602 12.45 26.8002Z" fill="white" fill-opacity="0.15"/>
<path d="M17.9901 31.3501C17.4501 31.3201 16.9901 31.7401 16.9501 32.2701C16.9101 32.8001 17.3401 33.2701 17.8701 33.3101C18.4101 33.3401 18.8701 32.9301 18.9101 32.4001C18.9401 31.8501 18.5201 31.3901 17.9901 31.3601V31.3501Z" fill="white" fill-opacity="0.15"/>
<path d="M18 25.2002C17.23 25.1502 16.57 25.7502 16.53 26.5202C16.48 27.2902 17.08 27.9502 17.85 27.9902C18.62 28.0302 19.28 27.4402 19.32 26.6702C19.37 25.9102 18.77 25.2402 18 25.2002Z" fill="white" fill-opacity="0.15"/>
<path d="M23.71 26.7096C23.13 27.0096 22.89 27.7296 23.19 28.3096C23.49 28.8896 24.21 29.1296 24.79 28.8296C25.37 28.5396 25.61 27.8196 25.32 27.2396C25.02 26.6596 24.3 26.4096 23.71 26.7096Z" fill="white" fill-opacity="0.15"/>
</g>
<defs>
<clipPath id="clip0_12542_4287">
<rect width="35.3" height="32.62" fill="white" transform="translate(0.350098 0.69043)"/>
</clipPath>
</defs>
</svg>
