<svg width="36" height="36" viewBox="0 0 36 36" fill="none" xmlns="http://www.w3.org/2000/svg">
<g clip-path="url(#clip0_12542_4335)">
<path fill-rule="evenodd" clip-rule="evenodd" d="M18 0C8.06 0 0 8.06 0 18C0 27.94 8.06 36 18 36C27.94 36 36 27.94 36 18C36 8.06 27.94 0 18 0ZM21.04 11.93L15.19 18L21.04 23.96L24.75 20.25C25.43 19.57 26.44 19.57 27 20.25C27.34 20.59 27.51 21.04 27.51 21.49C27.51 21.94 27.34 22.39 27 22.73L22.16 27.68C21.49 28.35 20.48 28.35 19.8 27.68L12.83 20.48V24.75C12.83 25.65 12.04 26.44 11.14 26.44C10.24 26.44 9.45 25.65 9.45 24.75V11.25C9.45 10.35 10.24 9.56 11.14 9.56C12.04 9.56 12.83 10.35 12.83 11.25V15.53L19.8 8.33C20.48 7.65 21.49 7.65 22.16 8.33L27 13.28C27.68 13.95 27.68 15.08 27 15.75C26.32 16.43 25.31 16.43 24.75 15.75L21.04 11.93ZM22.73 18C22.73 18.9 21.94 19.69 21.04 19.69C20.14 19.69 19.35 18.9 19.35 18C19.35 17.1 20.14 16.31 21.04 16.31C21.94 16.31 22.73 17.1 22.73 18Z" fill="white" fill-opacity="0.15"/>
</g>
<defs>
<clipPath id="clip0_12542_4335">
<rect width="36" height="36" fill="white"/>
</clipPath>
</defs>
</svg>
