<svg width="34" height="36" viewBox="0 0 34 36" fill="none" xmlns="http://www.w3.org/2000/svg">
<g clip-path="url(#clip0_11473_63185)">
<path d="M33.0348 10.4996V25.4596C32.9848 26.4396 32.5348 27.3496 31.7548 27.9496L18.2448 35.7696C17.8548 35.9196 17.4548 35.9996 17.0348 35.9996C16.5748 35.9996 16.0748 35.8996 15.7248 35.7296C15.6748 35.7096 15.5548 35.6396 15.3648 35.5296C15.2448 35.4696 15.0948 35.3896 14.9348 35.2896L9.98484 32.4396L5.85484 30.0596L17.6848 10.5396H22.9148L11.1148 30.5396L16.6148 33.6996C16.8648 33.7996 17.1548 33.8096 17.4148 33.7196L22.0648 31.0196L17.0948 23.2296L20.1248 18.0896L26.6448 28.3596L27.9348 27.6196L21.0548 16.4896L23.6948 12.0096L30.8048 23.0796V10.5796C30.7848 10.2196 30.5948 9.88957 30.2948 9.69957L17.4648 2.31957C17.1648 2.16957 16.7848 2.17957 16.4848 2.32957C16.4448 2.34957 3.69484 9.71957 3.63484 9.76957C3.40484 9.93957 3.24484 10.1896 3.19484 10.4696C3.18484 10.5096 3.18484 10.5496 3.17484 10.5996L3.19484 22.5396L9.83484 12.2496C10.6748 10.8896 12.4948 10.4496 14.1848 10.4696L16.1648 10.5296L4.47484 29.2696L0.964844 27.2496V10.4896C1.01484 9.47957 1.52484 8.55957 2.34484 7.95957C2.50484 7.84957 2.67484 7.74957 2.84484 7.66957C2.84484 7.66957 15.3748 0.39957 15.4848 0.34957C16.4048 -0.12043 17.5548 -0.12043 18.4648 0.34957L31.4648 7.81957C32.3948 8.39957 32.9848 9.40957 33.0348 10.4996Z" fill="white"/>
</g>
<defs>
<clipPath id="clip0_11473_63185">
<rect width="32.07" height="36" fill="white" transform="translate(0.964844)"/>
</clipPath>
</defs>
</svg>
