<svg width="36" height="36" viewBox="0 0 36 36" fill="none" xmlns="http://www.w3.org/2000/svg">
<g clip-path="url(#clip0_12542_4389)">
<path d="M18 0C8.06 0 0 8.06 0 18C0 27.94 8.06 36 18 36C27.94 36 36 27.94 36 18C36 8.06 27.94 0 18 0ZM29.21 21.52C29.12 21.84 29.02 22.14 28.98 22.42C28.85 23.22 27.97 23.43 27.68 23.5C27.24 23.61 26.8 23.68 26.35 23.74C25.24 23.87 24.76 24.14 24.39 24.85C23.98 25.64 23.2 26.11 22.52 26.53C22.4 26.61 22.28 26.68 22.17 26.75C20.1 28.08 17.81 28.56 15.59 29.03C14.77 29.2 13.91 29.38 13.1 29.6L12.16 29.86L11.88 28.93C11.75 28.48 11.61 28.04 11.47 27.59C10.56 24.66 9.61 21.62 9.91 18.35C9.95 17.91 10.08 17.07 10.55 16.38C10.82 15.96 10.85 15.66 10.65 15.23C10.6 15.12 10.55 15 10.5 14.85C9.59 12.19 9.72 11.74 11.91 9.99C12.4 9.61 13.08 9.36 13.69 9.35C14.9 9.33 16.18 9.31 17.61 9.31C18.51 9.31 19.42 9.32 20.35 9.33C21.04 9.33 21.15 9.08 21.22 8.94C21.69 7.93 22.53 7.39 23.64 7.39C23.83 7.39 24.03 7.41 24.25 7.44C24.54 7.48 24.85 7.5 25.22 7.52C25.4 7.53 25.59 7.55 25.8 7.56L27.12 7.67L26.65 8.92L26.38 9.62L25.85 11.02C25.61 11.65 25.66 12.19 26 12.77C26.41 13.46 26.81 14.15 27.22 14.84C27.81 15.87 28.43 16.93 29.06 17.95C29.89 19.3 29.5 20.58 29.21 21.52Z" fill="white" fill-opacity="0.15"/>
<path d="M27.9901 22.2596C27.9701 22.3796 27.6401 22.4796 27.4401 22.5296C27.0501 22.6196 26.6401 22.6996 26.2401 22.7396C25.0701 22.8796 24.1201 23.1896 23.5001 24.3896C23.1601 25.0396 22.3101 25.4696 21.6301 25.9096C18.9701 27.6196 15.8501 27.8296 12.8401 28.6396C11.8101 25.2296 10.5801 21.9796 10.9001 18.4396C10.9501 17.9196 11.1001 17.3496 11.3801 16.9296C11.8501 16.2196 11.9001 15.5496 11.5501 14.7996C11.5101 14.7196 11.4801 14.6296 11.4501 14.5396C10.6701 12.2796 10.6601 12.2696 12.5401 10.7796C12.8501 10.5296 13.3201 10.3596 13.7101 10.3496C15.9201 10.3096 18.1201 10.3096 20.3201 10.3296H20.3501C21.1301 10.3296 21.7901 10.0796 22.1201 9.36965C22.4701 8.62965 22.9801 8.38965 23.6401 8.38965C23.7901 8.38965 23.9501 8.38965 24.1101 8.42965C24.6001 8.48965 25.1001 8.50965 25.7201 8.55965C25.4201 9.33965 25.1701 9.99965 24.9201 10.6596C24.5701 11.5696 24.6401 12.4396 25.1401 13.2796C26.1701 15.0096 27.1501 16.7696 28.2101 18.4796C29.0301 19.8096 28.1901 21.0096 27.9901 22.2596Z" fill="white" fill-opacity="0.15"/>
</g>
<defs>
<clipPath id="clip0_12542_4389">
<rect width="36" height="36" fill="white"/>
</clipPath>
</defs>
</svg>
