<svg width="26" height="36" viewBox="0 0 26 36" fill="none" xmlns="http://www.w3.org/2000/svg">
<g clip-path="url(#clip0_12542_4399)">
<path fill-rule="evenodd" clip-rule="evenodd" d="M15.67 7.01992C15.73 7.08992 15.77 7.17992 15.77 7.26992V11.7699C15.77 12.3199 15.55 12.8499 15.16 13.2399C14.77 13.6299 14.24 13.8499 13.69 13.8499H10.57C10.48 13.8499 10.39 13.8099 10.33 13.7499C10.26 13.6799 10.23 13.5899 10.23 13.4999V7.26992C10.23 7.17992 10.26 7.08992 10.33 7.01992C10.39 6.95992 10.48 6.91992 10.57 6.91992H15.42C15.51 6.91992 15.6 6.95992 15.67 7.01992Z" fill="white" fill-opacity="0.15"/>
<path fill-rule="evenodd" clip-rule="evenodd" d="M24.9999 0.81C24.4799 0.29 23.7699 0 23.0399 0H2.95994C2.22994 0 1.51994 0.29 0.999941 0.81C0.479941 1.33 0.189941 2.03 0.189941 2.77V24.98C0.189941 25.39 0.289941 25.8 0.469941 26.18C0.649941 26.55 0.909941 26.88 1.22994 27.14L11.6999 35.54C12.0699 35.84 12.5299 36 12.9999 36C13.4699 36 13.9299 35.84 14.2999 35.54L24.7699 27.14C25.0899 26.88 25.3499 26.55 25.5299 26.18C25.7099 25.8 25.8099 25.39 25.8099 24.98V2.77C25.8099 2.03 25.5199 1.33 24.9999 0.81ZM21.6599 22.99C21.6599 23.41 21.5599 23.82 21.3799 24.19C21.1999 24.57 20.9399 24.89 20.6199 25.15L16.3299 28.6C16.3299 28.6 16.2199 28.66 16.1599 28.67C16.0899 28.68 16.0299 28.67 15.9699 28.64C15.9099 28.61 15.8599 28.56 15.8199 28.51C15.7899 28.45 15.7699 28.39 15.7699 28.33V18.69C15.7699 18.14 15.5499 17.61 15.1599 17.22C14.7699 16.83 14.2399 16.62 13.6899 16.62H10.5799C10.4899 16.62 10.3999 16.65 10.3299 16.72C10.2699 16.78 10.2299 16.87 10.2299 16.96V28.33C10.2299 28.39 10.2099 28.45 10.1799 28.51C10.1399 28.57 10.0899 28.61 10.0299 28.64C9.97994 28.67 9.90994 28.68 9.83994 28.67C9.77994 28.66 9.71994 28.64 9.66994 28.6L5.37994 25.15C5.05994 24.89 4.79994 24.57 4.61994 24.19C4.43994 23.82 4.33994 23.41 4.33994 22.99V6.92C4.33994 6.19 4.63994 5.48 5.14994 4.97C5.65994 4.46 6.37994 4.15 7.10994 4.15H18.8799C19.6199 4.15 20.3199 4.45 20.8399 4.97C21.3599 5.48 21.6499 6.19 21.6499 6.92V12.46C21.6499 13.2 21.3599 13.9 20.8399 14.42C20.3199 14.94 19.6199 15.23 18.8899 15.23C19.6199 15.23 20.3299 15.52 20.8499 16.04C21.3599 16.56 21.6599 17.27 21.6599 18V22.99Z" fill="white" fill-opacity="0.15"/>
</g>
<defs>
<clipPath id="clip0_12542_4399">
<rect width="25.62" height="36" fill="white" transform="translate(0.189941)"/>
</clipPath>
</defs>
</svg>
