<svg width="30" height="36" viewBox="0 0 30 36" fill="none" xmlns="http://www.w3.org/2000/svg">
<g clip-path="url(#clip0_12542_4408)">
<path d="M14.75 0C7.31004 0 1.29004 6.03 1.29004 13.46C1.29004 14.31 1.37004 15.16 1.53004 15.99L3.27004 14.8C6.33004 12.7 11.29 12.7 14.34 14.8L16.16 16.05L17.15 16.73C19.91 18.62 24.37 18.62 27.12 16.73L27.93 16.17C29.42 8.88 24.73 1.76 17.44 0.27C16.56 0.1 15.66 0 14.75 0Z" fill="white" fill-opacity="0.15"/>
<path d="M22.3101 21.5498C20.3901 21.5798 18.5001 21.0398 16.8801 19.9998L14.0701 18.0698C10.9501 16.1598 7.02014 16.1598 3.90014 18.0698L2.08014 19.3098C1.72014 19.5598 1.23014 19.4598 0.980137 19.0998C0.730137 18.7398 0.830137 18.2498 1.19014 17.9998L3.01014 16.7598C6.67014 14.4798 11.3101 14.4798 14.9701 16.7598L17.7801 18.6898C20.5601 20.3898 24.0701 20.3898 26.8501 18.6898L27.9201 17.9598C28.2801 17.7098 28.7701 17.8098 29.0201 18.1698C29.2701 18.5298 29.1701 19.0198 28.8101 19.2698L27.7401 19.9998C26.1201 21.0398 24.2401 21.5798 22.3101 21.5498Z" fill="white" fill-opacity="0.15"/>
<path d="M8.93018 27.2004V19.6004C8.93018 19.4404 8.93018 19.2804 8.95018 19.1204C9.00018 18.6904 9.37018 18.3604 9.80018 18.3604C10.2202 18.3704 10.5702 18.7004 10.6002 19.1204C10.6302 19.3804 10.6402 19.6504 10.6302 19.9204V35.0904C10.6502 35.5804 10.2602 36.0003 9.77018 36.0103C9.77018 36.0103 9.77018 36.0103 9.76018 36.0103C9.28018 35.9803 8.91018 35.5704 8.94018 35.0904C8.94018 35.0704 8.94018 35.0604 8.94018 35.0404V27.2104L8.93018 27.2004Z" fill="white" fill-opacity="0.15"/>
<path d="M7.33013 23.3702V27.1502C7.33013 27.7902 6.98013 28.2202 6.50013 28.2102C5.97013 28.1602 5.58013 27.6802 5.64013 27.1502V19.5902C5.64013 18.9302 6.03013 18.4802 6.53013 18.5102C7.03013 18.5402 7.33013 18.9402 7.33013 19.6002C7.33013 20.8602 7.33013 22.1202 7.33013 23.3802V23.3702Z" fill="white" fill-opacity="0.15"/>
<path d="M12.2402 23.3702V20.7102C12.2402 20.0902 12.5702 19.7002 13.0502 19.7002C13.5502 19.7202 13.9402 20.1502 13.9202 20.6602C13.9202 20.6702 13.9202 20.6802 13.9202 20.7002C13.9402 22.5102 13.9402 24.3202 13.9202 26.1202C13.9802 26.6002 13.6502 27.0302 13.1702 27.0902C13.1302 27.0902 13.0902 27.0902 13.0602 27.0902C12.5602 27.0902 12.2402 26.7102 12.2402 26.0802V23.3702Z" fill="white" fill-opacity="0.15"/>
<path d="M2.34009 23.92V21.26C2.34009 20.64 2.67009 20.25 3.15009 20.25C3.65009 20.27 4.04009 20.7 4.02009 21.21C4.02009 21.22 4.02009 21.23 4.02009 21.25C4.04009 23.06 4.04009 24.87 4.02009 26.67C4.08009 27.15 3.74009 27.58 3.27009 27.64C3.23009 27.64 3.20009 27.64 3.16009 27.64C2.66009 27.64 2.34009 27.26 2.34009 26.63V23.92Z" fill="white" fill-opacity="0.15"/>
<path d="M16.37 21.6602C16.83 21.6602 17.2 22.0302 17.2 22.4902V23.9302C17.2 24.3902 16.83 24.7602 16.37 24.7602C15.91 24.7602 15.54 24.3902 15.54 23.9302V22.4902C15.54 22.0302 15.91 21.6602 16.37 21.6602Z" fill="white" fill-opacity="0.15"/>
<path d="M19.6701 22.9199C20.1301 22.9199 20.5001 23.2899 20.5001 23.7499V31.8499C20.5001 32.3099 20.1301 32.6799 19.6701 32.6799C19.2101 32.6799 18.8401 32.3099 18.8401 31.8499V23.7499C18.8401 23.2899 19.2101 22.9199 19.6701 22.9199Z" fill="white" fill-opacity="0.15"/>
<path d="M22.9601 23.2402C23.4201 23.2402 23.7901 23.6102 23.7901 24.0702V30.9602C23.7901 31.4202 23.4201 31.7902 22.9601 31.7902C22.5001 31.7902 22.1301 31.4202 22.1301 30.9602V24.0702C22.1301 23.6102 22.5001 23.2402 22.9601 23.2402Z" fill="white" fill-opacity="0.15"/>
<path d="M26.2802 22.4502C26.7402 22.4502 27.1102 22.8202 27.1102 23.2802V26.2502C27.1102 26.7102 26.7402 27.0802 26.2802 27.0802C25.8202 27.0802 25.4502 26.7102 25.4502 26.2502V23.2802C25.4502 22.8202 25.8202 22.4502 26.2802 22.4502Z" fill="white" fill-opacity="0.15"/>
</g>
<defs>
<clipPath id="clip0_12542_4408">
<rect width="28.3" height="36" fill="white" transform="translate(0.850098)"/>
</clipPath>
</defs>
</svg>
