<svg width="36" height="36" viewBox="0 0 36 36" fill="none" xmlns="http://www.w3.org/2000/svg">
<g clip-path="url(#clip0_12542_4421)">
<path fill-rule="evenodd" clip-rule="evenodd" d="M36 18C36 27.9411 27.9411 36 18 36C8.05887 36 0 27.9411 0 18C0 8.05887 8.05887 0 18 0C27.9411 0 36 8.05887 36 18ZM16.8503 16.9098L11.5303 19.9798V13.8679L11.5097 13.856V19.9801L6.18036 16.9105L4.80957 17.7001V11.5601L10.1389 14.6297L11.4959 13.8481L7.08984 11.3102L12.4198 8.25023V10.8102L15.4813 12.5769L17.7397 11.2761L13.25 8.69012L18.5797 5.6203V5.62012L18.5798 5.62021L18.58 5.62012V5.6203L23.9097 8.69012L18.58 11.7599V11.7601L18.5798 11.76L18.5797 11.7601V11.7599L17.7498 11.282V17.4102L14.6832 15.6439L14.6699 15.6516L16.8503 16.9098ZM18.5885 11.765L18.58 11.7601V11.7699L18.5797 11.7701L18.58 11.7703V17.9001V17.9099L18.5798 17.91V17.9002L13.2598 20.9702L18.5798 24.0402V17.9102L18.58 17.9103V24.0401L23.9012 20.9752L23.9097 20.9801V20.9803L18.5798 24.0502L23.9097 27.1201L23.9098 27.1202V27.12L29.2397 24.0501L23.9098 20.9802L23.9097 20.9801V20.9703L23.91 20.9701L29.24 24.0401V17.9001L29.2397 17.8999V11.7703L29.24 11.7701L29.2397 11.7699V11.7601L29.2312 11.765L23.91 8.70012V14.8299L23.9098 14.83L23.9097 14.8299V8.70012L18.5885 11.765ZM23.9097 14.8303L23.9098 14.8302L23.91 14.8303V14.8401V20.9701L23.9097 20.9699V14.8501L18.5885 17.905L18.58 17.9001L23.9012 14.8352L23.9097 14.8401V14.8303ZM23.9185 14.8352L23.91 14.8401L29.144 17.845L23.9185 14.8352ZM18.54 31.1401L23.86 28.0701L18.54 25.0001V31.1401ZM7.58 25.4701V23.8598L12.9096 20.7901L7.57957 17.7201V19.3404L2.25 22.4001L7.58 25.4701ZM15.2737 24.7646L11.0897 22.3501V28.4901L13.2097 27.2667L17.3996 29.6801V23.5401L15.2737 24.7646Z" fill="white" fill-opacity="0.15"/>
</g>
<defs>
<clipPath id="clip0_12542_4421">
<rect width="36" height="36" fill="white"/>
</clipPath>
</defs>
</svg>
