<svg width="34" height="30" viewBox="0 0 34 30" fill="none" xmlns="http://www.w3.org/2000/svg">
<g clip-path="url(#clip0_11473_63193)">
<path d="M25.7456 9.16652C25.1222 8.80667 24.3289 8.80667 23.6111 9.16652L18.6433 12.1021L15.2717 13.9677L10.3889 16.9033C9.76556 17.2631 8.97222 17.2631 8.25444 16.9033L4.43889 14.5927C3.81556 14.2328 3.37167 13.5226 3.37167 12.7271V8.27637C3.37167 7.56614 3.73056 6.85591 4.43889 6.41084L8.25444 4.18546C8.87778 3.82561 9.67111 3.82561 10.3889 4.18546L14.2044 6.49606C14.8278 6.85591 15.2717 7.56614 15.2717 8.36159V11.2972L18.6433 9.33697V6.30667C18.6433 5.59644 18.2844 4.88622 17.5761 4.44114L10.4739 0.265004C9.85056 -0.0948449 9.05722 -0.0948449 8.33944 0.265004L1.06722 4.53584C0.358889 4.89569 0 5.60591 0 6.31614V14.6874C0 15.3976 0.358889 16.1078 1.06722 16.5529L8.25444 20.7385C8.87778 21.0983 9.67111 21.0983 10.3889 20.7385L15.2717 17.8881L18.6433 15.9279L23.5261 13.0775C24.1494 12.7177 24.9428 12.7177 25.6606 13.0775L29.4761 15.3029C30.0994 15.6627 30.5433 16.373 30.5433 17.1684V21.6192C30.5433 22.3294 30.1844 23.0396 29.4761 23.4847L25.7456 25.7101C25.1222 26.0699 24.3289 26.0699 23.6111 25.7101L19.7956 23.4847C19.1722 23.1249 18.7283 22.4146 18.7283 21.6192V18.7688L15.3567 20.729V23.6646C15.3567 24.3749 15.7156 25.0851 16.4239 25.5302L23.6111 29.7158C24.2344 30.0756 25.0278 30.0756 25.7456 29.7158L32.9328 25.5302C33.5561 25.1703 34 24.4601 34 23.6646V15.2082C34 14.498 33.6411 13.7877 32.9328 13.3427L25.7456 9.15705V9.16652Z" fill="white"/>
</g>
<defs>
<clipPath id="clip0_11473_63193">
<rect width="34" height="30" fill="white"/>
</clipPath>
</defs>
</svg>
