<svg width="36" height="30" viewBox="0 0 36 30" fill="none" xmlns="http://www.w3.org/2000/svg">
<g clip-path="url(#clip0_12542_4490)">
<path d="M34.87 0.0901125L28.95 2.80011C28.59 3.00011 28.38 3.39011 28.38 3.79011V25.6301C28.38 26.0501 28.61 26.4401 28.97 26.6201L34.89 29.2601C35.26 29.4601 35.7 29.1901 35.7 28.7601V0.590113C35.68 0.150113 35.23 -0.119887 34.87 0.0901125ZM6.55 2.76011L0.81 0.0701125C0.44 -0.129887 0 0.140113 0 0.570113V28.7401C0 29.1901 0.49 29.4601 0.85 29.2301L6.62 26.0801C6.95 25.8801 7.14 25.5101 7.14 25.1201V3.75011C7.12 3.35011 6.91 2.96011 6.55 2.76011ZM24.54 10.2101L18.36 6.56011C18.02 6.36011 17.59 6.36011 17.27 6.56011L10.98 10.1801C10.64 10.3801 10.43 10.7701 10.43 11.1701V18.5701C10.43 18.9701 10.64 19.3601 10.98 19.5601L17.27 23.3001C17.61 23.5001 18.04 23.5001 18.36 23.3001L24.54 19.6001C24.88 19.4001 25.09 19.0101 25.09 18.6101V11.2101C25.09 10.7901 24.88 10.4201 24.54 10.2201V10.2101Z" fill="white" fill-opacity="0.15"/>
</g>
<defs>
<clipPath id="clip0_12542_4490">
<rect width="35.7" height="29.32" fill="white"/>
</clipPath>
</defs>
</svg>
