<svg width="36" height="36" viewBox="0 0 36 36" fill="none" xmlns="http://www.w3.org/2000/svg">
<g clip-path="url(#clip0_12542_4494)">
<path fill-rule="evenodd" clip-rule="evenodd" d="M18 0C27.95 0 36 8.05 36 18C36 27.95 28.1 35.85 18.3 36H18V20.85L15.7 23.15L15.4 28.85L17.8 36C16.4 36 15.05 35.8 13.7 35.45L13.35 35.35L12.2 31.9L8.95 33.55C7.75 32.85 6.65 32.05 5.65 31.1L5.4 30.85L11.45 27.8L11.65 24.35L8.2 24.55L5.15 30.6C4.2 29.6 3.35 28.5 2.65 27.35L2.45 27.05L4.1 23.8L0.65 22.65C0.3 21.3 0.1 19.95 0.05 18.6V18.25L7.25 20.65L12.95 20.35L15.25 18.05L12.95 15.75L7.25 15.45L0 17.8C0 16.4 0.2 15 0.5 13.7L0.6 13.35L4.05 12.2L2.4 8.95C3.1 7.75 3.9 6.65 4.85 5.65L5.1 5.4L8.15 11.45L11.6 11.65L11.4 8.2L5.35 5.15C6.35 4.2 7.45 3.35 8.6 2.65L8.9 2.45L12.15 4.1L13.3 0.65C14.65 0.3 16 0.1 17.35 0.05H17.7L15.3 7.2L15.6 12.9L17.9 15.2C18 15.15 18 0 18 0ZM22 4.6V31.45C27.75 29.7 32 24.35 32 18C32 11.65 27.85 6.45 22.2 4.65L22 4.6Z" fill="white" fill-opacity="0.15"/>
</g>
<defs>
<clipPath id="clip0_12542_4494">
<rect width="36" height="36" fill="white"/>
</clipPath>
</defs>
</svg>
