<svg width="36" height="36" viewBox="0 0 36 36" fill="none" xmlns="http://www.w3.org/2000/svg">
<g clip-path="url(#clip0_11473_63209)">
<path d="M16.4391 0.344851C17.3151 -0.11495 18.648 -0.11495 19.524 0.344851L28.4629 5.0367C28.9905 5.31362 29.2802 5.72627 29.3322 6.15225H29.3407V29.736C29.3291 30.2006 29.0366 30.6621 28.4629 30.9634L19.524 35.6552C18.648 36.115 17.3151 36.115 16.4391 35.6552L7.50017 30.9634C6.92889 30.6635 6.65474 30.1986 6.64117 29.736C6.63981 29.6904 6.63965 29.6525 6.64094 29.621L6.64088 6.30373C6.63998 6.27819 6.6399 6.25269 6.64063 6.22729L6.64117 6.15225L6.64516 6.15222C6.68487 5.72157 6.96147 5.31947 7.50017 5.0367L16.4391 0.344851ZM27.9335 19.3095L19.524 23.7235C18.648 24.1833 17.3151 24.1833 16.4391 23.7235L8.04796 19.3193V29.6893L16.4391 34.0703C16.9129 34.322 17.4047 34.5673 17.8855 34.5985L17.9816 34.6016C18.4826 34.6033 18.9691 34.3504 19.4624 34.1111L27.9335 29.6516V19.3095ZM5.18726 29.2233C5.18726 30.1266 5.29294 30.7206 5.50275 31.1391C5.67666 31.4859 5.93759 31.7509 6.41404 32.0735L6.44124 32.0917C6.5458 32.1618 6.66099 32.2352 6.80119 32.3212L6.96654 32.4219L7.47426 32.7265L6.74606 33.9229L6.17777 33.5818L6.08226 33.5236C5.91794 33.4226 5.78176 33.3363 5.65473 33.251C4.29684 32.3412 3.79041 31.3495 3.78042 29.286L3.78027 29.2233H5.18726ZM17.2779 12.9884C17.2128 13.0106 17.1518 13.0363 17.0962 13.0655L8.15727 17.7573C8.14789 17.7622 8.13894 17.7671 8.13044 17.7719L8.12286 17.7763L8.13688 17.7843L8.15727 17.7953L17.0962 22.4871C17.1518 22.5163 17.2128 22.542 17.2779 22.5642V12.9884ZM18.6853 12.9884V22.5642C18.7503 22.542 18.8113 22.5163 18.8669 22.4871L27.8058 17.7953C27.8152 17.7903 27.8241 17.7855 27.8326 17.7807L27.8402 17.7763L27.8262 17.7683L27.8058 17.7573L18.8669 13.0655C18.8113 13.0363 18.7503 13.0106 18.6853 12.9884ZM27.9335 7.82521L19.9148 12.0341L27.9335 16.243V7.82521ZM8.04796 7.83505V16.2332L16.0481 12.0341L8.04796 7.83505ZM18.8669 1.58123C18.4021 1.33724 17.5611 1.33724 17.0962 1.58123L8.15727 6.2731C8.14789 6.27803 8.13894 6.28289 8.13044 6.2877L8.12286 6.29206L8.13688 6.30005L8.15727 6.31104L17.0962 11.0029C17.5611 11.2469 18.4021 11.2469 18.8669 11.0029L27.8058 6.31104C27.8152 6.30612 27.8241 6.30126 27.8326 6.29642L27.8402 6.29206L27.8262 6.28407L27.8058 6.2731L18.8669 1.58123ZM29.2545 2.09575L29.8228 2.43682L29.9183 2.49509C30.0826 2.59589 30.2188 2.68248 30.3459 2.76759C31.7038 3.67734 32.2102 4.66922 32.22 6.73258L32.2203 6.79544H30.8133C30.8133 5.89184 30.7077 5.29796 30.4978 4.87954C30.3239 4.53276 30.063 4.26774 29.5866 3.94526L29.5594 3.92695C29.4548 3.85689 29.3396 3.78351 29.1994 3.69725L29.0341 3.59662L28.5263 3.29214L29.2545 2.09575Z" fill="white" fill-opacity="0.15"/>
</g>
<defs>
<clipPath id="clip0_11473_63209">
<rect width="36" height="36" fill="white"/>
</clipPath>
</defs>
</svg>
