<svg width="50" height="51" viewBox="0 0 50 51" fill="none" xmlns="http://www.w3.org/2000/svg">
<path d="M45.625 17.7656V42.5156M18.794 13.0929L33.028 4.875L37.7845 13.1136L18.794 13.0929ZM4.375 15.1875C4.375 14.0484 5.29841 13.125 6.4375 13.125H43.5625C44.7016 13.125 45.625 14.0484 45.625 15.1875V44.0625C45.625 45.2016 44.7016 46.125 43.5625 46.125H6.4375C5.29841 46.125 4.375 45.2016 4.375 44.0625V15.1875ZM36.6016 34.7812H45.625V24.4688H36.6016C33.6115 24.4688 31.1875 26.7773 31.1875 29.625C31.1875 32.4727 33.6115 34.7812 36.6016 34.7812Z" stroke="white" stroke-width="1.6" stroke-linecap="round" stroke-linejoin="round"/>
</svg>
