<svg width="50" height="50" viewBox="0 0 50 50" fill="none" xmlns="http://www.w3.org/2000/svg">
<path d="M24.75 13.9219V17.0156" stroke="white" stroke-width="2" stroke-linecap="round" stroke-linejoin="round"/>
<path d="M24.75 32.4844V35.5781" stroke="white" stroke-width="2" stroke-linecap="round" stroke-linejoin="round"/>
<path d="M24.75 43.3125C35.0018 43.3125 43.3125 35.0018 43.3125 24.75C43.3125 14.4982 35.0018 6.1875 24.75 6.1875C14.4982 6.1875 6.1875 14.4982 6.1875 24.75C6.1875 35.0018 14.4982 43.3125 24.75 43.3125Z" stroke="white" stroke-width="2" stroke-linecap="round" stroke-linejoin="round"/>
<path d="M20.1094 32.4844H27.0703C28.096 32.4844 29.0796 32.0769 29.8048 31.3517C30.5301 30.6265 30.9375 29.6428 30.9375 28.6172C30.9375 27.5915 30.5301 26.6079 29.8048 25.8827C29.0796 25.1574 28.096 24.75 27.0703 24.75H22.4297C21.404 24.75 20.4204 24.3426 19.6952 23.6173C18.9699 22.8921 18.5625 21.9085 18.5625 20.8828C18.5625 19.8572 18.9699 18.8735 19.6952 18.1483C20.4204 17.4231 21.404 17.0156 22.4297 17.0156H29.3906" stroke="white" stroke-width="2" stroke-linecap="round" stroke-linejoin="round"/>
</svg>
