<svg width="50" height="50" viewBox="0 0 50 50" fill="none" xmlns="http://www.w3.org/2000/svg">
<path d="M24.75 43.3125C35.0018 43.3125 43.3125 35.0018 43.3125 24.75C43.3125 14.4982 35.0018 6.1875 24.75 6.1875C14.4982 6.1875 6.1875 14.4982 6.1875 24.75C6.1875 35.0018 14.4982 43.3125 24.75 43.3125Z" stroke="white" stroke-width="2" stroke-miterlimit="10"/>
<path d="M24.75 30.9375C29.0216 30.9375 32.4844 27.4747 32.4844 23.2031C32.4844 18.9315 29.0216 15.4688 24.75 15.4688C20.4784 15.4688 17.0156 18.9315 17.0156 23.2031C17.0156 27.4747 20.4784 30.9375 24.75 30.9375Z" stroke="white" stroke-width="2" stroke-miterlimit="10"/>
<path d="M12.3362 38.5508C13.5014 36.2599 15.2778 34.3362 17.4688 32.9924C19.6597 31.6487 22.1798 30.9375 24.75 30.9375C27.3202 30.9375 29.8403 31.6487 32.0313 32.9924C34.2222 34.3361 35.9987 36.2599 37.1639 38.5508" stroke="white" stroke-width="2" stroke-linecap="round" stroke-linejoin="round"/>
</svg>
