<svg width="50" height="51" viewBox="0 0 50 51" fill="none" xmlns="http://www.w3.org/2000/svg">
<path d="M18.4372 36.4382C16.2496 43.001 7.49915 43.001 7.49915 43.001C7.49915 43.001 7.49914 34.2506 14.062 32.063" stroke="white" stroke-width="1.6" stroke-linecap="round" stroke-linejoin="round"/>
<path d="M38.1256 21.1246L25 34.2503L16.2495 25.4998L29.3752 12.3742C34.3453 7.40403 39.3155 7.45251 41.4351 7.76876C41.7614 7.81741 42.0635 7.96961 42.2969 8.20293C42.5302 8.43625 42.6824 8.73835 42.731 9.06471C43.0473 11.1843 43.0958 16.1545 38.1256 21.1246Z" stroke="white" stroke-width="1.6" stroke-linecap="round" stroke-linejoin="round"/>
<path d="M35.9381 23.3125V35.7974C35.9381 36.0006 35.898 36.2017 35.8203 36.3894C35.7426 36.5771 35.6286 36.7476 35.485 36.8912L29.2314 43.1448C29.0334 43.3428 28.7854 43.4833 28.5139 43.5514C28.2423 43.6195 27.9573 43.6127 27.6893 43.5315C27.4214 43.4504 27.1804 43.298 26.9923 43.0907C26.8041 42.8834 26.6757 42.6289 26.6208 42.3544L25 34.2506" stroke="white" stroke-width="1.6" stroke-linecap="round" stroke-linejoin="round"/>
<path d="M27.1876 14.562H14.7027C14.4995 14.562 14.2984 14.602 14.1107 14.6798C13.923 14.7575 13.7525 14.8714 13.6089 15.0151L7.35529 21.2687C7.15731 21.4666 7.01678 21.7146 6.94868 21.9862C6.88058 22.2578 6.88746 22.5428 6.9686 22.8107C7.04973 23.0787 7.20207 23.3196 7.40938 23.5078C7.61669 23.696 7.87118 23.8244 8.14573 23.8793L16.2496 25.5001" stroke="white" stroke-width="1.6" stroke-linecap="round" stroke-linejoin="round"/>
</svg>
