<svg width="50" height="50" viewBox="0 0 50 50" fill="none" xmlns="http://www.w3.org/2000/svg">
<path d="M43.1457 7.61354C43.1457 7.61354 47.1926 6.03542 46.8541 9.86771C46.7426 11.4458 45.7311 16.9698 44.9436 22.9437L42.2457 40.6417C42.2457 40.6417 42.0207 43.2344 39.9968 43.6854C37.9738 44.1354 34.9384 42.1073 34.3759 41.6562C33.9259 41.3177 25.9447 36.2448 23.1343 33.7656C22.3468 33.0885 21.4468 31.7365 23.2468 30.1583L35.0499 18.8854C36.3988 17.5333 37.7478 14.3771 32.127 18.2094L16.3874 28.9177C16.3874 28.9177 14.5884 30.0458 11.2165 29.0312L3.90822 26.776C3.90822 26.776 1.2103 25.0854 5.81967 23.3948C17.0624 18.0969 30.8905 12.6865 43.1436 7.61354H43.1457Z" fill="white"/>
</svg>
