<svg width="50" height="51" viewBox="0 0 50 51" fill="none" xmlns="http://www.w3.org/2000/svg">
<path d="M25 0.352051C11.2 0.352051 0 11.5521 0 25.3521C0 39.1521 11.2 50.3521 25 50.3521C38.8 50.3521 50 39.1521 50 25.3521C50 11.5521 38.8 0.352051 25 0.352051ZM36.6 17.3521C36.225 21.3021 34.6 30.9021 33.775 35.327C33.425 37.202 32.725 37.8271 32.075 37.9021C30.625 38.0271 29.525 36.9521 28.125 36.0271C25.925 34.5771 24.675 33.6771 22.55 32.2771C20.075 30.6521 21.675 29.7521 23.1 28.3021C23.475 27.9271 29.875 22.1021 30 21.577C30.0174 21.4975 30.0151 21.415 29.9933 21.3366C29.9715 21.2581 29.9309 21.1862 29.875 21.1271C29.725 21.0021 29.525 21.0521 29.35 21.0771C29.125 21.1271 25.625 23.4521 18.8 28.0521C17.8 28.7271 16.9 29.077 16.1 29.052C15.2 29.0271 13.5 28.552 12.225 28.1271C10.65 27.6271 9.425 27.3521 9.525 26.4771C9.575 26.0271 10.2 25.577 11.375 25.1021C18.675 21.927 23.525 19.8271 25.95 18.8271C32.9 15.9271 34.325 15.427 35.275 15.427C35.475 15.427 35.95 15.477 36.25 15.727C36.5 15.927 36.575 16.2021 36.6 16.4021C36.575 16.5521 36.625 17.0021 36.6 17.3521Z" fill="white"/>
</svg>
