<svg width="50" height="50" viewBox="0 0 50 50" fill="none" xmlns="http://www.w3.org/2000/svg">
<path d="M45.9531 14.4688C45.7041 13.5438 45.2166 12.7005 44.5393 12.0232C43.862 11.3459 43.0186 10.8583 42.0937 10.6094C38.6875 9.6875 25 9.6875 25 9.6875C25 9.6875 11.3125 9.6875 7.9062 10.6094C6.98127 10.8583 6.13794 11.3459 5.46063 12.0232C4.78333 12.7005 4.29579 13.5438 4.04683 14.4688C3.41081 17.9426 3.10216 21.4685 3.12495 25C3.10216 28.5315 3.41081 32.0574 4.04683 35.5313C4.29579 36.4562 4.78333 37.2995 5.46063 37.9768C6.13794 38.6541 6.98127 39.1417 7.9062 39.3906C11.3125 40.3125 25 40.3125 25 40.3125C25 40.3125 38.6875 40.3125 42.0937 39.3906C43.0186 39.1417 43.862 38.6541 44.5393 37.9768C45.2166 37.2995 45.7041 36.4562 45.9531 35.5313C46.5891 32.0574 46.8977 28.5315 46.875 25C46.8977 21.4685 46.5891 17.9426 45.9531 14.4688ZM20.625 31.5625V18.4375L31.9843 25L20.625 31.5625Z" fill="white"/>
</svg>
