<svg width="21" height="18" viewBox="0 0 21 18" fill="none" xmlns="http://www.w3.org/2000/svg">
<path fill-rule="evenodd" clip-rule="evenodd" d="M2.45698 3.37254C2.6045 3.13397 2.86867 2.97314 3.16643 2.97314H17.8331C18.1308 2.97314 18.395 3.13397 18.5425 3.37254L10.4998 9.00249L2.45698 3.37254ZM0.333148 3.78885C0.332981 3.79881 0.332963 3.80877 0.333094 3.81873V14.8065C0.333094 16.3671 1.60581 17.6398 3.16643 17.6398H17.8331C19.3937 17.6398 20.6664 16.3671 20.6664 14.8065V3.81874C20.6666 3.80878 20.6665 3.79881 20.6664 3.78884C20.6568 2.23628 19.3878 0.973145 17.8331 0.973145H3.16643C1.61169 0.973145 0.342687 2.23629 0.333148 3.78885ZM18.6664 5.72713V14.8065C18.6664 15.2625 18.2891 15.6398 17.8331 15.6398H3.16643C2.71038 15.6398 2.33309 15.2625 2.33309 14.8065V5.72713L9.9263 11.0424C10.2706 11.2834 10.7289 11.2834 11.0732 11.0424L18.6664 5.72713Z" fill="#515151"/>
</svg>
