<svg width="200" height="200" viewBox="0 0 200 200" fill="none" xmlns="http://www.w3.org/2000/svg">
<circle cx="100" cy="100" r="100" fill="url(#paint0_linear_7067_18622)"/>
<path d="M78.2522 105.373L94.5876 121.708C96.0446 123.165 96.8614 125.14 96.8614 127.2V127.202C96.8614 131.491 93.3848 134.967 89.0962 134.967H88.616C86.5564 134.967 84.5816 134.148 83.1246 132.693L67.2669 116.836C65.8099 115.379 64.9932 113.404 64.9932 111.344V110.864C64.9932 106.575 68.4697 103.099 72.7584 103.099H72.7607C74.8203 103.099 76.7952 103.916 78.2522 105.373Z" fill="white"/>
<path d="M88.6137 65.0282H89.0962C93.3848 65.0282 96.8614 68.5048 96.8614 72.7934C96.8614 74.853 96.0423 76.8279 94.5876 78.2849L78.2522 94.6227C76.7952 96.0797 74.8203 96.8965 72.7607 96.8965H72.7584C68.4697 96.8965 64.9932 93.4199 64.9932 89.1312V88.6511C64.9932 86.5915 65.8123 84.6166 67.2669 83.1596L83.1222 67.302C84.5792 65.8473 86.5541 65.0282 88.6137 65.0282Z" fill="white"/>
<path d="M58.8682 110.864V111.347C58.8682 113.406 58.0491 115.381 56.5945 116.838L40.7368 132.693C39.2798 134.15 37.305 134.967 35.2454 134.967H34.7652C30.4766 134.967 27 131.491 27 127.202V127.2C27 125.14 27.8191 123.165 29.2738 121.708L45.6116 105.373C47.0686 103.916 49.0434 103.099 51.103 103.099C55.394 103.099 58.8682 106.575 58.8682 110.864Z" fill="white"/>
<path d="M58.8682 88.6487V89.1312C58.8682 93.4199 55.3917 96.8965 51.103 96.8965C49.0434 96.8965 47.0686 96.0773 45.6116 94.6227L29.2738 78.2849C27.8168 76.8279 27 74.853 27 72.7934C27 68.5048 30.4766 65.0282 34.7652 65.0282H35.2478C37.3073 65.0282 39.2822 65.8473 40.7392 67.302L56.5945 83.1573C58.0515 84.6143 58.8682 86.5891 58.8682 88.6487Z" fill="white"/>
<path d="M173.772 106.38V106.432C173.772 106.481 173.772 106.533 173.769 106.582C173.638 118.851 165.809 129.268 154.887 133.244C154.878 133.251 154.873 133.256 154.864 133.263C154.842 133.279 154.816 133.301 154.795 133.317C151.764 134.405 148.497 135 145.086 135H111.817C107.463 135 103.937 131.476 103.937 127.136V126.896C103.937 124.128 105.368 121.692 107.543 120.293C107.547 120.289 107.554 120.286 107.557 120.282C107.55 120.272 107.545 120.265 107.543 120.256C107.618 120.206 107.698 120.159 107.776 120.11C108.011 119.969 108.256 119.839 108.508 119.719C109.51 119.253 110.631 118.992 111.817 118.992H145.083C149.44 118.992 153.291 116.8 155.581 113.453C156.984 111.412 157.803 108.939 157.803 106.274C157.803 105.293 157.691 104.335 157.481 103.417C157.01 101.371 158.519 99.4104 160.616 99.4104H166.75C170.611 99.4104 173.743 102.524 173.772 106.38Z" fill="white"/>
<path d="M173.783 73.1089C173.746 75.8911 172.291 78.332 170.1 79.7349C168.852 80.5375 167.369 81.0036 165.78 81.0036H133.538C133.237 80.9824 132.931 80.9706 132.622 80.9706C132.316 80.9706 132.01 80.9824 131.709 81.0036C127.595 81.2954 124.022 83.548 121.912 86.8269C120.641 88.8088 119.902 91.1626 119.902 93.6906C119.902 94.7734 120.039 95.8255 120.293 96.8282C120.813 98.8784 119.283 100.87 117.167 100.87H110.958C107.128 100.87 104.016 97.8098 103.936 93.999C103.934 93.9495 103.934 93.8977 103.934 93.8483V93.6883C103.934 82.2511 110.628 72.3768 120.31 67.7704C120.312 67.7704 120.312 67.7681 120.312 67.7681C124.045 65.9933 128.218 65 132.62 65H165.637C170.1 65.0047 173.842 68.6508 173.783 73.1089Z" fill="white"/>
<path d="M133.538 81.0035H131.709C132.01 80.9823 132.316 80.9706 132.622 80.9706C132.931 80.9706 133.237 80.9823 133.538 81.0035Z" fill="white"/>
<defs>
<linearGradient id="paint0_linear_7067_18622" x1="0" y1="0" x2="229.584" y2="43.3612" gradientUnits="userSpaceOnUse">
<stop stop-color="#6473FF"/>
<stop offset="1" stop-color="#A35AFF"/>
</linearGradient>
</defs>
</svg>
