<svg xmlns="http://www.w3.org/2000/svg" width="485" height="329" viewBox="0 0 485 329" fill="none">
  <path fill-rule="evenodd" clip-rule="evenodd" d="M289.623 0H291.891C312.046 0 328.396 16.3393 328.396 36.5052C328.396 46.1832 324.549 55.4664 317.705 62.3099L240.919 139.106C234.076 145.95 224.792 149.797 215.104 149.797H215.094C194.938 149.797 178.589 133.458 178.589 113.292V111.034C178.589 101.356 182.436 92.0728 189.279 85.2294L263.808 10.6904C270.652 3.84693 279.935 0 289.623 0ZM317.695 266.428L240.909 189.642C234.065 182.798 224.782 178.951 215.104 178.951H215.094C194.928 178.951 178.589 195.301 178.589 215.456V217.714C178.589 227.392 182.436 236.675 189.279 243.519L263.818 318.058C270.662 324.901 279.945 328.748 289.623 328.748H291.88C312.046 328.748 328.386 312.399 328.386 292.243V292.233C328.386 282.555 324.539 273.271 317.695 266.428ZM507.336 217.724V215.456C507.336 195.29 490.997 178.951 470.831 178.951C461.153 178.951 451.869 182.798 445.026 189.642L368.229 266.428C361.386 273.282 357.539 282.565 357.539 292.243V292.253C357.539 312.419 373.888 328.758 394.044 328.758H396.302C405.98 328.758 415.263 324.911 422.106 318.068L496.645 243.539C503.489 236.685 507.336 227.402 507.336 217.724ZM507.336 113.301V111.034C507.336 101.346 503.489 92.0623 496.645 85.229L422.117 10.7001C415.273 3.85668 405.99 0.00976562 396.312 0.00976562H394.044C373.878 0.00976562 357.539 16.3591 357.539 36.5149C357.539 46.193 361.386 55.4762 368.229 62.3196L445.026 139.116C451.869 145.96 461.153 149.807 470.831 149.807C490.997 149.807 507.336 133.457 507.336 113.301ZM149.797 215.456V217.724C149.797 227.402 145.95 236.685 139.106 243.539L64.5674 318.068C57.7239 324.911 48.4407 328.758 38.7627 328.758H36.5052C16.3494 328.758 0 312.419 0 292.253V292.243C0 282.565 3.84691 273.282 10.6904 266.428L87.4869 189.642C94.3304 182.798 103.614 178.951 113.292 178.951C133.458 178.951 149.797 195.29 149.797 215.456ZM149.797 113.301V111.034C149.797 101.346 145.95 92.0623 139.106 85.229L64.5775 10.7001C57.7341 3.85668 48.4509 0.00976562 38.7728 0.00976562H36.5052C16.3393 0.00976562 0 16.3591 0 36.5149C0 46.193 3.84691 55.4762 10.6904 62.3196L87.4869 139.116C94.3304 145.96 103.614 149.807 113.292 149.807C133.458 149.807 149.797 133.457 149.797 113.301Z" fill="url(#paint0_linear_11079_25554)" fill-opacity="0.1"/>
  <defs>
  <linearGradient id="paint0_linear_11079_25554" x1="184" y1="-11.5" x2="301.424" y2="269.816" gradientUnits="userSpaceOnUse">
  <stop offset="0.0729167" stop-color="#47CDB5"/>
  <stop offset="0.53125" stop-color="#FE4039"/>
  <stop offset="1" stop-color="#9F3A83"/>
  </linearGradient>
  </defs>
  </svg>