<svg width="485" height="329" viewBox="0 0 485 329" fill="none" xmlns="http://www.w3.org/2000/svg">
<path d="M240.909 189.642L317.695 266.428C324.539 273.272 328.386 282.555 328.386 292.233V292.243C328.386 312.399 312.046 328.748 291.88 328.748H289.623C279.945 328.748 270.662 324.902 263.818 318.058L189.279 243.519C182.436 236.676 178.589 227.392 178.589 217.714V215.457C178.589 195.301 194.928 178.952 215.094 178.952H215.104C224.782 178.952 234.065 182.799 240.909 189.642Z" fill="white" fill-opacity="0.03"/>
<path d="M507.336 215.457V217.724C507.336 227.403 503.489 236.686 496.645 243.539L422.106 318.068C415.263 324.912 405.98 328.759 396.302 328.759H394.044C373.888 328.759 357.539 312.419 357.539 292.253V292.243C357.539 282.565 361.386 273.282 368.229 266.428L445.026 189.642C451.869 182.799 461.153 178.952 470.831 178.952C490.997 178.952 507.336 195.291 507.336 215.457Z" fill="white" fill-opacity="0.03"/>
<path d="M289.623 0H291.891C312.046 0 328.396 16.3393 328.396 36.5052C328.396 46.1832 324.549 55.4664 317.705 62.3099L240.919 139.106C234.076 145.95 224.792 149.797 215.104 149.797H215.094C194.938 149.797 178.589 133.458 178.589 113.292V111.034C178.589 101.356 182.436 92.0728 189.279 85.2294L263.808 10.6904C270.652 3.84693 279.935 0 289.623 0Z" fill="white" fill-opacity="0.03"/>
<path d="M507.336 111.034V113.301C507.336 133.457 490.997 149.807 470.831 149.807C461.153 149.807 451.869 145.96 445.026 139.116L368.229 62.3196C361.386 55.4762 357.539 46.193 357.539 36.5149C357.539 16.3591 373.878 0.00976562 394.044 0.00976562H396.312C405.99 0.00976562 415.273 3.85668 422.117 10.7001L496.645 85.229C503.489 92.0623 507.336 101.346 507.336 111.034Z" fill="white" fill-opacity="0.03"/>
<path d="M149.797 215.457V217.724C149.797 227.403 145.95 236.686 139.106 243.539L64.5674 318.068C57.7239 324.912 48.4407 328.759 38.7627 328.759H36.5052C16.3494 328.759 0 312.419 0 292.253V292.243C0 282.565 3.84691 273.282 10.6904 266.428L87.4869 189.642C94.3304 182.799 103.614 178.952 113.292 178.952C133.458 178.952 149.797 195.291 149.797 215.457Z" fill="white" fill-opacity="0.03"/>
<path d="M149.797 111.033V113.301C149.797 133.457 133.458 149.806 113.292 149.806C103.614 149.806 94.3304 145.959 87.4869 139.116L10.6904 62.3193C3.84691 55.4758 0 46.1926 0 36.5146C0 16.3588 16.3393 0.00939941 36.5052 0.00939941H38.7728C48.4509 0.00939941 57.7341 3.85631 64.5775 10.6998L139.106 85.2286C145.95 92.062 149.797 101.345 149.797 111.033Z" fill="white" fill-opacity="0.03"/>
</svg>
