<svg width="34" height="27" viewBox="0 0 34 27" fill="none" xmlns="http://www.w3.org/2000/svg">
<path fill-rule="evenodd" clip-rule="evenodd" d="M11.3321 1.1376C9.43841 1.54266 7.28419 2.23381 5.77416 2.92074L5.39167 3.09476L4.93402 3.8194C2.64698 7.44115 1.31215 10.8792 0.661775 14.8233C0.395188 16.44 0.277124 18.5821 0.35896 20.3166C0.390174 20.9771 0.430499 21.6441 0.448613 21.7989L0.481552 22.0801L1.04087 22.4737C2.78078 23.6978 4.74382 24.7616 6.68078 25.5301C7.20107 25.7366 8.84949 26.3217 8.91073 26.3217C8.94793 26.3217 9.64585 25.2838 9.98538 24.7236C10.346 24.1285 10.7338 23.3995 10.7021 23.3763C10.6928 23.3695 10.5396 23.3069 10.3617 23.2372C9.89632 23.055 8.88259 22.5742 8.35205 22.2839L7.89597 22.0343L8.05064 21.9068C8.13571 21.8366 8.29103 21.7181 8.39583 21.6433L8.58635 21.5074L9.21381 21.7743C10.9995 22.5338 13.0882 23.0712 15.1328 23.2971C15.938 23.386 18.1144 23.3865 18.9065 23.2979C20.9475 23.0696 22.9973 22.541 24.7421 21.793L25.4292 21.4983L25.7571 21.7569C26.0601 21.9958 26.0774 22.0209 25.9864 22.0883C25.8082 22.2202 24.2262 22.9997 23.7585 23.186C23.5065 23.2864 23.291 23.3746 23.2798 23.3821C23.2336 23.4129 23.9661 24.6737 24.4924 25.4695C24.8024 25.9382 25.0621 26.3217 25.0695 26.3217C25.0769 26.3217 25.4703 26.1912 25.9437 26.0317C28.2418 25.2574 30.4186 24.183 32.4381 22.826C33.6287 22.026 33.5236 22.1385 33.5744 21.6083C33.7321 19.9625 33.684 17.506 33.459 15.7161C32.9211 11.4364 31.3583 7.26231 28.9288 3.61659L28.5643 3.06959L28.0617 2.84839C26.3828 2.10952 24.3183 1.46648 22.3876 1.0811C21.8351 0.970828 21.6812 0.956218 21.645 1.01065C21.541 1.16725 20.8473 2.61751 20.8473 2.67838C20.8473 2.72573 20.7774 2.73482 20.6007 2.71052C19.3 2.53158 18.6261 2.49127 16.9658 2.49311C15.3171 2.49489 14.6714 2.53423 13.4593 2.70652L13.2145 2.74136L12.7717 1.8427C12.5281 1.34846 12.2986 0.946154 12.2618 0.948589C12.2249 0.951078 11.8065 1.03614 11.3321 1.1376ZM12.1088 11.633C13.0635 11.8589 13.8967 12.6511 14.2592 13.6775C14.4414 14.1933 14.4865 15.175 14.3541 15.7432C14.0979 16.8427 13.2613 17.7958 12.2873 18.0978C11.7871 18.2528 11.0702 18.2438 10.5982 18.0766C9.85034 17.8116 9.24772 17.2601 8.87633 16.5007C8.5946 15.9246 8.50182 15.5286 8.50182 14.9018C8.50182 12.7426 10.2195 11.186 12.1088 11.633ZM23.0638 11.6046C24.1228 11.8049 25.0972 12.7723 25.4067 13.9305C25.5211 14.3588 25.535 15.2893 25.4333 15.7161C25.2701 16.4004 24.8154 17.1543 24.3156 17.5688C23.7409 18.0455 23.1719 18.2293 22.3808 18.194C21.8904 18.1721 21.7881 18.1489 21.4335 17.979C20.477 17.5208 19.8586 16.7166 19.6378 15.6436C19.464 14.7989 19.5639 14.0441 19.9546 13.2494C20.1504 12.8513 20.2714 12.6865 20.5902 12.3836C21.3216 11.6888 22.1424 11.4303 23.0638 11.6046Z" fill="url(#paint0_linear_7213_15751)"/>
<defs>
<linearGradient id="paint0_linear_7213_15751" x1="0.333374" y1="0.948578" x2="37.6641" y2="10.2111" gradientUnits="userSpaceOnUse">
<stop stop-color="#6473FF"/>
<stop offset="1" stop-color="#A35AFF"/>
</linearGradient>
</defs>
</svg>
