<svg width="50" height="39" viewBox="0 0 50 39" fill="none" xmlns="http://www.w3.org/2000/svg">
<path fill-rule="evenodd" clip-rule="evenodd" d="M16.4981 0.283526C13.6575 0.891128 10.4262 1.92785 8.16118 2.95824L7.58744 3.21927L6.90097 4.30623C3.4704 9.73885 1.46817 14.896 0.492602 20.8121C0.0927206 23.2371 -0.0843754 26.4503 0.0383788 29.052C0.0852001 30.0428 0.145688 31.0433 0.172859 31.2754L0.222267 31.6973L1.06125 32.2876C3.67111 34.1238 6.61568 35.7195 9.5211 36.8723C10.3015 37.182 12.7742 38.0597 12.866 38.0597C12.9218 38.0597 13.9687 36.5028 14.478 35.6625C15.019 34.7698 15.6007 33.6764 15.5531 33.6416C15.5391 33.6313 15.3094 33.5374 15.0425 33.433C14.3444 33.1597 12.8238 32.4384 12.028 32.0029L11.3439 31.6286L11.5759 31.4373C11.7035 31.3321 11.9365 31.1543 12.0937 31.0421L12.3795 30.8382L13.3207 31.2385C15.9993 32.3779 19.1322 33.184 22.1992 33.5227C23.407 33.6562 26.6715 33.6569 27.8598 33.524C30.9212 33.1816 33.9959 32.3887 36.6131 31.2666L37.6438 30.8246L38.1355 31.2125C38.5901 31.5709 38.6161 31.6085 38.4795 31.7096C38.2123 31.9075 35.8392 33.0767 35.1377 33.3561C34.7596 33.5067 34.4365 33.639 34.4196 33.6503C34.3504 33.6964 35.4491 35.5877 36.2385 36.7813C36.7035 37.4845 37.0931 38.0597 37.1042 38.0597C37.1153 38.0597 37.7054 37.8639 38.4155 37.6247C41.8627 36.4633 45.1279 34.8516 48.1571 32.8161C49.943 31.6161 49.7854 31.7849 49.8615 30.9897C50.0981 28.5209 50.0259 24.8362 49.6884 22.1513C48.8815 15.7317 46.5373 9.4706 42.8932 4.00202L42.3464 3.18152L41.5925 2.84972C39.0741 1.74141 35.9774 0.776847 33.0813 0.19879C32.2526 0.0333753 32.0217 0.0114608 31.9674 0.0931128C31.8114 0.328005 30.7709 2.50339 30.7709 2.5947C30.7709 2.66572 30.666 2.67936 30.401 2.64291C28.45 2.3745 27.4391 2.31403 24.9486 2.31679C22.4755 2.31947 21.507 2.37848 19.6889 2.63691L19.3217 2.68918L18.6575 1.34119C18.2921 0.599827 17.9479 -0.00363594 17.8926 1.64927e-05C17.8373 0.00375009 17.2097 0.131342 16.4981 0.283526ZM17.6631 16.0266C19.0951 16.3654 20.345 17.5538 20.8888 19.0934C21.162 19.867 21.2297 21.3397 21.0311 22.1919C20.6469 23.8411 19.3918 25.2708 17.9308 25.7238C17.1806 25.9564 16.1053 25.9429 15.3973 25.692C14.2754 25.2945 13.3715 24.4673 12.8144 23.3282C12.3918 22.4641 12.2527 21.87 12.2527 20.9298C12.2527 17.691 14.8291 15.3561 17.6631 16.0266ZM34.0956 15.984C35.6841 16.2845 37.1457 17.7356 37.61 19.4729C37.7817 20.1154 37.8024 21.511 37.6498 22.1513C37.4051 23.1778 36.723 24.3086 35.9733 24.9304C35.1112 25.6453 34.2579 25.9211 33.0711 25.8681C32.3355 25.8353 32.182 25.8004 31.6502 25.5457C30.2155 24.8583 29.2878 23.652 28.9567 22.0426C28.6959 20.7755 28.8458 19.6433 29.4319 18.4512C29.7255 17.8541 29.907 17.6068 30.3852 17.1526C31.4824 16.1103 32.7136 15.7226 34.0956 15.984Z" fill="url(#paint0_linear_5865_3141)"/>
<defs>
<linearGradient id="paint0_linear_5865_3141" x1="0" y1="0" x2="55.9961" y2="13.8938" gradientUnits="userSpaceOnUse">
<stop stop-color="#6034FF"/>
<stop offset="1" stop-color="#A35AFF"/>
</linearGradient>
</defs>
</svg>
