<svg width="34" height="27" viewBox="0 0 34 27" fill="none" xmlns="http://www.w3.org/2000/svg">
<path fill-rule="evenodd" clip-rule="evenodd" d="M11.332 0.910087C9.43828 1.31515 7.28407 2.0063 5.77404 2.69323L5.39154 2.86725L4.9339 3.59189C2.64685 7.21364 1.31203 10.6517 0.661653 14.5958C0.395066 16.2125 0.277002 18.3546 0.358838 20.0891C0.390052 20.7496 0.430377 21.4166 0.448491 21.5714L0.48143 21.8526L1.04075 22.2462C2.78066 23.4703 4.7437 24.5341 6.68065 25.3026C7.20094 25.5091 8.84937 26.0942 8.91061 26.0942C8.94781 26.0942 9.64573 25.0563 9.98526 24.4961C10.3459 23.901 10.7337 23.172 10.702 23.1488C10.6927 23.142 10.5395 23.0794 10.3616 23.0097C9.8962 22.8275 8.88247 22.3466 8.35193 22.0563L7.89585 21.8068L8.05052 21.6793C8.13559 21.6091 8.29091 21.4906 8.39571 21.4158L8.58623 21.2799L9.21369 21.5467C10.9994 22.3063 13.0881 22.8437 15.1327 23.0696C15.9379 23.1585 18.1143 23.159 18.9064 23.0704C20.9474 22.8421 22.9972 22.3135 24.742 21.5655L25.4291 21.2708L25.7569 21.5294C26.06 21.7683 26.0773 21.7934 25.9863 21.8608C25.8081 21.9927 24.226 22.7722 23.7584 22.9585C23.5063 23.0588 23.2909 23.1471 23.2796 23.1546C23.2335 23.1854 23.966 24.4462 24.4923 25.242C24.8022 25.7107 25.062 26.0942 25.0694 26.0942C25.0768 26.0942 25.4702 25.9637 25.9436 25.8042C28.2417 25.0299 30.4185 23.9554 32.438 22.5985C33.6286 21.7985 33.5235 21.911 33.5743 21.3808C33.732 19.735 33.6838 17.2785 33.4589 15.4886C32.9209 11.2089 31.3581 7.0348 28.9287 3.38908L28.5642 2.84209L28.0616 2.62088C26.3827 1.88201 24.3182 1.23897 22.3875 0.853596C21.835 0.74332 21.681 0.72871 21.6449 0.783145C21.5409 0.939739 20.8472 2.39 20.8472 2.45087C20.8472 2.49822 20.7773 2.50731 20.6006 2.48301C19.2999 2.30407 18.626 2.26376 16.9656 2.2656C15.317 2.26738 14.6713 2.30672 13.4592 2.47901L13.2144 2.51385L12.7716 1.61519C12.528 1.12095 12.2985 0.718645 12.2616 0.72108C12.2248 0.723569 11.8064 0.80863 11.332 0.910087ZM12.1087 11.4055C13.0633 11.6313 13.8966 12.4236 14.2591 13.45C14.4413 13.9658 14.4864 14.9475 14.354 15.5157C14.0978 16.6152 13.2611 17.5683 12.2871 17.8703C11.787 18.0253 11.0701 18.0163 10.5981 17.8491C9.85021 17.5841 9.2476 17.0326 8.87621 16.2732C8.59448 15.6971 8.5017 15.3011 8.5017 14.6743C8.5017 12.5151 10.2193 10.9585 12.1087 11.4055ZM23.0637 11.3771C24.1226 11.5774 25.0971 12.5448 25.4066 13.703C25.521 14.1313 25.5349 15.0618 25.4332 15.4886C25.27 16.1729 24.8153 16.9268 24.3155 17.3413C23.7407 17.818 23.1718 18.0018 22.3806 17.9665C21.8903 17.9446 21.7879 17.9214 21.4334 17.7515C20.4769 17.2933 19.8585 16.4891 19.6377 15.4161C19.4639 14.5714 19.5638 13.8166 19.9545 13.0219C20.1502 12.6238 20.2713 12.459 20.59 12.1561C21.3215 11.4613 22.1423 11.2028 23.0637 11.3771Z" fill="url(#paint0_linear_6809_904)"/>
<defs>
<linearGradient id="paint0_linear_6809_904" x1="0.333252" y1="0.721069" x2="37.664" y2="9.98361" gradientUnits="userSpaceOnUse">
<stop stopColor="#6473FF"/>
<stop offset="1" stopColor="#A35AFF"/>
</linearGradient>
</defs>
</svg>
