<svg width="21" height="21" viewBox="0 0 21 21" fill="none" xmlns="http://www.w3.org/2000/svg">
<circle cx="10.25" cy="10.0938" r="10" fill="url(#paint0_linear_10849_44793)"/>
<g clip-path="url(#clip0_10849_44793)">
<path d="M14.4292 7.07846C14.7125 6.78184 15.1667 6.68297 15.5438 6.82483C15.9355 6.95809 16.2042 7.34713 16.25 7.76411V7.9554C16.2125 8.23482 16.0938 8.50135 15.8875 8.69049C14.0771 10.5562 12.2688 12.424 10.4605 14.2896C10.348 14.4035 10.2417 14.5261 10.1042 14.6099C9.66254 14.8893 9.04796 14.7711 8.72087 14.3627C7.77712 13.3869 6.83129 12.4154 5.88754 11.4395C5.71254 11.259 5.62296 11.0161 5.58337 10.7689V10.5583C5.63337 10.1564 5.89171 9.77808 6.26879 9.64052C6.63962 9.49221 7.08754 9.57604 7.37504 9.85761C8.10629 10.6013 8.82296 11.3622 9.55837 12.0994C11.1855 10.4293 12.8042 8.75067 14.4292 7.07846Z" fill="#F2F2F2"/>
</g>
<defs>
<linearGradient id="paint0_linear_10849_44793" x1="0.338133" y1="18.2728" x2="22.1759" y2="5.10632" gradientUnits="userSpaceOnUse">
<stop stop-color="#A73B7C"/>
<stop offset="0.432128" stop-color="#F34236"/>
<stop offset="0.680882" stop-color="#968470"/>
<stop offset="1" stop-color="#6EE1D0"/>
</linearGradient>
<clipPath id="clip0_10849_44793">
<rect width="10.6667" height="8" fill="white" transform="translate(5.58337 6.76025)"/>
</clipPath>
</defs>
</svg>
