<svg width="20" height="21" viewBox="0 0 20 21" fill="none" xmlns="http://www.w3.org/2000/svg">
<circle cx="10" cy="10.6128" r="10" fill="#9072FF"/>
<g clip-path="url(#clip0_6626_12134)">
<path d="M14.1792 7.5975C14.4625 7.30088 14.9167 7.20201 15.2938 7.34387C15.6855 7.47713 15.9542 7.86617 16 8.28315V8.47445C15.9625 8.75387 15.8438 9.02039 15.6375 9.20953C13.8271 11.0752 12.0188 12.943 10.2105 14.8087C10.098 14.9226 9.99171 15.0451 9.85421 15.1289C9.41254 15.4083 8.79796 15.2901 8.47087 14.8818C7.52712 13.9059 6.58129 12.9344 5.63754 11.9586C5.46254 11.778 5.37296 11.5352 5.33337 11.288V11.0773C5.38337 10.6754 5.64171 10.2971 6.01879 10.1596C6.38962 10.0113 6.83754 10.0951 7.12504 10.3766C7.85629 11.1203 8.57296 11.8812 9.30837 12.6185C10.9355 10.9484 12.5542 9.26972 14.1792 7.5975Z" fill="#F2F2F2"/>
</g>
<defs>
<clipPath id="clip0_6626_12134">
<rect width="10.6667" height="8" fill="white" transform="translate(5.33337 7.2793)"/>
</clipPath>
</defs>
</svg>
