<svg width="141" height="137" viewBox="0 0 141 137" fill="none" xmlns="http://www.w3.org/2000/svg">
<g style="mix-blend-mode:overlay">
<rect width="47.7877" height="19.6226" rx="9.8113" transform="matrix(0.446945 -0.894561 -0.894561 -0.446945 74.094 71.9004)" fill="url(#paint0_linear_6569_13339)"/>
<rect x="73.6583" y="71.6865" width="47.7877" height="19.6226" rx="9.8113" transform="rotate(26.3578 73.6583 71.6865)" fill="url(#paint1_linear_6569_13339)"/>
<rect x="14.0588" y="42.1172" width="47.7877" height="19.6226" rx="9.8113" transform="rotate(26.3578 14.0588 42.1172)" fill="url(#paint2_linear_6569_13339)"/>
<rect width="47.7877" height="19.6226" rx="9.8113" transform="matrix(0.446945 -0.894561 -0.894561 -0.446945 43.7352 131.65)" fill="url(#paint3_linear_6569_13339)"/>
<rect x="104.576" y="11.4297" width="47.7877" height="19.6226" rx="9.8113" transform="rotate(26.3578 104.576 11.4297)" fill="url(#paint4_linear_6569_13339)"/>
<rect width="47.7877" height="19.6226" rx="9.8113" transform="matrix(0.446945 -0.894561 -0.894561 -0.446945 134.251 100.964)" fill="url(#paint5_linear_6569_13339)"/>
</g>
<defs>
<linearGradient id="paint0_linear_6569_13339" x1="26.0827" y1="0.11337" x2="26.0331" y2="20.0682" gradientUnits="userSpaceOnUse">
<stop stopColor="#CB60FF"/>
<stop offset="1" stopColor="#5B3C7E"/>
</linearGradient>
<linearGradient id="paint1_linear_6569_13339" x1="99.741" y1="71.7999" x2="99.6914" y2="91.7547" gradientUnits="userSpaceOnUse">
<stop stopColor="#CB60FF"/>
<stop offset="1" stopColor="#5B3C7E"/>
</linearGradient>
<linearGradient id="paint2_linear_6569_13339" x1="40.1415" y1="42.2306" x2="40.0919" y2="62.1853" gradientUnits="userSpaceOnUse">
<stop stopColor="#CB60FF"/>
<stop offset="1" stopColor="#5B3C7E"/>
</linearGradient>
<linearGradient id="paint3_linear_6569_13339" x1="26.0827" y1="0.11337" x2="26.0331" y2="20.0682" gradientUnits="userSpaceOnUse">
<stop stopColor="#CB60FF"/>
<stop offset="1" stopColor="#5B3C7E"/>
</linearGradient>
<linearGradient id="paint4_linear_6569_13339" x1="130.659" y1="11.5431" x2="130.609" y2="31.4978" gradientUnits="userSpaceOnUse">
<stop stopColor="#CB60FF"/>
<stop offset="1" stopColor="#5B3C7E"/>
</linearGradient>
<linearGradient id="paint5_linear_6569_13339" x1="26.0827" y1="0.11337" x2="26.0331" y2="20.0682" gradientUnits="userSpaceOnUse">
<stop stopColor="#CB60FF"/>
<stop offset="1" stopColor="#5B3C7E"/>
</linearGradient>
</defs>
</svg>
