<svg width="20" height="16" viewBox="0 0 20 16" fill="none" xmlns="http://www.w3.org/2000/svg">
<path d="M19.7101 5.28994L15.7101 1.28994C15.6169 1.1967 15.5062 1.12274 15.3844 1.07228C15.2626 1.02182 15.132 0.99585 15.0001 0.99585C14.7338 0.99585 14.4784 1.10164 14.2901 1.28994C14.1018 1.47825 13.996 1.73364 13.996 1.99994C13.996 2.26624 14.1018 2.52164 14.2901 2.70994L16.5901 4.99994H5.00014C4.73492 4.99994 4.48057 5.1053 4.29303 5.29283C4.1055 5.48037 4.00014 5.73472 4.00014 5.99994C4.00014 6.26516 4.1055 6.51951 4.29303 6.70705C4.48057 6.89458 4.73492 6.99994 5.00014 6.99994H19.0001C19.1976 6.99896 19.3903 6.93955 19.554 6.82922C19.7177 6.71889 19.8451 6.56256 19.9201 6.37994C19.9967 6.19783 20.0176 5.99712 19.9803 5.80313C19.9429 5.60914 19.8489 5.43057 19.7101 5.28994ZM15.0001 8.99994H1.00014C0.802714 9.00093 0.609998 9.06033 0.446278 9.17066C0.282557 9.281 0.15516 9.43732 0.0801395 9.61994C0.00356002 9.80205 -0.0173626 10.0028 0.0200115 10.1968C0.0573856 10.3907 0.151382 10.5693 0.290139 10.7099L4.29014 14.7099C4.3831 14.8037 4.4937 14.8781 4.61556 14.9288C4.73742 14.9796 4.86813 15.0057 5.00014 15.0057C5.13215 15.0057 5.26286 14.9796 5.38472 14.9288C5.50658 14.8781 5.61718 14.8037 5.71014 14.7099C5.80387 14.617 5.87826 14.5064 5.92903 14.3845C5.9798 14.2627 6.00594 14.132 6.00594 13.9999C6.00594 13.8679 5.9798 13.7372 5.92903 13.6154C5.87826 13.4935 5.80387 13.3829 5.71014 13.2899L3.41014 10.9999H15.0001C15.2654 10.9999 15.5197 10.8946 15.7072 10.707C15.8948 10.5195 16.0001 10.2652 16.0001 9.99994C16.0001 9.73472 15.8948 9.48037 15.7072 9.29284C15.5197 9.1053 15.2654 8.99994 15.0001 8.99994Z" fill="white"/>
</svg>
