<svg width="18" height="17" viewBox="0 0 18 17" fill="none" xmlns="http://www.w3.org/2000/svg">
<path d="M6.87305 2.125H3.68555C3.09875 2.125 2.62305 2.6007 2.62305 3.1875V13.8125C2.62305 14.3993 3.09875 14.875 3.68555 14.875H14.3105C14.8974 14.875 15.373 14.3993 15.373 13.8125V10.625" stroke="#9072FF" stroke-width="1.6" stroke-linecap="round" stroke-linejoin="round"/>
<path fill-rule="evenodd" clip-rule="evenodd" d="M9.01783 1.3252C8.57601 1.3252 8.21783 1.68337 8.21783 2.1252C8.21783 2.56702 8.57601 2.9252 9.01783 2.9252H13.4614L5.81146 10.5751C5.49904 10.8876 5.49904 11.3941 5.81146 11.7065C6.12388 12.0189 6.63042 12.0189 6.94283 11.7065L14.5928 4.05648V8.5002C14.5928 8.94202 14.951 9.3002 15.3928 9.3002C15.8347 9.3002 16.1928 8.94202 16.1928 8.5002V2.1252C16.1928 1.81086 16.0115 1.53887 15.7478 1.40807C15.6409 1.35502 15.5203 1.3252 15.3928 1.3252H15.3924H9.01783Z" fill="#9072FF"/>
</svg>
