<svg width="90" height="91" viewBox="0 0 90 91" fill="none" xmlns="http://www.w3.org/2000/svg">
<circle cx="45" cy="45.3066" r="44.5" stroke="url(#paint0_linear_6999_16849)"/>
<path d="M45 20.6587C31.2 20.6587 20 31.8587 20 45.6587C20 59.4587 31.2 70.6587 45 70.6587C58.8 70.6587 70 59.4587 70 45.6587C70 31.8587 58.8 20.6587 45 20.6587ZM56.6 37.6587C56.225 41.6087 54.6 51.2087 53.775 55.6337C53.425 57.5087 52.725 58.1337 52.075 58.2087C50.625 58.3337 49.525 57.2587 48.125 56.3337C45.925 54.8837 44.675 53.9837 42.55 52.5837C40.075 50.9587 41.675 50.0587 43.1 48.6087C43.475 48.2337 49.875 42.4087 50 41.8837C50.0174 41.8042 50.0151 41.7216 49.9933 41.6432C49.9715 41.5648 49.9309 41.4929 49.875 41.4337C49.725 41.3087 49.525 41.3587 49.35 41.3837C49.125 41.4337 45.625 43.7587 38.8 48.3587C37.8 49.0337 36.9 49.3837 36.1 49.3587C35.2 49.3337 33.5 48.8587 32.225 48.4337C30.65 47.9337 29.425 47.6587 29.525 46.7837C29.575 46.3337 30.2 45.8837 31.375 45.4087C38.675 42.2337 43.525 40.1337 45.95 39.1337C52.9 36.2337 54.325 35.7337 55.275 35.7337C55.475 35.7337 55.95 35.7837 56.25 36.0337C56.5 36.2337 56.575 36.5087 56.6 36.7087C56.575 36.8587 56.625 37.3087 56.6 37.6587V37.6587Z" fill="white"/>
<defs>
<linearGradient id="paint0_linear_6999_16849" x1="-7.12871" y1="0.306641" x2="110.279" y2="11.2315" gradientUnits="userSpaceOnUse">
<stop stop-color="#B809B5"/>
<stop offset="0.510417" stop-color="#ED1C51"/>
<stop offset="1" stop-color="#FFB000"/>
</linearGradient>
</defs>
</svg>
