<svg width="50" height="51" viewBox="0 0 50 51" fill="none" xmlns="http://www.w3.org/2000/svg">
<path d="M25 0.658691C11.2 0.658691 0 11.8587 0 25.6587C0 39.4587 11.2 50.6587 25 50.6587C38.8 50.6587 50 39.4587 50 25.6587C50 11.8587 38.8 0.658691 25 0.658691ZM36.6 17.6587C36.225 21.6087 34.6 31.2087 33.775 35.6337C33.425 37.5087 32.725 38.1337 32.075 38.2087C30.625 38.3337 29.525 37.2587 28.125 36.3337C25.925 34.8837 24.675 33.9837 22.55 32.5837C20.075 30.9587 21.675 30.0587 23.1 28.6087C23.475 28.2337 29.875 22.4087 30 21.8837C30.0174 21.8042 30.0151 21.7216 29.9933 21.6432C29.9715 21.5648 29.9309 21.4929 29.875 21.4337C29.725 21.3087 29.525 21.3587 29.35 21.3837C29.125 21.4337 25.625 23.7587 18.8 28.3587C17.8 29.0337 16.9 29.3837 16.1 29.3587C15.2 29.3337 13.5 28.8587 12.225 28.4337C10.65 27.9337 9.425 27.6587 9.525 26.7837C9.575 26.3337 10.2 25.8837 11.375 25.4087C18.675 22.2337 23.525 20.1337 25.95 19.1337C32.9 16.2337 34.325 15.7337 35.275 15.7337C35.475 15.7337 35.95 15.7837 36.25 16.0337C36.5 16.2337 36.575 16.5087 36.6 16.7087C36.575 16.8587 36.625 17.3087 36.6 17.6587Z" fill="white"/>
</svg>
