<svg width="109" height="36" viewBox="0 0 109 36" fill="none" xmlns="http://www.w3.org/2000/svg">
<g clip-path="url(#clip0_11182_72140)">
<path d="M12.5532 5.95898V16.1136H4.62259V5.95898H0.857422V30.1991H4.62259V20.3742H12.5532V30.1991H16.3184V5.95898H12.5532Z" fill="white"/>
<path d="M28.3681 22.3634C28.3681 23.3348 28.04 24.2665 27.4558 24.9534C26.8717 25.6404 26.0794 26.0263 25.2532 26.0263C24.4271 26.0263 23.6348 25.6404 23.0507 24.9534C22.4665 24.2665 22.1384 23.3348 22.1384 22.3634V11.981H18.5669V22.3634C18.5669 24.4467 19.2707 26.4447 20.5234 27.9178C21.7761 29.3909 23.4752 30.2185 25.2468 30.2185C27.0184 30.2185 28.7175 29.3909 29.9702 27.9178C31.2229 26.4447 31.9267 24.4467 31.9267 22.3634V11.981H28.3681V22.3634Z" fill="white"/>
<path d="M54.8298 13.0505C54.8298 10.9224 56.027 10.2477 57.3387 10.2477C58.3957 10.2477 59.7922 11.1936 60.7054 12.3411L63.0445 9.10017C61.8768 7.24323 59.5081 5.95898 57.5693 5.95898C53.6952 5.95898 50.893 8.62726 50.893 13.0505C50.893 21.2571 59.4232 18.6539 59.4232 23.2464C59.4232 24.6629 58.2537 25.9146 56.9144 25.9146C54.8021 25.9146 54.1177 24.6998 53.1473 23.4156L50.5518 26.5893C52.212 28.9864 54.2597 30.2034 56.7133 30.2034C60.3936 30.2034 63.3544 27.5026 63.3544 23.2811C63.3544 14.1699 54.8242 17.0009 54.8242 13.0505" fill="white"/>
<path d="M107.601 26.3268C105.491 26.3268 104.891 25.253 104.891 23.6086V16.3305H108.171V12.6427H104.891V7.77686L101.27 9.68803V24.5132C101.27 28.3052 103.495 30.2164 106.546 30.2164C107.025 30.2266 107.503 30.1816 107.974 30.0819L108.858 26.2574C108.459 26.2899 108.002 26.3224 107.601 26.3224" fill="white"/>
<path d="M41.9623 12.1027C40.1932 12.1027 38.959 12.7058 37.7655 14.0833V6.10449H34.1885V20.8928C34.1885 26.4289 37.5921 30.2209 41.4163 30.2209C45.6592 30.2209 49.3912 26.3617 49.3912 21.164C49.3912 16.0313 45.9562 12.1049 41.9623 12.1049V12.1027ZM41.9402 25.9886C41.1375 25.9886 40.3528 25.7086 39.6854 25.1842C39.018 24.6598 38.4978 23.9145 38.1906 23.0424C37.8835 22.1703 37.8031 21.2107 37.9597 20.285C38.1163 19.3592 38.5028 18.5088 39.0704 17.8413C39.638 17.1739 40.3611 16.7194 41.1484 16.5352C41.9357 16.3511 42.7517 16.4456 43.4933 16.8068C44.2349 17.168 44.8687 17.7797 45.3147 18.5646C45.7606 19.3494 45.9987 20.2721 45.9987 21.216C45.9987 22.4818 45.5711 23.6957 44.81 24.5907C44.0489 25.4857 43.0166 25.9886 41.9402 25.9886Z" fill="white"/>
<path d="M80.8023 20.9427C80.8023 15.7363 77.0777 11.8857 72.8274 11.8857C69.0032 11.8857 65.5996 15.6777 65.5996 21.2138V36.0108H69.1766V28.0212C70.3683 29.3965 71.6043 30.0018 73.3716 30.0018C77.3655 30.0018 80.8005 26.0775 80.8005 20.9427H80.8023ZM77.4153 20.8906C77.4153 21.8345 77.1773 22.7573 76.7313 23.5421C76.2854 24.3269 75.6515 24.9386 74.91 25.2999C74.1684 25.6611 73.3523 25.7556 72.5651 25.5714C71.7778 25.3873 71.0547 24.9327 70.4871 24.2653C69.9195 23.5978 69.5329 22.7475 69.3763 21.8217C69.2197 20.8959 69.3001 19.9363 69.6073 19.0643C69.9145 18.1922 70.4347 17.4468 71.1021 16.9224C71.7695 16.398 72.5542 16.1181 73.3568 16.1181C74.4332 16.1181 75.4655 16.6209 76.2266 17.5159C76.9877 18.411 77.4153 19.6249 77.4153 20.8906Z" fill="white"/>
<path d="M92.3577 11.682V7.4562C92.8326 7.19525 93.2347 6.78106 93.5172 6.26182C93.7997 5.74259 93.951 5.13967 93.9534 4.52326V4.42564C93.9534 3.56263 93.6619 2.73497 93.143 2.12472C92.624 1.51448 91.9202 1.17165 91.1863 1.17165H91.1033C90.3694 1.17165 89.6656 1.51448 89.1466 2.12472C88.6277 2.73497 88.3361 3.56263 88.3361 4.42564V4.52326C88.3386 5.13967 88.4898 5.74259 88.7723 6.26182C89.0548 6.78106 89.457 7.19525 89.9319 7.4562V11.682C88.5669 11.9276 87.2814 12.5929 86.2054 13.6106L76.3507 4.58401C76.4204 4.28634 76.4576 3.97944 76.4614 3.67072C76.4625 2.94553 76.2806 2.23625 75.9389 1.63259C75.5972 1.02893 75.1109 0.558014 74.5415 0.279406C73.9721 0.000797672 73.3453 -0.0729865 72.7403 0.0673862C72.1352 0.207759 71.5792 0.555982 71.1425 1.06801C70.7058 1.58004 70.408 2.23287 70.2868 2.94392C70.1657 3.65498 70.2266 4.39232 70.4618 5.06268C70.697 5.73304 71.0961 6.3063 71.6084 6.70995C72.1207 7.11361 72.7233 7.32952 73.34 7.33038C73.8793 7.32754 74.4085 7.1585 74.8749 6.84011L84.5802 15.7192C83.7081 17.268 83.2531 19.0899 83.2745 20.9473C83.2959 22.8047 83.7927 24.6114 84.7001 26.1319L81.7485 29.6029C81.5098 29.5132 81.2611 29.4657 81.0106 29.4619C80.5043 29.4623 80.0095 29.6392 79.5887 29.9702C79.1679 30.3012 78.84 30.7715 78.6464 31.3216C78.4529 31.8717 78.4023 32.477 78.5012 33.0608C78.6 33.6447 78.8439 34.181 79.2018 34.602C79.5598 35.023 80.0159 35.3097 80.5124 35.426C81.009 35.5422 81.5236 35.4828 81.9914 35.2551C82.4592 35.0275 82.8592 34.6419 83.1407 34.1471C83.4221 33.6522 83.5726 33.0704 83.573 32.4751C83.5698 32.1804 83.5294 31.888 83.453 31.6073L86.3733 28.1733C87.3255 29.035 88.4329 29.629 89.6104 29.9097C90.788 30.1905 92.0046 30.1506 93.1671 29.7931C94.3295 29.4357 95.407 28.7701 96.3169 27.8473C97.2268 26.9246 97.9451 25.7692 98.4167 24.4696C98.8883 23.17 99.1007 21.7608 99.0376 20.3498C98.9746 18.9388 98.6377 17.5635 98.0529 16.3292C97.4681 15.095 96.6508 14.0345 95.6636 13.2289C94.6765 12.4234 93.5456 11.8943 92.3577 11.682ZM91.1476 25.5788C90.3488 25.5779 89.5681 25.2986 88.9042 24.7761C88.2404 24.2537 87.7231 23.5115 87.4179 22.6435C87.1126 21.7754 87.033 20.8205 87.1892 19.8992C87.3453 18.978 87.7302 18.1319 88.2952 17.4678C88.8601 16.8038 89.5798 16.3515 90.3633 16.1683C91.1468 15.9851 91.9588 16.0792 92.6969 16.4385C93.4349 16.7979 94.0658 17.4065 94.5098 18.1874C94.9538 18.9683 95.1909 19.8864 95.1913 20.8258C95.1913 22.0858 94.7656 23.2942 94.008 24.1851C93.2503 25.0761 92.2227 25.5766 91.1512 25.5766" fill="white"/>
</g>
<defs>
<clipPath id="clip0_11182_72140">
<rect width="108" height="36" fill="white" transform="translate(0.857422)"/>
</clipPath>
</defs>
</svg>
