<svg width="24" height="25" viewBox="0 0 24 25" fill="none" xmlns="http://www.w3.org/2000/svg">
<path d="M6 11.131C5.80222 11.131 5.60888 11.1897 5.44443 11.2996C5.27998 11.4095 5.15181 11.5656 5.07612 11.7484C5.00043 11.9311 4.98063 12.1322 5.01921 12.3261C5.0578 12.5201 5.15304 12.6983 5.29289 12.8382C5.43275 12.978 5.61093 13.0732 5.80491 13.1118C5.99889 13.1504 6.19996 13.1306 6.38268 13.0549C6.56541 12.9792 6.72159 12.8511 6.83147 12.6866C6.94135 12.5222 7 12.3288 7 12.131C7 11.8658 6.89464 11.6115 6.70711 11.4239C6.51957 11.2364 6.26522 11.131 6 11.131ZM11.86 9.58104L4.71 2.42104C4.61676 2.32781 4.50607 2.25385 4.38425 2.20338C4.26243 2.15292 4.13186 2.12695 4 2.12695C3.86814 2.12695 3.73757 2.15292 3.61575 2.20338C3.49393 2.25385 3.38324 2.32781 3.29 2.42104C3.1017 2.60935 2.99591 2.86474 2.99591 3.13104C2.99591 3.39735 3.1017 3.65274 3.29 3.84104L4.59 5.13104H4C3.20435 5.13104 2.44129 5.44712 1.87868 6.00972C1.31607 6.57233 1 7.3354 1 8.13104V16.131C1 16.9267 1.31607 17.6898 1.87868 18.2524C2.44129 18.815 3.20435 19.131 4 19.131H18.59L21.29 21.841C21.383 21.9348 21.4936 22.0092 21.6154 22.0599C21.7373 22.1107 21.868 22.1368 22 22.1368C22.132 22.1368 22.2627 22.1107 22.3846 22.0599C22.5064 22.0092 22.617 21.9348 22.71 21.841C22.8037 21.7481 22.8781 21.6375 22.9289 21.5156C22.9797 21.3938 23.0058 21.2631 23.0058 21.131C23.0058 20.999 22.9797 20.8683 22.9289 20.7465C22.8781 20.6246 22.8037 20.514 22.71 20.421L11.86 9.58104ZM11.12 11.671L12.46 13.011C12.3185 13.0874 12.1608 13.1286 12 13.131C11.7348 13.131 11.4804 13.0257 11.2929 12.8382C11.1054 12.6506 11 12.3963 11 12.131C11.0024 11.9703 11.0436 11.8125 11.12 11.671ZM4 17.131C3.73478 17.131 3.48043 17.0257 3.29289 16.8382C3.10536 16.6506 3 16.3963 3 16.131V8.13104C3 7.86583 3.10536 7.61147 3.29289 7.42394C3.48043 7.2364 3.73478 7.13104 4 7.13104H6.59L9.69 10.231C9.24713 10.7655 9.00328 11.437 9 12.131C9 12.9267 9.31607 13.6898 9.87868 14.2524C10.4413 14.815 11.2044 15.131 12 15.131C12.6941 15.1278 13.3656 14.8839 13.9 14.441L16.59 17.131H4ZM20 5.13104H12.66C12.3948 5.13104 12.1404 5.2364 11.9529 5.42394C11.7654 5.61147 11.66 5.86583 11.66 6.13104C11.66 6.39626 11.7654 6.65062 11.9529 6.83815C12.1404 7.02569 12.3948 7.13104 12.66 7.13104H20C20.2652 7.13104 20.5196 7.2364 20.7071 7.42394C20.8946 7.61147 21 7.86583 21 8.13104V15.471C21 15.7363 21.1054 15.9906 21.2929 16.1782C21.4804 16.3657 21.7348 16.471 22 16.471C22.2652 16.471 22.5196 16.3657 22.7071 16.1782C22.8946 15.9906 23 15.7363 23 15.471V8.13104C23 7.3354 22.6839 6.57233 22.1213 6.00972C21.5587 5.44712 20.7956 5.13104 20 5.13104ZM19 12.131C19 11.9333 18.9414 11.7399 18.8315 11.5755C18.7216 11.411 18.5654 11.2829 18.3827 11.2072C18.2 11.1315 17.9989 11.1117 17.8049 11.1503C17.6109 11.1888 17.4327 11.2841 17.2929 11.4239C17.153 11.5638 17.0578 11.742 17.0192 11.936C16.9806 12.1299 17.0004 12.331 17.0761 12.5137C17.1518 12.6965 17.28 12.8526 17.4444 12.9625C17.6089 13.0724 17.8022 13.131 18 13.131C18.2652 13.131 18.5196 13.0257 18.7071 12.8382C18.8946 12.6506 19 12.3963 19 12.131Z" fill="#FB8618"/>
</svg>
