<svg width="69" height="60" viewBox="0 0 69 60" fill="none" xmlns="http://www.w3.org/2000/svg">
<path d="M53.8639 0.078175C52.5298 -0.844683 37.3438 6.67524 34.0818 8.3108C30.829 6.68438 15.6338 -0.835546 14.2997 0.078175C12.9931 0.982759 3.02443 10.8053 1.51056e-05 15.6206C-0.00912211 17.7587 4.13003 36.3346 4.13003 36.3346L16.5475 51.2283L34.0818 60L51.6161 51.2283L64.0336 36.3346C64.0336 36.3346 68.1727 17.7678 68.1636 15.6206C65.1392 10.8053 55.1614 0.982759 53.8639 0.078175Z" fill="url(#paint0_linear_6431_19511)"/>
<path d="M34.0819 19.6414V8.31128C30.829 6.68485 15.6338 -0.835071 14.2998 0.0786501L18.8501 12.7794L34.0819 19.6414Z" fill="url(#paint1_linear_6431_19511)"/>
<path opacity="0.44" d="M34.082 19.6407L18.8594 12.7786L26.4707 8.31055L34.082 19.6407Z" fill="url(#paint2_linear_6431_19511)"/>
<path d="M18.8593 12.7798L14.309 0.0791016C13.0024 0.983685 3.03369 10.8062 0.00927734 15.6215L11.8694 18.5911L18.8593 12.7798Z" fill="url(#paint3_linear_6431_19511)"/>
<path d="M18.8592 12.7792L4.65088 9.78223L14.5191 15.8311L18.8592 12.7792Z" fill="white" fill-opacity="0.38"/>
<path d="M14.519 31.2362L4.13002 36.3348L0 15.6299L11.8692 18.5995L14.519 31.2362Z" fill="url(#paint4_linear_6431_19511)"/>
<path d="M13.4131 25.9825H1.89111L11.8689 18.5996L13.4131 25.9825Z" fill="#F051C0"/>
<path d="M14.5189 31.2354L4.12988 36.3339L16.5474 51.2276L23.6744 42.2274L14.5189 31.2354Z" fill="url(#paint5_linear_6431_19511)"/>
<path d="M4.12988 36.334L21.9657 40.1807L10.5351 44.0184L4.12988 36.334Z" fill="white" fill-opacity="0.38"/>
<path d="M23.6744 42.2295L14.5189 31.2374C13.523 26.678 12.5087 21.8718 11.8691 18.6007C13.4407 16.7732 15.853 14.224 18.8591 12.7803C21.7739 14.0595 34.0817 19.6423 34.0817 19.6423C34.0817 19.6423 46.3895 14.0503 49.3043 12.7803C51.7622 14.8544 54.7227 16.7732 56.2943 18.6007C55.6547 21.8718 54.6404 26.678 53.6445 31.2374L44.489 42.2295L34.0908 47.4286C34.0817 47.4286 23.6744 42.2295 23.6744 42.2295Z" fill="url(#paint6_linear_6431_19511)"/>
<path opacity="0.68" d="M34.0816 47.4286C34.0907 47.4286 44.4889 42.2204 44.4889 42.2204L53.6444 31.2374C54.6403 26.678 55.6546 21.8718 56.2942 18.6007C54.7226 16.7732 51.7621 14.8453 49.3042 12.7803C49.3042 12.7803 45.6036 21.8444 39.9842 30.0039C34.4654 38.0264 23.6743 42.2295 23.6743 42.2295L34.0816 47.4286Z" fill="#EB6892"/>
<path d="M23.6744 42.2285L34.0817 47.4276V60.0004L16.5474 51.2287L23.6744 42.2285Z" fill="url(#paint7_linear_6431_19511)"/>
<path d="M16.5474 51.2289L26.4704 49.7578L34.0817 60.0006L16.5474 51.2289Z" fill="white" fill-opacity="0.38"/>
<path d="M23.6743 42.2285L26.4703 49.7576L30.3079 48.5789L34.0816 60.0004V47.4276L23.6743 42.2285Z" fill="#F051C0"/>
<path d="M34.082 19.6414V8.31128C37.3349 6.68485 52.5301 -0.835071 53.8641 0.0786501L49.3138 12.7794L34.082 19.6414Z" fill="url(#paint8_linear_6431_19511)"/>
<path d="M38.3677 17.6945L46.6186 13.9756V2.38965L38.3677 17.6945Z" fill="#F051C0"/>
<path d="M49.3042 12.7798L53.8545 0.0791016C55.1611 0.983685 65.1298 10.8062 68.1543 15.6215L56.2942 18.5911L49.3042 12.7798Z" fill="url(#paint9_linear_6431_19511)"/>
<path d="M53.6445 31.2362L64.0335 36.3348L68.1636 15.6299L56.2943 18.5995L53.6445 31.2362Z" fill="url(#paint10_linear_6431_19511)"/>
<path d="M68.1635 15.6299L60.8994 23.6524L64.0335 36.3348L68.1635 15.6299Z" fill="white" fill-opacity="0.38"/>
<path d="M54.6953 0.974609L66.6833 13.5474L56.2943 18.6003L54.6953 0.974609Z" fill="white" fill-opacity="0.38"/>
<path d="M56.2943 18.5996L53.6445 31.2364L60.8995 23.6525L56.2943 18.5996Z" fill="#F051C0"/>
<path d="M53.6447 31.2354L64.0338 36.3339L51.6163 51.2276L44.4893 42.2274L53.6447 31.2354Z" fill="url(#paint11_linear_6431_19511)"/>
<path d="M59.3189 41.6239L51.6162 51.2271L53.6447 36.8086L59.3189 41.6239Z" fill="white" fill-opacity="0.38"/>
<path d="M44.4893 42.2285L34.082 47.4276V60.0004L51.6163 51.2287L44.4893 42.2285Z" fill="url(#paint12_linear_6431_19511)"/>
<path d="M44.4893 42.2285L38.3674 52.6998L34.082 47.4276L44.4893 42.2285Z" fill="#F845EA"/>
<path d="M38.3677 52.6996L51.6166 51.2285L38.3677 57.8621V52.6996Z" fill="white" fill-opacity="0.38"/>
<path d="M34.091 46.924C28.0056 43.6895 30.2808 44.8864 24.1223 41.6701C18.6765 34.9908 20.6958 37.4579 15.2592 30.8791C13.6602 23.3683 14.2541 26.1186 12.6551 18.7997C14.4734 16.6799 16.4836 14.7154 18.8958 13.4179C25.4563 16.2047 31.8432 18.7814 34.0819 19.6403C31.9255 18.5164 25.7304 15.4098 18.8593 12.1387C15.5973 13.6463 13.4135 15.7296 11.0835 18.3885C12.7099 26.4841 12.18 23.8617 13.7424 31.4091L13.779 31.6009L13.9069 31.7563C19.3253 38.198 17.5435 36.1056 23.2451 42.794C29.5772 45.8276 27.7041 44.9321 34.0362 47.92C34.6575 47.7464 43.9226 42.5565 44.4891 42.2366C41.7114 43.4245 35.3793 46.321 34.091 46.924Z" fill="#FFCADD"/>
<defs>
<linearGradient id="paint0_linear_6431_19511" x1="57.3961" y1="34.2038" x2="4.1516" y2="17.6657" gradientUnits="userSpaceOnUse">
<stop stop-color="#AB093B"/>
<stop offset="0.2086" stop-color="#BD194C"/>
<stop offset="1" stop-color="#FF5289"/>
</linearGradient>
<linearGradient id="paint1_linear_6431_19511" x1="33.5898" y1="12.6022" x2="14.0537" y2="6.53418" gradientUnits="userSpaceOnUse">
<stop stop-color="#AB093B"/>
<stop offset="0.2086" stop-color="#BD194C"/>
<stop offset="1" stop-color="#FF5289"/>
</linearGradient>
<linearGradient id="paint2_linear_6431_19511" x1="31.8878" y1="9.13207" x2="22.0504" y2="21.9811" gradientUnits="userSpaceOnUse">
<stop stop-color="#FFA1C7"/>
<stop offset="0.0869" stop-color="#F49ABE"/>
<stop offset="0.2416" stop-color="#D587A6"/>
<stop offset="0.4463" stop-color="#A46780"/>
<stop offset="0.6931" stop-color="#5F3C4A"/>
<stop offset="0.9731" stop-color="#090507"/>
<stop offset="1"/>
</linearGradient>
<linearGradient id="paint3_linear_6431_19511" x1="17.5245" y1="11.0753" x2="3.94614" y2="6.85782" gradientUnits="userSpaceOnUse">
<stop stop-color="#AB093B"/>
<stop offset="0.2086" stop-color="#BD194C"/>
<stop offset="1" stop-color="#FF5289"/>
</linearGradient>
<linearGradient id="paint4_linear_6431_19511" x1="13.1829" y1="29.0787" x2="-1.44971" y2="24.5336" gradientUnits="userSpaceOnUse">
<stop stop-color="#AB093B"/>
<stop offset="0.2086" stop-color="#BD194C"/>
<stop offset="1" stop-color="#FF5289"/>
</linearGradient>
<linearGradient id="paint5_linear_6431_19511" x1="21.2205" y1="43.0003" x2="5.06901" y2="37.9835" gradientUnits="userSpaceOnUse">
<stop stop-color="#AB093B"/>
<stop offset="0.2086" stop-color="#BD194C"/>
<stop offset="1" stop-color="#FF5289"/>
</linearGradient>
<linearGradient id="paint6_linear_6431_19511" x1="48.5983" y1="32.2464" x2="14.0611" y2="21.5189" gradientUnits="userSpaceOnUse">
<stop stop-color="#C41F53"/>
<stop offset="0.3842" stop-color="#DB4A78"/>
<stop offset="1" stop-color="#FF8CB1"/>
</linearGradient>
<linearGradient id="paint7_linear_6431_19511" x1="34.2276" y1="52.7756" x2="18.9171" y2="48.02" gradientUnits="userSpaceOnUse">
<stop stop-color="#AB093B"/>
<stop offset="0.2086" stop-color="#BD194C"/>
<stop offset="1" stop-color="#FF5289"/>
</linearGradient>
<linearGradient id="paint8_linear_6431_19511" x1="34.5744" y1="12.6022" x2="54.1105" y2="6.53418" gradientUnits="userSpaceOnUse">
<stop stop-color="#AB093B"/>
<stop offset="0.2086" stop-color="#BD194C"/>
<stop offset="1" stop-color="#FF5289"/>
</linearGradient>
<linearGradient id="paint9_linear_6431_19511" x1="50.6394" y1="11.0753" x2="64.2178" y2="6.85782" gradientUnits="userSpaceOnUse">
<stop stop-color="#AB093B"/>
<stop offset="0.2086" stop-color="#BD194C"/>
<stop offset="1" stop-color="#FF5289"/>
</linearGradient>
<linearGradient id="paint10_linear_6431_19511" x1="54.981" y1="29.0787" x2="69.6136" y2="24.5336" gradientUnits="userSpaceOnUse">
<stop stop-color="#AB093B"/>
<stop offset="0.2086" stop-color="#BD194C"/>
<stop offset="1" stop-color="#FF5289"/>
</linearGradient>
<linearGradient id="paint11_linear_6431_19511" x1="52.3357" y1="33.689" x2="57.2556" y2="47.9772" gradientUnits="userSpaceOnUse">
<stop stop-color="#AB093B"/>
<stop offset="0.2086" stop-color="#BD194C"/>
<stop offset="1" stop-color="#FF5289"/>
</linearGradient>
<linearGradient id="paint12_linear_6431_19511" x1="33.9365" y1="52.7756" x2="49.247" y2="48.02" gradientUnits="userSpaceOnUse">
<stop stop-color="#AB093B"/>
<stop offset="0.2086" stop-color="#BD194C"/>
<stop offset="1" stop-color="#FF5289"/>
</linearGradient>
</defs>
</svg>
