<svg width="43" height="43" viewBox="0 0 43 43" fill="none" xmlns="http://www.w3.org/2000/svg">
<circle opacity="0.1" cx="21.5" cy="21.5" r="21.5" fill="#F2F2F2"/>
<circle cx="22" cy="22" r="15" fill="url(#paint0_linear_6686_12927)"/>
<g clip-path="url(#clip0_6686_12927)">
<path d="M28.2687 17.4772C28.6937 17.0323 29.375 16.884 29.9406 17.0967C30.5281 17.2966 30.9312 17.8802 31 18.5057V18.7926C30.9437 19.2117 30.7656 19.6115 30.4562 19.8952C27.7406 22.6937 25.0281 25.4954 22.3156 28.2939C22.1469 28.4648 21.9875 28.6486 21.7812 28.7743C21.1187 29.1935 20.1969 29.0161 19.7062 28.4036C18.2906 26.9398 16.8719 25.4826 15.4562 24.0188C15.1938 23.748 15.0594 23.3837 15 23.0129V22.697C15.075 22.0941 15.4625 21.5266 16.0281 21.3203C16.5844 21.0978 17.2562 21.2236 17.6875 21.6459C18.7844 22.7614 19.8594 23.9028 20.9625 25.0086C23.4031 22.5035 25.8312 19.9855 28.2687 17.4772Z" fill="#F2F2F2"/>
</g>
<defs>
<linearGradient id="paint0_linear_6686_12927" x1="7.1322" y1="34.2685" x2="39.8889" y2="14.5189" gradientUnits="userSpaceOnUse">
<stop stop-color="#A73B7C"/>
<stop offset="0.432128" stop-color="#F34236"/>
<stop offset="0.680882" stop-color="#968470"/>
<stop offset="1" stop-color="#6EE1D0"/>
</linearGradient>
<clipPath id="clip0_6686_12927">
<rect width="16" height="12" fill="white" transform="translate(15 17)"/>
</clipPath>
</defs>
</svg>
