<svg width="30" height="30" viewBox="0 0 30 30" fill="none" xmlns="http://www.w3.org/2000/svg">
<circle cx="15" cy="15" r="15" fill="#9072FF"/>
<g clip-path="url(#clip0_6038_7794)">
<path d="M21.2687 10.4772C21.6937 10.0323 22.375 9.88395 22.9406 10.0967C23.5281 10.2966 23.9312 10.8802 24 11.5057V11.7926C23.9437 12.2117 23.7656 12.6115 23.4562 12.8952C20.7406 15.6937 18.0281 18.4954 15.3156 21.2939C15.1469 21.4648 14.9875 21.6486 14.7812 21.7743C14.1187 22.1935 13.1969 22.0161 12.7062 21.4036C11.2906 19.9398 9.87187 18.4826 8.45625 17.0188C8.19375 16.748 8.05937 16.3837 8 16.0129V15.697C8.075 15.0941 8.4625 14.5266 9.02812 14.3203C9.58437 14.0978 10.2562 14.2236 10.6875 14.6459C11.7844 15.7614 12.8594 16.9028 13.9625 18.0086C16.4031 15.5035 18.8312 12.9855 21.2687 10.4772Z" fill="#F2F2F2"/>
</g>
<defs>
<clipPath id="clip0_6038_7794">
<rect width="16" height="12" fill="white" transform="translate(8 9.99988)"/>
</clipPath>
</defs>
</svg>
