<svg width="43" height="44" viewBox="0 0 43 44" fill="none" xmlns="http://www.w3.org/2000/svg">
<circle opacity="0.1" cx="21.5" cy="22.1479" r="21.5" fill="#F2F2F2"/>
<circle cx="22" cy="22.6479" r="15" fill="#9072FF"/>
<g clip-path="url(#clip0_6686_12928)">
<path d="M28.2687 18.1251C28.6937 17.6802 29.375 17.5319 29.9406 17.7447C30.5281 17.9446 30.9312 18.5281 31 19.1536V19.4406C30.9437 19.8597 30.7656 20.2595 30.4562 20.5432C27.7406 23.3417 25.0281 26.1434 22.3156 28.9419C22.1469 29.1128 21.9875 29.2965 21.7812 29.4223C21.1187 29.8414 20.1969 29.6641 19.7062 29.0515C18.2906 27.5878 16.8719 26.1305 15.4562 24.6668C15.1938 24.3959 15.0594 24.0316 15 23.6609V23.3449C15.075 22.742 15.4625 22.1746 16.0281 21.9682C16.5844 21.7458 17.2562 21.8715 17.6875 22.2939C18.7844 23.4094 19.8594 24.5507 20.9625 25.6566C23.4031 23.1515 25.8312 20.6335 28.2687 18.1251Z" fill="#F2F2F2"/>
</g>
<defs>
<clipPath id="clip0_6686_12928">
<rect width="16" height="12" fill="white" transform="translate(15 17.6479)"/>
</clipPath>
</defs>
</svg>
