<svg width="90" height="91" viewBox="0 0 90 91" fill="none" xmlns="http://www.w3.org/2000/svg">
<circle cx="45" cy="45.3066" r="44.5" stroke="url(#paint0_linear_5865_3169)"/>
<path fill-rule="evenodd" clip-rule="evenodd" d="M36.4981 26.5902C33.6575 27.1978 30.4262 28.2345 28.1612 29.2649L27.5874 29.5259L26.901 30.6129C23.4704 36.0455 21.4682 41.2026 20.4926 47.1188C20.0927 49.5437 19.9156 52.7569 20.0384 55.3586C20.0852 56.3494 20.1457 57.3499 20.1729 57.5821L20.2223 58.004L21.0612 58.5943C23.6711 60.4305 26.6157 62.0262 29.5211 63.179C30.3015 63.4886 32.7742 64.3663 32.866 64.3663C32.9218 64.3663 33.9687 62.8094 34.478 61.9691C35.019 61.0765 35.6007 59.983 35.5531 59.9482C35.5391 59.938 35.3094 59.8441 35.0425 59.7396C34.3444 59.4663 32.8238 58.745 32.028 58.3096L31.3439 57.9352L31.5759 57.7439C31.7035 57.6387 31.9365 57.4609 32.0937 57.3487L32.3795 57.1448L33.3207 57.5451C35.9993 58.6845 39.1322 59.4906 42.1992 59.8294C43.407 59.9628 46.6715 59.9635 47.8598 59.8306C50.9212 59.4882 53.9959 58.6953 56.6131 57.5732L57.6438 57.1313L58.1355 57.5191C58.5901 57.8775 58.6161 57.9151 58.4795 58.0162C58.2123 58.2141 55.8392 59.3834 55.1377 59.6627C54.7596 59.8133 54.4365 59.9457 54.4196 59.957C54.3504 60.0031 55.4491 61.8944 56.2385 63.088C56.7035 63.7911 57.0931 64.3663 57.1042 64.3663C57.1153 64.3663 57.7054 64.1706 58.4155 63.9314C61.8627 62.7699 65.1279 61.1582 68.1571 59.1228C69.943 57.9227 69.7854 58.0916 69.8615 57.2963C70.0981 54.8276 70.0259 51.1428 69.6884 48.458C68.8815 42.0383 66.5373 35.7772 62.8932 30.3087L62.3464 29.4882L61.5925 29.1564C59.0741 28.0481 55.9774 27.0835 53.0813 26.5054C52.2526 26.34 52.0217 26.3181 51.9674 26.3998C51.8114 26.6346 50.7709 28.81 50.7709 28.9013C50.7709 28.9724 50.666 28.986 50.401 28.9496C48.45 28.6811 47.4391 28.6207 44.9486 28.6234C42.4755 28.6261 41.507 28.6851 39.6889 28.9435L39.3217 28.9958L38.6575 27.6478C38.2921 26.9065 37.9479 26.303 37.8926 26.3067C37.8373 26.3104 37.2097 26.438 36.4981 26.5902ZM37.6631 42.3333C39.0951 42.6721 40.345 43.8604 40.8888 45.4C41.162 46.1737 41.2297 47.6463 41.0311 48.4986C40.6469 50.1478 39.3918 51.5775 37.9308 52.0305C37.1806 52.263 36.1053 52.2495 35.3973 51.9986C34.2754 51.6012 33.3715 50.774 32.8144 49.6349C32.3918 48.7707 32.2527 48.1767 32.2527 47.2365C32.2527 43.9976 34.8291 41.6628 37.6631 42.3333ZM54.0956 42.2907C55.6841 42.5911 57.1457 44.0422 57.61 45.7795C57.7817 46.422 57.8024 47.8177 57.6498 48.458C57.4051 49.4844 56.723 50.6152 55.9733 51.237C55.1112 51.952 54.2579 52.2277 53.0711 52.1748C52.3355 52.1419 52.182 52.1071 51.6502 51.8523C50.2155 51.1649 49.2878 49.9586 48.9567 48.3492C48.6959 47.0822 48.8457 45.9499 49.4319 44.7578C49.7255 44.1607 49.907 43.9135 50.3852 43.4592C51.4824 42.417 52.7136 42.0292 54.0956 42.2907Z" fill="white"/>
<defs>
<linearGradient id="paint0_linear_5865_3169" x1="-7.12871" y1="0.306641" x2="110.279" y2="11.2315" gradientUnits="userSpaceOnUse">
<stop stop-color="#B809B5"/>
<stop offset="0.510417" stop-color="#ED1C51"/>
<stop offset="1" stop-color="#FFB000"/>
</linearGradient>
</defs>
</svg>
