<svg width="50" height="39" viewBox="0 0 50 39" fill="none" xmlns="http://www.w3.org/2000/svg">
<path fill-rule="evenodd" clip-rule="evenodd" d="M16.4981 0.931475C13.6575 1.53908 10.4262 2.5758 8.16118 3.60619L7.58744 3.86722L6.90097 4.95418C3.4704 10.3868 1.46817 15.5439 0.492602 21.4601C0.0927206 23.885 -0.0843754 27.0982 0.0383788 29.6999C0.0852001 30.6907 0.145688 31.6913 0.172859 31.9234L0.222267 32.3453L1.06125 32.9356C3.67111 34.7718 6.61568 36.3675 9.5211 37.5203C10.3015 37.8299 12.7742 38.7076 12.866 38.7076C12.9218 38.7076 13.9687 37.1507 14.478 36.3104C15.019 35.4178 15.6007 34.3243 15.5531 34.2895C15.5391 34.2793 15.3094 34.1854 15.0425 34.0809C14.3444 33.8076 12.8238 33.0863 12.028 32.6509L11.3439 32.2765L11.5759 32.0852C11.7035 31.98 11.9365 31.8022 12.0937 31.69L12.3795 31.4862L13.3207 31.8865C15.9993 33.0259 19.1322 33.8319 22.1992 34.1707C23.407 34.3041 26.6715 34.3049 27.8598 34.1719C30.9212 33.8295 33.9959 33.0366 36.6131 31.9145L37.6438 31.4726L38.1355 31.8604C38.5901 32.2188 38.6161 32.2564 38.4795 32.3575C38.2123 32.5554 35.8392 33.7247 35.1377 34.0041C34.7596 34.1546 34.4365 34.287 34.4196 34.2983C34.3504 34.3444 35.4491 36.2357 36.2385 37.4293C36.7035 38.1324 37.0931 38.7076 37.1042 38.7076C37.1153 38.7076 37.7054 38.5119 38.4155 38.2727C41.8627 37.1112 45.1279 35.4995 48.1571 33.4641C49.943 32.264 49.7854 32.4329 49.8615 31.6376C50.0981 29.1689 50.0259 25.4842 49.6884 22.7993C48.8815 16.3796 46.5373 10.1186 42.8932 4.64997L42.3464 3.82947L41.5925 3.49767C39.0741 2.38936 35.9774 1.4248 33.0813 0.846739C32.2526 0.681325 32.0217 0.65941 31.9674 0.741062C31.8114 0.975954 30.7709 3.15134 30.7709 3.24265C30.7709 3.31367 30.666 3.32731 30.401 3.29086C28.45 3.02245 27.4391 2.96198 24.9486 2.96474C22.4755 2.96742 21.507 3.02643 19.6889 3.28486L19.3217 3.33713L18.6575 1.98914C18.2921 1.24778 17.9479 0.644313 17.8926 0.647966C17.8373 0.651699 17.2097 0.779291 16.4981 0.931475ZM17.6631 16.6746C19.0951 17.0134 20.345 18.2017 20.8888 19.7413C21.162 20.515 21.2297 21.9876 21.0311 22.8399C20.6469 24.4891 19.3918 25.9188 17.9308 26.3718C17.1806 26.6043 16.1053 26.5908 15.3973 26.34C14.2754 25.9425 13.3715 25.1153 12.8144 23.9762C12.3918 23.112 12.2527 22.518 12.2527 21.5778C12.2527 18.339 14.8291 16.0041 17.6631 16.6746ZM34.0956 16.632C35.6841 16.9324 37.1457 18.3835 37.61 20.1208C37.7817 20.7633 37.8024 22.159 37.6498 22.7993C37.4051 23.8257 36.723 24.9565 35.9733 25.5783C35.1112 26.2933 34.2579 26.569 33.0711 26.5161C32.3355 26.4832 32.182 26.4484 31.6502 26.1936C30.2155 25.5062 29.2878 24.3 28.9567 22.6905C28.6959 21.4235 28.8458 20.2912 29.4319 19.0991C29.7255 18.502 29.907 18.2548 30.3852 17.8005C31.4824 16.7583 32.7136 16.3705 34.0956 16.632Z" fill="url(#paint0_linear_5865_3141)"/>
<defs>
<linearGradient id="paint0_linear_5865_3141" x1="0" y1="0.647949" x2="55.9961" y2="14.5418" gradientUnits="userSpaceOnUse">
<stop stop-color="#6473FF"/>
<stop offset="1" stop-color="#A35AFF"/>
</linearGradient>
</defs>
</svg>
