<svg width="50" height="39" viewBox="0 0 50 39" fill="none" xmlns="http://www.w3.org/2000/svg">
<path fill-rule="evenodd" clip-rule="evenodd" d="M16.4981 0.590167C13.6575 1.19777 10.4262 2.23449 8.16118 3.26488L7.58744 3.52591L6.90097 4.61287C3.4704 10.0455 1.46817 15.2026 0.492602 21.1188C0.0927206 23.5437 -0.0843754 26.7569 0.0383788 29.3586C0.0852001 30.3494 0.145688 31.3499 0.172859 31.5821L0.222267 32.004L1.06125 32.5943C3.67111 34.4305 6.61568 36.0262 9.5211 37.179C10.3015 37.4886 12.7742 38.3663 12.866 38.3663C12.9218 38.3663 13.9687 36.8094 14.478 35.9691C15.019 35.0765 15.6007 33.983 15.5531 33.9482C15.5391 33.938 15.3094 33.8441 15.0425 33.7396C14.3444 33.4663 12.8238 32.745 12.028 32.3096L11.3439 31.9352L11.5759 31.7439C11.7035 31.6387 11.9365 31.4609 12.0937 31.3487L12.3795 31.1448L13.3207 31.5451C15.9993 32.6845 19.1322 33.4906 22.1992 33.8294C23.407 33.9628 26.6715 33.9635 27.8598 33.8306C30.9212 33.4882 33.9959 32.6953 36.6131 31.5732L37.6438 31.1313L38.1355 31.5191C38.5901 31.8775 38.6161 31.9151 38.4795 32.0162C38.2123 32.2141 35.8392 33.3834 35.1377 33.6627C34.7596 33.8133 34.4365 33.9457 34.4196 33.957C34.3504 34.0031 35.4491 35.8944 36.2385 37.088C36.7035 37.7911 37.0931 38.3663 37.1042 38.3663C37.1153 38.3663 37.7054 38.1706 38.4155 37.9314C41.8627 36.7699 45.1279 35.1582 48.1571 33.1228C49.943 31.9227 49.7854 32.0916 49.8615 31.2963C50.0981 28.8276 50.0259 25.1428 49.6884 22.458C48.8815 16.0383 46.5373 9.77724 42.8932 4.30866L42.3464 3.48817L41.5925 3.15636C39.0741 2.04805 35.9774 1.08349 33.0813 0.50543C32.2526 0.340016 32.0217 0.318101 31.9674 0.399753C31.8114 0.634645 30.7709 2.81003 30.7709 2.90134C30.7709 2.97236 30.666 2.986 30.401 2.94955C28.45 2.68114 27.4391 2.62067 24.9486 2.62343C22.4755 2.62611 21.507 2.68512 19.6889 2.94355L19.3217 2.99582L18.6575 1.64783C18.2921 0.906467 17.9479 0.303005 17.8926 0.306657C17.8373 0.310391 17.2097 0.437982 16.4981 0.590167ZM17.6631 16.3333C19.0951 16.6721 20.345 17.8604 20.8888 19.4C21.162 20.1737 21.2297 21.6463 21.0311 22.4986C20.6469 24.1478 19.3918 25.5775 17.9308 26.0305C17.1806 26.263 16.1053 26.2495 15.3973 25.9986C14.2754 25.6012 13.3715 24.774 12.8144 23.6349C12.3918 22.7707 12.2527 22.1767 12.2527 21.2365C12.2527 17.9976 14.8291 15.6628 17.6631 16.3333ZM34.0956 16.2907C35.6841 16.5911 37.1457 18.0422 37.61 19.7795C37.7817 20.422 37.8024 21.8177 37.6498 22.458C37.4051 23.4844 36.723 24.6152 35.9733 25.237C35.1112 25.952 34.2579 26.2277 33.0711 26.1748C32.3355 26.1419 32.182 26.1071 31.6502 25.8523C30.2155 25.1649 29.2878 23.9586 28.9567 22.3492C28.6959 21.0822 28.8458 19.9499 29.4319 18.7578C29.7255 18.1607 29.907 17.9135 30.3852 17.4592C31.4824 16.417 32.7136 16.0292 34.0956 16.2907Z" fill="white"/>
</svg>
