<svg width="44" height="38" viewBox="0 0 44 38" fill="none" xmlns="http://www.w3.org/2000/svg">
<path d="M40.1457 0.920037C40.1457 0.920037 44.1926 -0.658088 43.8541 3.1742C43.7426 4.75233 42.7311 10.2763 41.9436 16.2502L39.2457 33.9482C39.2457 33.9482 39.0207 36.5409 36.9968 36.9919C34.9738 37.4419 31.9384 35.4138 31.3759 34.9627C30.9259 34.6242 22.9447 29.5513 20.1343 27.0721C19.3468 26.395 18.4468 25.043 20.2468 23.4648L32.0499 12.1919C33.3988 10.8398 34.7478 7.68358 29.127 11.5159L13.3874 22.2242C13.3874 22.2242 11.5884 23.3523 8.21655 22.3377L0.908217 20.0825C0.908217 20.0825 -1.7897 18.3919 2.81967 16.7013C14.0624 11.4034 27.8905 5.99295 40.1436 0.920037H40.1457Z" fill="white"/>
</svg>
