<svg width="90" height="91" viewBox="0 0 90 91" fill="none" xmlns="http://www.w3.org/2000/svg">
<circle cx="45" cy="45.3066" r="44.5" stroke="url(#paint0_linear_5865_3168)"/>
<path d="M63.1457 27.92C63.1457 27.92 67.1926 26.3419 66.8541 30.1742C66.7426 31.7523 65.7311 37.2763 64.9436 43.2502L62.2457 60.9482C62.2457 60.9482 62.0207 63.5409 59.9968 63.9919C57.9738 64.4419 54.9384 62.4138 54.3759 61.9627C53.9259 61.6242 45.9447 56.5513 43.1343 54.0721C42.3468 53.395 41.4468 52.043 43.2468 50.4648L55.0499 39.1919C56.3988 37.8398 57.7478 34.6836 52.127 38.5159L36.3874 49.2242C36.3874 49.2242 34.5884 50.3523 31.2165 49.3377L23.9082 47.0825C23.9082 47.0825 21.2103 45.3919 25.8197 43.7013C37.0624 38.4034 50.8905 32.993 63.1436 27.92H63.1457Z" fill="white"/>
<defs>
<linearGradient id="paint0_linear_5865_3168" x1="-7.12871" y1="0.306641" x2="110.279" y2="11.2315" gradientUnits="userSpaceOnUse">
<stop stop-color="#B809B5"/>
<stop offset="0.510417" stop-color="#ED1C51"/>
<stop offset="1" stop-color="#FFB000"/>
</linearGradient>
</defs>
</svg>
