<svg width="90" height="91" viewBox="0 0 90 91" fill="none" xmlns="http://www.w3.org/2000/svg">
<circle cx="45" cy="45.3066" r="44.5" stroke="url(#paint0_linear_5865_3158)"/>
<path d="M66.7918 32.8068C65.1877 33.536 63.4585 34.0151 61.6668 34.2443C63.5002 33.1401 64.9168 31.3901 65.5835 29.286C63.8543 30.3276 61.9377 31.0568 59.9168 31.4735C58.271 29.6818 55.9585 28.6401 53.3335 28.6401C48.4377 28.6401 44.4377 32.6401 44.4377 37.5776C44.4377 38.286 44.521 38.9735 44.6668 39.6193C37.2502 39.2443 30.646 35.6818 26.2502 30.286C25.4793 31.5985 25.0418 33.1401 25.0418 34.7651C25.0418 37.8693 26.6043 40.6193 29.021 42.1818C27.5418 42.1818 26.1668 41.7651 24.9585 41.1401V41.2026C24.9585 45.536 28.0418 49.161 32.1252 49.9735C30.8142 50.3322 29.4379 50.3822 28.1043 50.1193C28.6702 51.8953 29.7784 53.4493 31.2731 54.5629C32.7679 55.6765 34.574 56.2937 36.4377 56.3276C33.2786 58.8286 29.3627 60.1804 25.3335 60.161C24.6252 60.161 23.9168 60.1193 23.2085 60.036C27.1668 62.5776 31.8752 64.0568 36.9168 64.0568C53.3335 64.0568 62.3543 50.4318 62.3543 38.6193C62.3543 38.2235 62.3543 37.8485 62.3335 37.4526C64.0835 36.2026 65.5835 34.6193 66.7918 32.8068V32.8068Z" fill="white"/>
<defs>
<linearGradient id="paint0_linear_5865_3158" x1="-7.12871" y1="0.306641" x2="110.279" y2="11.2315" gradientUnits="userSpaceOnUse">
<stop stop-color="#B809B5"/>
<stop offset="0.510417" stop-color="#ED1C51"/>
<stop offset="1" stop-color="#FFB000"/>
</linearGradient>
</defs>
</svg>
