<svg width="44" height="37" viewBox="0 0 44 37" fill="none" xmlns="http://www.w3.org/2000/svg">
<path d="M43.7918 5.14787C42.1877 5.87703 40.4585 6.3562 38.6668 6.58537C40.5002 5.4812 41.9168 3.7312 42.5835 1.62703C40.8543 2.6687 38.9377 3.39787 36.9168 3.81453C35.271 2.02287 32.9585 0.981201 30.3335 0.981201C25.4377 0.981201 21.4377 4.9812 21.4377 9.9187C21.4377 10.627 21.521 11.3145 21.6668 11.9604C14.2502 11.5854 7.646 8.02287 3.25016 2.62703C2.47933 3.93953 2.04183 5.4812 2.04183 7.1062C2.04183 10.2104 3.60433 12.9604 6.021 14.5229C4.54183 14.5229 3.16683 14.1062 1.9585 13.4812V13.5437C1.9585 17.877 5.04183 21.502 9.12516 22.3145C7.81418 22.6733 6.43786 22.7232 5.10433 22.4604C5.67018 24.2364 6.77837 25.7904 8.27311 26.904C9.76786 28.0176 11.574 28.6347 13.4377 28.6687C10.2786 31.1696 6.36266 32.5214 2.3335 32.502C1.62516 32.502 0.916829 32.4604 0.208496 32.377C4.16683 34.9187 8.87516 36.3979 13.9168 36.3979C30.3335 36.3979 39.3543 22.7729 39.3543 10.9604C39.3543 10.5645 39.3543 10.1895 39.3335 9.7937C41.0835 8.5437 42.5835 6.96037 43.7918 5.14787Z" fill="url(#paint0_linear_5865_3157)"/>
<defs>
<linearGradient id="paint0_linear_5865_3157" x1="0.208496" y1="0.981201" x2="49.3678" y2="12.4068" gradientUnits="userSpaceOnUse">
<stop stop-color="#6473FF"/>
<stop offset="1" stop-color="#A35AFF"/>
</linearGradient>
</defs>
</svg>
