<svg width="44" height="37" viewBox="0 0 44 37" fill="none" xmlns="http://www.w3.org/2000/svg">
<path d="M43.7918 4.8068C42.1877 5.53597 40.4585 6.01514 38.6668 6.2443C40.5002 5.14014 41.9168 3.39014 42.5835 1.28597C40.8543 2.32764 38.9377 3.0568 36.9168 3.47347C35.271 1.6818 32.9585 0.640137 30.3335 0.640137C25.4377 0.640137 21.4377 4.64014 21.4377 9.57764C21.4377 10.286 21.521 10.9735 21.6668 11.6193C14.2502 11.2443 7.646 7.6818 3.25016 2.28597C2.47933 3.59847 2.04183 5.14014 2.04183 6.76514C2.04183 9.8693 3.60433 12.6193 6.021 14.1818C4.54183 14.1818 3.16683 13.7651 1.9585 13.1401V13.2026C1.9585 17.536 5.04183 21.161 9.12516 21.9735C7.81418 22.3322 6.43786 22.3822 5.10433 22.1193C5.67018 23.8953 6.77837 25.4493 8.27311 26.5629C9.76786 27.6765 11.574 28.2937 13.4377 28.3276C10.2786 30.8286 6.36266 32.1804 2.3335 32.161C1.62516 32.161 0.916829 32.1193 0.208496 32.036C4.16683 34.5776 8.87516 36.0568 13.9168 36.0568C30.3335 36.0568 39.3543 22.4318 39.3543 10.6193C39.3543 10.2235 39.3543 9.84847 39.3335 9.45264C41.0835 8.20264 42.5835 6.6193 43.7918 4.8068Z" fill="white"/>
</svg>
