<svg width="44" height="38" viewBox="0 0 44 38" fill="none" xmlns="http://www.w3.org/2000/svg">
<path d="M40.1457 1.26159C40.1457 1.26159 44.1926 -0.316535 43.8541 3.51576C43.7426 5.09388 42.7311 10.6178 41.9436 16.5918L39.2457 34.2897C39.2457 34.2897 39.0207 36.8824 36.9968 37.3335C34.9738 37.7835 31.9384 35.7553 31.3759 35.3043C30.9259 34.9658 22.9447 29.8928 20.1343 27.4137C19.3468 26.7366 18.4468 25.3845 20.2468 23.8064L32.0499 12.5335C33.3988 11.1814 34.7478 8.02513 29.127 11.8574L13.3874 22.5658C13.3874 22.5658 11.5884 23.6939 8.21655 22.6793L0.908217 20.4241C0.908217 20.4241 -1.7897 18.7335 2.81967 17.0428C14.0624 11.7449 27.8905 6.33451 40.1436 1.26159H40.1457Z" fill="url(#paint0_linear_5865_3167)"/>
<defs>
<linearGradient id="paint0_linear_5865_3167" x1="0.123535" y1="0.939697" x2="49.596" y2="12.1523" gradientUnits="userSpaceOnUse">
<stop stop-color="#6473FF"/>
<stop offset="1" stop-color="#A35AFF"/>
</linearGradient>
</defs>
</svg>
