<svg width="44" height="31" viewBox="0 0 44 31" fill="none" xmlns="http://www.w3.org/2000/svg">
<path d="M42.9533 5.1167C42.7044 4.19176 42.2168 3.34844 41.5395 2.67113C40.8622 1.99382 40.0189 1.50629 39.0939 1.25732C35.6877 0.335449 22.0002 0.335449 22.0002 0.335449C22.0002 0.335449 8.3127 0.335449 4.90645 1.25732C3.98151 1.50629 3.13819 1.99382 2.46088 2.67113C1.78357 3.34844 1.29604 4.19176 1.04707 5.1167C0.411052 8.59055 0.102407 12.1164 0.125199 15.6479C0.102407 19.1795 0.411052 22.7053 1.04707 26.1792C1.29604 27.1041 1.78357 27.9475 2.46088 28.6248C3.13819 29.3021 3.98151 29.7896 4.90645 30.0386C8.3127 30.9604 22.0002 30.9604 22.0002 30.9604C22.0002 30.9604 35.6877 30.9604 39.0939 30.0386C40.0189 29.7896 40.8622 29.3021 41.5395 28.6248C42.2168 27.9475 42.7044 27.1041 42.9533 26.1792C43.5893 22.7053 43.898 19.1795 43.8752 15.6479C43.898 12.1164 43.5893 8.59055 42.9533 5.1167ZM17.6252 22.2105V9.08545L28.9846 15.6479L17.6252 22.2105Z" fill="url(#paint0_linear_6115_9343)"/>
<defs>
<linearGradient id="paint0_linear_6115_9343" x1="0.124023" y1="0.335449" x2="48.6097" y2="13.4182" gradientUnits="userSpaceOnUse">
<stop stop-color="#6473FF"/>
<stop offset="1" stop-color="#A35AFF"/>
</linearGradient>
</defs>
</svg>
