<svg width="44" height="32" viewBox="0 0 44 32" fill="none" xmlns="http://www.w3.org/2000/svg">
<path d="M42.9533 5.77539C42.7044 4.85045 42.2168 4.00713 41.5395 3.32982C40.8622 2.65251 40.0189 2.16498 39.0939 1.91602C35.6877 0.994141 22.0002 0.994141 22.0002 0.994141C22.0002 0.994141 8.3127 0.994141 4.90645 1.91602C3.98151 2.16498 3.13819 2.65251 2.46088 3.32982C1.78357 4.00713 1.29604 4.85045 1.04707 5.77539C0.411052 9.24924 0.102407 12.7751 0.125199 16.3066C0.102407 19.8382 0.411052 23.364 1.04707 26.8379C1.29604 27.7628 1.78357 28.6061 2.46088 29.2835C3.13819 29.9608 3.98151 30.4483 4.90645 30.6973C8.3127 31.6191 22.0002 31.6191 22.0002 31.6191C22.0002 31.6191 35.6877 31.6191 39.0939 30.6973C40.0189 30.4483 40.8622 29.9608 41.5395 29.2835C42.2168 28.6061 42.7044 27.7628 42.9533 26.8379C43.5893 23.364 43.898 19.8382 43.8752 16.3066C43.898 12.7751 43.5893 9.24924 42.9533 5.77539ZM17.6252 22.8691V9.74414L28.9846 16.3066L17.6252 22.8691Z" fill="white"/>
</svg>
