<svg width="90" height="91" viewBox="0 0 90 91" fill="none" xmlns="http://www.w3.org/2000/svg">
<circle cx="45" cy="45.3066" r="44.5" stroke="url(#paint0_linear_6115_9413)"/>
<path d="M65.9533 34.7754C65.7044 33.8505 65.2168 33.0071 64.5395 32.3298C63.8622 31.6525 63.0189 31.165 62.0939 30.916C58.6877 29.9941 45.0002 29.9941 45.0002 29.9941C45.0002 29.9941 31.3127 29.9941 27.9064 30.916C26.9815 31.165 26.1382 31.6525 25.4609 32.3298C24.7836 33.0071 24.296 33.8505 24.0471 34.7754C23.4111 38.2492 23.1024 41.7751 23.1252 45.3066C23.1024 48.8382 23.4111 52.364 24.0471 55.8379C24.296 56.7628 24.7836 57.6062 25.4609 58.2835C26.1382 58.9608 26.9815 59.4483 27.9064 59.6973C31.3127 60.6191 45.0002 60.6191 45.0002 60.6191C45.0002 60.6191 58.6877 60.6191 62.0939 59.6973C63.0189 59.4483 63.8622 58.9608 64.5395 58.2835C65.2168 57.6062 65.7044 56.7628 65.9533 55.8379C66.5893 52.364 66.898 48.8382 66.8752 45.3066C66.898 41.7751 66.5893 38.2492 65.9533 34.7754V34.7754ZM40.6252 51.8691V38.7441L51.9846 45.3066L40.6252 51.8691Z" fill="white"/>
<defs>
<linearGradient id="paint0_linear_6115_9413" x1="-7.12871" y1="0.306641" x2="110.279" y2="11.2315" gradientUnits="userSpaceOnUse">
<stop stop-color="#B809B5"/>
<stop offset="0.510417" stop-color="#ED1C51"/>
<stop offset="1" stop-color="#FFB000"/>
</linearGradient>
</defs>
</svg>
