<svg width="30" height="39" viewBox="0 0 30 39" fill="none" xmlns="http://www.w3.org/2000/svg">
<path d="M5.91045 34.0215L7.94103 28.1413C8.15128 27.5325 8.64189 27.0622 9.25906 26.8778L9.67561 26.7534C10.1461 26.6128 10.6519 26.6503 11.0966 26.8587L12.061 27.3106C12.4559 27.4956 12.7795 27.8045 12.9825 28.1904L13.1412 28.4922C13.4007 28.9856 13.4426 29.5648 13.2567 30.0904L11.2129 35.8677C10.8664 36.8471 9.57063 37.0499 8.94154 36.223C8.61963 35.8 8.06684 35.6159 7.5537 35.7549C6.51073 36.0374 5.55775 35.0429 5.91045 34.0215Z" fill="#D76255"/>
<path d="M23.8474 34.0215L21.8168 28.1413C21.6065 27.5325 21.1159 27.0622 20.4988 26.8778L20.0822 26.7534C19.6117 26.6128 19.1059 26.6503 18.6612 26.8587L17.6968 27.3106C17.3019 27.4956 16.9784 27.8045 16.7753 28.1904L16.6166 28.4922C16.3571 28.9856 16.3152 29.5648 16.5011 30.0904L18.5449 35.8677C18.8914 36.8471 20.1872 37.0499 20.8163 36.223C21.1382 35.8 21.691 35.6159 22.2041 35.7549C23.2471 36.0374 24.2001 35.0429 23.8474 34.0215Z" fill="#D76255"/>
<path d="M10.4533 0.647949C8.0595 0.647949 6.11898 2.58847 6.11898 4.98223C5.71105 6.342 4.75921 6.85192 4.33428 6.9369C1.94052 6.9369 0 8.87742 0 11.2712C0 12.2622 0.332628 13.1756 0.892334 13.9057C1.94614 15.4695 1.28908 16.9936 0.828815 17.5601C0.307552 18.2756 0 19.1567 0 20.1097C0 22.5035 1.94052 24.444 4.33428 24.444C5.49009 24.6413 6.00567 25.7727 6.11898 26.3137C6.11898 28.7074 8.0595 30.6479 10.4533 30.6479C11.4062 30.6479 12.2874 30.3404 13.0028 29.8191C13.5694 29.3589 15.0935 28.7018 16.6572 29.7556C17.3874 30.3153 18.3007 30.6479 19.2918 30.6479C21.6855 30.6479 23.711 28.9624 23.711 26.5686C23.881 25.2089 25.2125 24.529 25.7507 24.444C28.1445 24.444 30 22.5035 30 20.1097C30 19.1567 29.6924 18.2756 29.1712 17.5601C28.7109 16.9936 28.0539 15.4695 29.1077 13.9057C29.6674 13.1756 30 12.2622 30 11.2712C30 8.87742 28.0595 6.9369 25.6657 6.9369C24.17 6.59859 23.7677 5.49282 23.711 4.98223C23.711 2.58847 21.6855 0.647949 19.2918 0.647949C18.3007 0.647949 17.3874 0.980577 16.6572 1.54028C15.0935 2.59409 13.5694 1.93703 13.0028 1.47676C12.2874 0.955501 11.4062 0.647949 10.4533 0.647949Z" fill="url(#paint0_linear_6893_15348)"/>
<circle cx="14.7016" cy="15.181" r="11.3031" fill="#545A7C"/>
<circle cx="15.2121" cy="16.2001" r="11.3031" fill="url(#paint1_linear_6893_15348)"/>
<path d="M11.316 21.6962V19.9807L15.3245 16.2692C15.6654 15.9392 15.9513 15.6423 16.1822 15.3784C16.4168 15.1145 16.5946 14.856 16.7156 14.6031C16.8366 14.3465 16.897 14.0697 16.897 13.7728C16.897 13.4429 16.8219 13.1588 16.6716 12.9205C16.5213 12.6786 16.316 12.4935 16.0558 12.3652C15.7955 12.2332 15.5004 12.1672 15.1705 12.1672C14.8259 12.1672 14.5253 12.2369 14.2687 12.3762C14.0121 12.5155 13.8142 12.7153 13.6749 12.9755C13.5356 13.2358 13.466 13.5455 13.466 13.9048H11.2061C11.2061 13.168 11.3728 12.5283 11.7064 11.9858C12.04 11.4433 12.5074 11.0236 13.1085 10.7266C13.7097 10.4297 14.4025 10.2812 15.187 10.2812C15.9934 10.2812 16.6954 10.4242 17.2929 10.7101C17.8941 10.9924 18.3615 11.3846 18.6951 11.8868C19.0286 12.389 19.1954 12.9645 19.1954 13.6134C19.1954 14.0386 19.1111 14.4583 18.9425 14.8725C18.7775 15.2867 18.4824 15.7468 18.0572 16.2527C17.632 16.7549 17.0327 17.3579 16.2592 18.0617L14.6151 19.6727V19.7497H19.3439V21.6962H11.316Z" fill="white"/>
<defs>
<linearGradient id="paint0_linear_6893_15348" x1="5.86402" y1="26.1437" x2="28.8952" y2="9.40149" gradientUnits="userSpaceOnUse">
<stop stop-color="#EDEDED"/>
<stop offset="1" stop-color="#D5D5D6"/>
</linearGradient>
<linearGradient id="paint1_linear_6893_15348" x1="15.1271" y1="4.89697" x2="15.1271" y2="27.5032" gradientUnits="userSpaceOnUse">
<stop stop-color="#6B7194"/>
<stop offset="1" stop-color="#CBD5EA"/>
</linearGradient>
</defs>
</svg>
