<svg width="30" height="39" viewBox="0 0 30 39" fill="none" xmlns="http://www.w3.org/2000/svg">
<path d="M5.91045 34.0215L7.94103 28.1413C8.15128 27.5325 8.64189 27.0622 9.25906 26.8778L9.67561 26.7534C10.1461 26.6128 10.6519 26.6503 11.0966 26.8587L12.061 27.3106C12.4559 27.4956 12.7795 27.8045 12.9825 28.1904L13.1412 28.4922C13.4007 28.9856 13.4426 29.5648 13.2567 30.0904L11.2129 35.8677C10.8664 36.8471 9.57063 37.0499 8.94154 36.223C8.61963 35.8 8.06684 35.6159 7.5537 35.7549C6.51073 36.0374 5.55775 35.0429 5.91045 34.0215Z" fill="#D76255"/>
<path d="M23.8474 34.0215L21.8168 28.1413C21.6065 27.5325 21.1159 27.0622 20.4988 26.8778L20.0822 26.7534C19.6117 26.6128 19.1059 26.6503 18.6612 26.8587L17.6968 27.3106C17.3019 27.4956 16.9784 27.8045 16.7753 28.1904L16.6166 28.4922C16.3571 28.9856 16.3152 29.5648 16.5011 30.0904L18.5449 35.8677C18.8914 36.8471 20.1872 37.0499 20.8163 36.223C21.1382 35.8 21.691 35.6159 22.2041 35.7549C23.2471 36.0374 24.2001 35.0429 23.8474 34.0215Z" fill="#D76255"/>
<path d="M10.4533 0.647949C8.0595 0.647949 6.11898 2.58847 6.11898 4.98223C5.71105 6.342 4.75921 6.85192 4.33428 6.9369C1.94052 6.9369 0 8.87742 0 11.2712C0 12.2622 0.332628 13.1756 0.892334 13.9057C1.94614 15.4695 1.28908 16.9936 0.828815 17.5601C0.307552 18.2756 0 19.1567 0 20.1097C0 22.5035 1.94052 24.444 4.33428 24.444C5.49009 24.6413 6.00567 25.7727 6.11898 26.3137C6.11898 28.7074 8.0595 30.6479 10.4533 30.6479C11.4062 30.6479 12.2874 30.3404 13.0028 29.8191C13.5694 29.3589 15.0935 28.7018 16.6572 29.7556C17.3874 30.3153 18.3007 30.6479 19.2918 30.6479C21.6855 30.6479 23.711 28.9624 23.711 26.5686C23.881 25.2089 25.2125 24.529 25.7507 24.444C28.1445 24.444 30 22.5035 30 20.1097C30 19.1567 29.6924 18.2756 29.1712 17.5601C28.7109 16.9936 28.0539 15.4695 29.1077 13.9057C29.6674 13.1756 30 12.2622 30 11.2712C30 8.87742 28.0595 6.9369 25.6657 6.9369C24.17 6.59859 23.7677 5.49282 23.711 4.98223C23.711 2.58847 21.6855 0.647949 19.2918 0.647949C18.3007 0.647949 17.3874 0.980577 16.6572 1.54028C15.0935 2.59409 13.5694 1.93703 13.0028 1.47676C12.2874 0.955501 11.4062 0.647949 10.4533 0.647949Z" fill="url(#paint0_linear_6893_15365)"/>
<circle cx="14.7016" cy="15.181" r="11.3031" fill="#9F5C0D"/>
<circle cx="15.2121" cy="16.2001" r="11.3031" fill="url(#paint1_linear_6893_15365)"/>
<path d="M14.9943 21.3663C14.1732 21.3663 13.4419 21.2252 12.8004 20.9429C12.1625 20.657 11.6585 20.2647 11.2883 19.7662C10.9217 19.264 10.7329 18.6848 10.7219 18.0287H13.1193C13.1339 18.3036 13.2238 18.5455 13.3887 18.7545C13.5573 18.9598 13.7809 19.1192 14.0595 19.2328C14.3381 19.3465 14.6515 19.4033 14.9998 19.4033C15.3627 19.4033 15.6834 19.3392 15.962 19.2109C16.2406 19.0826 16.4587 18.9048 16.6164 18.6775C16.774 18.4502 16.8528 18.1881 16.8528 17.8912C16.8528 17.5906 16.7685 17.3249 16.5999 17.0939C16.4349 16.8593 16.1966 16.676 15.885 16.5441C15.5771 16.4121 15.2106 16.3461 14.7853 16.3461H13.7351V14.5976H14.7853C15.1446 14.5976 15.4617 14.5353 15.7366 14.4106C16.0152 14.286 16.2315 14.1137 16.3854 13.8938C16.5394 13.6702 16.6164 13.4099 16.6164 13.113C16.6164 12.8307 16.5485 12.5833 16.4129 12.3707C16.2809 12.1544 16.094 11.9858 15.8521 11.8648C15.6138 11.7438 15.3352 11.6834 15.0163 11.6834C14.6937 11.6834 14.3986 11.742 14.131 11.8593C13.8634 11.9729 13.649 12.1361 13.4877 12.3487C13.3264 12.5613 13.2403 12.8106 13.2293 13.0965H10.9474C10.9584 12.4477 11.1435 11.8758 11.5027 11.3809C11.862 10.8861 12.3458 10.4993 12.9543 10.2208C13.5665 9.93849 14.2575 9.79736 15.0273 9.79736C15.8044 9.79736 16.4844 9.93849 17.0672 10.2208C17.6501 10.503 18.1028 10.8842 18.4254 11.3644C18.7516 11.841 18.9129 12.3762 18.9092 12.97C18.9129 13.6005 18.7168 14.1265 18.3209 14.5481C17.9287 14.9697 17.4173 15.2372 16.7868 15.3509V15.4389C17.6153 15.5452 18.2458 15.8329 18.6783 16.3021C19.1145 16.7677 19.3308 17.3505 19.3271 18.0507C19.3308 18.6922 19.1457 19.2622 18.7718 19.7607C18.4015 20.2592 17.8902 20.6515 17.2377 20.9374C16.5852 21.2233 15.8374 21.3663 14.9943 21.3663Z" fill="white"/>
<defs>
<linearGradient id="paint0_linear_6893_15365" x1="5.86402" y1="26.1437" x2="28.8952" y2="9.40149" gradientUnits="userSpaceOnUse">
<stop stop-color="#FFECD5"/>
<stop offset="1" stop-color="#FFE4C6"/>
</linearGradient>
<linearGradient id="paint1_linear_6893_15365" x1="15.1271" y1="4.89697" x2="15.1271" y2="27.5032" gradientUnits="userSpaceOnUse">
<stop stop-color="#C48235"/>
<stop offset="1" stop-color="#E9B475"/>
</linearGradient>
</defs>
</svg>
