<svg width="21" height="26" viewBox="0 0 21 26" fill="none" xmlns="http://www.w3.org/2000/svg">
<path d="M4.44034 23.1952L5.73979 19.4323C5.91402 18.9277 6.3206 18.538 6.83206 18.3852C7.222 18.2687 7.64116 18.2998 8.00968 18.4724L8.45129 18.6794C8.77255 18.8299 9.03583 19.0813 9.20101 19.3953C9.41218 19.7967 9.44624 20.2681 9.29497 20.6957L7.97531 24.426C7.74431 25.079 6.88046 25.2142 6.46107 24.6629C6.24646 24.3809 5.87794 24.2582 5.53584 24.3508C4.84053 24.5391 4.20521 23.8761 4.44034 23.1952Z" fill="#D76255"/>
<path d="M16.3984 23.1952L15.099 19.4323C14.9247 18.9277 14.5181 18.538 14.0067 18.3852C13.6167 18.2687 13.1976 18.2998 12.8291 18.4724L12.3875 18.6794C12.0662 18.8299 11.8029 19.0813 11.6377 19.3953C11.4266 19.7967 11.3925 20.2681 11.5438 20.6957L12.8634 24.426C13.0944 25.079 13.9583 25.2142 14.3777 24.6629C14.5923 24.3809 14.9608 24.2582 15.3029 24.3508C15.9982 24.5391 16.6335 23.8761 16.3984 23.1952Z" fill="#D76255"/>
<path d="M7.46884 0.946045C5.873 0.946045 4.57932 2.23973 4.57932 3.83556C4.30737 4.74208 3.6728 5.08202 3.38952 5.13868C1.79368 5.13868 0.5 6.43236 0.5 8.0282C0.5 8.6889 0.721752 9.29782 1.09489 9.78457C1.79743 10.8271 1.35938 11.8431 1.05254 12.2208C0.705035 12.6978 0.5 13.2852 0.5 13.9205C0.5 15.5164 1.79368 16.8101 3.38952 16.8101C4.16006 16.9416 4.50378 17.6958 4.57932 18.0565C4.57932 19.6524 5.873 20.946 7.46884 20.946C8.10415 20.946 8.69158 20.741 9.16856 20.3935C9.54627 20.0867 10.5623 19.6486 11.6048 20.3512C12.0916 20.7243 12.7005 20.946 13.3612 20.946C14.957 20.946 16.3074 19.8223 16.3074 18.2265C16.4207 17.32 17.3083 16.8667 17.6671 16.8101C19.263 16.8101 20.5 15.5164 20.5 13.9205C20.5 13.2852 20.295 12.6978 19.9475 12.2208C19.6406 11.8431 19.2026 10.8271 19.9051 9.78457C20.2782 9.29782 20.5 8.6889 20.5 8.0282C20.5 6.43236 19.2063 5.13868 17.6105 5.13868C16.6133 4.91314 16.3451 4.17596 16.3074 3.83556C16.3074 2.23973 14.957 0.946045 13.3612 0.946045C12.7005 0.946045 12.0916 1.1678 11.6048 1.54093C10.5623 2.24347 9.54627 1.80543 9.16856 1.49859C8.69158 1.15108 8.10415 0.946045 7.46884 0.946045Z" fill="url(#paint0_linear_6569_13767)"/>
<circle cx="10.301" cy="10.6348" r="7.53541" fill="#9F5C0D"/>
<circle cx="10.6414" cy="11.3142" r="7.53541" fill="url(#paint1_linear_6569_13767)"/>
<path d="M10.4962 14.7585C9.94878 14.7585 9.46124 14.6644 9.03358 14.4763C8.60836 14.2856 8.27234 14.0241 8.02552 13.6918C7.78114 13.357 7.65528 12.9709 7.64795 12.5334H9.24619C9.25596 12.7167 9.31584 12.878 9.42581 13.0173C9.53822 13.1542 9.68729 13.2605 9.87302 13.3362C10.0588 13.412 10.2677 13.4499 10.4999 13.4499C10.7418 13.4499 10.9556 13.4071 11.1414 13.3216C11.3271 13.236 11.4725 13.1175 11.5776 12.966C11.6827 12.8145 11.7352 12.6397 11.7352 12.4418C11.7352 12.2414 11.679 12.0642 11.5666 11.9103C11.4566 11.7539 11.2978 11.6317 11.09 11.5437C10.8848 11.4557 10.6404 11.4117 10.3569 11.4117H9.65675V10.246H10.3569C10.5964 10.246 10.8078 10.2045 10.9911 10.1214C11.1768 10.0383 11.321 9.92346 11.4236 9.77684C11.5262 9.62777 11.5776 9.45426 11.5776 9.25631C11.5776 9.06814 11.5324 8.90318 11.4419 8.76144C11.354 8.61726 11.2293 8.50484 11.068 8.4242C10.9092 8.34355 10.7235 8.30323 10.5109 8.30323C10.2958 8.30323 10.0991 8.34233 9.92068 8.42053C9.74228 8.49629 9.59932 8.60504 9.49179 8.74678C9.38426 8.88852 9.32683 9.0547 9.3195 9.24531H7.79824C7.80557 8.81276 7.92899 8.43153 8.16848 8.10162C8.40797 7.7717 8.73055 7.51388 9.13622 7.32816C9.54433 7.13998 10.005 7.0459 10.5182 7.0459C11.0363 7.0459 11.4896 7.13998 11.8782 7.32816C12.2667 7.51633 12.5685 7.77048 12.7836 8.09062C13.0011 8.40831 13.1086 8.76511 13.1062 9.161C13.1086 9.58133 12.9779 9.93202 12.7139 10.2131C12.4524 10.4941 12.1115 10.6725 11.6912 10.7482V10.8069C12.2435 10.8778 12.6638 11.0696 12.9522 11.3824C13.243 11.6928 13.3872 12.0813 13.3848 12.5481C13.3872 12.9758 13.2638 13.3558 13.0145 13.6881C12.7677 14.0205 12.4268 14.282 11.9918 14.4726C11.5568 14.6632 11.0583 14.7585 10.4962 14.7585Z" fill="white"/>
<defs>
<linearGradient id="paint0_linear_6569_13767" x1="4.40935" y1="17.9432" x2="19.7635" y2="6.78174" gradientUnits="userSpaceOnUse">
<stop stop-color="#FFECD5"/>
<stop offset="1" stop-color="#FFE4C6"/>
</linearGradient>
<linearGradient id="paint1_linear_6569_13767" x1="10.5847" y1="3.77881" x2="10.5847" y2="18.8496" gradientUnits="userSpaceOnUse">
<stop stop-color="#C48235"/>
<stop offset="1" stop-color="#E9B475"/>
</linearGradient>
</defs>
</svg>
