<svg width="22" height="28" viewBox="0 0 22 28" fill="none" xmlns="http://www.w3.org/2000/svg">
<path d="M4.63756 24.2365L6.00198 20.2854C6.18493 19.7556 6.61183 19.3464 7.14887 19.186C7.5583 19.0637 7.99842 19.0963 8.38536 19.2776L8.84905 19.4949C9.18638 19.6529 9.46282 19.9169 9.63626 20.2466C9.85799 20.6681 9.89376 21.163 9.73492 21.612L8.34927 25.5289C8.10673 26.2145 7.19968 26.3564 6.75932 25.7776C6.53399 25.4815 6.14704 25.3526 5.78783 25.4499C5.05776 25.6476 4.39067 24.9515 4.63756 24.2365Z" fill="#D76255"/>
<path d="M17.194 24.2365L15.8296 20.2854C15.6466 19.7556 15.2197 19.3464 14.6827 19.186C14.2732 19.0637 13.8331 19.0963 13.4462 19.2776L12.9825 19.4949C12.6452 19.6529 12.3687 19.9169 12.1953 20.2466C11.9735 20.6681 11.9378 21.163 12.0966 21.612L13.4823 25.5289C13.7248 26.2145 14.6319 26.3564 15.0722 25.7776C15.2976 25.4815 15.6845 25.3526 16.0437 25.4499C16.7738 25.6476 17.4409 24.9515 17.194 24.2365Z" fill="#D76255"/>
<path d="M7.81728 0.875C6.14165 0.875 4.78329 2.23337 4.78329 3.90899C4.49773 4.86084 3.83144 5.21778 3.53399 5.27727C1.85837 5.27727 0.5 6.63563 0.5 8.31126C0.5 9.005 0.73284 9.64436 1.12463 10.1555C1.8623 11.2501 1.40235 12.3169 1.08017 12.7135C0.715287 13.2144 0.5 13.8311 0.5 14.4982C0.5 16.1739 1.85837 17.5322 3.53399 17.5322C4.34306 17.6703 4.70397 18.4623 4.78329 18.841C4.78329 20.5166 6.14165 21.875 7.81728 21.875C8.48436 21.875 9.10116 21.6597 9.60198 21.2948C9.99858 20.9726 11.0654 20.5127 12.1601 21.2504C12.6711 21.6422 13.3105 21.875 14.0042 21.875C15.6799 21.875 17.0977 20.6951 17.0977 19.0195C17.2167 18.0676 18.1487 17.5917 18.5255 17.5322C20.2011 17.5322 21.5 16.1739 21.5 14.4982C21.5 13.8311 21.2847 13.2144 20.9198 12.7135C20.5976 12.3169 20.1377 11.2501 20.8754 10.1555C21.2672 9.64436 21.5 9.005 21.5 8.31126C21.5 6.63563 20.1416 5.27727 18.466 5.27727C17.419 5.04045 17.1374 4.26641 17.0977 3.90899C17.0977 2.23337 15.6799 0.875 14.0042 0.875C13.3105 0.875 12.6711 1.10784 12.1601 1.49963C11.0654 2.2373 9.99858 1.77735 9.60198 1.45517C9.10116 1.09029 8.48436 0.875 7.81728 0.875Z" fill="url(#paint0_linear_6085_9766)"/>
<circle cx="10.7911" cy="11.0479" r="7.91218" fill="#D76255"/>
<circle cx="11.1475" cy="11.7618" r="7.91218" fill="url(#paint1_linear_6085_9766)"/>
<path d="M12.1893 7.72656V15.6093H10.5227V9.30849H10.4766L8.67139 10.4401V8.96208L10.6228 7.72656H12.1893Z" fill="white"/>
<defs>
<linearGradient id="paint0_linear_6085_9766" x1="4.60482" y1="18.722" x2="20.7266" y2="7.00248" gradientUnits="userSpaceOnUse">
<stop stopColor="#FFF2C0"/>
<stop offset="1" stopColor="#FFEF77"/>
</linearGradient>
<linearGradient id="paint1_linear_6085_9766" x1="11.088" y1="3.84961" x2="11.088" y2="19.674" gradientUnits="userSpaceOnUse">
<stop stopColor="#E65C00"/>
<stop offset="1" stopColor="#F9D423"/>
</linearGradient>
</defs>
</svg>
