<svg width="23" height="22" viewBox="0 0 23 22" fill="none" xmlns="http://www.w3.org/2000/svg">
<path d="M8.75 2.75H4.625C3.86561 2.75 3.25 3.36561 3.25 4.125V17.875C3.25 18.6344 3.86561 19.25 4.625 19.25H18.375C19.1344 19.25 19.75 18.6344 19.75 17.875V13.75" stroke="#9072FF" stroke-width="1.6" stroke-linecap="round" stroke-linejoin="round"/>
<path fill-rule="evenodd" clip-rule="evenodd" d="M20.2284 2.0905C20.4382 2.23472 20.5757 2.4764 20.5757 2.7502V11.0002C20.5757 11.442 20.2175 11.8002 19.7757 11.8002C19.3339 11.8002 18.9757 11.442 18.9757 11.0002V4.68145L8.67404 14.9832C8.36162 15.2956 7.85509 15.2956 7.54267 14.9832C7.23025 14.6707 7.23024 14.1642 7.54266 13.8518L17.8442 3.5502H11.5257C11.0839 3.5502 10.7257 3.19202 10.7257 2.7502C10.7257 2.30837 11.0839 1.9502 11.5257 1.9502L19.7753 1.9502L19.7757 1.9502C19.907 1.9502 20.0309 1.98183 20.1402 2.03788C20.1705 2.05337 20.1999 2.07091 20.2284 2.0905Z" fill="#9072FF"/>
</svg>
