<svg width="30" height="25" viewBox="0 0 30 25" fill="none" xmlns="http://www.w3.org/2000/svg">
<path d="M27.0972 0.796749C27.0972 0.796749 29.7951 -0.255335 29.5694 2.29953C29.4951 3.35161 28.8208 7.03425 28.2958 11.0169L26.4972 22.8155C26.4972 22.8155 26.3472 24.544 24.9979 24.8447C23.6493 25.1447 21.6257 23.7926 21.2507 23.4919C20.9507 23.2662 15.6299 19.8843 13.7563 18.2315C13.2313 17.7801 12.6313 16.8787 13.8313 15.8266L21.7 8.31133C22.5993 7.40994 23.4986 5.30578 19.7514 7.86064L9.25834 14.9995C9.25834 14.9995 8.05903 15.7516 5.81111 15.0752L0.938892 13.5718C0.938892 13.5718 -0.859719 12.4447 2.2132 11.3176C9.70834 7.78564 18.9271 4.17869 27.0958 0.796749H27.0972Z" fill="url(#paint0_linear_6809_1510)"/>
<defs>
<linearGradient id="paint0_linear_6809_1510" x1="0.415771" y1="0.582153" x2="33.3974" y2="8.05725" gradientUnits="userSpaceOnUse">
<stop stop-color="#6473FF"/>
<stop offset="1" stop-color="#A35AFF"/>
</linearGradient>
</defs>
</svg>
