<svg width="30" height="26" viewBox="0 0 30 26" fill="none" xmlns="http://www.w3.org/2000/svg">
<path d="M27.0972 1.02429C27.0972 1.02429 29.7951 -0.027796 29.5694 2.52707C29.4951 3.57915 28.8208 7.26179 28.2958 11.2444L26.4972 23.043C26.4972 23.043 26.3472 24.7715 24.9979 25.0722C23.6493 25.3722 21.6257 24.0201 21.2507 23.7194C20.9507 23.4937 15.6299 20.1118 13.7563 18.459C13.2313 18.0076 12.6313 17.1062 13.8313 16.0542L21.7 8.53887C22.5993 7.63748 23.4986 5.53332 19.7514 8.08818L9.25834 15.2271C9.25834 15.2271 8.05903 15.9792 5.81111 15.3028L0.938892 13.7993C0.938892 13.7993 -0.859719 12.6722 2.2132 11.5451C9.70834 8.01318 18.9271 4.40623 27.0958 1.02429H27.0972Z" fill="url(#paint0_linear_7213_6486)"/>
<defs>
<linearGradient id="paint0_linear_7213_6486" x1="0.415771" y1="0.809692" x2="33.3974" y2="8.28479" gradientUnits="userSpaceOnUse">
<stop stop-color="#6473FF"/>
<stop offset="1" stop-color="#A35AFF"/>
</linearGradient>
</defs>
</svg>
