<svg width="44" height="37" viewBox="0 0 44 37" fill="none" xmlns="http://www.w3.org/2000/svg">
<path d="M40.1462 0.613397C40.1462 0.613397 44.1931 -0.964728 43.8545 2.86756C43.7431 4.44569 42.7316 9.96965 41.9441 15.9436L39.2462 33.6415C39.2462 33.6415 39.0212 36.2342 36.9972 36.6853C34.9743 37.1353 31.9389 35.1071 31.3764 34.6561C30.9264 34.3176 22.9452 29.2446 20.1347 26.7655C19.3472 26.0884 18.4472 24.7363 20.2472 23.1582L32.0504 11.8853C33.3993 10.5332 34.7483 7.37694 29.1275 11.2092L13.3879 21.9176C13.3879 21.9176 11.5889 23.0457 8.21704 22.0311L0.908705 19.7759C0.908705 19.7759 -1.78921 18.0853 2.82016 16.3946C14.0629 11.0967 27.891 5.68631 40.1441 0.613397H40.1462Z" fill="url(#paint0_linear_5865_3167)"/>
<defs>
<linearGradient id="paint0_linear_5865_3167" x1="0.124023" y1="0.291504" x2="49.5965" y2="11.5042" gradientUnits="userSpaceOnUse">
<stop stop-color="#6034FF"/>
<stop offset="1" stop-color="#A35AFF"/>
</linearGradient>
</defs>
</svg>
