<svg width="34" height="34" viewBox="0 0 34 34" fill="none" xmlns="http://www.w3.org/2000/svg">
<path d="M17 0.183258C7.80004 0.183258 0.333374 7.64992 0.333374 16.8499C0.333374 26.0499 7.80004 33.5166 17 33.5166C26.2 33.5166 33.6667 26.0499 33.6667 16.8499C33.6667 7.64992 26.2 0.183258 17 0.183258ZM24.7334 11.5166C24.4834 14.1499 23.4 20.5499 22.85 23.4999C22.6167 24.7499 22.15 25.1666 21.7167 25.2166C20.75 25.2999 20.0167 24.5833 19.0834 23.9666C17.6167 22.9999 16.7834 22.3999 15.3667 21.4666C13.7167 20.3833 14.7834 19.7833 15.7334 18.8166C15.9834 18.5666 20.25 14.6833 20.3334 14.3333C20.345 14.2802 20.3434 14.2252 20.3289 14.1729C20.3144 14.1206 20.2873 14.0727 20.25 14.0333C20.15 13.9499 20.0167 13.9833 19.9 13.9999C19.75 14.0333 17.4167 15.5833 12.8667 18.6499C12.2 19.0999 11.6 19.3333 11.0667 19.3166C10.4667 19.2999 9.33337 18.9833 8.48337 18.6999C7.43337 18.3666 6.61671 18.1833 6.68337 17.5999C6.71671 17.2999 7.13337 16.9999 7.91671 16.6833C12.7834 14.5666 16.0167 13.1666 17.6334 12.4999C22.2667 10.5666 23.2167 10.2333 23.85 10.2333C23.9834 10.2333 24.3 10.2666 24.5 10.4333C24.6667 10.5666 24.7167 10.7499 24.7334 10.8833C24.7167 10.9833 24.75 11.2833 24.7334 11.5166Z" fill="url(#paint0_linear_7103_15778)"/>
<defs>
<linearGradient id="paint0_linear_7103_15778" x1="0.333374" y1="0.183258" x2="38.5974" y2="7.41012" gradientUnits="userSpaceOnUse">
<stop stopColor="#6473FF"/>
<stop offset="1" stopColor="#A35AFF"/>
</linearGradient>
</defs>
</svg>
