<svg width="30" height="25" viewBox="0 0 30 25" fill="none" xmlns="http://www.w3.org/2000/svg">
<path d="M27.0972 0.889461C27.0972 0.889461 29.7951 -0.162623 29.5694 2.39224C29.4951 3.44432 28.8208 7.12696 28.2958 11.1096L26.4972 22.9082C26.4972 22.9082 26.3472 24.6367 24.9979 24.9374C23.6493 25.2374 21.6257 23.8853 21.2507 23.5846C20.9507 23.3589 15.6299 19.977 13.7563 18.3242C13.2313 17.8728 12.6313 16.9714 13.8313 15.9193L21.7 8.40404C22.5993 7.50266 23.4986 5.39849 19.7514 7.95335L9.25834 15.0922C9.25834 15.0922 8.05903 15.8443 5.81111 15.1679L0.938892 13.6645C0.938892 13.6645 -0.859719 12.5374 2.2132 11.4103C9.70834 7.87835 18.9271 4.27141 27.0958 0.889461H27.0972Z" fill="white"/>
</svg>
