<svg width="24" height="25" viewBox="0 0 24 25" fill="none" xmlns="http://www.w3.org/2000/svg">
<circle cx="12" cy="12.6479" r="12" fill="white" fill-opacity="0.1"/>
<path d="M12 6C8.136 6 5 9.136 5 13C5 16.864 8.136 20 12 20C15.864 20 19 16.864 19 13C19 9.136 15.864 6 12 6ZM15.248 10.76C15.143 11.866 14.688 14.554 14.457 15.793C14.359 16.318 14.163 16.493 13.981 16.514C13.575 16.549 13.267 16.248 12.875 15.989C12.259 15.583 11.909 15.331 11.314 14.939C10.621 14.484 11.069 14.232 11.468 13.826C11.573 13.721 13.365 12.09 13.4 11.943C13.4049 11.9207 13.4042 11.8976 13.3981 11.8757C13.392 11.8537 13.3806 11.8336 13.365 11.817C13.323 11.782 13.267 11.796 13.218 11.803C13.155 11.817 12.175 12.468 10.264 13.756C9.984 13.945 9.732 14.043 9.508 14.036C9.256 14.029 8.78 13.896 8.423 13.777C7.982 13.637 7.639 13.56 7.667 13.315C7.681 13.189 7.856 13.063 8.185 12.93C10.229 12.041 11.587 11.453 12.266 11.173C14.212 10.361 14.611 10.221 14.877 10.221C14.933 10.221 15.066 10.235 15.15 10.305C15.22 10.361 15.241 10.438 15.248 10.494C15.241 10.536 15.255 10.662 15.248 10.76Z" fill="white"/>
</svg>
