<svg width="30" height="24" viewBox="0 0 30 24" fill="none" xmlns="http://www.w3.org/2000/svg">
<path d="M29.5277 3.05439C28.4583 3.5405 27.3055 3.85995 26.1111 4.01272C27.3333 3.27661 28.2777 2.10994 28.7222 0.707167C27.5694 1.40161 26.2916 1.88772 24.9444 2.1655C23.8472 0.971056 22.3055 0.276611 20.5555 0.276611C17.2916 0.276611 14.6249 2.94328 14.6249 6.23495C14.6249 6.70717 14.6805 7.1655 14.7777 7.59606C9.83328 7.34606 5.4305 4.97106 2.49995 1.37383C1.98606 2.24883 1.69439 3.27661 1.69439 4.35995C1.69439 6.42939 2.73606 8.26272 4.34717 9.30439C3.36106 9.30439 2.44439 9.02661 1.63883 8.60995V8.65161C1.63883 11.5405 3.69439 13.9572 6.41661 14.4988C5.54262 14.738 4.62508 14.7713 3.73606 14.5961C4.11329 15.7801 4.85208 16.8161 5.84858 17.5585C6.84508 18.3009 8.04918 18.7123 9.29161 18.7349C7.18554 20.4022 4.57494 21.3034 1.88883 21.2905C1.41661 21.2905 0.94439 21.2627 0.472168 21.2072C3.11106 22.9016 6.24995 23.8877 9.61106 23.8877C20.5555 23.8877 26.5694 14.8044 26.5694 6.92939C26.5694 6.6655 26.5694 6.4155 26.5555 6.15161C27.7222 5.31828 28.7222 4.26272 29.5277 3.05439Z" fill="url(#paint0_linear_6809_3418)"/>
<defs>
<linearGradient id="paint0_linear_6809_3418" x1="0.472168" y1="0.276611" x2="33.2451" y2="7.89366" gradientUnits="userSpaceOnUse">
<stop stop-color="#6473FF"/>
<stop offset="1" stop-color="#A35AFF"/>
</linearGradient>
</defs>
</svg>
