<svg width="30" height="25" viewBox="0 0 30 25" fill="none" xmlns="http://www.w3.org/2000/svg">
<path d="M29.5278 3.2819C28.4584 3.76801 27.3056 4.08745 26.1112 4.24023C27.3334 3.50412 28.2778 2.33745 28.7223 0.934675C27.5695 1.62912 26.2917 2.11523 24.9445 2.39301C23.8473 1.19856 22.3056 0.50412 20.5556 0.50412C17.2917 0.50412 14.6251 3.17079 14.6251 6.46245C14.6251 6.93468 14.6806 7.39301 14.7778 7.82357C9.8334 7.57357 5.43062 5.19857 2.50007 1.60134C1.98618 2.47634 1.69451 3.50412 1.69451 4.58745C1.69451 6.6569 2.73618 8.49023 4.34729 9.5319C3.36118 9.5319 2.44451 9.25412 1.63896 8.83745V8.87912C1.63896 11.768 3.69451 14.1847 6.41674 14.7263C5.54275 14.9655 4.6252 14.9988 3.73618 14.8236C4.11341 16.0076 4.8522 17.0436 5.8487 17.786C6.8452 18.5284 8.0493 18.9398 9.29174 18.9625C7.18567 20.6297 4.57506 21.531 1.88896 21.518C1.41673 21.518 0.944512 21.4902 0.47229 21.4347C3.11118 23.1291 6.25007 24.1152 9.61118 24.1152C20.5556 24.1152 26.5695 15.0319 26.5695 7.1569C26.5695 6.89301 26.5695 6.64301 26.5556 6.37912C27.7223 5.54579 28.7223 4.49023 29.5278 3.2819Z" fill="url(#paint0_linear_7213_2769)"/>
<defs>
<linearGradient id="paint0_linear_7213_2769" x1="0.47229" y1="0.50412" x2="33.2452" y2="8.12116" gradientUnits="userSpaceOnUse">
<stop stop-color="#6473FF"/>
<stop offset="1" stop-color="#A35AFF"/>
</linearGradient>
</defs>
</svg>
