<svg width="18" height="17" viewBox="0 0 18 17" fill="none" xmlns="http://www.w3.org/2000/svg">
<path d="M8.49692 10.8307C8.46646 10.8644 8.43808 10.8999 8.41192 10.937C8.38512 10.9765 8.36368 11.0194 8.34817 11.0645C8.32775 11.1046 8.31343 11.1476 8.30567 11.192C8.3022 11.2392 8.3022 11.2865 8.30567 11.3337C8.30328 11.4266 8.32269 11.5188 8.36234 11.6028C8.39415 11.6907 8.44491 11.7706 8.51101 11.8367C8.57711 11.9028 8.65694 11.9535 8.74484 11.9853C8.82963 12.0228 8.92131 12.0422 9.01401 12.0422C9.10671 12.0422 9.19839 12.0228 9.28317 11.9853C9.37108 11.9535 9.4509 11.9028 9.51701 11.8367C9.58311 11.7706 9.63386 11.6907 9.66567 11.6028C9.69713 11.5167 9.71156 11.4253 9.70817 11.3337C9.70871 11.2404 9.69085 11.148 9.6556 11.0617C9.62035 10.9754 9.56841 10.8969 9.50276 10.8307C9.43691 10.7644 9.35857 10.7117 9.27225 10.6757C9.18593 10.6397 9.09335 10.6212 8.99984 10.6212C8.90633 10.6212 8.81375 10.6397 8.72743 10.6757C8.64112 10.7117 8.56277 10.7644 8.49692 10.8307ZM8.99984 1.41699C7.59889 1.41699 6.2294 1.83242 5.06455 2.61075C3.8997 3.38908 2.99181 4.49534 2.45569 5.78965C1.91957 7.08396 1.7793 8.50818 2.05261 9.88221C2.32592 11.2562 3.00055 12.5184 3.99117 13.509C4.98179 14.4996 6.24392 15.1742 7.61795 15.4476C8.99198 15.7209 10.4162 15.5806 11.7105 15.0445C13.0048 14.5084 14.1111 13.6005 14.8894 12.4356C15.6677 11.2708 16.0832 9.90128 16.0832 8.50033C16.0832 7.57013 15.9 6.64904 15.544 5.78965C15.188 4.93026 14.6663 4.1494 14.0085 3.49165C13.3508 2.8339 12.5699 2.31215 11.7105 1.95618C10.8511 1.60021 9.93004 1.41699 8.99984 1.41699ZM8.99984 14.167C7.87908 14.167 6.78349 13.8346 5.85161 13.212C4.91973 12.5893 4.19342 11.7043 3.76452 10.6689C3.33563 9.63342 3.22341 8.49404 3.44206 7.39481C3.66071 6.29559 4.2004 5.28588 4.9929 4.49339C5.7854 3.70089 6.7951 3.16119 7.89433 2.94254C8.99356 2.72389 10.1329 2.83611 11.1684 3.26501C12.2038 3.6939 13.0888 4.42022 13.7115 5.35209C14.3342 6.28397 14.6665 7.37956 14.6665 8.50033C14.6665 10.0032 14.0695 11.4446 13.0068 12.5073C11.9441 13.57 10.5027 14.167 8.99984 14.167ZM8.99984 4.95866C8.62659 4.95842 8.25987 5.05649 7.93657 5.24301C7.61327 5.42953 7.3448 5.69792 7.15817 6.02116C7.10692 6.10178 7.07251 6.19193 7.05701 6.2862C7.0415 6.38047 7.04522 6.47689 7.06795 6.56968C7.09068 6.66247 7.13194 6.7497 7.18926 6.82613C7.24657 6.90256 7.31876 6.96661 7.40147 7.01442C7.48417 7.06222 7.5757 7.09281 7.67054 7.10433C7.76537 7.11585 7.86156 7.10806 7.9533 7.08145C8.04505 7.05483 8.13047 7.00993 8.20442 6.94944C8.27836 6.88896 8.33931 6.81414 8.38359 6.72949C8.446 6.6214 8.53586 6.53171 8.64408 6.46952C8.7523 6.40732 8.87503 6.37483 8.99984 6.37533C9.1877 6.37533 9.36787 6.44995 9.50071 6.58279C9.63355 6.71563 9.70817 6.8958 9.70817 7.08366C9.70817 7.27152 9.63355 7.45169 9.50071 7.58453C9.36787 7.71736 9.1877 7.79199 8.99984 7.79199C8.81198 7.79199 8.63181 7.86662 8.49897 7.99946C8.36614 8.1323 8.29151 8.31246 8.29151 8.50033V9.20866C8.29151 9.39652 8.36614 9.57669 8.49897 9.70953C8.63181 9.84236 8.81198 9.91699 8.99984 9.91699C9.1877 9.91699 9.36787 9.84236 9.50071 9.70953C9.63355 9.57669 9.70817 9.39652 9.70817 9.20866V9.08116C10.1766 8.91117 10.5705 8.58194 10.8208 8.15102C11.0711 7.7201 11.1621 7.21491 11.0777 6.72375C10.9933 6.23259 10.7389 5.78671 10.3591 5.46407C9.97931 5.14142 9.49818 4.96253 8.99984 4.95866Z" fill="#8E8E8E"/>
</svg>
