<svg width="378" height="398" viewBox="0 0 378 398" fill="none" xmlns="http://www.w3.org/2000/svg">
<g style="mix-blend-mode:overlay">
<rect width="147.132" height="60.4153" rx="30.2076" transform="matrix(0.500357 -0.865819 -0.865819 -0.500357 96.3887 207.243)" fill="url(#paint0_linear_6497_12745)"/>
<rect x="95.0898" y="206.505" width="147.132" height="60.4153" rx="30.2076" transform="rotate(29.8335 95.0898 206.505)" fill="url(#paint1_linear_6497_12745)"/>
<rect x="-82.5522" y="104.507" width="147.132" height="60.4153" rx="30.2076" transform="rotate(29.8335 -82.5522 104.507)" fill="url(#paint2_linear_6497_12745)"/>
<rect width="147.132" height="60.4153" rx="30.2076" transform="matrix(0.500357 -0.865819 -0.865819 -0.500357 -8.06396 385.203)" fill="url(#paint3_linear_6497_12745)"/>
<rect x="201.35" y="27.0977" width="147.132" height="60.4153" rx="30.2076" transform="rotate(29.8335 201.35 27.0977)" fill="url(#paint4_linear_6497_12745)"/>
<rect width="147.132" height="60.4153" rx="30.2076" transform="matrix(0.500357 -0.865819 -0.865819 -0.500357 275.837 307.792)" fill="url(#paint5_linear_6497_12745)"/>
</g>
<defs>
<linearGradient id="paint0_linear_6497_12745" x1="80.3051" y1="0.34905" x2="80.1524" y2="61.7871" gradientUnits="userSpaceOnUse">
<stop stopColor="#CB60FF"/>
<stop offset="1" stopColor="#5B3C7E"/>
</linearGradient>
<linearGradient id="paint1_linear_6497_12745" x1="175.395" y1="206.854" x2="175.242" y2="268.292" gradientUnits="userSpaceOnUse">
<stop stopColor="#CB60FF"/>
<stop offset="1" stopColor="#5B3C7E"/>
</linearGradient>
<linearGradient id="paint2_linear_6497_12745" x1="-2.24715" y1="104.856" x2="-2.39989" y2="166.294" gradientUnits="userSpaceOnUse">
<stop stopColor="#CB60FF"/>
<stop offset="1" stopColor="#5B3C7E"/>
</linearGradient>
<linearGradient id="paint3_linear_6497_12745" x1="80.3051" y1="0.34905" x2="80.1524" y2="61.7871" gradientUnits="userSpaceOnUse">
<stop stopColor="#CB60FF"/>
<stop offset="1" stopColor="#5B3C7E"/>
</linearGradient>
<linearGradient id="paint4_linear_6497_12745" x1="281.655" y1="27.4467" x2="281.502" y2="88.8847" gradientUnits="userSpaceOnUse">
<stop stopColor="#CB60FF"/>
<stop offset="1" stopColor="#5B3C7E"/>
</linearGradient>
<linearGradient id="paint5_linear_6497_12745" x1="80.3051" y1="0.34905" x2="80.1524" y2="61.7871" gradientUnits="userSpaceOnUse">
<stop stopColor="#CB60FF"/>
<stop offset="1" stopColor="#5B3C7E"/>
</linearGradient>
</defs>
</svg>
