<svg width="30" height="21" viewBox="0 0 30 21" fill="none" xmlns="http://www.w3.org/2000/svg">
<path d="M28.9686 3.36694C28.8027 2.75032 28.4776 2.1881 28.0261 1.73656C27.5746 1.28502 27.0123 0.960003 26.3957 0.794027C24.1249 0.179444 14.9999 0.179443 14.9999 0.179443C14.9999 0.179443 5.87489 0.179444 3.60406 0.794027C2.98743 0.960003 2.42521 1.28502 1.97368 1.73656C1.52214 2.1881 1.19711 2.75032 1.03114 3.36694C0.607124 5.68285 0.401361 8.03343 0.416555 10.3878C0.401361 12.7421 0.607124 15.0927 1.03114 17.4086C1.19711 18.0252 1.52214 18.5875 1.97368 19.039C2.42521 19.4905 2.98743 19.8156 3.60406 19.9815C5.87489 20.5961 14.9999 20.5961 14.9999 20.5961C14.9999 20.5961 24.1249 20.5961 26.3957 19.9815C27.0123 19.8156 27.5746 19.4905 28.0261 19.039C28.4776 18.5875 28.8027 18.0252 28.9686 17.4086C29.3927 15.0927 29.5984 12.7421 29.5832 10.3878C29.5984 8.03343 29.3927 5.68285 28.9686 3.36694ZM12.0832 14.7628V6.01278L19.6561 10.3878L12.0832 14.7628Z" fill="url(#paint0_linear_6809_3146)"/>
<defs>
<linearGradient id="paint0_linear_6809_3146" x1="0.415771" y1="0.179443" x2="32.7396" y2="8.90126" gradientUnits="userSpaceOnUse">
<stop stop-color="#6473FF"/>
<stop offset="1" stop-color="#A35AFF"/>
</linearGradient>
</defs>
</svg>
