<svg width="44" height="32" viewBox="0 0 44 32" fill="none" xmlns="http://www.w3.org/2000/svg">
<path d="M42.9533 5.46875C42.7044 4.54381 42.2168 3.70049 41.5395 3.02318C40.8622 2.34587 40.0189 1.85834 39.0939 1.60938C35.6877 0.6875 22.0002 0.6875 22.0002 0.6875C22.0002 0.6875 8.3127 0.6875 4.90645 1.60938C3.98151 1.85834 3.13819 2.34587 2.46088 3.02318C1.78357 3.70049 1.29604 4.54381 1.04707 5.46875C0.411052 8.9426 0.102407 12.4685 0.125199 16C0.102407 19.5315 0.411052 23.0574 1.04707 26.5313C1.29604 27.4562 1.78357 28.2995 2.46088 28.9768C3.13819 29.6541 3.98151 30.1417 4.90645 30.3906C8.3127 31.3125 22.0002 31.3125 22.0002 31.3125C22.0002 31.3125 35.6877 31.3125 39.0939 30.3906C40.0189 30.1417 40.8622 29.6541 41.5395 28.9768C42.2168 28.2995 42.7044 27.4562 42.9533 26.5313C43.5893 23.0574 43.898 19.5315 43.8752 16C43.898 12.4685 43.5893 8.9426 42.9533 5.46875ZM17.6252 22.5625V9.4375L28.9846 16L17.6252 22.5625Z" fill="url(#paint0_linear_6115_9343)"/>
<defs>
<linearGradient id="paint0_linear_6115_9343" x1="0.124023" y1="0.6875" x2="48.6097" y2="13.7702" gradientUnits="userSpaceOnUse">
<stop stop-color="#6473FF"/>
<stop offset="1" stop-color="#A35AFF"/>
</linearGradient>
</defs>
</svg>
