<svg width="24" height="25" viewBox="0 0 24 25" fill="none" xmlns="http://www.w3.org/2000/svg">
<path opacity="0.1" fill-rule="evenodd" clip-rule="evenodd" d="M0 12.6479C0 6.02053 5.37258 0.647949 12 0.647949C18.6274 0.647949 24 6.02053 24 12.6479C24 19.2754 18.6274 24.6479 12 24.6479C5.37258 24.6479 0 19.2754 0 12.6479Z" fill="white"/>
<path fill-rule="evenodd" clip-rule="evenodd" d="M17.0009 8.52271C17.5517 8.67384 17.9854 9.11915 18.1326 9.68466C18.4001 10.7096 18.4001 12.848 18.4001 12.848C18.4001 12.848 18.4001 14.9865 18.1326 16.0114C17.9854 16.5769 17.5517 17.0223 17.0009 17.1735C16.0028 17.448 12.0001 17.448 12.0001 17.448C12.0001 17.448 7.99741 17.448 6.99923 17.1735C6.44846 17.0223 6.01472 16.5769 5.86752 16.0114C5.6001 14.9865 5.6001 12.848 5.6001 12.848C5.6001 12.848 5.6001 10.7096 5.86752 9.68466C6.01472 9.11915 6.44846 8.67384 6.99923 8.52271C7.99741 8.24805 12.0001 8.24805 12.0001 8.24805C12.0001 8.24805 16.0028 8.24805 17.0009 8.52271ZM10.8001 11.048V15.048L14.0001 13.0481L10.8001 11.048Z" fill="white"/>
</svg>
