<svg width="30" height="21" viewBox="0 0 30 21" fill="none" xmlns="http://www.w3.org/2000/svg">
<path d="M28.9688 3.59436C28.8028 2.97774 28.4778 2.41552 28.0262 1.96398C27.5747 1.51244 27.0125 1.18742 26.3958 1.02144C24.125 0.406861 15 0.40686 15 0.40686C15 0.40686 5.87501 0.406861 3.60418 1.02144C2.98755 1.18742 2.42534 1.51244 1.9738 1.96398C1.52226 2.41552 1.19724 2.97774 1.03126 3.59436C0.607246 5.91026 0.401483 8.26084 0.416677 10.6152C0.401483 12.9695 0.607246 15.3201 1.03126 17.636C1.19724 18.2527 1.52226 18.8149 1.9738 19.2664C2.42534 19.7179 2.98755 20.043 3.60418 20.2089C5.87501 20.8235 15 20.8235 15 20.8235C15 20.8235 24.125 20.8235 26.3958 20.2089C27.0125 20.043 27.5747 19.7179 28.0262 19.2664C28.4778 18.8149 28.8028 18.2527 28.9688 17.636C29.3928 15.3201 29.5985 12.9695 29.5833 10.6152C29.5985 8.26084 29.3928 5.91026 28.9688 3.59436ZM12.0833 14.9902V6.24019L19.6563 10.6152L12.0833 14.9902Z" fill="url(#paint0_linear_7213_6481)"/>
<defs>
<linearGradient id="paint0_linear_7213_6481" x1="0.415894" y1="0.40686" x2="32.7397" y2="9.12868" gradientUnits="userSpaceOnUse">
<stop stop-color="#6473FF"/>
<stop offset="1" stop-color="#A35AFF"/>
</linearGradient>
</defs>
</svg>
