<svg width="25" height="24" viewBox="0 0 25 24" fill="none" xmlns="http://www.w3.org/2000/svg">
	<path d="M10.1385 21.5854C8.46293 21.0866 6.97148 20.1604 5.79052 18.9333C6.23108 18.4111 6.49658 17.7365 6.49658 16.9998C6.49658 15.343 5.15344 13.9998 3.49658 13.9998C3.39636 13.9998 3.29728 14.0047 3.19958 14.0143C3.06648 13.3636 2.99658 12.6899 2.99658 11.9998C2.99658 10.9545 3.15697 9.94667 3.45448 8.99952C3.46849 8.99972 3.48252 8.99982 3.49658 8.99982C5.15344 8.99982 6.49658 7.65667 6.49658 5.99982C6.49658 5.52417 6.38588 5.07437 6.18888 4.67481C7.34533 3.5995 8.75683 2.79477 10.3226 2.36133C10.8188 3.33385 11.8299 3.99982 12.9966 3.99982C14.1632 3.99982 15.1744 3.33385 15.6705 2.36133C17.2363 2.79477 18.6478 3.5995 19.8043 4.67481C19.6073 5.07437 19.4966 5.52417 19.4966 5.99982C19.4966 7.65667 20.8397 8.99982 22.4966 8.99982C22.5106 8.99982 22.5247 8.99972 22.5387 8.99952C22.8362 9.94667 22.9966 10.9545 22.9966 11.9998C22.9966 12.6899 22.9267 13.3636 22.7936 14.0143C22.6959 14.0047 22.5968 13.9998 22.4966 13.9998C20.8397 13.9998 19.4966 15.343 19.4966 16.9998C19.4966 17.7365 19.7621 18.4111 20.2026 18.9333C19.0217 20.1604 17.5302 21.0866 15.8547 21.5854C15.468 20.3757 14.3346 19.4998 12.9966 19.4998C11.6586 19.4998 10.5252 20.3757 10.1385 21.5854Z" stroke="#8E8E8E" stroke-width="2" stroke-linejoin="round" />
	<path d="M12.9966 15.5C14.9296 15.5 16.4966 13.933 16.4966 12C16.4966 10.067 14.9296 8.5 12.9966 8.5C11.0636 8.5 9.49658 10.067 9.49658 12C9.49658 13.933 11.0636 15.5 12.9966 15.5Z" stroke="#8E8E8E" stroke-width="2" stroke-linejoin="round" />
</svg>
