<svg width="81" height="25" viewBox="0 0 81 25" fill="none" xmlns="http://www.w3.org/2000/svg">
<g clip-path="url(#clip0_13487_13603)">
<path d="M59.9907 23.7444L66.6624 16.3551L59.9907 8.96484H67.03L70.3344 12.5546L73.5163 8.96484H80.31L73.67 16.3246L80.4012 23.7444H73.333L70.0585 20.1252L66.8151 23.7444H59.9907Z" fill="white"/>
<path d="M59.9908 5.65203H52.4346V8.96506H59.9908V13.9581H52.4346V18.5411H59.9908V23.7446H46.8809V0.462891H59.9908V5.65203Z" fill="white"/>
<path d="M41.3508 0.462891V9.99089H41.2899C40.0656 8.60369 38.5358 8.12163 36.7609 8.12163C33.125 8.12163 30.3863 10.558 29.4249 13.7791C28.3285 10.2299 25.501 8.05512 21.3083 8.05512C17.9035 8.05512 15.2148 9.56163 13.8117 12.0165V8.9654H6.77374V5.65272H14.4541V0.462891H0.5V23.7449H6.77374V13.9581H13.027C12.8405 14.6771 12.741 15.4468 12.741 16.259C12.741 21.1156 16.5049 24.5232 21.3083 24.5232C25.3477 24.5232 28.0096 22.654 29.4176 19.246H24.0412C23.3139 20.2697 22.7623 20.5739 21.3083 20.5739C19.6224 20.5739 18.1689 19.1239 18.1689 17.4052H29.1164C29.5911 21.2627 32.6395 24.5894 36.8228 24.5894C38.6273 24.5894 40.2795 23.7144 41.2899 22.2371H41.3508V23.7443H46.8812V0.462891H41.3508ZM18.3435 14.0277C18.6924 12.5489 19.8558 11.5824 21.3083 11.5824C22.9073 11.5824 24.0117 12.5191 24.3021 14.0277C24.4245 14.0277 18.3435 14.0277 18.3435 14.0277ZM37.9946 20.1998C35.956 20.1998 34.6892 18.3275 34.6892 16.3725C34.6892 14.2828 35.7911 12.2733 37.9946 12.2733C40.2795 12.2733 41.1897 14.2828 41.1897 16.3725C41.1894 18.3542 40.2249 20.1998 37.9946 20.1998Z" fill="white"/>
</g>
<defs>
<clipPath id="clip0_13487_13603">
<rect width="80" height="24" fill="white" transform="translate(0.5 0.462891)"/>
</clipPath>
</defs>
</svg>
