<svg width="84" height="25" viewBox="0 0 84 25" fill="none" xmlns="http://www.w3.org/2000/svg">
<g clip-path="url(#clip0_13487_13575)">
<path d="M9.09675 4.43555V11.2053H2.92846V4.43555H0V20.5956H2.92846V14.0457H9.09675V20.5956H12.0252V4.43555H9.09675Z" fill="white"/>
<path d="M21.3976 15.3718C21.3976 16.0194 21.1424 16.6406 20.688 17.0985C20.2337 17.5565 19.6174 17.8137 18.9749 17.8137C18.3324 17.8137 17.7162 17.5565 17.2618 17.0985C16.8075 16.6406 16.5522 16.0194 16.5522 15.3718V8.4502H13.7744V15.3718C13.7744 16.7607 14.3218 18.0927 15.2961 19.0747C16.2705 20.0568 17.592 20.6086 18.9699 20.6086C20.3478 20.6086 21.6693 20.0568 22.6436 19.0747C23.618 18.0927 24.1654 16.7607 24.1654 15.3718V8.4502H21.3976V15.3718Z" fill="white"/>
<path d="M41.9787 9.16324C41.9787 7.7445 42.9099 7.29472 43.9301 7.29472C44.7522 7.29472 45.8384 7.92527 46.5486 8.69032L48.368 6.52967C47.4597 5.29171 45.6174 4.43555 44.1094 4.43555C41.0963 4.43555 38.9168 6.2144 38.9168 9.16324C38.9168 14.6343 45.5514 12.8988 45.5514 15.9605C45.5514 16.9048 44.6417 17.7393 43.6001 17.7393C41.9572 17.7393 41.4249 16.9294 40.6702 16.0733L38.6514 18.1891C39.9427 19.7872 41.5354 20.5985 43.4437 20.5985C46.3061 20.5985 48.609 18.7979 48.609 15.9836C48.609 9.90948 41.9744 11.7968 41.9744 9.16324" fill="white"/>
<path d="M83.0229 18.0141C81.3815 18.0141 80.9152 17.2982 80.9152 16.202V11.3499H83.4663V8.89133H80.9152V5.64746L78.0986 6.92158V16.805C78.0986 19.333 79.829 20.6071 82.2022 20.6071C82.5744 20.614 82.9464 20.5839 83.3128 20.5175L84 17.9678C83.6901 17.9895 83.3343 18.0112 83.0229 18.0112" fill="white"/>
<path d="M31.9706 8.53102C30.5947 8.53102 29.6348 8.93307 28.7064 9.85142V4.53223H25.9243V14.3911C25.9243 18.0818 28.5716 20.6098 31.5459 20.6098C34.846 20.6098 37.7487 18.037 37.7487 14.5719C37.7487 11.1501 35.077 8.53247 31.9706 8.53247V8.53102ZM31.9534 17.7883C31.3291 17.7883 30.7188 17.6017 30.1997 17.2521C29.6806 16.9024 29.276 16.4055 29.0371 15.8242C28.7982 15.2428 28.7357 14.6031 28.8575 13.9859C28.9793 13.3687 29.2799 12.8018 29.7214 12.3568C30.1628 11.9118 30.7253 11.6088 31.3376 11.486C31.9499 11.3633 32.5846 11.4263 33.1614 11.6671C33.7382 11.9079 34.2312 12.3157 34.578 12.8389C34.9249 13.3622 35.11 13.9773 35.11 14.6066C35.11 15.4504 34.7775 16.2597 34.1855 16.8564C33.5935 17.4531 32.7906 17.7883 31.9534 17.7883Z" fill="white"/>
<path d="M62.1793 14.4247C62.1793 10.9538 59.2824 8.38672 55.9766 8.38672C53.0022 8.38672 50.355 10.9147 50.355 14.6055V24.4701H53.1371V19.1437C54.064 20.0606 55.0253 20.4641 56.3999 20.4641C59.5062 20.4641 62.1779 17.8479 62.1779 14.4247H62.1793ZM59.545 14.39C59.545 15.0192 59.3599 15.6344 59.013 16.1576C58.6661 16.6808 58.1732 17.0886 57.5964 17.3295C57.0196 17.5703 56.3849 17.6333 55.7726 17.5105C55.1602 17.3877 54.5978 17.0847 54.1563 16.6398C53.7149 16.1948 53.4142 15.6279 53.2924 15.0107C53.1706 14.3935 53.2332 13.7538 53.4721 13.1724C53.711 12.591 54.1156 12.0941 54.6347 11.7445C55.1538 11.3949 55.7641 11.2083 56.3884 11.2083C57.2256 11.2083 58.0285 11.5435 58.6204 12.1402C59.2124 12.7369 59.545 13.5461 59.545 14.39Z" fill="white"/>
<path d="M71.1671 8.25076V5.43352C71.5365 5.25956 71.8492 4.98343 72.069 4.63728C72.2887 4.29112 72.4063 3.88917 72.4082 3.47824V3.41316C72.4082 2.83782 72.1815 2.28604 71.7779 1.87921C71.3742 1.47238 70.8268 1.24383 70.256 1.24383H70.1914C69.6206 1.24383 69.0732 1.47238 68.6696 1.87921C68.266 2.28604 68.0392 2.83782 68.0392 3.41316V3.47824C68.0411 3.88917 68.1588 4.29112 68.3785 4.63728C68.5982 4.98343 68.911 5.25956 69.2803 5.43352V8.25076C68.2187 8.41446 67.2189 8.85799 66.382 9.53645L58.7172 3.51873C58.7715 3.32029 58.8004 3.11569 58.8033 2.90987C58.8041 2.42641 58.6627 1.95356 58.3969 1.55112C58.1311 1.14868 57.7529 0.834737 57.31 0.648998C56.8672 0.46326 56.3797 0.41407 55.9091 0.507652C55.4385 0.601234 55.006 0.833383 54.6664 1.17473C54.3267 1.51609 54.0951 1.95131 54.0009 2.42534C53.9066 2.89938 53.954 3.39094 54.137 3.83785C54.3199 4.28475 54.6303 4.66693 55.0288 4.93603C55.4272 5.20513 55.8959 5.34907 56.3756 5.34964C56.795 5.34775 57.2066 5.23506 57.5694 5.0228L65.1179 10.9422C64.4397 11.9747 64.0858 13.1893 64.1024 14.4276C64.119 15.6659 64.5054 16.8703 65.2112 17.884L62.9155 20.198C62.7298 20.1382 62.5364 20.1065 62.3416 20.104C61.9478 20.1043 61.5629 20.2222 61.2357 20.4429C60.9084 20.6635 60.6533 20.9771 60.5028 21.3438C60.3522 21.7105 60.3129 22.114 60.3898 22.5033C60.4667 22.8925 60.6563 23.2501 60.9348 23.5307C61.2132 23.8114 61.5679 24.0025 61.9541 24.08C62.3403 24.1575 62.7406 24.1179 63.1045 23.9661C63.4683 23.8144 63.7793 23.5573 63.9983 23.2274C64.2172 22.8976 64.3342 22.5097 64.3345 22.1128C64.3321 21.9163 64.3006 21.7214 64.2413 21.5343L66.5126 19.2449C67.2532 19.8194 68.1144 20.2154 69.0303 20.4025C69.9462 20.5897 70.8925 20.5631 71.7966 20.3248C72.7007 20.0865 73.5388 19.6428 74.2465 19.0276C74.9542 18.4124 75.5129 17.6422 75.8797 16.7758C76.2464 15.9094 76.4116 14.9699 76.3626 14.0293C76.3136 13.0886 76.0516 12.1717 75.5967 11.3489C75.1418 10.526 74.5062 9.81903 73.7384 9.28202C72.9706 8.74502 72.091 8.39225 71.1671 8.25076ZM70.2259 17.5152C69.6046 17.5147 68.9974 17.3285 68.4811 16.9802C67.9647 16.6319 67.5624 16.1371 67.325 15.5584C67.0876 14.9797 67.0257 14.343 67.1471 13.7289C67.2686 13.1147 67.5679 12.5507 68.0073 12.1079C68.4468 11.6652 69.0065 11.3638 69.6159 11.2416C70.2253 11.1195 70.8569 11.1822 71.4309 11.4218C72.0049 11.6613 72.4956 12.0671 72.8409 12.5877C73.1863 13.1082 73.3707 13.7203 73.371 14.3466C73.371 15.1866 73.0399 15.9922 72.4507 16.5861C71.8614 17.1801 71.0621 17.5138 70.2287 17.5138" fill="white"/>
</g>
<defs>
<clipPath id="clip0_13487_13575">
<rect width="84" height="24" fill="white" transform="translate(0 0.462891)"/>
</clipPath>
</defs>
</svg>
