<svg width="123" height="27" viewBox="0 0 123 27" fill="none" xmlns="http://www.w3.org/2000/svg">
<g clip-path="url(#clip0_13489_3320)">
<path d="M43.5636 15.4382L42.8365 17.494H42.7759C42.6547 17.0304 42.4325 16.325 42.0689 15.4785L38.1706 5.70331H34.353V21.2832H36.8779V11.6692C36.8779 11.0645 36.8779 10.3793 36.8577 9.53276C36.8375 9.10951 36.7971 8.78703 36.7769 8.54517H36.8375C36.9587 9.14982 37.1 9.59323 37.201 9.8754L41.8871 21.2428H43.6646L48.3103 9.77463C48.4113 9.51261 48.5123 8.98858 48.6133 8.54517H48.6739C48.6133 9.69401 48.5729 10.7219 48.5527 11.3467V21.2227H51.2391V5.663H47.563L43.5636 15.4382ZM53.7841 10.0568H56.41V21.2227H53.7841V10.0568ZM55.1173 5.34052C54.6729 5.34052 54.3093 5.50176 54.0063 5.78393C53.7034 6.0661 53.5418 6.42889 53.5418 6.8723C53.5418 7.29556 53.7034 7.65835 54.0063 7.94052C54.3093 8.22269 54.6729 8.36377 55.1173 8.36377C55.5616 8.36377 55.9454 8.20253 56.2282 7.94052C56.5312 7.65835 56.6928 7.29556 56.6928 6.8723C56.6928 6.44904 56.5312 6.08625 56.2282 5.78393C55.9656 5.50176 55.5818 5.34052 55.1173 5.34052ZM65.7216 9.95602C65.2368 9.85525 64.7318 9.79478 64.2471 9.79478C63.0553 9.79478 61.9646 10.0568 61.0557 10.5808C60.1467 11.1049 59.4196 11.8304 58.955 12.7374C58.4702 13.6645 58.2279 14.7328 58.2279 15.9622C58.2279 17.0304 58.4702 17.9777 58.9348 18.8444C59.3994 19.6909 60.0457 20.3762 60.9143 20.8397C61.7424 21.3033 62.712 21.5452 63.8027 21.5452C65.055 21.5452 66.1255 21.2832 66.9739 20.7994L66.9941 20.7793V18.3607L66.8931 18.4413C66.5093 18.7235 66.0649 18.9653 65.6206 19.1064C65.156 19.2676 64.7318 19.3483 64.3683 19.3483C63.3179 19.3483 62.4898 19.0459 61.904 18.3808C61.2981 17.7359 60.9951 16.849 60.9951 15.7405C60.9951 14.5917 61.2981 13.6847 61.9242 13.0196C62.5504 12.3545 63.3785 12.0118 64.3885 12.0118C65.2368 12.0118 66.1053 12.294 66.8931 12.8583L66.9941 12.939V10.3793L66.9739 10.3591C66.6305 10.218 66.2467 10.0568 65.7216 9.95602ZM74.3868 9.8754C73.7404 9.8754 73.1345 10.077 72.6093 10.5002C72.1649 10.863 71.862 11.387 71.5994 12.0118H71.5792V10.0568H68.9534V21.2227H71.5792V15.5188C71.5792 14.5514 71.7812 13.7452 72.2255 13.1607C72.6699 12.556 73.2355 12.2537 73.9222 12.2537C74.1646 12.2537 74.407 12.3142 74.71 12.3545C74.9928 12.4351 75.1947 12.5157 75.3361 12.6165L75.4371 12.6971V10.077L75.3765 10.0568C75.1947 9.93587 74.8312 9.8754 74.3868 9.8754ZM81.5371 9.81494C79.6991 9.81494 78.2245 10.3591 77.1944 11.4273C76.1441 12.4956 75.6391 13.9669 75.6391 15.8211C75.6391 17.5545 76.1643 18.9653 77.1742 19.9932C78.1841 21.001 79.5577 21.525 81.2745 21.525C83.0722 21.525 84.5063 20.9808 85.5365 19.8925C86.5868 18.8041 87.0918 17.3529 87.0918 15.5591C87.0918 13.7855 86.607 12.3746 85.6173 11.3467C84.6679 10.3188 83.2742 9.81494 81.5371 9.81494ZM83.6378 18.401C83.153 19.0258 82.3855 19.3281 81.4361 19.3281C80.4868 19.3281 79.7192 19.0258 79.1739 18.3607C78.6285 17.7359 78.3659 16.8289 78.3659 15.6801C78.3659 14.4909 78.6487 13.5839 79.1739 12.939C79.7192 12.294 80.4666 11.9715 81.4159 11.9715C82.3451 11.9715 83.0722 12.2738 83.5974 12.8987C84.1226 13.5235 84.4053 14.4304 84.4053 15.6196C84.3649 16.8289 84.1428 17.7762 83.6378 18.401ZM92.9494 14.6925C92.1212 14.3498 91.5961 14.0878 91.3537 13.8661C91.1517 13.6645 91.0507 13.3824 91.0507 13.0196C91.0507 12.7173 91.1719 12.4149 91.4749 12.2134C91.7779 12.0118 92.1212 11.9111 92.6262 11.9111C93.0706 11.9111 93.5351 11.9917 93.9795 12.1126C94.4239 12.2335 94.8279 12.4149 95.151 12.6568L95.252 12.7374V10.2785L95.1914 10.2583C94.8884 10.1374 94.4845 10.0165 93.9997 9.91571C93.5149 9.83509 93.0706 9.79478 92.707 9.79478C91.4547 9.79478 90.4245 10.0971 89.6166 10.7622C88.8087 11.387 88.4249 12.2335 88.4249 13.2211C88.4249 13.7452 88.5057 14.2087 88.6875 14.5917C88.8692 14.9746 89.1318 15.3374 89.4954 15.6397C89.859 15.9219 90.3841 16.2444 91.1113 16.5467C91.7173 16.8087 92.1818 17.0103 92.4646 17.1715C92.7474 17.3328 92.9292 17.5142 93.0706 17.6552C93.1716 17.8165 93.2322 18.018 93.2322 18.2801C93.2322 19.0258 92.6666 19.3886 91.5153 19.3886C91.0709 19.3886 90.6063 19.308 90.061 19.1266C89.5156 18.9452 89.0106 18.6832 88.5865 18.3808L88.4855 18.3002V20.8599L88.5461 20.8801C88.9298 21.0614 89.3944 21.1824 89.96 21.3235C90.5255 21.4242 91.0305 21.5049 91.4749 21.5049C92.8282 21.5049 93.9391 21.2025 94.7269 20.5374C95.5348 19.8925 95.959 19.0661 95.959 17.9979C95.959 17.2521 95.757 16.587 95.3126 16.0832C94.7269 15.5994 93.9997 15.0956 92.9494 14.6925ZM102.887 9.81494C101.049 9.81494 99.5745 10.3591 98.5444 11.4273C97.5143 12.4956 96.9891 13.9669 96.9891 15.8211C96.9891 17.5545 97.5143 18.9653 98.5242 19.9932C99.5341 21.001 100.908 21.525 102.625 21.525C104.422 21.525 105.856 20.9808 106.886 19.8925C107.937 18.8041 108.442 17.3529 108.442 15.5591C108.442 13.7855 107.957 12.3746 106.967 11.3467C106.018 10.3188 104.624 9.81494 102.887 9.81494ZM104.968 18.401C104.483 19.0258 103.715 19.3281 102.766 19.3281C101.796 19.3281 101.049 19.0258 100.504 18.3607C99.9583 17.7359 99.6957 16.8289 99.6957 15.6801C99.6957 14.4909 99.9785 13.5839 100.504 12.939C101.049 12.294 101.796 11.9715 102.746 11.9715C103.655 11.9715 104.402 12.2738 104.927 12.8987C105.452 13.5235 105.735 14.4304 105.735 15.6196C105.735 16.8289 105.473 17.7762 104.968 18.401ZM122.48 12.2134V10.0568H119.834V6.75137L119.753 6.77152L117.248 7.51726L117.188 7.53742V10.0568H113.229V8.64594C113.229 8.00098 113.39 7.49711 113.673 7.17463C113.956 6.85214 114.38 6.6909 114.905 6.6909C115.269 6.6909 115.653 6.77152 116.077 6.95292L116.178 7.01339V4.73587L116.117 4.71571C115.754 4.59478 115.269 4.51416 114.643 4.51416C113.855 4.51416 113.168 4.69556 112.542 4.99788C111.916 5.34052 111.451 5.80408 111.108 6.42889C110.765 7.03354 110.583 7.71881 110.583 8.50486V10.0568H108.745V12.1932H110.583V21.2227H113.229V12.2134H117.188V17.9576C117.188 20.3157 118.299 21.5049 120.521 21.5049C120.884 21.5049 121.268 21.4444 121.631 21.3839C122.015 21.3033 122.298 21.2025 122.46 21.1219L122.48 21.1018V18.9452L122.379 19.0258C122.217 19.1266 122.076 19.2072 121.833 19.2676C121.631 19.3281 121.45 19.3483 121.308 19.3483C120.783 19.3483 120.42 19.2273 120.157 18.925C119.915 18.6428 119.793 18.1793 119.793 17.494V12.2134H122.48Z" fill="white"/>
<path d="M0.5 0.462891H12.8818V12.8179H0.5V0.462891Z" fill="white"/>
<path d="M14.1743 0.462891H26.5561V12.8179H14.1743V0.462891Z" fill="white"/>
<path d="M0.5 14.1079H12.8818V26.4629H0.5V14.1079Z" fill="white"/>
<path d="M14.1743 14.1079H26.5561V26.4629H14.1743V14.1079Z" fill="white"/>
</g>
<defs>
<clipPath id="clip0_13489_3320">
<rect width="122" height="26" fill="white" transform="translate(0.5 0.462891)"/>
</clipPath>
</defs>
</svg>
