<svg width="112" height="27" viewBox="0 0 112 27" fill="none" xmlns="http://www.w3.org/2000/svg">
<g clip-path="url(#clip0_13487_13600)">
<path d="M40.0019 9.71091V11.1844H40.047C40.5772 10.3955 41.4574 9.46642 43.4084 9.46642C44.9262 9.46642 46.0906 10.239 46.5896 11.4061H46.6347C47.0609 10.816 47.5495 10.3694 48.097 10.0532C48.7451 9.67831 49.4659 9.46316 50.3738 9.46316C52.4288 9.46316 54.2481 10.7997 54.2481 14.1705V20.5631H51.1154V14.6171C51.1154 12.9089 50.4986 11.9211 49.2164 11.9211C48.2773 11.9211 47.5946 12.5144 47.3347 13.2446C47.2446 13.4957 47.203 13.8379 47.203 14.1248V20.5664H44.0703V14.3758C44.0703 12.9252 43.4777 11.9179 42.2128 11.9179C41.2009 11.9179 40.5668 12.6676 40.3069 13.3098C40.196 13.5837 40.1613 13.8999 40.1613 14.1965V20.5631H37.0251V9.71091H40.0019ZM70.4176 9.71091V11.7581H70.5042C71.0795 10.1934 72.4448 9.46642 73.6439 9.46642C73.9454 9.46642 74.1117 9.48924 74.3543 9.53487V12.3775C74.0666 12.3384 73.7998 12.2993 73.4255 12.2993C72.0671 12.2993 71.1211 13.0425 70.882 14.2063C70.83 14.4476 70.8126 14.7083 70.8126 15.0083V20.5664H67.5968V9.71091H70.4176ZM78.7206 6.11523V9.53161H81.4375V12.296H78.7206V16.3742C78.7206 17.6944 79.0776 18.3334 80.138 18.3334C80.637 18.3334 81.0043 18.2747 81.3231 18.1997L81.3647 20.4914C80.9385 20.6414 80.0306 20.8044 79.1088 20.8044C78.0241 20.8044 77.1196 20.449 76.5686 19.8981C75.938 19.269 75.6469 18.2388 75.6469 16.7719V6.11523H78.7206ZM34.842 20.5631H31.7231V6.11523H34.842V20.5631ZM26.525 16.6871C26.525 16.886 26.5077 17.0946 26.4488 17.2739C26.2062 18.0269 25.378 18.6626 24.3453 18.6626C23.4824 18.6626 22.7963 18.203 22.7963 17.2283C22.7963 15.7385 24.5428 15.3245 26.5285 15.3342V16.6871H26.525ZM29.6404 14.089C29.6404 11.6277 28.5246 9.46642 24.7508 9.46642C22.8136 9.46642 21.275 9.97822 20.4364 10.4346L21.0497 12.4101C21.8156 11.9537 23.0389 11.5788 24.1963 11.5788C26.1127 11.5756 26.4245 12.5992 26.4245 13.2544V13.4109C22.2487 13.4044 19.6116 14.7638 19.6116 17.5347C19.6116 19.2266 20.9527 20.8109 23.2884 20.8109C24.7265 20.8109 25.9255 20.273 26.6463 19.4091H26.7156C26.7156 19.4091 27.1939 21.2836 29.8206 20.5664C29.682 19.784 29.6369 18.9527 29.6369 17.9519V14.089H29.6404ZM3.94459 6.11523C4.26687 7.64413 5.18173 12.0841 5.18173 12.0841C5.56639 13.9097 5.91986 15.8232 6.1867 17.3358H6.23521C6.49511 15.7287 6.90403 14.2063 7.34067 12.3221L8.88276 6.11523H12.2962L13.7378 12.4818C14.1155 14.252 14.417 15.6179 14.6561 17.2641H14.7011C14.961 15.6016 15.3007 14.1802 15.6715 12.3612L17.0576 6.11523H20.3324L16.2744 20.5631C13.6893 21.0945 12.6982 20.1165 12.3447 18.5648C11.9912 17.0098 11.2981 14.0531 11.2981 14.0531C10.9412 12.4329 10.664 11.292 10.4699 9.62941H10.4214C10.1442 11.2757 9.85307 12.4297 9.42336 14.0498L7.72186 20.5664C5.08124 21.0619 4.16638 20.3284 3.66043 18.3366C3.22379 16.6317 0.5 6.11849 0.5 6.11849H3.94459V6.11523ZM62.3987 16.6871C62.3987 16.886 62.3814 17.0946 62.3224 17.2739C62.0799 18.0269 61.2516 18.6626 60.219 18.6626C59.3561 18.6626 58.6699 18.203 58.6699 17.2283C58.6699 15.7385 60.4165 15.3245 62.4022 15.3342V16.6871H62.3987ZM65.5141 14.089C65.5141 11.6277 64.3982 9.46642 60.6244 9.46642C58.6873 9.46642 57.1486 9.97822 56.31 10.4346L56.9234 12.4101C57.6892 11.9537 58.9125 11.5788 60.07 11.5788C61.9828 11.5756 62.2982 12.5992 62.2982 13.2544V13.4109C58.1259 13.4044 55.4887 14.7638 55.4887 17.5347C55.4887 19.2266 56.8333 20.8109 59.1655 20.8109C60.6002 20.8109 61.8026 20.273 62.52 19.4091H62.5928C62.5928 19.4091 63.071 21.2836 65.6977 20.5664C65.5591 19.784 65.5141 18.9527 65.5141 17.9519V14.089Z" fill="white"/>
<path d="M94.0802 15.587C94.3877 16.1146 94.3669 16.7035 94.0388 16.9724L88.3669 20.8905C87.7762 21.2275 86.8919 20.819 86.3911 19.9646C85.8868 19.1068 85.9766 18.1502 86.5672 17.8132L92.8471 14.9334C93.2409 14.7837 93.7728 15.0594 94.0802 15.587ZM101.545 15.587C101.856 15.0594 102.384 14.7871 102.778 14.93L109.061 17.8098C109.652 18.1468 109.738 19.1034 109.237 19.9612C108.733 20.8156 107.845 21.2207 107.258 20.8871L101.586 16.969C101.262 16.7035 101.237 16.1112 101.545 15.587ZM97.8108 17.7111C98.4291 17.7111 98.9369 18.0243 99.006 18.4362L99.6174 25.2374C99.6174 25.9114 98.8195 26.4629 97.8143 26.4629C96.8126 26.4629 96.0112 25.9114 96.0112 25.2374L96.6191 18.4362C96.6882 18.0243 97.196 17.7111 97.8108 17.7111ZM101.586 9.95674L107.258 6.03529C107.845 5.69829 108.733 6.10337 109.237 6.96119C109.738 7.819 109.652 8.77554 109.061 9.11254L102.778 11.9958C102.384 12.1387 101.852 11.8664 101.545 11.3388C101.237 10.8111 101.262 10.2223 101.586 9.95674ZM92.8471 11.9958L86.5672 9.11254C85.98 8.77554 85.8902 7.819 86.3911 6.96119C86.8919 6.10337 87.7797 5.69829 88.3669 6.03529L94.0388 9.95674C94.3669 10.2188 94.3877 10.8111 94.0802 11.3388C93.7728 11.8664 93.2409 12.1387 92.8471 11.9958ZM96.6191 8.4896L96.0112 1.68834C96.0112 1.01434 96.8091 0.462891 97.8143 0.462891C98.8195 0.462891 99.6174 1.01434 99.6174 1.68834L99.006 8.4896C98.9369 8.89808 98.4291 9.21466 97.8108 9.21466C97.196 9.21466 96.6882 8.89808 96.6191 8.4896ZM110.771 20.8633V20.6931H110.927C110.978 20.6931 111.013 20.7271 111.013 20.7782C111.013 20.8258 110.978 20.8633 110.927 20.8633H110.771ZM110.643 21.173C110.643 21.19 110.657 21.2071 110.678 21.2071H110.744C110.761 21.2071 110.778 21.19 110.778 21.173V20.979H110.885L110.972 21.1832C110.978 21.1969 110.989 21.2071 111.003 21.2071H111.082C111.106 21.2071 111.124 21.1832 111.113 21.1594C111.082 21.0981 111.051 21.0335 111.02 20.9688C111.072 20.9518 111.151 20.9007 111.151 20.7782C111.151 20.6488 111.044 20.5739 110.937 20.5739H110.678C110.661 20.5739 110.643 20.5909 110.643 20.608V21.173ZM110.364 20.8905C110.364 20.6148 110.592 20.3901 110.871 20.3901C111.151 20.3901 111.379 20.6114 111.379 20.8905C111.379 21.1662 111.155 21.3909 110.871 21.3909C110.588 21.3909 110.364 21.1662 110.364 20.8905ZM110.243 20.8905C110.243 21.2309 110.522 21.51 110.871 21.51C111.217 21.51 111.5 21.2309 111.5 20.8905C111.5 20.5501 111.217 20.271 110.871 20.271C110.522 20.271 110.243 20.5501 110.243 20.8905Z" fill="white"/>
</g>
<defs>
<clipPath id="clip0_13487_13600">
<rect width="111" height="26" fill="white" transform="translate(0.5 0.462891)"/>
</clipPath>
</defs>
</svg>
