<svg width="50" height="50" viewBox="0 0 50 50" fill="none" xmlns="http://www.w3.org/2000/svg">
<g clip-path="url(#clip0_12238_71635)">
<path d="M22.478 0.0676727C19.6646 0.406052 17.2476 1.12148 14.9177 2.31064C8.48846 5.59775 4.19588 11.6692 3.22909 18.8525C2.93905 21.0182 3.09374 24.1989 3.57713 26.3936C4.65995 31.2179 7.39598 35.5878 11.2535 38.6525C11.8432 39.1263 12.0753 39.252 12.3363 39.252C12.9261 39.252 13.3128 38.6815 13.0517 38.1981C13.0034 38.1015 12.491 37.6277 11.9109 37.1443C7.9954 33.8766 5.50106 29.41 4.78563 24.3536C4.62127 23.1838 4.59227 20.5058 4.73729 19.3359C5.3077 14.7533 7.28963 10.6831 10.5381 7.44433C14.3859 3.58681 19.3166 1.5372 24.75 1.5372C30.1931 1.5372 35.1044 3.57714 38.9619 7.44433C42.2103 10.6831 44.1923 14.7533 44.7627 19.3359C44.9077 20.5154 44.8787 23.0194 44.7143 24.2859C43.9506 30.0577 40.7215 35.1914 35.7908 38.4592C35.1914 38.8556 34.6887 39.1649 34.6693 39.1456C34.6113 39.0779 26.8769 24.0539 26.8769 24.0152C26.8769 23.9959 27.022 23.7832 27.2056 23.5512C27.3893 23.3095 27.5827 22.9614 27.6504 22.7681L27.7664 22.4297H29.1586C29.9223 22.4297 30.5508 22.449 30.5508 22.478C30.5508 22.5167 30.4734 22.6714 30.3864 22.8454C30.1157 23.3385 30.1544 24.663 30.4541 25.2817C30.7538 25.8908 31.3435 26.4806 31.9526 26.7899C32.349 26.9833 32.581 27.022 33.2578 27.022C33.9636 27.022 34.1569 26.9833 34.6306 26.7513C35.2301 26.4612 35.7425 25.9488 36.0808 25.3107C36.2645 24.9627 36.3032 24.75 36.3032 23.9766C36.3032 23.2805 36.2645 22.9808 36.1292 22.7391L35.9552 22.4297H37.8307C39.5807 22.4297 39.7257 22.42 39.9674 22.2267C40.3057 21.9656 40.3154 21.3952 39.9964 21.0955L39.774 20.8828H33.7702H27.7761L27.602 20.4284C27.37 19.829 26.5772 19.0362 25.9778 18.8042L25.5234 18.6302V12.665C25.5234 6.77724 25.5234 6.69023 25.3204 6.43887C25.04 6.08115 24.4599 6.08115 24.1796 6.43887C23.9765 6.69023 23.9765 6.77724 23.9765 12.665V18.6302L23.5222 18.8042C22.9227 19.0362 22.13 19.829 21.8979 20.4284L21.7239 20.8828H15.7104H9.69696L9.49393 21.1052C9.18456 21.4339 9.20389 21.9656 9.5326 22.2267C9.78397 22.4297 9.87098 22.4297 15.7684 22.4297H21.7336L21.8496 22.7681C21.9173 22.9614 22.1203 23.3191 22.304 23.5608L22.6424 24.0056L21.6176 25.9972C21.0568 27.0896 18.6398 31.7689 16.2518 36.3999L11.9109 44.811L11.0215 44.8884C10.0643 44.9657 9.60995 45.1397 9.14588 45.5941C8.62381 46.1162 8.5078 46.5223 8.5078 47.8758C8.5078 48.9876 8.52713 49.1326 8.70116 49.3066C8.89452 49.5 9.0202 49.5 24.75 49.5C40.4798 49.5 40.6055 49.5 40.7988 49.3066C40.9728 49.1326 40.9922 48.9876 40.9922 47.8758C40.9922 46.5223 40.8762 46.1162 40.3541 45.5941C39.8804 45.1301 39.426 44.9561 38.4785 44.8884L37.6084 44.8304L36.5836 42.8581C36.0132 41.7656 35.5394 40.7988 35.5104 40.7118C35.4814 40.5861 35.6361 40.4411 36.1292 40.1511C38.0531 39.0006 40.6345 36.6609 42.017 34.8047C44.2019 31.8753 45.4974 28.9072 46.1259 25.3784C46.3869 23.9186 46.4836 20.7088 46.3192 19.2296C45.4781 11.9206 41.0889 5.60742 34.5436 2.29131C31.3435 0.667088 28.3561 -0.0193405 24.6243 0.00966644C23.5995 0.0193329 22.6424 0.048336 22.478 0.0676727ZM25.3977 20.2641C26.1905 20.6508 26.5096 21.6369 26.0842 22.3813C25.8135 22.8357 25.2237 23.2031 24.75 23.2031C24.2763 23.2031 23.6865 22.8357 23.4158 22.3813C22.6907 21.1245 24.0732 19.6453 25.3977 20.2641ZM34.1086 22.6907C34.5146 22.9904 34.7273 23.3481 34.7757 23.8025C34.9207 25.0304 33.5962 25.9198 32.5327 25.3107C32.117 25.069 31.7109 24.4116 31.7109 23.9766C31.7109 23.5415 32.117 22.8841 32.5327 22.6424C32.9968 22.3717 33.7122 22.391 34.1086 22.6907ZM24.2086 36.922C24.3343 37.0573 24.5083 37.125 24.75 37.125C24.9917 37.125 25.1657 37.0573 25.2914 36.922C25.4654 36.7286 25.4751 36.4482 25.5234 30.8408L25.5718 24.9627L29.3906 32.349C31.4886 36.4192 33.2191 39.7837 33.2385 39.8224C33.2771 39.9384 31.7399 40.5668 30.4734 40.9535C28.7042 41.4853 27.4473 41.6786 25.3687 41.7366C23.3095 41.7946 22.1106 41.6979 20.4187 41.3209C18.9685 41.0019 16.5902 40.1704 16.2615 39.8804C16.2422 39.861 16.4742 39.3776 16.7739 38.8169C17.2476 37.9371 17.3443 37.8018 17.4313 37.9564C17.615 38.3238 18.2338 38.8846 18.7075 39.1359C19.1329 39.368 19.2973 39.397 20.1094 39.397C20.8828 39.397 21.0955 39.3583 21.4435 39.1746C22.4393 38.6429 23.0774 37.7244 23.1741 36.6706C23.2418 35.9262 23.0291 35.6265 22.4393 35.6265C21.9269 35.6265 21.7432 35.8198 21.6466 36.4482C21.4049 37.9854 19.7226 38.4205 18.8139 37.1927C18.5141 36.7866 18.5335 35.9358 18.8429 35.4911C19.0942 35.1334 19.713 34.8144 20.1384 34.8047C20.4961 34.8047 20.8828 34.4083 20.8828 34.0506C20.8828 33.5769 20.5928 33.3158 20.0707 33.3062C19.829 33.3062 19.6356 33.2771 19.655 33.2481C19.6646 33.2191 20.6314 31.3436 21.8013 29.0716L23.9282 24.953L23.9765 30.8408C24.0249 36.4482 24.0346 36.7286 24.2086 36.922ZM18.6592 42.4714C20.7571 43.1095 21.9559 43.2642 24.75 43.2642C26.8866 43.2642 27.3797 43.2352 28.4238 43.0418C29.99 42.7614 31.4692 42.336 32.8807 41.7753L34.0216 41.3209L34.9304 43.0901L35.8391 44.8594H24.7887C18.7075 44.8594 13.7285 44.8304 13.7285 44.8014C13.7285 44.7627 14.1249 43.9699 14.6083 43.0225L15.4784 41.3112L16.5129 41.727C17.0833 41.9493 18.0501 42.2877 18.6592 42.4714ZM39.1939 46.6866C39.4066 46.8896 39.4453 47.0057 39.4453 47.4891V48.0498H24.75H10.0547V47.4891C10.0547 46.9187 10.219 46.6286 10.6348 46.4739C10.7121 46.4449 17.122 46.4256 24.866 46.4353L38.9426 46.4546L39.1939 46.6866Z" fill="white"/>
<path d="M30.0674 6.27451C29.2263 6.53555 28.4722 7.19297 28.1048 8.01475C27.7857 8.6915 27.8051 9.83232 28.1435 10.5381C28.6849 11.6789 29.6903 12.317 30.9375 12.3267C31.5756 12.3267 31.7593 12.2783 32.32 12.0076C33.3545 11.4952 34.0312 10.4704 34.0312 9.39727C34.0312 8.80752 33.7605 8.50781 33.2385 8.50781C32.8131 8.50781 32.4844 8.85586 32.4844 9.30059C32.4844 9.93867 31.9043 10.6058 31.1985 10.7701C30.2607 10.9925 29.1973 9.88066 29.439 8.92354C29.584 8.31445 30.2511 7.73438 30.7925 7.73438C31.1115 7.73438 31.5756 7.50234 31.6529 7.29932C31.8946 6.66123 31.5176 6.1875 30.7828 6.19717C30.5218 6.19717 30.2027 6.23584 30.0674 6.27451Z" fill="white"/>
<path d="M15.9231 10.219C15.314 10.4221 14.5599 11.1085 14.2409 11.7369C13.9122 12.3847 13.8348 13.3998 14.0572 14.0959C14.937 16.7449 18.6205 16.948 19.8096 14.4149C20.177 13.6318 20.1674 12.549 19.7903 11.7756C19.4906 11.1762 18.9782 10.6541 18.3498 10.3351C17.789 10.045 16.5805 9.98702 15.9231 10.219ZM17.7987 11.8239C18.1564 12.056 18.5625 12.7617 18.5625 13.1388C18.5625 13.7769 17.9147 14.5213 17.2283 14.6566C16.7836 14.7437 16.1068 14.4633 15.7878 14.0476C15.4204 13.5642 15.372 12.8294 15.6814 12.375C16.2035 11.6016 17.1123 11.3695 17.7987 11.8239Z" fill="white"/>
<path d="M36.0325 12.5685C33.4898 13.5546 33.3931 17.0931 35.8681 18.2629C36.6512 18.6206 37.7341 18.6206 38.4978 18.2436C39.0972 17.9438 39.6193 17.4314 39.9384 16.803C40.2381 16.223 40.3057 15.0918 40.0737 14.3957C39.832 13.6706 38.9232 12.7715 38.1981 12.5395C37.5214 12.3268 36.6222 12.3364 36.0325 12.5685ZM37.9081 14.1443C38.6042 14.6084 38.8459 15.3528 38.5365 16.0876C38.2658 16.7354 37.4247 17.1317 36.7479 16.9384C36.2742 16.7934 35.7038 16.1746 35.6168 15.7105C35.5491 15.3238 35.7618 14.6277 36.0422 14.3764C36.5836 13.8833 37.3763 13.7866 37.9081 14.1443Z" fill="white"/>
<path d="M9.13623 24.1022C8.21777 24.4116 7.60869 24.9434 7.2123 25.8135C6.90293 26.4709 6.87392 27.4474 7.12529 28.1725C7.34765 28.7912 8.01474 29.526 8.64316 29.845C9.31992 30.1931 10.2867 30.2511 11.0408 29.9997L11.5919 29.8063L11.6596 30.1061C11.8336 30.9182 12.491 31.7496 13.2935 32.175C13.7092 32.3974 13.8929 32.436 14.647 32.436C15.6911 32.436 16.2035 32.2427 16.8416 31.5949C17.4797 30.9568 17.7311 30.3671 17.7311 29.439C17.7407 28.1821 17.2186 27.2637 16.1552 26.6933C15.2367 26.2099 14.2699 26.1905 13.1774 26.6449C13.1001 26.6836 13.0518 26.6159 13.0518 26.4709C13.0518 25.7845 12.1816 24.663 11.3405 24.2666C10.7798 24.0056 9.6873 23.9186 9.13623 24.1022ZM10.6928 25.7265C11.8239 26.2679 11.8239 27.8631 10.7024 28.4335C9.1459 29.2263 7.72471 27.138 9.01054 25.9392C9.48428 25.4944 10.0644 25.4171 10.6928 25.7265ZM15.3334 28.0468C16.0682 28.3948 16.3872 29.1779 16.0972 29.9224C15.8555 30.5701 15.3914 30.8892 14.6856 30.8892C14.0572 30.8892 13.7382 30.7151 13.3708 30.1641C13.0131 29.642 13.1194 28.7235 13.5932 28.3078C14.1539 27.8147 14.6953 27.7277 15.3334 28.0468Z" fill="white"/>
<path d="M35.4138 28.7914C33.7992 29.3715 32.9388 30.957 33.4028 32.5329C33.8379 34.0314 35.0367 34.8822 36.5836 34.7855C37.7051 34.7082 38.6042 34.1184 39.1359 33.113C39.368 32.6876 39.397 32.5232 39.397 31.7111C39.397 30.6863 39.2519 30.2899 38.6139 29.5842C37.8694 28.7624 36.4676 28.4143 35.4138 28.7914ZM37.067 30.3866C37.6084 30.6863 37.8307 31.0344 37.8791 31.6338C37.9081 32.0592 37.8791 32.2042 37.6857 32.4846C37.299 33.0453 36.8639 33.2773 36.2839 33.2387C34.708 33.113 34.2923 31.0634 35.7038 30.3673C36.2259 30.1062 36.5932 30.1159 37.067 30.3866Z" fill="white"/>
</g>
<defs>
<clipPath id="clip0_12238_71635">
<rect width="49.5" height="49.5" fill="white"/>
</clipPath>
</defs>
</svg>
