<svg width="50" height="51" viewBox="0 0 50 51" fill="none" xmlns="http://www.w3.org/2000/svg">
<path d="M14.6875 19.3125C18.6743 19.3125 21.9062 16.0806 21.9062 12.0938C21.9062 8.10695 18.6743 4.875 14.6875 4.875C10.7007 4.875 7.46875 8.10695 7.46875 12.0938C7.46875 16.0806 10.7007 19.3125 14.6875 19.3125Z" stroke="white" stroke-width="1.6" stroke-linejoin="round"/>
<path d="M35.3125 19.3125C39.2993 19.3125 42.5312 16.0806 42.5312 12.0938C42.5312 8.10695 39.2993 4.875 35.3125 4.875C31.3257 4.875 28.0938 8.10695 28.0938 12.0938C28.0938 16.0806 31.3257 19.3125 35.3125 19.3125Z" stroke="white" stroke-width="1.6" stroke-linejoin="round"/>
<path d="M4.375 46.125C4.375 45.2083 4.375 42.1146 4.375 36.8438C4.375 31.1484 8.26305 26.5312 13.0593 26.5312C15.375 26.5312 17.1119 26.5312 18.2698 26.5312C22.4824 26.5312 25.0001 30.684 25.0001 30.684" stroke="white" stroke-width="1.6" stroke-linecap="round" stroke-linejoin="round"/>
<path d="M45.6248 46.125C45.6248 45.2083 45.6248 42.1146 45.6248 36.8438C45.6248 31.1484 41.6905 26.5312 36.8372 26.5312C34.4939 26.5312 32.7365 26.5312 31.5648 26.5312C27.4798 26.5312 24.9918 30.684 24.9997 30.684" stroke="white" stroke-width="1.6" stroke-linecap="round" stroke-linejoin="round"/>
<path d="M11.5938 42H39.4375" stroke="white" stroke-width="1.6" stroke-linecap="round" stroke-linejoin="round"/>
<path d="M35.6171 38.1416L36.8955 39.4278L39.452 42L36.8955 44.6416L35.6171 45.9624" stroke="white" stroke-width="1.6" stroke-linecap="round" stroke-linejoin="round"/>
<path d="M15.0273 38.1143L13.7288 39.407L11.1317 41.9925L13.7288 44.6208L15.0273 45.9351" stroke="white" stroke-width="1.6" stroke-linecap="round" stroke-linejoin="round"/>
</svg>
