<svg width="50" height="51" viewBox="0 0 50 51" fill="none" xmlns="http://www.w3.org/2000/svg">
<path d="M35.3125 13.125V21.375V22.4062C32.2651 22.4062 29.5264 23.7281 27.6385 25.8298C25.998 27.6559 25 30.0708 25 32.7188C25 33.3157 25.0507 33.9009 25.1481 34.4701C25.6785 37.5704 27.5929 40.1983 30.2327 41.6954C27.487 42.5255 23.8425 43.0312 19.8438 43.0312C11.3006 43.0312 4.375 40.7227 4.375 37.875V29.625V21.375V13.125" stroke="white" stroke-width="1.6" stroke-linecap="round" stroke-linejoin="round"/>
<path d="M35.3125 13.125C35.3125 15.9727 28.3869 18.2812 19.8438 18.2812C11.3006 18.2812 4.375 15.9727 4.375 13.125C4.375 10.2773 11.3006 7.96875 19.8438 7.96875C28.3869 7.96875 35.3125 10.2773 35.3125 13.125Z" stroke="white" stroke-width="1.6" stroke-linecap="round" stroke-linejoin="round"/>
<path d="M4.375 29.625C4.375 32.4727 11.3006 34.7812 19.8438 34.7812C21.7072 34.7812 23.4937 34.6714 25.1481 34.4701" stroke="white" stroke-width="1.6" stroke-linecap="round" stroke-linejoin="round"/>
<path d="M4.375 21.375C4.375 24.2227 11.3006 26.5312 19.8438 26.5312C22.6862 26.5312 25.3496 26.2757 27.6385 25.8298" stroke="white" stroke-width="1.6" stroke-linecap="round" stroke-linejoin="round"/>
<path d="M45.625 32.7188C45.625 38.4141 41.0079 43.0312 35.3125 43.0312C33.4656 43.0312 31.7321 42.5457 30.2327 41.6954C27.5929 40.1983 25.6785 37.5704 25.1481 34.4701C25.0507 33.9009 25 33.3157 25 32.7188C25 30.0708 25.998 27.6559 27.6385 25.8298C29.5264 23.7281 32.2651 22.4062 35.3125 22.4062C41.0079 22.4062 45.625 27.0234 45.625 32.7188Z" stroke="white" stroke-width="1.6" stroke-linecap="round" stroke-linejoin="round"/>
</svg>
