<svg width="50" height="50" viewBox="0 0 50 50" fill="none" xmlns="http://www.w3.org/2000/svg">
<path d="M46.7916 12.5C45.1874 13.2292 43.4583 13.7083 41.6666 13.9375C43.4999 12.8333 44.9166 11.0833 45.5833 8.97917C43.8541 10.0208 41.9374 10.75 39.9166 11.1667C38.2708 9.375 35.9583 8.33333 33.3333 8.33333C28.4374 8.33333 24.4374 12.3333 24.4374 17.2708C24.4374 17.9792 24.5208 18.6667 24.6666 19.3125C17.2499 18.9375 10.6458 15.375 6.24992 9.97917C5.47909 11.2917 5.04159 12.8333 5.04159 14.4583C5.04159 17.5625 6.60409 20.3125 9.02075 21.875C7.54159 21.875 6.16659 21.4583 4.95825 20.8333V20.8958C4.95825 25.2292 8.04159 28.8542 12.1249 29.6667C10.8139 30.0254 9.43762 30.0754 8.10409 29.8125C8.66993 31.5885 9.77812 33.1425 11.2729 34.2561C12.7676 35.3697 14.5738 35.9869 16.4374 36.0208C13.2783 38.5217 9.36241 39.8736 5.33325 39.8542C4.62492 39.8542 3.91659 39.8125 3.20825 39.7292C7.16659 42.2708 11.8749 43.75 16.9166 43.75C33.3333 43.75 42.3541 30.125 42.3541 18.3125C42.3541 17.9167 42.3541 17.5417 42.3333 17.1458C44.0833 15.8958 45.5833 14.3125 46.7916 12.5Z" fill="white"/>
</svg>
