<svg width="28" height="36" viewBox="0 0 28 36" fill="none" xmlns="http://www.w3.org/2000/svg">
<g clip-path="url(#clip0_11182_72131)">
<path d="M53.165 0V14.292H53.0868C51.5126 12.2112 49.5458 11.4881 47.2637 11.4881C42.5891 11.4881 39.0678 15.1426 37.8317 19.9743C36.4221 14.6505 32.7868 11.3883 27.3962 11.3883C23.0185 11.3883 19.5616 13.6481 17.7576 17.3304V12.7538H8.70882V7.78474H18.5835V0H0.642578V34.9231H8.70882V20.2428H16.7487C16.509 21.3213 16.3811 22.4758 16.3811 23.6942C16.3811 30.979 21.2203 36.0905 27.3962 36.0905C32.5896 36.0905 36.012 33.2866 37.8223 28.1746H30.9099C29.9748 29.7103 29.2655 30.1665 27.3962 30.1665C25.2286 30.1665 23.3597 27.9915 23.3597 25.4134H37.435C38.0455 31.1997 41.9648 36.1898 47.3433 36.1898C49.6634 36.1898 51.7876 34.8773 53.0868 32.6613H53.165V34.9221H60.2756V0H53.165ZM23.5842 20.3472C24.0327 18.1291 25.5286 16.6793 27.3962 16.6793C29.452 16.6793 30.8718 18.0843 31.2453 20.3472C31.4027 20.3472 23.5842 20.3472 23.5842 20.3472ZM48.8499 29.6054C46.2289 29.6054 44.6001 26.7969 44.6001 23.8644C44.6001 20.7298 46.0169 17.7156 48.8499 17.7156C51.7876 17.7156 52.958 20.7298 52.958 23.8644C52.9575 26.837 51.7174 29.6054 48.8499 29.6054Z" fill="white"/>
</g>
<defs>
<clipPath id="clip0_11182_72131">
<rect width="102.857" height="36" fill="white" transform="translate(0.642578)"/>
</clipPath>
</defs>
</svg>
