<svg width="90" height="29" viewBox="0 0 90 29" fill="none" xmlns="http://www.w3.org/2000/svg">
<g clip-path="url(#clip0_13487_13573)">
<path d="M25.7995 20.3071C25.6583 19.9659 25.5259 19.6071 25.3848 19.3009L24.7318 17.8396L24.7054 17.8134C22.7642 13.6134 20.6907 9.34336 18.4936 5.14336L18.4054 4.96836C18.1848 4.55711 17.9642 4.10211 17.7348 3.68211C17.4524 3.18336 17.1789 2.64961 16.7289 2.14211C16.2902 1.6111 15.7382 1.18327 15.1126 0.889508C14.487 0.595741 13.8034 0.443359 13.1112 0.443359C12.419 0.443359 11.7355 0.595741 11.1099 0.889508C10.4843 1.18327 9.93223 1.6111 9.49359 2.14211C9.07889 2.64961 8.77006 3.18336 8.48771 3.68211C8.26712 4.13711 8.04653 4.58336 7.81712 4.99461L7.72889 5.16961C5.56712 9.36961 3.4583 13.6396 1.51712 17.8396L1.46418 17.8921C1.27006 18.3471 1.04065 18.8196 0.820064 19.3271C0.678887 19.6334 0.537711 19.9659 0.396534 20.3334C0.0153867 21.2957 -0.106326 22.3399 0.0433922 23.363C0.19311 24.3862 0.609091 25.353 1.25034 26.1682C1.89159 26.9834 2.73597 27.6188 3.70026 28.0119C4.66456 28.4049 5.71549 28.542 6.74948 28.4096C7.74077 28.2802 8.69531 27.9528 9.55536 27.4471C10.7024 26.8084 11.8054 25.8809 13.0407 24.5421C14.2759 25.8809 15.4054 26.8084 16.5259 27.4559C17.6036 28.0831 18.8239 28.4293 20.073 28.4621C21.5195 28.4681 22.9193 27.9549 24.014 27.0172C25.1087 26.0796 25.8244 24.7809 26.0289 23.3609C26.2652 22.3404 26.1853 21.273 25.7995 20.2984V20.3071ZM13.1289 21.7596C11.6112 19.8346 10.623 18.0671 10.2877 16.5534C10.1488 15.9924 10.1189 15.4104 10.1995 14.8384C10.2612 14.3921 10.4289 13.9984 10.6583 13.6659C11.1877 12.9046 12.1142 12.4321 13.1289 12.4321C13.6108 12.4175 14.0888 12.5218 14.52 12.7356C14.9512 12.9494 15.3221 13.2661 15.5995 13.6571C15.8289 14.0071 15.9965 14.3921 16.0495 14.8384C16.1377 15.3459 16.1024 15.9321 15.9612 16.5534C15.6259 18.0409 14.6377 19.8259 13.1289 21.7596ZM24.3701 23.0546C24.2698 23.7756 23.9808 24.4579 23.5319 25.0336C23.0829 25.6093 22.4897 26.0583 21.8112 26.3359C21.1407 26.6159 20.3995 26.6946 19.6759 26.6159C18.9701 26.5284 18.2642 26.3009 17.5407 25.8809C16.3393 25.1445 15.2591 24.2297 14.3377 23.1684C16.1907 20.8934 17.3112 18.8196 17.7348 16.9734C17.9377 16.0984 17.9642 15.3109 17.8759 14.5846C17.7658 13.8962 17.5069 13.2396 17.1171 12.6596C16.6721 12.0307 16.078 11.5199 15.3872 11.172C14.6964 10.8241 13.93 10.6499 13.1554 10.6646C11.523 10.6646 10.0671 11.4171 9.18477 12.6509C8.78757 13.2294 8.53086 13.8912 8.43477 14.5846C8.32006 15.3196 8.34653 16.1334 8.57595 16.9734C8.99948 18.8196 10.1465 20.9196 11.973 23.1859C11.0673 24.2675 9.9845 25.1904 8.77006 25.9159C8.03771 26.3359 7.34065 26.5546 6.63477 26.6421C5.53702 26.7816 4.42814 26.4857 3.54915 25.8188C2.67016 25.152 2.09211 24.168 1.94065 23.0809C1.85242 22.3809 1.91418 21.6809 2.19653 20.8934C2.28477 20.6134 2.41712 20.3334 2.5583 20.0009C2.75242 19.5459 2.98183 19.0734 3.20242 18.6009L3.23771 18.5396C5.14359 14.3659 7.22595 10.1046 9.38771 5.93086L9.47595 5.75586C9.69653 5.33586 9.91712 4.88961 10.1465 4.46961C10.3759 4.02336 10.623 3.59461 10.9407 3.24461C11.2156 2.91913 11.5592 2.65737 11.9471 2.47777C12.3351 2.29818 12.7581 2.2051 13.1862 2.2051C13.6144 2.2051 14.0374 2.29818 14.4253 2.47777C14.8133 2.65737 15.1569 2.91913 15.4318 3.24461C15.7407 3.59461 15.9965 4.02336 16.2259 4.46961C16.4465 4.88961 16.6671 5.34461 16.8965 5.75586L16.9848 5.93086C19.1377 10.1046 21.2201 14.3659 23.1612 18.5396L23.1877 18.5659C23.4171 19.0209 23.6112 19.5284 23.8318 19.9659C23.973 20.3071 24.1142 20.5784 24.2024 20.8671C24.3701 21.6546 24.4583 22.3546 24.3701 23.0546ZM36.6524 21.5671C35.9875 21.5768 35.329 21.4378 34.7256 21.1606C34.1223 20.8834 33.5896 20.4751 33.1671 19.9659C32.2178 18.8808 31.7139 17.4818 31.7554 16.0459C31.7408 14.5787 32.2609 13.1556 33.2201 12.0384C33.6637 11.5227 34.216 11.1097 34.838 10.8285C35.4599 10.5473 36.1365 10.4047 36.8201 10.4109C37.4632 10.3934 38.1003 10.5384 38.6714 10.8323C39.2425 11.1262 39.7289 11.5593 40.0848 12.0909L40.173 10.7171H42.7495V21.2871H40.1642L40.0759 19.7471C39.709 20.3147 39.2019 20.7798 38.6027 21.0984C38.0035 21.4169 37.3322 21.5783 36.6524 21.5671ZM37.323 19.0471C37.8348 19.0471 38.2848 18.9071 38.7083 18.6534C39.0965 18.3734 39.4142 18.0059 39.6612 17.5596C39.8818 17.1134 39.9965 16.5796 39.9965 15.9846C40.0309 15.4678 39.9295 14.951 39.7021 14.4848C39.4748 14.0185 39.1293 13.6188 38.6995 13.3246C38.2865 13.0694 37.8096 12.9342 37.323 12.9342C36.8364 12.9342 36.3595 13.0694 35.9465 13.3246C35.5583 13.6046 35.2407 13.9721 34.9936 14.4184C34.7603 14.9105 34.6455 15.4497 34.6583 15.9934C34.6239 16.5101 34.7253 17.0269 34.9527 17.4932C35.18 17.9594 35.5255 18.3592 35.9554 18.6534C36.3701 18.9071 36.8201 19.0471 37.323 19.0471ZM47.1612 7.86461C47.1612 8.17086 47.1083 8.45086 46.9671 8.67836C46.8259 8.89711 46.6318 9.09836 46.3759 9.23836C46.1201 9.37836 45.8465 9.43086 45.5642 9.43086C45.2818 9.43086 44.9995 9.37836 44.7436 9.23836C44.5016 9.10476 44.2981 8.91198 44.1524 8.67836C44.0158 8.4291 43.9487 8.14816 43.9583 7.86461C43.9583 7.54961 44.0201 7.26961 44.1524 7.05086C44.2936 6.78836 44.4965 6.63086 44.7436 6.49086C44.9995 6.35086 45.273 6.28961 45.5642 6.28961C45.845 6.28319 46.1228 6.34916 46.3702 6.48106C46.6177 6.61295 46.8264 6.80627 46.9759 7.04211C47.1044 7.29721 47.168 7.57957 47.1612 7.86461ZM44.1612 21.2521V10.6996H46.9671V21.2696H44.1524L44.1612 21.2521ZM54.4671 13.4646V13.4996C54.3348 13.4384 54.1583 13.4121 54.0259 13.3859C53.8495 13.3509 53.7083 13.3509 53.5406 13.3509C52.7554 13.3509 52.1642 13.5784 51.7759 14.0509C51.3524 14.5321 51.1583 15.2059 51.1583 16.0721V21.2609H48.3436V10.6909H50.9289L51.0171 12.2921C51.2995 11.7321 51.6348 11.3121 52.1112 10.9971C52.5852 10.691 53.1431 10.5382 53.7083 10.5596C53.9112 10.5596 54.1054 10.5771 54.273 10.6121C54.3612 10.6384 54.4142 10.6384 54.4671 10.6646V13.4646ZM55.5965 21.2521V6.35961H58.4024V12.0471C58.7995 11.5396 59.2495 11.1459 59.8142 10.8396C60.7082 10.4049 61.7238 10.2816 62.6971 10.4896C63.6704 10.6976 64.5447 11.2247 65.1789 11.9859C66.1303 13.0731 66.6343 14.4757 66.5907 15.9146C66.6052 17.3818 66.0851 18.8049 65.1259 19.9221C64.6823 20.4378 64.13 20.8508 63.5081 21.132C62.8861 21.4132 62.2095 21.5557 61.5259 21.5496C60.8828 21.5671 60.2457 21.422 59.6746 21.1281C59.1035 20.8343 58.6171 20.4012 58.2612 19.8696L58.173 21.2434L55.5965 21.2696V21.2521ZM61.023 19.0471C61.5259 19.0471 61.9759 18.9071 62.3995 18.6534C62.7877 18.3734 63.1054 18.0059 63.3524 17.5596C63.5818 17.1134 63.6877 16.5796 63.6877 15.9846C63.6877 15.3984 63.5818 14.8646 63.3524 14.4184C63.1207 13.9881 62.7952 13.6144 62.3995 13.3246C61.9865 13.0694 61.5096 12.9342 61.023 12.9342C60.5364 12.9342 60.0595 13.0694 59.6465 13.3246C59.2495 13.6046 58.9407 13.9721 58.6848 14.4184C58.4514 14.9105 58.3366 15.4497 58.3495 15.9934C58.3151 16.5101 58.4165 17.0269 58.6439 17.4932C58.8712 17.9594 59.2167 18.3592 59.6465 18.6534C60.0612 18.9071 60.5112 19.0471 61.023 19.0471ZM67.6495 21.2609V10.6909H70.2348L70.323 12.0646C70.6479 11.538 71.1087 11.1071 71.6579 10.8163C72.207 10.5256 72.8245 10.3856 73.4465 10.4109C74.1578 10.3987 74.8569 10.5947 75.4564 10.9745C76.0559 11.3542 76.5292 11.9008 76.8171 12.5459C77.1259 13.2109 77.2936 14.0334 77.2936 14.9521V21.2871H74.4789V15.3196C74.4789 14.5846 74.3112 14.0071 73.9759 13.5784C73.6406 13.1584 73.1818 12.9309 72.5995 12.9309C72.1759 12.9309 71.8054 13.0184 71.4789 13.2109C71.1701 13.4121 70.9142 13.6659 70.7201 14.0246C70.5238 14.3872 70.4265 14.7944 70.4377 15.2059V21.2609H67.6495ZM78.6965 21.2609V6.35086H81.5112V12.0384C81.8925 11.528 82.3884 11.1129 82.9597 10.8258C83.5311 10.5387 84.162 10.3877 84.8024 10.3846C85.4673 10.375 86.1258 10.5139 86.7292 10.7911C87.3326 11.0683 87.8652 11.4766 88.2877 11.9859C89.2324 13.0731 89.7328 14.4713 89.6907 15.9059C89.706 17.3732 89.1858 18.7965 88.2259 19.9134C87.7823 20.4291 87.23 20.8421 86.608 21.1232C85.9861 21.4044 85.3095 21.547 84.6259 21.5409C83.9828 21.5583 83.3457 21.4133 82.7746 21.1194C82.2035 20.8255 81.7171 20.3924 81.3612 19.8609L81.2818 21.2346L78.6965 21.2609ZM84.1495 19.0471C84.6612 19.0471 85.1112 18.9071 85.5259 18.6534C85.923 18.3734 86.2318 18.0059 86.4877 17.5596C86.7083 17.1134 86.823 16.5796 86.823 15.9846C86.8574 15.4678 86.756 14.951 86.5286 14.4848C86.3013 14.0185 85.9558 13.6188 85.5259 13.3246C85.1129 13.0694 84.6361 12.9342 84.1495 12.9342C83.6629 12.9342 83.186 13.0694 82.773 13.3246C82.3848 13.6046 82.0671 13.9721 81.8201 14.4184C81.5738 14.9061 81.4583 15.4485 81.4848 15.9934C81.4504 16.5101 81.5518 17.0269 81.7792 17.4932C82.0065 17.9594 82.352 18.3592 82.7818 18.6534C83.1965 18.9071 83.6201 19.0471 84.1495 19.0471Z" fill="white"/>
</g>
<defs>
<clipPath id="clip0_13487_13573">
<rect width="90" height="28" fill="white" transform="translate(0 0.462891)"/>
</clipPath>
</defs>
</svg>
