<svg width="84" height="29" viewBox="0 0 84 29" fill="none" xmlns="http://www.w3.org/2000/svg">
<g clip-path="url(#clip0_13487_13586)">
<path d="M35.7461 14.8222C35.7461 18.7087 32.6609 21.5726 28.8747 21.5726C25.0886 21.5726 22.0034 18.7087 22.0034 14.8222C22.0034 10.9083 25.0886 8.07178 28.8747 8.07178C32.6609 8.07178 35.7461 10.9083 35.7461 14.8222ZM32.7381 14.8222C32.7381 12.3935 30.95 10.7318 28.8747 10.7318C26.7994 10.7318 25.0114 12.3935 25.0114 14.8222C25.0114 17.2266 26.7994 18.9126 28.8747 18.9126C30.95 18.9126 32.7381 17.2235 32.7381 14.8222Z" fill="white"/>
<path d="M50.5698 14.8222C50.5698 18.7087 47.4846 21.5726 43.6985 21.5726C39.9123 21.5726 36.8271 18.7087 36.8271 14.8222C36.8271 10.9113 39.9123 8.07178 43.6985 8.07178C47.4846 8.07178 50.5698 10.9083 50.5698 14.8222ZM47.5619 14.8222C47.5619 12.3935 45.7738 10.7318 43.6985 10.7318C41.6232 10.7318 39.8351 12.3935 39.8351 14.8222C39.8351 17.2266 41.6232 18.9126 43.6985 18.9126C45.7738 18.9126 47.5619 17.2235 47.5619 14.8222Z" fill="white"/>
<path d="M64.7757 8.4796V20.5987C64.7757 25.584 61.7925 27.62 58.2657 27.62C54.9459 27.62 52.9478 25.4318 52.1942 23.6422L54.8131 22.5679C55.2794 23.6666 56.422 24.9631 58.2626 24.9631C60.5201 24.9631 61.9191 23.5905 61.9191 21.0066V20.0357H61.8141C61.1409 20.8544 59.8438 21.5696 58.207 21.5696C54.7822 21.5696 51.6445 18.6296 51.6445 14.8466C51.6445 11.0361 54.7822 8.07178 58.207 8.07178C59.8407 8.07178 61.1378 8.78699 61.8141 9.58134H61.9191V8.48265H64.7757V8.4796ZM62.1322 14.8466C62.1322 12.4696 60.5232 10.7318 58.4757 10.7318C56.4004 10.7318 54.6617 12.4696 54.6617 14.8466C54.6617 17.1992 56.4004 18.9126 58.4757 18.9126C60.5232 18.9126 62.1322 17.1992 62.1322 14.8466Z" fill="white"/>
<path d="M69.4851 1.37598V21.1586H66.5513V1.37598H69.4851Z" fill="white"/>
<path d="M80.9181 17.0436L83.2528 18.5775C82.4993 19.6762 80.6834 21.5692 77.5457 21.5692C73.6546 21.5692 70.7485 18.6049 70.7485 14.8188C70.7485 10.8044 73.6793 8.06836 77.2091 8.06836C80.7637 8.06836 82.5024 10.8562 83.0706 12.3627L83.3825 13.1297L74.2259 16.8671C74.9269 18.2214 76.0171 18.9123 77.5457 18.9123C79.0775 18.9123 80.1399 18.1697 80.9181 17.0436ZM73.7318 14.6149L79.8527 12.1101C79.516 11.2671 78.5031 10.6797 77.311 10.6797C75.7824 10.6797 73.6546 12.0097 73.7318 14.6149Z" fill="white"/>
<path d="M10.8985 13.066V10.202H20.6913C20.7871 10.7012 20.8365 11.2916 20.8365 11.9307C20.8365 14.0794 20.2404 16.7364 18.3196 18.6294C16.4512 20.5468 14.064 21.5694 10.9016 21.5694C5.04015 21.5694 0.111328 16.8642 0.111328 11.0877C0.111328 5.31117 5.04015 0.605957 10.9016 0.605957C14.1443 0.605957 16.4543 1.85987 18.1899 3.49422L16.1393 5.51509C14.8947 4.36465 13.2085 3.46987 10.8985 3.46987C6.61824 3.46987 3.27059 6.86943 3.27059 11.0877C3.27059 15.306 6.61824 18.7055 10.8985 18.7055C13.6749 18.7055 15.256 17.6068 16.269 16.6086C17.0904 15.799 17.6309 14.6425 17.844 13.0629L10.8985 13.066Z" fill="white"/>
</g>
<defs>
<clipPath id="clip0_13487_13586">
<rect width="84" height="28" fill="white" transform="translate(0 0.462891)"/>
</clipPath>
</defs>
</svg>
