<svg width="168" height="40" viewBox="0 0 168 40" fill="none" xmlns="http://www.w3.org/2000/svg">
<path d="M11.6754 1.85469C8.41299 2.85851 5.63854 3.76473 5.51306 3.87627C5.22028 4.11328 5.20634 4.7825 5.49912 5.06134C5.61065 5.18681 5.90343 5.28441 6.1265 5.28441C6.36352 5.28441 9.11008 4.50366 12.247 3.54166C15.384 2.57967 18.0887 1.79892 18.2421 1.79892C18.4094 1.79892 21.2117 2.60755 24.4741 3.61137C27.7365 4.60125 30.5528 5.42383 30.7201 5.42383C31.4033 5.42383 31.7379 4.44789 31.222 3.97386C30.8595 3.6532 18.7997 -0.013536 18.1445 0.000405788C17.8517 0.014348 14.9378 0.836924 11.6754 1.85469Z" fill="white"/>
<path d="M0.717049 5.25663C0.187255 5.59124 -0.0776425 8.05896 0.0199512 11.9069C0.145429 17.3025 1.02377 21.0529 3.25449 25.5701C4.88569 28.9022 6.55873 31.2166 9.19376 33.8237C9.98845 34.6045 11.0899 35.5943 11.6197 36.0265C13.8783 37.8251 17.5032 40 18.256 40C18.5209 40 19.1901 39.7212 19.9709 39.289C30.0788 33.6006 35.7393 24.622 36.5061 12.9944C36.6455 10.8613 36.5339 7.98925 36.2272 6.39987C36.1436 5.99556 36.0878 5.647 36.0878 5.61912C36.0878 5.60518 35.9902 5.4797 35.8647 5.36816C35.5441 5.03356 34.9027 5.08932 34.596 5.4797C34.4566 5.66095 32.8672 8.88154 31.0687 12.6459L27.7923 19.5053L18.4512 19.4635L9.12405 19.4356L5.51308 12.3949C3.53333 8.51905 1.83241 5.3124 1.74875 5.25663C1.53962 5.11721 0.926179 5.11721 0.717049 5.25663ZM8.88704 22.8793C12.8047 30.5334 16.0114 36.8212 16.0114 36.8631C16.0114 37.0164 13.4739 35.2318 12.2889 34.228C6.67027 29.5435 3.17083 23.2418 1.99971 15.741C1.79058 14.3607 1.52568 8.75606 1.69299 8.90942C1.73481 8.95125 4.96935 15.2391 8.88704 22.8793ZM34.7912 11.7257C34.61 17.5534 33.2158 22.5028 30.4692 27.0061C28.3082 30.5613 25.1434 33.8098 21.5324 36.2217L20.4449 36.9607L21.0723 35.8035C25.464 27.7032 30.1067 18.7943 32.1841 14.4444C33.6061 11.4747 34.7912 9.04884 34.8191 9.04884C34.847 9.04884 34.833 10.2618 34.7912 11.7257ZM26.2169 22.4052C21.2675 31.7045 18.2979 37.1837 18.2142 37.1001C18.1724 37.0443 16.9873 34.7718 15.5931 32.0531C14.1989 29.3344 12.3725 25.7653 11.5221 24.134L10.0024 21.1784H18.4373H26.8722L26.2169 22.4052Z" fill="white"/>
<path d="M47.9652 12.7715C47.3517 13.0643 46.8638 13.6777 46.6825 14.3609C46.5849 14.7234 46.5431 16.7868 46.571 20.3141C46.6128 26.337 46.5989 26.2255 47.6166 26.9923L48.1185 27.3827L54.7967 27.4245L61.461 27.4663V26.5461V25.6399H55.1313H48.7878L48.5786 25.3332C48.3834 25.0683 48.3556 24.3154 48.3556 19.9934C48.3556 15.6714 48.3834 14.9185 48.5786 14.6536L48.7878 14.3469H55.1313H61.461V13.4407V12.5345H54.9501C49.2339 12.5345 48.3695 12.5624 47.9652 12.7715Z" fill="white"/>
<path d="M70.9441 19.9932V27.4521H77.7757H84.6072V26.5459V25.6397H78.6819H72.7565V23.2696V20.8994H77.4968H82.2371V19.9932V19.087H77.4968H72.7565V16.7168V14.3467H78.6819H84.6072V13.4405V12.5343H77.7757H70.9441V19.9932Z" fill="white"/>
<path d="M94.0859 19.9932V27.4521H94.9922H95.8984V24.6916V21.9451L98.9238 21.9869C101.238 22.0287 102.019 22.0845 102.172 22.2239C102.284 22.3354 103.329 23.5484 104.473 24.9287L106.564 27.4382L107.805 27.4521C108.948 27.4521 109.018 27.4382 108.85 27.2151C108.739 27.0897 107.721 25.8767 106.592 24.5383L104.528 22.0845L105.895 22.0008C107.456 21.9032 107.972 21.6941 108.544 20.9413L108.934 20.4393L108.976 17.4976C109.004 15.8943 108.99 14.4304 108.934 14.2491C108.823 13.789 108.028 12.9386 107.512 12.7294C107.15 12.5761 105.714 12.5343 100.569 12.5343H94.0859V19.9932ZM106.94 14.5837C107.163 14.7789 107.191 15.0577 107.191 17.2745C107.191 18.9894 107.136 19.7841 107.024 19.8956C106.899 20.0211 105.49 20.0629 101.517 20.0629C96.3864 20.0629 96.1772 20.049 96.0378 19.798C95.9542 19.6447 95.8984 18.5293 95.8984 17.1909C95.8984 15.2111 95.9402 14.8207 96.1354 14.5977C96.3445 14.3606 96.6931 14.3467 101.517 14.3467C106.132 14.3467 106.703 14.3746 106.94 14.5837Z" fill="white"/>
<path d="M117.786 13.4405V14.3467H121.063H124.339V20.8994V27.4521H125.245H126.152V20.8994V14.3467H129.428H132.704V13.4405V12.5343H125.245H117.786V13.4405Z" fill="white"/>
<path d="M141.488 19.9932V27.4521H142.395H143.301V19.9932V12.5343H142.395H141.488V19.9932Z" fill="white"/>
<path d="M153.48 19.9932V27.4521H154.387H155.293V24.1758V20.8994H157.635H159.963L162.682 24.1758L165.401 27.4382H166.558C167.185 27.4521 167.701 27.4103 167.701 27.3406C167.701 27.2848 166.335 25.6118 164.662 23.6181L161.623 19.9932L164.662 16.3543C166.335 14.3467 167.701 12.6597 167.701 12.6179C167.701 12.5761 167.185 12.5343 166.558 12.5482H165.401L162.682 15.8106L159.963 19.087H157.635H155.293V15.8106V12.5343H154.387H153.48V19.9932Z" fill="white"/>
</svg>
